<svg id="Layer_1" data-name="Layer 1" xmlns="http://www.w3.org/2000/svg" viewBox="0 0 197.3 294.99"><defs><style>.cls-1{fill:#fff;}.cls-2{fill:#2b2e31;}.cls-3{fill:#d9dad9;}.cls-4{opacity:0.3;}.cls-5{fill:#660a0c;}.cls-6{opacity:0.4;}.cls-7{fill:#cf6058;}.cls-8{opacity:0.2;}.cls-9{fill:#16191c;}.cls-10{opacity:0.5;}</style></defs><title>panda6</title><path class="cls-2" d="M286.68,267.54s-1.32-7-11.13-7.05-13.78,7.47-7.82,14.15,11.34-4.49,16.16-3.47" transform="translate(-207.35 -248.51)"/><path d="M286.68,267.54a4.52,4.52,0,0,0-.2-.58,8,8,0,0,0-.79-1.51,9.63,9.63,0,0,0-.74-1,10.63,10.63,0,0,0-1-1,8.8,8.8,0,0,0-1.32-.92,8,8,0,0,0-.77-.41c-.27-.12-.54-.25-.84-.36s-.59-.2-.9-.3-.63-.17-1-.23a14.6,14.6,0,0,0-2.06-.29c-.35,0-.71,0-1.08,0h-.55l-.57,0a16.1,16.1,0,0,0-2.26.25,10.88,10.88,0,0,0-4.33,1.75,7,7,0,0,0-1.67,1.64,6.19,6.19,0,0,0-1,2.11,6.36,6.36,0,0,0-.15,2.34,7.82,7.82,0,0,0,.64,2.28,10.82,10.82,0,0,0,1.19,2.06c.23.32.47.63.73.93.12.13.27.3.4.42a4.93,4.93,0,0,0,.4.39,5.17,5.17,0,0,0,1.85,1.09,4,4,0,0,0,2,.1,7.43,7.43,0,0,0,1.9-.68,18.12,18.12,0,0,0,1.68-1c1.05-.7,2-1.4,2.87-2a12.45,12.45,0,0,1,2.39-1.29,4.25,4.25,0,0,1,1.71-.29,1.85,1.85,0,0,1,.27,0l.19,0,.15,0-.15,0h-.46a4.26,4.26,0,0,0-1.64.42A12.18,12.18,0,0,0,279.4,273c-.83.62-1.72,1.38-2.76,2.14a17,17,0,0,1-1.69,1.11,7.8,7.8,0,0,1-2.07.83,4.85,4.85,0,0,1-2.42,0,5.73,5.73,0,0,1-2.2-1.21,11.64,11.64,0,0,1-1.72-1.86,11.49,11.49,0,0,1-1.34-2.22,8.87,8.87,0,0,1-.73-2.56,7.14,7.14,0,0,1,1.31-5.19,8.34,8.34,0,0,1,1.93-1.87,9.84,9.84,0,0,1,2.32-1.2,12.51,12.51,0,0,1,2.44-.63,16.44,16.44,0,0,1,2.4-.21h.58c.21,0,.39,0,.59,0,.38,0,.76.05,1.13.08a13.89,13.89,0,0,1,4.08,1.05,9.89,9.89,0,0,1,3,1.95,10.85,10.85,0,0,1,1,1.11,9.57,9.57,0,0,1,.67,1.06,8,8,0,0,1,.67,1.6A5.18,5.18,0,0,1,286.68,267.54Z" transform="translate(-207.35 -248.51)"/><path class="cls-3" d="M286.1,268.28s-11-8-15.28-.34c-2.28,4.12,2.11,8.42,5.76,5.31,4-3.42,7.3-2.09,7.3-2.09Z" transform="translate(-207.35 -248.51)"/><path d="M286.1,268.28c-.65-.42-1.31-.79-2-1.15s-1.36-.68-2.07-1a20.14,20.14,0,0,0-2.14-.76,12.82,12.82,0,0,0-2.2-.45,8.24,8.24,0,0,0-2.22,0,5.85,5.85,0,0,0-2.05.69,5.68,5.68,0,0,0-1.62,1.43c-.11.14-.23.28-.33.43l-.29.47-.06.11-.06.13-.13.25a4.84,4.84,0,0,0-.18.49,3.75,3.75,0,0,0-.2,1,3.91,3.91,0,0,0,1,2.9,3.32,3.32,0,0,0,1.79,1,3.25,3.25,0,0,0,2-.26,4.79,4.79,0,0,0,.91-.57l.92-.7a11.34,11.34,0,0,1,2.08-1.13,8.26,8.26,0,0,1,2.3-.52c.19,0,.39,0,.59,0a5.67,5.67,0,0,1,.58,0,4.26,4.26,0,0,1,1.16.27l-.15,0,1.15-1.41Zm0,0-1.05,1.48L284,271.24l-.06.07-.1,0a4.37,4.37,0,0,0-1.09-.19h-.55c-.19,0-.38,0-.56.05a7.25,7.25,0,0,0-2.14.59,10.48,10.48,0,0,0-1.92,1.12c-.3.22-.6.48-.89.71a5.45,5.45,0,0,1-1,.67,4.05,4.05,0,0,1-1.18.37,3.5,3.5,0,0,1-1.25,0,3.94,3.94,0,0,1-2.16-1.19,4.45,4.45,0,0,1-1.13-2.18,4.63,4.63,0,0,1-.08-1.23,4.48,4.48,0,0,1,.24-1.21,4.71,4.71,0,0,1,.22-.59l.13-.25.07-.13v0h0v0l0,0,0-.06.32-.51c.11-.17.24-.32.36-.48a6,6,0,0,1,4.12-2.28,9.31,9.31,0,0,1,2.36.05A12.35,12.35,0,0,1,280,265a18.15,18.15,0,0,1,2.14.88,20.91,20.91,0,0,1,2,1.11A22,22,0,0,1,286.1,268.28Z" transform="translate(-207.35 -248.51)"/><g class="cls-4"><path class="cls-1" d="M285.54,266.21c-.06.24-2.41-2.54-6.56-3.59s-8.52,0-8.46-.2,3.82-2.06,8.84-.79C283.51,262.67,285.6,266,285.54,266.21Z" transform="translate(-207.35 -248.51)"/></g><path class="cls-2" d="M290.53,287.84s-22.3-6.58-40.88,32.88-37.46,50.61-7.15,112.65C281.67,408.21,290.53,287.84,290.53,287.84Z" transform="translate(-207.35 -248.51)"/><path d="M242.29,434.14l-.26-.54c-11.92-24.39-16.83-42-15.91-57,.85-14,6.61-24.72,13.89-38.28,3-5.53,6-11.25,9.16-17.88,6.11-13,13.27-22.37,21.28-27.95,6.7-4.66,12.57-5.64,16.31-5.64a15,15,0,0,1,3.92.43l.41.12,0,.43a529.65,529.65,0,0,1-9.34,63.4c-4.13,19.33-9.08,35.8-14.7,49C260,416.72,251.81,428,242.79,433.82ZM286.76,288c-3.59,0-9.23.94-15.7,5.45-7.86,5.47-14.9,14.73-20.93,27.53-3.14,6.66-6.22,12.39-9.19,17.93-14.32,26.67-23,42.8,1.77,93.73,8.65-5.77,16.5-16.8,23.34-32.79,5.59-13.08,10.52-29.49,14.64-48.75A530.15,530.15,0,0,0,290,288.25,16,16,0,0,0,286.76,288Z" transform="translate(-207.35 -248.51)"/><path class="cls-2" d="M357.7,494.5c31.35-36.59,19.68-78.91,19.68-78.91l-96.73,44.16L302,489.64l-62.35-75.39s-6,47.75,20.45,80.33c18.44,22.66,16.77,26.31,16.77,26.31s-10.93-4-14.34,4.29,0,11.22,13.37,11.22,18.23,2.5,18.72-8.08,2.91-29.42,14.8-29.73c11,1.37,13.27,19.4,13.74,29.65.49,10.58,5.35,8.08,18.72,8.08s16.77-2.93,13.37-11.22-14.35-4.29-14.35-4.29S338.49,516.52,357.7,494.5Z" transform="translate(-207.35 -248.51)"/><path d="M286.31,537.18c-1.2,0-2.5,0-4-.1-1.87-.07-4-.15-6.38-.15-8.27,0-12.54-1.11-14.28-3.69-1.25-1.88-1.12-4.5.42-8.26s4.65-5.59,9.1-5.59a18.88,18.88,0,0,1,5.21.78c-.25-1.67-2.32-7.63-16.66-25.25a87.14,87.14,0,0,1-14.46-26.46,120.62,120.62,0,0,1-5.82-26.2,132.35,132.35,0,0,1-.29-28.07l.16-1.22,53.57,64.78-13-18.22,97.88-44.68.16.6a86.67,86.67,0,0,1,1.94,25.91,92.71,92.71,0,0,1-5.33,25.55,90.45,90.45,0,0,1-16.4,27.94c-9.88,11.33-13.89,17.83-15.51,21.29a10.88,10.88,0,0,0-1.24,4,19.28,19.28,0,0,1,5.3-.8c4.46,0,7.61,1.93,9.1,5.59s1.68,6.38.42,8.26c-1.73,2.58-6,3.69-14.27,3.69-2.39,0-4.51.08-6.38.15-1.51.06-2.82.11-4,.11-5.84,0-8.51-1.28-8.86-8.84-.47-10.32-2.82-27.81-13.24-29.15-11.24.33-13.75,18.45-14.25,29.23C294.82,535.91,292.15,537.18,286.31,537.18Zm-15.15-16.73c-4,0-6.78,1.66-8.12,4.93s-1.56,5.71-.52,7.27c1.5,2.23,5.63,3.22,13.4,3.22,2.41,0,4.54.08,6.42.15,1.5.06,2.79.11,4,.11,5.58,0,7.49-1.13,7.8-7.83.24-5.23,1-12.74,3.15-18.87,2.63-7.4,6.72-11.23,12.17-11.37h.07c5,.63,8.82,4.62,11.25,11.86a68.44,68.44,0,0,1,3,18.3c.31,6.7,2.22,7.83,7.8,7.83,1.17,0,2.47,0,4-.11,1.88-.07,4-.15,6.42-.15,7.77,0,11.9-1,13.39-3.22,1-1.56.88-3.87-.51-7.27s-4.08-4.93-8.13-4.93a18.5,18.5,0,0,0-5.54.93l-.42.16-.23-.39c-.26-.47-2.06-5.24,16.84-26.91a90,90,0,0,0,21.47-52.83,87.61,87.61,0,0,0-1.75-25L281.45,460l21,29.38-.84.64-61.55-74.42a136.53,136.53,0,0,0,.42,26.61c1.64,14.53,6.45,35.36,20,52.08,7.67,9.43,12.84,16.74,15.36,21.74,1.86,3.69,1.61,4.85,1.48,5.12l-.2.44-.46-.17A18.24,18.24,0,0,0,271.16,520.45Z" transform="translate(-207.35 -248.51)"/><path class="cls-2" d="M321.46,291s22.31-6.57,40.89,32.88,37.46,50.61,7.15,112.66C330.33,411.36,321.46,291,321.46,291Z" transform="translate(-207.35 -248.51)"/><path d="M369.71,437.28l-.5-.32c-9-5.8-17.17-17.1-24.23-33.59-5.62-13.15-10.57-29.61-14.7-48.94A530,530,0,0,1,320.94,291l0-.42.41-.12a14.68,14.68,0,0,1,3.92-.44c3.74,0,9.61,1,16.31,5.65,8,5.57,15.17,15,21.28,27.95C366,330.27,369,336,372,341.51c7.28,13.56,13,24.27,13.89,38.28.92,15-4,32.57-15.91,57ZM322,291.39a532.25,532.25,0,0,0,9.28,62.83c4.12,19.26,9.05,35.66,14.65,48.74,6.83,16,14.68,27,23.33,32.79,24.76-50.94,16.09-67.07,1.77-93.74-3-5.54-6.05-11.26-9.19-17.92-6-12.8-13.07-22.07-20.93-27.54-6.47-4.5-12.11-5.45-15.7-5.45A16.76,16.76,0,0,0,322,291.39Z" transform="translate(-207.35 -248.51)"/><path class="cls-2" d="M255.08,343s-14.3,26-16,77.4c-1,30.24,20.58,75.18,68.27,74.71s75.49-40,70.91-72.91c-6.5-46.74-15.92-68.86-27.73-86.81C340.67,350.52,255.08,343,255.08,343Z" transform="translate(-207.35 -248.51)"/><path d="M306.66,495.66a65.07,65.07,0,0,1-26.47-5.37,62.82,62.82,0,0,1-19.83-13.92,80.49,80.49,0,0,1-21.75-56c.85-26.6,5.15-46.27,8.61-58.1,3.75-12.83,7.36-19.47,7.4-19.53l.16-.31.35,0c.21,0,21.48,1.87,43.74,1.87,29.58,0,47.31-3.2,51.27-9.24l.44-.67.45.67a138.32,138.32,0,0,1,15.91,32.73c4.93,14.47,8.83,32.24,11.9,54.3a57.32,57.32,0,0,1-2.38,25.15,67.94,67.94,0,0,1-13.19,23.41c-13.68,15.87-33.52,24.73-55.86,25ZM255.39,343.58a111.67,111.67,0,0,0-7.17,19.07c-3.43,11.75-7.71,31.32-8.56,57.78-.62,19.43,7.8,41.1,21.46,55.21,12,12.41,27.77,19,45.54,19h.74c22-.22,41.59-9,55.07-24.58,11.84-13.74,17.56-31.58,15.32-47.73-6.82-49-17.09-70.39-27.23-86-4.95,6-22.32,9.07-51.69,9.07C278.13,345.41,258.25,343.82,255.39,343.58Z" transform="translate(-207.35 -248.51)"/><path class="cls-2" d="M316.74,268s1.27-6.73,10.75-6.81,13.32,7.22,7.56,13.67-11-4.34-15.62-3.35" transform="translate(-207.35 -248.51)"/><path d="M316.74,268a5.43,5.43,0,0,1,.13-.58,7.93,7.93,0,0,1,.65-1.56,8.33,8.33,0,0,1,1.6-2.09,9.48,9.48,0,0,1,2.87-1.89,12.88,12.88,0,0,1,3.94-1c.36,0,.72-.08,1.09-.09l.57,0h.56a17,17,0,0,1,2.33.2,11.15,11.15,0,0,1,4.6,1.77,8.44,8.44,0,0,1,1.87,1.81,6.79,6.79,0,0,1,1.13,2.4,7.28,7.28,0,0,1,.14,2.63,8.79,8.79,0,0,1-.71,2.49,11.08,11.08,0,0,1-1.3,2.15,11.23,11.23,0,0,1-1.66,1.79,5.54,5.54,0,0,1-2.14,1.17,4.65,4.65,0,0,1-2.34,0,7.42,7.42,0,0,1-2-.81,16,16,0,0,1-1.64-1.07c-1-.74-1.86-1.47-2.66-2.07a12.59,12.59,0,0,0-2.17-1.37,4.26,4.26,0,0,0-1.58-.41h-.25l-.19,0-.15,0,.15,0,.18,0,.26,0a4,4,0,0,1,1.66.28A11.3,11.3,0,0,1,324,273c.84.55,1.76,1.22,2.77,1.9a15.14,15.14,0,0,0,1.63.95,7,7,0,0,0,1.83.66,4,4,0,0,0,2-.09,5,5,0,0,0,1.78-1.06c.13-.12.27-.24.39-.37l.38-.41c.25-.29.48-.59.71-.9a10.27,10.27,0,0,0,1.14-2,7.86,7.86,0,0,0,.62-2.2,6.13,6.13,0,0,0-.14-2.26,5.92,5.92,0,0,0-1-2,6.94,6.94,0,0,0-1.61-1.59,10.62,10.62,0,0,0-4.18-1.68,15,15,0,0,0-2.18-.24l-.55,0h-.53c-.35,0-.7,0-1.05,0a15.47,15.47,0,0,0-2,.28c-.32.06-.63.15-.93.22s-.59.18-.87.29-.55.23-.81.34-.51.26-.74.4a7.81,7.81,0,0,0-1.28.89,9,9,0,0,0-1,1,10,10,0,0,0-.71.93,8.18,8.18,0,0,0-.77,1.47A5.25,5.25,0,0,0,316.74,268Z" transform="translate(-207.35 -248.51)"/><path class="cls-3" d="M317.3,268.72s10.64-7.77,14.76-.33c2.2,4-2,8.14-5.56,5.13-3.88-3.3-7.06-2-7.06-2Z" transform="translate(-207.35 -248.51)"/><path d="M317.3,268.72q.88-.68,1.83-1.26a20.64,20.64,0,0,1,2-1.07,18.79,18.79,0,0,1,2.07-.86,11.66,11.66,0,0,1,2.19-.53,8.35,8.35,0,0,1,2.29-.05,6,6,0,0,1,2.21.69,6.17,6.17,0,0,1,1.78,1.51c.12.16.24.3.35.47l.31.49,0,.06,0,0h0v0l.06.13.13.24c.07.19.16.38.22.57a4.65,4.65,0,0,1,.22,1.17,4,4,0,0,1-.07,1.2,4.43,4.43,0,0,1-1.1,2.11,3.86,3.86,0,0,1-2.09,1.16,3.51,3.51,0,0,1-1.21,0,4.16,4.16,0,0,1-1.15-.36,5,5,0,0,1-1-.65l-.85-.69a10.65,10.65,0,0,0-1.85-1.08,7.49,7.49,0,0,0-2.07-.57,5.85,5.85,0,0,0-1.08,0,4.13,4.13,0,0,0-1.05.18l-.1,0-.05-.08-1-1.42Zm0,0,1.13,1.35,1.12,1.35-.16,0a4.44,4.44,0,0,1,1.12-.26,6.52,6.52,0,0,1,1.14,0,8.05,8.05,0,0,1,2.22.51,10,10,0,0,1,2,1.09c.31.22.59.44.89.67a4.47,4.47,0,0,0,.88.55,3.14,3.14,0,0,0,3.68-.72,3.66,3.66,0,0,0,.91-1.78,4.33,4.33,0,0,0,.07-1,4.39,4.39,0,0,0-.19-1c-.05-.17-.12-.31-.18-.47l-.12-.25-.06-.12-.07-.1-.27-.45c-.1-.15-.22-.28-.32-.43a5.32,5.32,0,0,0-3.54-2,8.51,8.51,0,0,0-2.14,0,13,13,0,0,0-2.13.43,19.64,19.64,0,0,0-2.07.74c-.68.28-1.34.6-2,.94S317.92,268.32,317.3,268.72Z" transform="translate(-207.35 -248.51)"/><g class="cls-4"><path class="cls-1" d="M317.84,266.72c.06.23,2.33-2.46,6.34-3.47s8.24,0,8.18-.19-3.7-2-8.55-.77C319.81,263.3,317.78,266.49,317.84,266.72Z" transform="translate(-207.35 -248.51)"/></g><path class="cls-3" d="M270,306.25s-28.81,52-24.66,73.65c5.24,27.4,26.07,32.6,46.85,22.21s27.86-3.3,43.45,2.83,34.72-13.09,32.36-31-35.67-76.63-35.67-76.63Z" transform="translate(-207.35 -248.51)"/><path d="M273.2,407.61h0a26,26,0,0,1-17.89-6.67c-5.19-4.75-8.71-11.79-10.46-20.94s1.89-24.33,10.81-45.27c6.61-15.54,13.83-28.61,13.9-28.74l.13-.23.26,0,62.69-9,.18.31c.09.15,8.43,14.88,17,31.61,11.47,22.5,17.79,37.71,18.77,45.21,1,7.73-1.9,16.37-7.81,23.11-5.41,6.17-12.29,9.7-18.88,9.7a17.46,17.46,0,0,1-6.38-1.2c-2.62-1-5-2.07-7.23-3.08-6.29-2.8-11.26-5-17.5-5-5.34,0-11.15,1.66-18.29,5.23A43.87,43.87,0,0,1,273.2,407.61Zm-2.85-100.88c-1,1.81-7.62,14.06-13.74,28.43-8.7,20.44-12.41,35.88-10.73,44.65,3.3,17.24,13,26.74,27.31,26.74h0A42.89,42.89,0,0,0,292,401.64c7.29-3.65,13.25-5.35,18.76-5.35,6.46,0,11.78,2.37,17.93,5.1,2.26,1,4.59,2,7.18,3.06a16.31,16.31,0,0,0,6,1.13c6.2,0,13-3.49,18.08-9.33,5.72-6.52,8.54-14.85,7.57-22.28-2.24-17-32.8-71.46-35.43-76.12Z" transform="translate(-207.35 -248.51)"/><path class="cls-3" d="M301.62,257.57c6.42-.35,13.69-2.79,17.89,6.71s18.52,25.6,16,36.3c-1.66,7-16.54,35.25-30.28,35.25-13.29,0-38.19-20.58-37.61-34.74.5-12.57,13.58-34.95,18.05-40.26S296.58,257.85,301.62,257.57Z" transform="translate(-207.35 -248.51)"/><path d="M305.2,336.36c-3.81,0-8.62-1.6-13.92-4.64a65.46,65.46,0,0,1-14.18-11.14c-6.7-7-10.27-13.91-10-19.52.52-12.87,13.85-35.43,18.18-40.57,2.77-3.3,6.29-3.72,9.05-3.72,1.13,0,2.26.08,3.36.15s2.06.15,3,.15c.33,0,.62,0,.91,0,.92-.05,1.9-.15,2.84-.24a42.77,42.77,0,0,1,4.39-.3c3.65,0,8.21.86,11.17,7.57a88.05,88.05,0,0,0,5.91,10.2c5.58,8.81,11.91,18.8,10.09,26.43-.77,3.26-4.71,12-10.69,20.42C320.36,328.08,312.86,336.36,305.2,336.36Zm-10.91-78.53c-2.68,0-5.76.39-8.25,3.34-4.26,5.07-17.41,27.3-17.93,39.94-.21,5.23,3.35,12.06,9.76,18.74,8.6,8.95,20.09,15.45,27.33,15.45s14.44-8,19.24-14.79c5.64-7.94,9.74-16.75,10.53-20.06,1.71-7.19-4.49-17-10-25.62a89.16,89.16,0,0,1-6-10.33c-2.69-6.12-6.67-6.94-10.2-6.94-1.4,0-2.87.15-4.29.29-.95.1-1.93.2-2.89.25q-.45,0-1,0c-1,0-2-.08-3.1-.15S295.38,257.83,294.29,257.83Z" transform="translate(-207.35 -248.51)"/><path class="cls-2" d="M243.74,387.67s-9.49,42.22.67,72.67L257,473.05s19.4,22.32,49.84,21.27C271.36,474.1,243.74,387.67,243.74,387.67Z" transform="translate(-207.35 -248.51)"/><path class="cls-2" d="M372.7,401.11s12.72,30.24,1.67,61.1l-11.47,10s-21.06,20.64-49,20.85C349.35,472.85,372.7,401.11,372.7,401.11Z" transform="translate(-207.35 -248.51)"/><path class="cls-5" d="M284.69,290.81s21.55,4.76,35.41-2.67c3.76-.5,5.81,23.07-3.2,31.91s-18,9-26.43,0C277.77,306.34,280.93,289.78,284.69,290.81Z" transform="translate(-207.35 -248.51)"/><path d="M303.39,327.19c-4.57,0-9-2.31-13.24-6.85a34.3,34.3,0,0,1-8.58-16.07c-1.16-5.36-.57-9.58.38-11.74.62-1.42,1.47-2.2,2.4-2.2a2.12,2.12,0,0,1,.44.05,78.18,78.18,0,0,0,15.1,1.49c8.17,0,14.9-1.39,20-4.12l.07,0H320c.89-.12,1.66.61,2.28,2.13,1.29,3.15,1.76,9,1.16,14.66-.73,7-3,12.62-6.27,15.87C312.6,324.89,308,327.19,303.39,327.19Zm-19-36c-.55,0-1.13.61-1.6,1.67-2.17,5-1.12,17,8.05,26.86,4,4.36,8.27,6.57,12.59,6.57s8.76-2.21,13.2-6.58c7.43-7.29,7.06-24.32,4.92-29.56-.41-1-.89-1.59-1.29-1.6-5.22,2.78-12.05,4.18-20.33,4.18a79.38,79.38,0,0,1-15.3-1.51h0A.78.78,0,0,0,284.35,291.21Z" transform="translate(-207.35 -248.51)"/><g class="cls-6"><path d="M283.11,308.32s28.45-19.21,37.72,4.27C321.68,315.51,301.6,346.42,283.11,308.32Z" transform="translate(-207.35 -248.51)"/></g><path class="cls-7" d="M288.6,317.72s8.11-5.36,13-.08c4.36-1.38,8.42.61,10,5.51C304.89,326.36,297.09,328.73,288.6,317.72Z" transform="translate(-207.35 -248.51)"/><path d="M302.07,326.27c-5,0-9.52-2.71-13.81-8.28l-.29-.38.39-.26a15.93,15.93,0,0,1,7.75-2.48,7.64,7.64,0,0,1,5.63,2.27,9.26,9.26,0,0,1,2.52-.37c3.59,0,6.5,2.33,7.78,6.24l.12.37-.35.16C309,324.89,305.62,326.27,302.07,326.27Zm-12.81-8.43c4,5.08,8.22,7.55,12.81,7.55a21.7,21.7,0,0,0,9-2.47c-1.23-3.35-3.69-5.27-6.82-5.27a8.35,8.35,0,0,0-2.52.41l-.27.08-.19-.2a6.75,6.75,0,0,0-5.17-2.18A14.9,14.9,0,0,0,289.26,317.84Z" transform="translate(-207.35 -248.51)"/><path d="M290.88,316.69a6.08,6.08,0,0,1,.68-.46,11,11,0,0,1,2-.9c.22-.08.45-.13.68-.2s.49-.12.75-.15a8.13,8.13,0,0,1,1.66-.11l.44,0,.45.06c.15,0,.29.06.44.09s.3.06.45.11a8.12,8.12,0,0,1,1.71.76,7.76,7.76,0,0,1,1.44,1.17l.32.32.28.35.28.35.24.36.24.35c.07.12.14.24.2.36s.27.47.37.72.21.46.32.68.16.45.24.66.16.42.21.62l.15.56c0,.17.1.33.13.49s.06.29.08.42c.1.51.15.81.15.81s-.12-.28-.31-.76l-.16-.39-.21-.46c-.15-.33-.3-.7-.51-1.09-.1-.19-.19-.4-.31-.6s-.23-.42-.36-.63a6.42,6.42,0,0,0-.41-.65l-.21-.32-.24-.32-.25-.32-.27-.31-.27-.31-.3-.28a7.72,7.72,0,0,0-1.31-1l-.36-.2-.18-.1-.19-.09-.38-.16-.38-.14a7.41,7.41,0,0,0-1.58-.33,8.72,8.72,0,0,0-1.53,0,11.21,11.21,0,0,0-1.38.19,13.32,13.32,0,0,0-2,.57l-.56.21Z" transform="translate(-207.35 -248.51)"/><path class="cls-1" d="M319.24,288.86c-12.16,6-28.24,3.44-34.55,2.12a7.72,7.72,0,0,0-.52,4.73c.79,3.23,24.14,8.22,34.81,1.05C320.41,295.84,319.59,290.86,319.24,288.86Z" transform="translate(-207.35 -248.51)"/><path d="M303.46,300.87h0c-9.15,0-19.1-2.55-19.71-5.06a8.12,8.12,0,0,1,.55-5l.14-.34.35.08a77.63,77.63,0,0,0,15.52,1.67h0c7.37,0,13.68-1.27,18.75-3.75l.53-.26.1.58c.86,5,.72,7.58-.46,8.34C314.62,300.22,308.11,300.87,303.46,300.87ZM285,291.48a7.09,7.09,0,0,0-.36,4.12c.35,1.46,8.75,4.39,18.85,4.39h0c4.53,0,10.86-.63,15.29-3.6.44-.29,1-1.56.17-6.88-5.1,2.38-11.36,3.59-18.61,3.59h0A77.72,77.72,0,0,1,285,291.48Z" transform="translate(-207.35 -248.51)"/><path class="cls-1" d="M292.61,322s-1.14-2.95,1.74-2.14,9.87,3.75,18.26.09c2.27-1.26,1.92,2.23,1.92,2.23S304.57,332,292.61,322Z" transform="translate(-207.35 -248.51)"/><path d="M303.73,327c-3.92,0-7.76-1.55-11.41-4.6l-.08-.07,0-.11a2.82,2.82,0,0,1,0-2.3,1.41,1.41,0,0,1,1.26-.58,3.84,3.84,0,0,1,1,.15c.32.09.68.2,1.1.34a27.84,27.84,0,0,0,8.54,1.53,20.68,20.68,0,0,0,8.3-1.75,2.28,2.28,0,0,1,1.06-.32,1.24,1.24,0,0,1,.95.42,3.94,3.94,0,0,1,.55,2.58l0,.15-.11.12A17,17,0,0,1,303.73,327ZM293,321.76c3.46,2.87,7.07,4.32,10.75,4.32A16.3,16.3,0,0,0,314.1,322a2.87,2.87,0,0,0-.33-1.73.34.34,0,0,0-.3-.13,1.46,1.46,0,0,0-.65.21l0,0a21.46,21.46,0,0,1-8.67,1.83,28.73,28.73,0,0,1-8.8-1.57l-1.08-.33a2.89,2.89,0,0,0-.75-.12c-.4,0-.5.15-.54.2A2,2,0,0,0,293,321.76Z" transform="translate(-207.35 -248.51)"/><g class="cls-8"><path d="M319.37,292.76s.39-1.71-2.68-.61c-3.82,1.37-11.43,3.74-22.88,1.22-9.57-2.11-9.1-1.56-9.34,2.56a5,5,0,0,1,.22-4.95c.18-.2,14.92,2.15,24.58.81S319.76,287.53,319.37,292.76Z" transform="translate(-207.35 -248.51)"/></g><g class="cls-4"><path d="M305.3,317.68s-2.62-.17-1.68,1.26a5.35,5.35,0,0,1,.8,3.54,14.32,14.32,0,0,0-2.55-4.85S304.27,317,305.3,317.68Z" transform="translate(-207.35 -248.51)"/></g><g class="cls-4"><path d="M293.13,316s-4.29.79-.09,4c-.75.56-.26,2.22-.26,2.22a27.87,27.87,0,0,1-3.94-4.62A12.53,12.53,0,0,1,293.13,316Z" transform="translate(-207.35 -248.51)"/></g><path class="cls-3" d="M284.81,282.07s19.66-16.77,38.09,1.57" transform="translate(-207.35 -248.51)"/><path d="M284.81,282.07a16.43,16.43,0,0,1,1.38-1.18c.46-.35,1-.77,1.7-1.22.33-.23.69-.45,1.08-.7s.8-.48,1.23-.71c.87-.49,1.84-1,2.89-1.42.54-.21,1.07-.45,1.64-.64l.87-.31.89-.27c.29-.09.6-.17.91-.24l.94-.23c.63-.12,1.27-.28,1.92-.35.33,0,.66-.09,1-.12l1-.08.5,0h1.51l1,0c.34,0,.68,0,1,.08a18.33,18.33,0,0,1,2,.29l1,.19.94.26c.32.09.63.17.93.27l.9.32.44.16a3.83,3.83,0,0,1,.43.17l.84.37.81.38.76.42.75.41a4.05,4.05,0,0,1,.35.21l.34.22.67.44.32.21.31.22,1.13.87c.18.14.36.26.52.41l.47.41c.6.54,1.14,1,1.53,1.43s.71.74.92,1l.33.34-.37-.3c-.24-.2-.59-.48-1-.86a8.7,8.7,0,0,0-.74-.59l-.89-.67-.5-.37a5.63,5.63,0,0,0-.54-.36l-1.17-.78a3.37,3.37,0,0,0-.32-.19l-.32-.19-.68-.38-.34-.2-.36-.19-.74-.36-.76-.37c-.26-.12-.53-.22-.8-.33l-.82-.33-.42-.15-.43-.14-.87-.29c-.3-.09-.6-.15-.9-.23s-.6-.16-.91-.22l-.93-.17c-.62-.14-1.26-.18-1.9-.26-.31,0-.64,0-1-.07s-.64,0-1,0h-1.45l-.48,0-1,.06-1,.11-.47.06-.47.08-.93.16-.9.2a8.44,8.44,0,0,0-.9.21l-.87.24L295,277c-.56.16-1.1.37-1.62.55-1.05.41-2,.8-2.91,1.23s-1.68.83-2.38,1.21-1.3.75-1.79,1.05l-1.12.73Z" transform="translate(-207.35 -248.51)"/><g class="cls-4"><path d="M292.7,321.81a20.79,20.79,0,0,0,21.6.1C308.38,326.78,301.69,329.18,292.7,321.81Z" transform="translate(-207.35 -248.51)"/></g><path class="cls-9" d="M312.43,278.44c0,2.92-4.06,6.77-9.07,6.77s-8.93-4.21-8.93-7.13,3.92-3.46,8.93-3.46S312.43,275.51,312.43,278.44Z" transform="translate(-207.35 -248.51)"/><path d="M303.36,285.73c-5.49,0-9.46-4.57-9.46-7.65,0-3.51,4.55-4,9.46-4,6.37,0,9.6,1.46,9.6,4.35C313,281.72,308.53,285.73,303.36,285.73Zm0-10.58c-6,0-8.4.85-8.4,2.93,0,2.59,3.61,6.6,8.4,6.6s8.54-3.79,8.54-6.24C311.9,275.72,307.26,275.15,303.36,275.15Z" transform="translate(-207.35 -248.51)"/><path d="M296.67,280.49a10.47,10.47,0,0,0,13.33.26c.94.62-1.51,4-4.33,2.5a8.8,8.8,0,0,1-4.95-.14,2.15,2.15,0,0,1-1.21.58C298.35,283.79,296.74,283.13,296.67,280.49Z" transform="translate(-207.35 -248.51)"/><g class="cls-10"><path d="M294.35,277.34a11,11,0,0,0,8.8,6.14c6.39.58,9-5.9,9-5.9s1.91,5.65-7.88,7.8C300.33,285.47,293.85,282.48,294.35,277.34Z" transform="translate(-207.35 -248.51)"/></g><path class="cls-3" d="M284,265.26s3.34-8.28,6.31-9.71,7.55,4,7.55,4" transform="translate(-207.35 -248.51)"/><path d="M284,265.26s.08-.31.25-.86c.09-.27.19-.6.33-1s.29-.79.48-1.25a27.24,27.24,0,0,1,1.46-3c.3-.53.64-1.08,1-1.62a10.46,10.46,0,0,1,1.31-1.55,4.91,4.91,0,0,1,.83-.66,4.82,4.82,0,0,1,.5-.27l.06,0,.07,0,.15-.05.28-.07a3.46,3.46,0,0,1,1.11,0,4.36,4.36,0,0,1,1,.27,7.45,7.45,0,0,1,1.63.89,11.07,11.07,0,0,1,1.24,1c.37.34.68.67,1,1s.49.57.67.79.3.41.39.54l.14.19-.18-.15-.5-.43-.79-.65c-.31-.25-.66-.51-1.05-.79a15.16,15.16,0,0,0-1.29-.82,7.91,7.91,0,0,0-1.51-.68,3.11,3.11,0,0,0-1.59-.12,3.05,3.05,0,0,0-1.37.87,11.59,11.59,0,0,0-1.21,1.39c-.37.49-.72,1-1,1.5s-.63,1-.92,1.47l-.79,1.35L285,263.6l-.5.89Z" transform="translate(-207.35 -248.51)"/><g class="cls-4"><path class="cls-3" d="M311.12,277.07c0,.3-3.82-.95-8-.95s-7.17,1.25-7.17.95,1.16-1.64,7.63-1.64C307.76,275.43,311.12,276.77,311.12,277.07Z" transform="translate(-207.35 -248.51)"/></g><path class="cls-3" d="M297.36,261.74a28.83,28.83,0,0,0-5.2-1.42c-1-.15-1.48-.56-6.3,5.69" transform="translate(-207.35 -248.51)"/><path d="M297.36,261.74l-.61-.1-.7-.12-.89-.16-1.05-.2L293,261l-.61-.09-.32-.05-.29,0a.89.89,0,0,0-.4.06,2.08,2.08,0,0,0-.47.27,9.88,9.88,0,0,0-.94.81c-.3.29-.6.59-.89.89l-1.58,1.63-.64.65c-.19.19-.37.35-.5.49l-.45.43s.1-.2.29-.55c.1-.16.22-.37.37-.6s.3-.5.49-.78c.37-.56.82-1.2,1.35-1.86.26-.33.54-.67.85-1,.16-.17.32-.33.49-.49a5.2,5.2,0,0,1,.55-.47,3.69,3.69,0,0,1,.68-.4,2.2,2.2,0,0,1,.44-.12,1.77,1.77,0,0,1,.46,0l.35.05.32.06.64.14a11.78,11.78,0,0,1,1.18.34c.37.12.72.25,1,.38s.6.26.84.38l.64.33C297.17,261.61,297.36,261.74,297.36,261.74Z" transform="translate(-207.35 -248.51)"/><path class="cls-3" d="M319,265.34s-3.34-8.29-6.31-9.71-7.54,4-7.54,4" transform="translate(-207.35 -248.51)"/><path d="M319,265.34l-.44-.78-.51-.89-.67-1.15c-.24-.42-.5-.87-.79-1.34s-.59-1-.92-1.47-.67-1-1-1.51a12.35,12.35,0,0,0-1.2-1.39,3.23,3.23,0,0,0-1.38-.87,3.11,3.11,0,0,0-1.59.12,7.91,7.91,0,0,0-1.51.68c-.46.26-.89.55-1.29.83s-.74.54-1.05.78l-.79.65-.5.43-.17.16.13-.2c.09-.12.22-.31.4-.53a9.18,9.18,0,0,1,.66-.79c.27-.3.58-.63.95-1a10.38,10.38,0,0,1,1.25-1,7.56,7.56,0,0,1,1.62-.89,4.5,4.5,0,0,1,1-.26,3.2,3.2,0,0,1,1.11,0,1.43,1.43,0,0,1,.28.07l.15,0,.07,0,.06,0a3.4,3.4,0,0,1,.5.26,6.17,6.17,0,0,1,.84.67,10.48,10.48,0,0,1,1.3,1.55,16.74,16.74,0,0,1,1,1.62,26.42,26.42,0,0,1,1.46,3c.19.45.35.87.48,1.25s.25.7.33,1C318.91,265,319,265.34,319,265.34Z" transform="translate(-207.35 -248.51)"/><path class="cls-3" d="M305.62,261.81a28.83,28.83,0,0,1,5.2-1.42c1-.15,1.48-.56,6.31,5.69" transform="translate(-207.35 -248.51)"/><path d="M305.62,261.81s.19-.13.54-.32q.25-.15.63-.33c.25-.12.53-.25.84-.38s.66-.26,1-.38.76-.24,1.18-.34l.64-.14.32-.06.36-.05a1.72,1.72,0,0,1,.45,0,2.18,2.18,0,0,1,.44.11,3.49,3.49,0,0,1,.69.41,4.84,4.84,0,0,1,.54.46c.18.16.34.33.49.49.31.33.59.67.85,1a23,23,0,0,1,1.35,1.87c.19.27.35.54.49.77s.27.44.37.61l.3.54-.45-.42c-.14-.14-.32-.3-.51-.5l-.64-.65L314,262.88c-.28-.29-.58-.59-.89-.89a9.88,9.88,0,0,0-.94-.81,2.87,2.87,0,0,0-.46-.27,1,1,0,0,0-.41-.06l-.29,0-.31,0L310,261l-1.17.21-1,.19-.9.16-.7.13Z" transform="translate(-207.35 -248.51)"/><path class="cls-2" d="M297.4,262.6s-4.26-3.18-8,.56-4.71,6.41-3,10.2,8.66.82,11.37-4.15S297.4,262.6,297.4,262.6Z" transform="translate(-207.35 -248.51)"/><path d="M289.25,275.43h0a3.26,3.26,0,0,1-3.19-1.93c-1.71-3.82-.9-6.59,3.09-10.59a6.09,6.09,0,0,1,4.38-1.92,7.48,7.48,0,0,1,4.06,1.31,3.47,3.47,0,0,1,1.46,2c.42,1.41.09,3.13-1,5.1C296.24,272.72,292.29,275.43,289.25,275.43Zm4.28-13.74a5.39,5.39,0,0,0-3.88,1.72c-3.79,3.79-4.53,6.26-2.95,9.81a2.62,2.62,0,0,0,2.55,1.51c2.81,0,6.48-2.55,8.19-5.69,2.5-4.57-.1-6.07-.21-6.13l-.05,0A6.8,6.8,0,0,0,293.53,261.69Z" transform="translate(-207.35 -248.51)"/><path class="cls-1" d="M297.09,266.37c0,2.27-1.57,4.12-3.51,4.12s-3.51-1.85-3.51-4.12,1.57-4.13,3.51-4.13S297.09,264.09,297.09,266.37Z" transform="translate(-207.35 -248.51)"/><path d="M293.58,270.84c-2.13,0-3.86-2-3.86-4.47s1.73-4.48,3.86-4.48,3.86,2,3.86,4.48S295.71,270.84,293.58,270.84Zm0-8.25c-1.74,0-3.16,1.7-3.16,3.78s1.42,3.77,3.16,3.77,3.16-1.69,3.16-3.77S295.32,262.59,293.58,262.59Z" transform="translate(-207.35 -248.51)"/><path d="M295.06,267.07c0,1-.61,1.85-1.36,1.85s-1.36-.83-1.36-1.85.61-1.84,1.36-1.84S295.06,266.05,295.06,267.07Z" transform="translate(-207.35 -248.51)"/><path class="cls-2" d="M305.63,262.63s4.25-3.18,8,.56,4.71,6.4,3,10.2-8.66.82-11.37-4.15S305.63,262.63,305.63,262.63Z" transform="translate(-207.35 -248.51)"/><path d="M313.77,275.46c-3,0-7-2.72-8.81-6-1.08-2-1.41-3.69-1-5.1a3.47,3.47,0,0,1,1.46-2,7.48,7.48,0,0,1,4.06-1.31,6,6,0,0,1,4.38,1.92c4,4,4.8,6.76,3.09,10.59A3.27,3.27,0,0,1,313.77,275.46Zm-4.28-13.74a6.8,6.8,0,0,0-3.65,1.19l0,0c-.11.06-2.71,1.55-.21,6.13,1.71,3.13,5.38,5.68,8.19,5.68a2.6,2.6,0,0,0,2.55-1.51c1.58-3.54.84-6-2.95-9.8A5.39,5.39,0,0,0,309.49,261.72Z" transform="translate(-207.35 -248.51)"/><ellipse class="cls-1" cx="102.09" cy="17.89" rx="3.51" ry="4.12"/><path d="M309.44,270.87c-2.13,0-3.86-2-3.86-4.48s1.73-4.47,3.86-4.47,3.86,2,3.86,4.47S311.57,270.87,309.44,270.87Zm0-8.25c-1.74,0-3.16,1.69-3.16,3.77s1.42,3.77,3.16,3.77,3.16-1.69,3.16-3.77S311.18,262.62,309.44,262.62Z" transform="translate(-207.35 -248.51)"/><path d="M307.62,267.1c0,1,.61,1.84,1.36,1.84s1.36-.82,1.36-1.84-.61-1.85-1.36-1.85S307.62,266.08,307.62,267.1Z" transform="translate(-207.35 -248.51)"/><path class="cls-1" d="M296.57,259.07c0,.22-2-.88-4-1.73s-4.3,2-4.3,1.73,2.16-3.51,4.3-2.68A9.55,9.55,0,0,1,296.57,259.07Z" transform="translate(-207.35 -248.51)"/><path class="cls-1" d="M306.32,259.16c0,.22,2-.87,4-1.73s4.31,1.95,4.31,1.73-2.16-3.51-4.31-2.67A9.61,9.61,0,0,0,306.32,259.16Z" transform="translate(-207.35 -248.51)"/><g class="cls-4"><path d="M286.34,265.2s4.26-4.45,10.37-3.74C291.45,259.85,290.74,259.42,286.34,265.2Z" transform="translate(-207.35 -248.51)"/></g><g class="cls-4"><path d="M316.64,265.29s-4.26-4.45-10.37-3.74C311.53,259.94,312.24,259.52,316.64,265.29Z" transform="translate(-207.35 -248.51)"/></g><g class="cls-4"><path d="M332.26,269.13s-3.26-3.6-6-2.13-2.18,4.87-2.18,4.87l-3-5.16s5.07-2.65,8.24-1S332.26,269.13,332.26,269.13Z" transform="translate(-207.35 -248.51)"/></g><g class="cls-4"><path d="M279,270.26s-4.26-7.05-8.71-.42c1.09-5.78,6.35-6.44,11.46-4A28.17,28.17,0,0,1,279,270.26Z" transform="translate(-207.35 -248.51)"/></g><g class="cls-4"><path class="cls-1" d="M301.57,318.81c-.06.2-1.61-1.37-3.88-2s-4.39-.11-4.33-.32a6.59,6.59,0,0,1,4.59-.23A6,6,0,0,1,301.57,318.81Z" transform="translate(-207.35 -248.51)"/></g><g class="cls-4"><path class="cls-1" d="M309.1,320.15c-.06.13-1-.84-2.38-1.44S304,318.12,304,318a4,4,0,0,1,2.77.3A4.72,4.72,0,0,1,309.1,320.15Z" transform="translate(-207.35 -248.51)"/></g><g class="cls-4"><path d="M290,264.78s-1.29,4,.4,5.54,4.68,1.25,6.2-1.34c.51-2.76-.85.64-.85.64a4.09,4.09,0,0,1-2.59.72C291.47,270.32,289.61,267.73,290,264.78Z" transform="translate(-207.35 -248.51)"/></g><g class="cls-4"><path d="M312.93,264.9s1.28,4-.4,5.54-4.69,1.24-6.2-1.35c-.51-2.76.85.65.85.65a4.13,4.13,0,0,0,2.59.71C311.49,270.44,313.35,267.85,312.93,264.9Z" transform="translate(-207.35 -248.51)"/></g><path class="cls-3" d="M270.26,315.5s4.68,21.13,8.23,27.37,28.64,25.25,28.64,25.25" transform="translate(-207.35 -248.51)"/><path d="M270.26,315.5l.75,2.78.86,3.18c.35,1.23.73,2.62,1.15,4.13s.91,3.13,1.42,4.85,1.09,3.52,1.7,5.37a57.46,57.46,0,0,0,2.17,5.59c.11.22.21.45.33.67l.18.33.08.17,0,0h0v0l.05.08.21.33.11.16a.83.83,0,0,0,.11.15c.14.2.28.39.44.59.63.79,1.34,1.54,2.06,2.29,1.44,1.49,2.95,2.92,4.47,4.3s3,2.72,4.52,4,2.92,2.51,4.29,3.66l3.88,3.26,8.05,6.67-.61-.43-1.73-1.24-2.67-1.95c-1-.76-2.17-1.62-3.42-2.58s-2.59-2-4-3.11-2.89-2.31-4.4-3.57-3.06-2.57-4.59-3.95-3.08-2.81-4.55-4.32c-.73-.77-1.45-1.55-2.11-2.39-.17-.21-.33-.44-.5-.66l-.12-.17-.1-.16-.21-.33-.05-.08v0l0,0,0-.05-.1-.18-.18-.35c-.12-.24-.23-.48-.35-.71-.44-1-.81-1.92-1.16-2.88s-.66-1.91-1-2.85c-.6-1.87-1.11-3.7-1.58-5.44s-.88-3.39-1.24-4.92-.68-2.93-1-4.18-.49-2.34-.68-3.23-.31-1.61-.4-2.09Z" transform="translate(-207.35 -248.51)"/><path class="cls-3" d="M333.23,314.37s-4.54,23.54-6,29.21-13.61,16.17-13.61,16.17" transform="translate(-207.35 -248.51)"/><path d="M333.23,314.37l-.09.56c-.05.38-.14.92-.24,1.61s-.24,1.53-.41,2.49-.34,2.05-.55,3.23c-.4,2.36-.89,5.12-1.47,8.06-.28,1.47-.57,3-.88,4.54-.15.77-.3,1.55-.47,2.33l-.51,2.35c-.17.78-.35,1.56-.52,2.34-.09.39-.17.78-.26,1.17l-.13.58v.09l0,.07-.05.14-.08.28a11.14,11.14,0,0,1-1.07,2.19c-.2.34-.42.67-.63,1s-.44.63-.67.93a39.8,39.8,0,0,1-2.8,3.34c-.93,1-1.85,1.95-2.71,2.78s-1.67,1.59-2.39,2.25-1.37,1.21-1.9,1.66-1,.8-1.25,1l-.45.36.41-.4,1.17-1.13c1-1,2.41-2.39,4.05-4.13.82-.87,1.69-1.83,2.58-2.87s1.8-2.15,2.66-3.35c.22-.3.43-.61.64-.92s.4-.64.59-1,.19-.33.27-.5.18-.33.26-.5.16-.34.23-.51.13-.33.19-.51l.09-.28,0-.15,0-.07s0,0,0,0h0v0c0-.19.09-.39.13-.58.08-.39.16-.77.25-1.16.17-.78.34-1.56.5-2.34s.35-1.55.52-2.33.33-1.55.49-2.32c.32-1.54.65-3.06,1-4.52s.62-2.88.91-4.22.56-2.62.82-3.79c.51-2.34,1-4.29,1.28-5.65.16-.68.28-1.22.37-1.58Z" transform="translate(-207.35 -248.51)"/><path class="cls-3" d="M288.44,331.35s8.38,14.63,16.92,17.22" transform="translate(-207.35 -248.51)"/><path d="M288.44,331.35l.62.86.71,1,.93,1.26,1.12,1.48c.4.53.82,1.07,1.27,1.63s.91,1.14,1.39,1.71,1,1.16,1.48,1.73,1,1.13,1.54,1.67l.78.79.39.38.39.37c.25.25.52.48.77.71s.51.44.76.65.5.4.74.59.48.37.71.53a8.16,8.16,0,0,0,.68.46l.31.21.31.19c.2.11.39.23.57.32l.49.26a3.52,3.52,0,0,0,.4.19l.3.13.26.12-.27-.07-.33-.08-.2-.05-.23-.08-.53-.19c-.2-.06-.39-.16-.61-.25l-.34-.15-.34-.18c-.24-.12-.49-.25-.74-.4a15.65,15.65,0,0,1-1.58-1c-.27-.2-.55-.39-.82-.62s-.56-.44-.83-.68l-.42-.36-.41-.38-.41-.38-.41-.4c-.55-.54-1.07-1.11-1.59-1.69-.25-.29-.51-.58-.76-.88s-.49-.59-.72-.89l-.7-.89c-.22-.3-.44-.59-.65-.89-.43-.58-.82-1.17-1.19-1.72s-.7-1.08-1-1.58-.56-1-.79-1.36-.43-.77-.58-1.07C288.6,331.7,288.44,331.35,288.44,331.35Z" transform="translate(-207.35 -248.51)"/><g class="cls-4"><path d="M273.32,486.58s23.14,11.25,21.21,40.49c4.18-25.22,7.07-27.47,15.75-28,8.68.81,12.05,16.23,12.86,28.29-2.74-29.25,26-44.84,26-44.84S312.53,508.43,273.32,486.58Z" transform="translate(-207.35 -248.51)"/></g><g class="cls-4"><path d="M261.55,301s6.61-2.09,5.8,6.79-14.12,25.25-21.28,49.06-9.14,54.59-15.75,46.62c4.08,14.21,8.78,22.63,8.78,22.63s.69-32.5,7.3-61.31,22.75-56.38,22.75-56.38a17.59,17.59,0,0,1-.33-13.82C265.53,295.59,261.55,301,261.55,301Z" transform="translate(-207.35 -248.51)"/></g><g class="cls-4"><path d="M346.93,300.52s-4.77-3.45-7.07,2.47,8.39,17.43,20.72,41.93,15.29,61.84,23,53.45c-1.48,8.55-5.92,18.91-5.92,18.91s-4.27-34.53-14.3-58.38-28.13-56.73-28.13-56.73,2-2.47-.32-9.87A51.29,51.29,0,0,1,346.93,300.52Z" transform="translate(-207.35 -248.51)"/></g><g class="cls-8"><path d="M286.74,328.81s13.16,20.88,20.39,19.9,19.41-30.1,19.41-30.1-12.34,17.27-19.9,17.27S286.74,328.81,286.74,328.81Z" transform="translate(-207.35 -248.51)"/></g><g class="cls-8"><path d="M306,367.29s-20.06-8.39-25.65-15.79-9.05-30.91-9.05-30.91,5.43,20.88,8.06,23.68S306,367.29,306,367.29Z" transform="translate(-207.35 -248.51)"/></g><g class="cls-8"><path d="M333,316.31s-2.79,25-3.78,30.59S315,358.57,315,358.57s11.84-11.84,12.33-14.47S333,316.31,333,316.31Z" transform="translate(-207.35 -248.51)"/></g><g class="cls-8"><path d="M264.49,316.94s4-8.63,13.28,3.81c-8.3-9.95-9-13.11-9-13.11Z" transform="translate(-207.35 -248.51)"/></g><g class="cls-8"><path d="M340.34,311.46s-4.32-6.8-13.61,5.64c8.3-10,8.63-14.1,8.63-14.1Z" transform="translate(-207.35 -248.51)"/></g><path d="M262.67,524.55a4.64,4.64,0,0,1,.42-.84,7.35,7.35,0,0,1,.64-.89,8.59,8.59,0,0,1,1-1,9,9,0,0,1,1.41-1,10.75,10.75,0,0,1,1.75-.77c.32-.08.64-.19,1-.25l.51-.11.51-.07.26,0,.26,0,.53,0H272c.35,0,.7,0,1,.08s.69.08,1,.15.67.12,1,.2l.95.25c.62.2,1.22.39,1.76.62l.8.32.73.34c.47.21.87.46,1.24.65s.68.39.93.55.45.28.59.37l.2.13-.23-.08-.65-.23c-.28-.11-.61-.24-1-.37l-.61-.22-.34-.12-.35-.11-.75-.24c-.26-.09-.53-.16-.8-.24-.55-.17-1.14-.3-1.74-.46l-.93-.19-.95-.16c-.32-.06-.65-.08-1-.12s-.66,0-1-.07h-1l-.49,0h-.24l-.24,0a13.58,13.58,0,0,0-1.84.31,12.42,12.42,0,0,0-1.66.57,11.25,11.25,0,0,0-1.39.75,10.46,10.46,0,0,0-1.08.81c-.31.27-.56.52-.76.73s-.35.4-.45.52Z" transform="translate(-207.35 -248.51)"/><path d="M355.11,524.39l-.14-.2c-.1-.13-.24-.3-.44-.52a8.64,8.64,0,0,0-.74-.72,9,9,0,0,0-1.07-.79,8.82,8.82,0,0,0-1.37-.73,10.87,10.87,0,0,0-1.64-.53,11.91,11.91,0,0,0-1.82-.28c-.32,0-.64,0-.95,0s-.65,0-1,0c-.64,0-1.29.11-1.92.21l-.47.08c-.16,0-.31.05-.46.09l-.92.2c-.59.15-1.17.29-1.71.46s-1.05.33-1.53.48l-.35.11-.32.12-.61.22c-.39.13-.72.26-1,.36l-.64.23-.23.08.2-.13c.13-.09.32-.22.57-.37s.56-.35.92-.54.76-.43,1.22-.64.95-.46,1.5-.67l.41-.16.43-.16.89-.3c.61-.17,1.25-.35,1.92-.47a15,15,0,0,1,2-.25c.35,0,.7,0,1,0l.52,0,.51,0a8.49,8.49,0,0,1,1,.16l.49.1.47.14a9.46,9.46,0,0,1,1.74.72,8.35,8.35,0,0,1,1.4.95,7.53,7.53,0,0,1,1.61,1.88A4.12,4.12,0,0,1,355.11,524.39Z" transform="translate(-207.35 -248.51)"/><g class="cls-8"><path d="M264.64,480.49s36.2,23.38,87,.22C326,500.27,288.48,499.6,264.64,480.49Z" transform="translate(-207.35 -248.51)"/></g><g class="cls-8"><path d="M266.89,503.19s11.92,10.57,13.49,19.11c-2.47-.9-3.49-1.41-3.49-1.41S276.34,516.23,266.89,503.19Z" transform="translate(-207.35 -248.51)"/></g><g class="cls-8"><path d="M350.57,503.31s-11.92,10.56-13.49,19.1a34.34,34.34,0,0,0,3.49-1.41S341.13,516.34,350.57,503.31Z" transform="translate(-207.35 -248.51)"/></g></svg>