<svg id="Layer_1" data-name="Layer 1" xmlns="http://www.w3.org/2000/svg" viewBox="0 0 219.15 294.99"><defs><style>.cls-1{fill:#fff;}.cls-2{fill:#2b2e31;}.cls-3{fill:#d9dad9;}.cls-4{opacity:0.3;}.cls-5{fill:#000002;}.cls-6{fill:#5d0a0b;}.cls-7{fill:#3a3d3f;}.cls-8{fill:#231f20;}.cls-9{fill:#686b6d;}.cls-10{fill:#191c1f;}.cls-11{fill:#02170d;}.cls-12{fill:#c6c0ab;}.cls-13{fill:#a99a75;}.cls-14{opacity:0.2;}.cls-15{fill:#fbfbfa;}</style></defs><title>panda2</title><path class="cls-2" d="M311.1,289.88s.78-4.35,6.6-4.4,8.17,4.67,4.63,8.84-6.72-2.81-9.58-2.17" transform="translate(-196.43 -248.51)"/><path d="M311.1,289.88a3.26,3.26,0,0,1,.06-.37,5.5,5.5,0,0,1,1.28-2.4,6.63,6.63,0,0,1,.77-.7,5.79,5.79,0,0,1,1-.61,7.68,7.68,0,0,1,2.5-.73c.23,0,.47-.06.7-.07l.36,0h.36a9.7,9.7,0,0,1,1.5.13,6.67,6.67,0,0,1,3,1.22,4.88,4.88,0,0,1,2,4.59,6.29,6.29,0,0,1-.44,1.64,7.5,7.5,0,0,1-.81,1.41c-.16.21-.32.42-.49.61l-.06.08-.07.08-.13.13a4,4,0,0,1-.29.29,3.6,3.6,0,0,1-1.4.83,3,3,0,0,1-1.59.06,4.64,4.64,0,0,1-1.3-.56,9.05,9.05,0,0,1-1-.73c-.62-.49-1.13-1-1.61-1.37a7.27,7.27,0,0,0-1.29-.93,2.44,2.44,0,0,0-1-.31h-.37l.1,0,.27,0a2.36,2.36,0,0,1,1.06.15,7,7,0,0,1,1.46.78c.54.35,1.11.77,1.74,1.19a5.85,5.85,0,0,0,2.09,1,2,2,0,0,0,1.09-.11,3.14,3.14,0,0,0,1-.68,2.29,2.29,0,0,0,.21-.23l.12-.14.05-.06.05-.06c.15-.18.28-.37.41-.56a7.18,7.18,0,0,0,.64-1.23,4.46,4.46,0,0,0,.26-2.64,3.89,3.89,0,0,0-1.42-2.18,6.24,6.24,0,0,0-2.45-1.09,8.36,8.36,0,0,0-1.32-.17l-.33,0h-.32l-.65,0a7.84,7.84,0,0,0-1.21.16,6.14,6.14,0,0,0-2.82,1.3,5.68,5.68,0,0,0-1,1.17,5.51,5.51,0,0,0-.5.91C311.14,289.76,311.1,289.88,311.1,289.88Z" transform="translate(-196.43 -248.51)"/><path class="cls-3" d="M311.45,290.34s6.52-5,9.05-.21c1.35,2.57-1.25,5.26-3.41,3.31-2.38-2.13-4.33-1.3-4.33-1.3Z" transform="translate(-196.43 -248.51)"/><path d="M311.45,290.34a12.26,12.26,0,0,1,2.29-1.58,9.89,9.89,0,0,1,1.28-.59,6.38,6.38,0,0,1,1.38-.37,5.17,5.17,0,0,1,1.47,0,3.81,3.81,0,0,1,1.44.5,3.77,3.77,0,0,1,1.12,1,5.16,5.16,0,0,1,.4.63v0h0v0l0,0,0,.08a1.26,1.26,0,0,1,.07.16,2.22,2.22,0,0,1,.14.38,3.29,3.29,0,0,1,.1,1.56,3.18,3.18,0,0,1-.68,1.42,2.61,2.61,0,0,1-1.37.84,2.41,2.41,0,0,1-1.59-.22,3,3,0,0,1-.65-.44l-.51-.45a6.58,6.58,0,0,0-1.09-.71,4.48,4.48,0,0,0-1.24-.39,3.49,3.49,0,0,0-.65,0,3.19,3.19,0,0,0-.63.09l-.13,0-.06-.09C312.23,291.61,311.83,291,311.45,290.34Zm0,0q.74.84,1.44,1.71l-.19-.05a2.67,2.67,0,0,1,.72-.2,3.55,3.55,0,0,1,.73,0,4.65,4.65,0,0,1,1.42.32,6.52,6.52,0,0,1,1.28.72l.54.42a2.16,2.16,0,0,0,.51.32,1.63,1.63,0,0,0,1.1.12,1.86,1.86,0,0,0,.94-.6,2.29,2.29,0,0,0,.48-1.05,2.62,2.62,0,0,0-.06-1.18c0-.1-.07-.19-.1-.27a.56.56,0,0,0-.07-.16l0-.07,0,0s0,0,0,0h0a4.13,4.13,0,0,0-.34-.54,3.27,3.27,0,0,0-.88-.86,3.72,3.72,0,0,0-2.43-.49,7.45,7.45,0,0,0-1.3.25,11.42,11.42,0,0,0-1.28.45,11.71,11.71,0,0,0-1.25.57C312.24,289.88,311.84,290.1,311.45,290.34Z" transform="translate(-196.43 -248.51)"/><g class="cls-4"><path class="cls-1" d="M311.78,289.05a10.82,10.82,0,0,1,3.88-2.24c2.46-.65,5.06,0,5-.12a6.68,6.68,0,0,0-5.24-.5A5.71,5.71,0,0,0,311.78,289.05Z" transform="translate(-196.43 -248.51)"/></g><path class="cls-2" d="M351.8,442.14s15,53-28.14,70.47c1.85,5.6,1.91,5.74,6.89,5.74s9,1.42,9.3,7c.44,7.64-7.33,8.83-21,8.34s-17.22-17.12-15.19-21.56,14.08-20.26,10.39-28.16" transform="translate(-196.43 -248.51)"/><path d="M323.74,534.4c-1.55,0-3.18,0-4.9-.1a15.58,15.58,0,0,1-13-7.85c-3.22-5.21-4-11.75-2.71-14.58.46-1,1.39-2.53,2.56-4.46,4-6.48,10.57-17.32,7.83-23.18l1.12-.52c3,6.46-3.81,17.65-7.89,24.35-1.11,1.81-2.06,3.38-2.5,4.32-1,2.2-.48,8.37,2.64,13.43a14.42,14.42,0,0,0,12,7.26c8,.29,15.82.13,18.85-3a5.86,5.86,0,0,0,1.5-4.72c-.25-4.44-2.93-6.41-8.68-6.41-2.59,0-4-.05-5-.92s-1.49-2.32-2.46-5.24l-.18-.55.54-.22c17.68-7.14,27.73-21,29.88-41.27a84.46,84.46,0,0,0-2.1-28.47l1.19-.33a86.24,86.24,0,0,1,2.14,28.93,55.08,55.08,0,0,1-7.74,23.67c-5.13,8.17-12.66,14.36-22.37,18.4.75,2.27,1.21,3.56,1.9,4.14s1.87.62,4.22.62c6.38,0,9.63,2.48,9.92,7.58a7,7,0,0,1-1.86,5.65C336,533.63,330.8,534.4,323.74,534.4Z" transform="translate(-196.43 -248.51)"/><path class="cls-2" d="M380.66,365.16s2.69-10.64,7.66-4.54c2.9,3.56,6,10.08,7,1.14s-8.81-12.21-8.81-12.21" transform="translate(-196.43 -248.51)"/><path d="M380.66,365.16a13.16,13.16,0,0,1,.44-1.72,14.94,14.94,0,0,1,.74-1.92,10.45,10.45,0,0,1,.61-1.12,6.32,6.32,0,0,1,.91-1.14,3.26,3.26,0,0,1,1.44-.83,2.83,2.83,0,0,1,1.83.2,8,8,0,0,1,2.7,2.47c.77,1,1.48,2,2.26,2.95a9.54,9.54,0,0,0,1.22,1.3,1.26,1.26,0,0,0,.57.3.27.27,0,0,0,.13,0,.46.46,0,0,0,.16-.14,2.38,2.38,0,0,0,.36-.66,7,7,0,0,0,.25-.85,15.21,15.21,0,0,0,.33-1.81l.06-.46c0-.16,0-.31.05-.46s0-.58,0-.88a9,9,0,0,0-.15-1.73,8.8,8.8,0,0,0-.44-1.62,9.87,9.87,0,0,0-.68-1.47,12.09,12.09,0,0,0-1.81-2.39c-.33-.34-.67-.64-1-.92s-.65-.54-1-.77a18.41,18.41,0,0,0-1.69-1.11,14.42,14.42,0,0,0-1.57-.82l.45.13a11.92,11.92,0,0,1,1.24.46,15.16,15.16,0,0,1,1.84.93,13.23,13.23,0,0,1,2.18,1.57,14.17,14.17,0,0,1,1.11,1.09,11.73,11.73,0,0,1,1,1.34,9.77,9.77,0,0,1,1.4,3.37,10.19,10.19,0,0,1,.23,1.93c0,.32,0,.65,0,1,0,.16,0,.32,0,.48s0,.32-.05.48a17.12,17.12,0,0,1-.34,2,8.08,8.08,0,0,1-.3,1,3.68,3.68,0,0,1-.59,1,1.71,1.71,0,0,1-.59.45,1.46,1.46,0,0,1-.82.1,1.94,1.94,0,0,1-.64-.24,2.89,2.89,0,0,1-.48-.33,8.75,8.75,0,0,1-1.38-1.51c-.78-1-1.47-2.09-2.16-3.06a12.5,12.5,0,0,0-1-1.36,4.49,4.49,0,0,0-1.2-1,2,2,0,0,0-1.31-.24,2.45,2.45,0,0,0-1.18.59,7.56,7.56,0,0,0-1.58,2,16.67,16.67,0,0,0-.9,1.8c-.23.52-.39.93-.49,1.22Z" transform="translate(-196.43 -248.51)"/><path class="cls-2" d="M390.59,347.14s9.8,3.26,8.8,12.2-5.25,3.13-6.95-1.13-8.38-3.27-8.38-3.27" transform="translate(-196.43 -248.51)"/><path d="M390.59,347.14a4.4,4.4,0,0,1,.43.12c.27.09.68.22,1.17.43a15.67,15.67,0,0,1,1.76.87,14.68,14.68,0,0,1,2.11,1.46,12.24,12.24,0,0,1,2.09,2.24,10.4,10.4,0,0,1,1.51,3.12,11,11,0,0,1,.35,3.71,13.08,13.08,0,0,1-.78,3.76,5.11,5.11,0,0,1-.22.48l-.14.23a1.7,1.7,0,0,1-.17.23,2.78,2.78,0,0,1-.41.44l-.27.18a1.83,1.83,0,0,1-.32.14,1.21,1.21,0,0,1-.34.08,1.9,1.9,0,0,1-.34,0h-.16l-.16,0a1.47,1.47,0,0,1-.3-.08,3.23,3.23,0,0,1-.94-.57,7.61,7.61,0,0,1-1.31-1.43,14.11,14.11,0,0,1-1-1.54,15,15,0,0,1-.77-1.56c-.12-.26-.22-.52-.32-.78l-.08-.19v-.05s0,0,0,0h0v0l0-.09c-.06-.12-.11-.26-.16-.34a4.05,4.05,0,0,0-.36-.59,4.43,4.43,0,0,0-.45-.51,5.15,5.15,0,0,0-1.07-.8,6.88,6.88,0,0,0-1.16-.5,10.35,10.35,0,0,0-1.11-.31,12.82,12.82,0,0,0-1.89-.25,12.15,12.15,0,0,0-1.25,0h-.44l.44-.08a10.31,10.31,0,0,1,1.25-.14,11,11,0,0,1,2,0,8.13,8.13,0,0,1,2.52.64,5.49,5.49,0,0,1,1.3.81,4.11,4.11,0,0,1,.59.59,4.23,4.23,0,0,1,.49.71,3.49,3.49,0,0,1,.2.37l0,.09,0,.11.08.18c.11.24.23.48.35.72.25.48.5,1,.79,1.45a13.12,13.12,0,0,0,.95,1.39,7.6,7.6,0,0,0,1.14,1.19,2.12,2.12,0,0,0,.61.35.71.71,0,0,0,.49,0s.07,0,.1-.05l.11-.07a1.17,1.17,0,0,0,.21-.23l.1-.14.1-.17c.06-.1.11-.24.17-.36a9.19,9.19,0,0,0,.47-1.64l.08-.42c0-.14.05-.29.07-.44l.06-.45v-.14h0v-.05l0-.22a10.25,10.25,0,0,0-.21-3.33,10.52,10.52,0,0,0-1.22-2.89,13.62,13.62,0,0,0-1.81-2.23,18.27,18.27,0,0,0-3.49-2.63A15.68,15.68,0,0,0,390.59,347.14Z" transform="translate(-196.43 -248.51)"/><path class="cls-2" d="M404.22,354.09c-1.14-6.1-1.71-10.65-11.22-11.78-6.17-.74-13.06,4.38-17.13,8.07-3.78-.9-15.32-1-30.07-10.58-28.09-18.17-33.41-29.5-33.41-29.5s-1.84,52.8,11.17,67.4,33.64,10.16,47.61,1.27c10.89-6.93,8.65-20.22,7.14-25.75l6,.17s7.42-7.82,12.24-1.29S405.35,360.19,404.22,354.09Z" transform="translate(-196.43 -248.51)"/><path d="M345.32,387.8a28.89,28.89,0,0,1-22.22-9.69c-5.48-6.16-9.06-19.46-10.62-39.54-1.16-14.89-.71-28.16-.71-28.29l.09-2.56L313,310c.05.11,5.64,11.43,33.18,29.25a63.48,63.48,0,0,0,27.12,10c1,.15,1.79.26,2.44.4,4.18-3.74,10.29-8.09,16.09-8.09a11.07,11.07,0,0,1,1.3.08c9.69,1.15,10.55,5.84,11.65,11.76l.1.52c.36,1.95.24,3.25-.36,4a1.62,1.62,0,0,1-1.29.58h0c-2.38,0-5.77-4.24-7.12-6.07a5.14,5.14,0,0,0-4.19-2.35c-3.55,0-7.08,3.65-7.11,3.69l-.19.2-5.45-.15c1.49,6,3.13,18.79-7.62,25.63C363.08,384.85,353.78,387.8,345.32,387.8ZM313,312.44c-.16,10-.16,52.25,11.07,64.85,5.48,6.15,12.64,9.27,21.29,9.27,8.11,0,17.41-2.95,25.52-8.11,10.56-6.72,8.33-19.77,6.88-25.06l-.22-.8,6.56.17c.84-.83,4.2-3.88,7.81-3.88a6.28,6.28,0,0,1,5.18,2.86c2.84,3.85,5.13,5.57,6.13,5.57h0a.39.39,0,0,0,.34-.14c.16-.19.48-.86.09-3l-.1-.51c-1.08-5.85-1.79-9.72-10.58-10.77a10.79,10.79,0,0,0-1.15-.06c-5.8,0-12.2,5-15.5,8l-.24.22-.32-.08c-.64-.15-1.53-.28-2.65-.45a64.52,64.52,0,0,1-27.61-10.21C323.78,326.3,315.62,316.39,313,312.44Z" transform="translate(-196.43 -248.51)"/><path class="cls-2" d="M375.26,352.25l16.36-3.62s-10,4.48-6.1,8.51c-2.84.71-2.14,1.92-3.4,3.82-1.11,1.67-.33,1.36-4-.34S375.26,352.25,375.26,352.25Z" transform="translate(-196.43 -248.51)"/><path class="cls-2" d="M229.59,398.15S203.4,519.36,321.65,490.2c58.44-14.41,27.31-102.64,1.91-112.5C301.88,390.43,275.93,430.67,229.59,398.15Z" transform="translate(-196.43 -248.51)"/><path d="M288.34,495.35c-20.77,0-36.61-6.58-47.08-19.55a63.3,63.3,0,0,1-11.61-24.2,107,107,0,0,1-3.13-25.38A141.79,141.79,0,0,1,229,398l.2-.91.76.54c11.79,8.27,22.81,12.29,33.69,12.29,18.39,0,32.56-11.63,45.06-21.9,5.11-4.19,9.93-8.16,14.56-10.87l.26-.15.28.1c7.7,3,16.11,13.07,22.49,26.95,6.7,14.57,10,30.89,9.14,44.76-.67,10.34-3.57,19.1-8.62,26.05-5.74,7.89-14.15,13.24-25,15.92A141.49,141.49,0,0,1,288.34,495.35ZM230,399.2a144.07,144.07,0,0,0-2.26,27c.18,14.31,2.84,34.38,14.48,48.8,10.22,12.66,25.74,19.08,46.11,19.08a140.52,140.52,0,0,0,33.16-4.51c25.24-6.22,31.71-25.65,32.69-40.85.88-13.67-2.41-29.77-9-44.17C339,391.16,331,381.4,323.62,378.39c-4.47,2.66-9.17,6.52-14.15,10.61-12.66,10.39-27,22.18-45.84,22.18C252.73,411.18,241.72,407.26,230,399.2Z" transform="translate(-196.43 -248.51)"/><g class="cls-4"><path d="M310.23,433.52a19.74,19.74,0,0,1-8.12.11c-1.74-.35-6.44-2.35-6.11-3.73,2.92-6,12.49,1.35,14.6,0s3.87-4.74-4.43-8.32c-6.44-2.78-10.62-1.05-10.62-1.05s3.43-4.46,7.83-2.29,6.62,3.57,7.59,1.55-2-5.5-5.52-7.33-10.28-1.73-13.83,1.49-7.89,6.41-7.89,6.41a5.6,5.6,0,0,0-.3,1.43c-3.61,3.11-10.43,1.1-25,1.88-19.25,1-30.84-8.3-30.84-8.3s-1,16.55-.36,23.55c0,0,4.11-7.45,14.68-2.65s27.87,10.17,45.72-4.24c0-.22,0,.16.07,0a18.76,18.76,0,0,0,4.78,3.79c4.22,2.72,8.3,4.57,13.91,2.88S312.81,432.74,310.23,433.52Z" transform="translate(-196.43 -248.51)"/></g><path class="cls-2" d="M373.84,358.92s-3.41,16.18,10.93,16c8.52-.09,10.36-3.41,6.11-7.1s-8.66-.57-8.95-8.23" transform="translate(-196.43 -248.51)"/><path d="M373.84,358.92s0,.19-.06.56-.07.91-.1,1.59a24.18,24.18,0,0,0,.06,2.47,19.6,19.6,0,0,0,.48,3.13,12,12,0,0,0,1.39,3.39,8.52,8.52,0,0,0,1.21,1.55l.37.35.19.17.2.15.4.32.44.27a6.34,6.34,0,0,0,.93.49,3.61,3.61,0,0,0,.49.21l.5.18c.35.1.7.2,1.05.28s.72.14,1.09.19.74.08,1.11.1l1.14,0c.77,0,1.53-.05,2.3-.12a18.34,18.34,0,0,0,2.24-.36,7.89,7.89,0,0,0,2-.75,2.37,2.37,0,0,0,1.18-1.34,1.79,1.79,0,0,0,0-.86,3.09,3.09,0,0,0-.36-.87,5.79,5.79,0,0,0-.58-.82,8.16,8.16,0,0,0-.7-.74l-.18-.18-.09-.08-.1-.08c-.13-.11-.27-.24-.39-.33s-.25-.19-.39-.28-.26-.18-.4-.26a15.19,15.19,0,0,0-3.44-1.38,8.59,8.59,0,0,1-1.62-.66,4,4,0,0,1-1.24-1.06,4.2,4.2,0,0,1-.64-1.24c-.06-.21-.13-.4-.17-.6l-.06-.27,0-.27a11.19,11.19,0,0,1-.12-1.61v-.56s0,.19.07.56a13,13,0,0,0,.29,1.56,5,5,0,0,0,1,2.13,3.36,3.36,0,0,0,1.14.83,8.8,8.8,0,0,0,1.55.51c.57.14,1.17.28,1.8.47a10.21,10.21,0,0,1,1.9.79c.15.08.31.17.46.27a4.63,4.63,0,0,1,.46.31,3.7,3.7,0,0,1,.43.32l.11.08.11.1.21.18a7.63,7.63,0,0,1,1.52,1.75,4.37,4.37,0,0,1,.52,1.16,3,3,0,0,1,0,1.39,2.92,2.92,0,0,1-.65,1.26,4.36,4.36,0,0,1-1,.85,8.73,8.73,0,0,1-2.34.91,16.79,16.79,0,0,1-2.41.39c-.81.08-1.62.11-2.41.11l-1.22,0-1.2-.13c-.4-.06-.8-.14-1.19-.22s-.78-.22-1.16-.34l-.55-.22a4.6,4.6,0,0,1-.55-.25,8,8,0,0,1-1-.58l-.48-.32-.45-.37-.22-.18-.21-.21c-.13-.13-.26-.27-.4-.4a9.69,9.69,0,0,1-1.26-1.79,11.37,11.37,0,0,1-.83-1.87c-.09-.31-.19-.62-.26-.93s-.15-.61-.2-.9a16.92,16.92,0,0,1-.26-3.27,19.13,19.13,0,0,1,.17-2.5c.09-.69.19-1.22.27-1.58S373.84,358.92,373.84,358.92Z" transform="translate(-196.43 -248.51)"/><path class="cls-3" d="M329.59,333.27s17.16,23.13,3.51,51.06C329,393.18,309.94,399.83,292,401c-22.56,1.43-44.35-4-44.35-4s-3.78-66.52,20.34-74.77S329.59,333.27,329.59,333.27Z" transform="translate(-196.43 -248.51)"/><path d="M284.27,401.83a171.12,171.12,0,0,1-36.74-4.3l-.44-.11,0-.45a225.85,225.85,0,0,1,1.13-34.4c1.21-10.31,3.19-18.88,5.9-25.48,3.43-8.35,8-13.57,13.73-15.51a42.93,42.93,0,0,1,13.87-2.08c22.34,0,47.92,13.09,48.18,13.22l.13.07.08.11a49.93,49.93,0,0,1,7,15.26,50.49,50.49,0,0,1-3.4,36.44c-4.42,9.6-24.72,15.92-41.58,17C289.56,401.75,286.94,401.83,284.27,401.83Zm-36-5.39a170.51,170.51,0,0,0,36,4.15c2.64,0,5.24-.08,7.73-.24A88.33,88.33,0,0,0,317.53,395c7.84-3,13.17-6.91,15-10.9a49.59,49.59,0,0,0,3.33-35.58,50.66,50.66,0,0,0-6.69-14.74c-2-1-26.26-13-47.48-13a41.56,41.56,0,0,0-13.47,2c-5.33,1.82-9.69,6.8-13,14.8-2.67,6.49-4.63,14.95-5.82,25.15A225.37,225.37,0,0,0,248.28,396.44Z" transform="translate(-196.43 -248.51)"/><path class="cls-2" d="M290.49,401.91s5.12-1.68,9.49-3.63,10.84.06,13.6,2.89,4.52,7.07,3,8.69-3.23-.41-6.74-3.84-8.14-.27-8.14-.27,4.51-.34,9.76,4.31c6.77,6,4,8.69,1.62,9.29s-9.23-9.36-13.88-4.58c-.74,1.22,3.1,4.58,4.65,5.46a20,20,0,0,0,7.74,2.42c2.7.07.61,3.84-5.25,3.71s-9.16-3.17-12.32-7.07S287.26,406,290.49,401.91Z" transform="translate(-196.43 -248.51)"/><path d="M306.62,427h-.32c-6.46-.14-10-3.84-12.79-7.3-3.08-3.79-7.11-13.64-3.5-18.14l.11-.15.17-.05c.06,0,5.14-1.7,9.44-3.62a10.33,10.33,0,0,1,4.23-.83A15.09,15.09,0,0,1,314,400.74c3,3,4.85,7.58,3,9.55a2.19,2.19,0,0,1-1.6.75h0c-1.39,0-2.75-1.35-5-3.6l-1-1A4.77,4.77,0,0,0,306,405a6.6,6.6,0,0,0-2,.33,17.42,17.42,0,0,1,7.89,4.23c3.41,3,4.89,5.59,4.38,7.66a3.9,3.9,0,0,1-3,2.69,1.58,1.58,0,0,1-.38.05c-1.08,0-2.4-1-4.07-2.36-2-1.58-4.51-3.55-6.67-3.55a3.27,3.27,0,0,0-2.38,1c0,.16.18.84,1.46,2.15a16.08,16.08,0,0,0,3,2.41,19.28,19.28,0,0,0,7.46,2.34c1.32,0,1.77.8,1.76,1.45C313.33,425,311,427,306.62,427Zm-15.76-24.54c-2.82,3.86.75,12.92,3.61,16.46,3.35,4.13,6.5,6.72,11.86,6.84,3.78.08,5.77-1.58,5.78-2.27,0-.15-.37-.2-.56-.2a20.37,20.37,0,0,1-8-2.5c-1.24-.71-4.53-3.39-5-5.19a1.38,1.38,0,0,1,.13-1.13l0-.06.05-.05a4.55,4.55,0,0,1,3.35-1.49c2.59,0,5.27,2.12,7.43,3.82,1.31,1,2.66,2.09,3.31,2.09h.08A2.8,2.8,0,0,0,315,417c.38-1.54-1-3.83-4-6.45-4.48-4-8.4-4.16-9.14-4.16h-.17l-2.27.15,1.88-1.28A9.06,9.06,0,0,1,306,403.8a6,6,0,0,1,4.3,1.78l1,1c1.82,1.81,3.26,3.24,4.14,3.24a1,1,0,0,0,.71-.38c1.17-1.22-.29-5.1-3-7.83-2-2-5.83-3.48-9.18-3.48a9.13,9.13,0,0,0-3.73.72C296.34,400.58,291.82,402.12,290.86,402.44Z" transform="translate(-196.43 -248.51)"/><path class="cls-2" d="M272.51,313.94s-39.07,7.27-57.48,41.54,0,57,26.8,67.59c31.6,12.43,74.56-8.74,42.9-33.3-5.54-4.29-18.54-12.65-32.82-15-2.85-10.15,6-45.28,15.16-50" transform="translate(-196.43 -248.51)"/><path d="M261.88,427.35a56.06,56.06,0,0,1-20.27-3.7A68.74,68.74,0,0,1,221.67,412a42.39,42.39,0,0,1-12.42-17.36c-4.29-11.7-2.53-25,5.23-39.42a76.19,76.19,0,0,1,16.89-21.12,95.34,95.34,0,0,1,41-20.73l.22,1.21a91,91,0,0,0-21.71,7.88C240,328,225,338.23,215.57,355.78c-7.59,14.13-9.32,27.05-5.16,38.4,4.39,12,15.63,22,31.65,28.32a54.06,54.06,0,0,0,19.69,3.64c14.5,0,27.48-5.56,31.81-13.18,4-7,.69-15-9.2-22.7-2.61-2-16.41-12.22-32.55-14.91l-.38-.06-.11-.38c-1.39-4.94-.16-15.94,3.06-27.38,3.5-12.43,8.14-21.17,12.41-23.38l.57,1.1c-3.92,2-8.44,10.69-11.79,22.62-3,10.77-4.31,21.47-3.16,26.33,16.27,2.84,30.08,13.05,32.7,15.09,14.09,10.92,12,19.9,9.53,24.28-3.39,6-11.2,10.57-21.43,12.66A57.06,57.06,0,0,1,261.88,427.35Z" transform="translate(-196.43 -248.51)"/><path d="M330.25,509.6s-5,3.36-14.07,4.45" transform="translate(-196.43 -248.51)"/><path d="M330.25,509.6s-.18.15-.51.39-.83.54-1.45.88c-.31.16-.64.35-1,.52l-.56.26-.59.25c-.41.18-.83.33-1.27.49s-.88.3-1.32.45l-1.35.37-1.32.3-1.24.22c-.4.07-.78.11-1.12.15s-.67.08-.95.1l-.74,0-.64,0,.62-.15.72-.16c.28,0,.59-.13.93-.21l1.09-.25,1.21-.3,1.29-.35,1.32-.38,1.31-.42c.43-.15.86-.28,1.26-.43l.6-.22.57-.22c.19-.06.36-.14.54-.21l.5-.2.87-.37.67-.3.42-.2Z" transform="translate(-196.43 -248.51)"/><path class="cls-3" d="M265.17,328.83s-.28-40.65,26.93-50.11c22.95-8,27.16,15.14,36,31s6.33,35.51-14,46.62-44.24-13.55-44.24-13.55" transform="translate(-196.43 -248.51)"/><path d="M265.17,328.83s0-.86,0-2.46.2-3.95.57-6.92a84.41,84.41,0,0,1,2-10.61c.26-1,.55-2,.88-3.11s.69-2.14,1.09-3.24.85-2.22,1.35-3.35,1-2.27,1.64-3.41,1.27-2.27,2-3.41,1.52-2.24,2.39-3.33a34.26,34.26,0,0,1,6.15-6.05,33,33,0,0,1,3.79-2.48,33.51,33.51,0,0,1,4.21-1.93,27.52,27.52,0,0,1,9.36-1.94,17.21,17.21,0,0,1,4.93.64,16.71,16.71,0,0,1,4.59,2.14,21.73,21.73,0,0,1,2,1.56,23.63,23.63,0,0,1,1.82,1.79c.58.63,1.12,1.28,1.64,2s1,1.37,1.47,2.09a72.22,72.22,0,0,1,4.9,9c1.47,3.08,2.86,6.2,4.35,9.26.75,1.53,1.52,3,2.36,4.51.41.74.82,1.53,1.19,2.31s.72,1.57,1,2.37a36.58,36.58,0,0,1,2.48,10,31.82,31.82,0,0,1-.61,10.13,30,30,0,0,1-3.77,9.16,34.11,34.11,0,0,1-6.14,7.33,42.44,42.44,0,0,1-7.4,5.33c-.32.19-.65.36-1,.54l-.12.07-.07,0-.06,0-.25.12-.48.25-1,.46-1,.42a24,24,0,0,1-4.13,1.16,25.94,25.94,0,0,1-8.09.15,35,35,0,0,1-7.2-1.78,47.05,47.05,0,0,1-6.09-2.71A66.36,66.36,0,0,1,277,349a69.52,69.52,0,0,1-5.3-4.5c-1.16-1.1-1.75-1.72-1.75-1.72s.6.61,1.8,1.67,3,2.57,5.41,4.33a64,64,0,0,0,9.14,5.64,48.57,48.57,0,0,0,6.07,2.56,34.56,34.56,0,0,0,7.08,1.63,26.22,26.22,0,0,0,7.83-.26,22.9,22.9,0,0,0,4-1.16l1-.41c.31-.15.63-.29.95-.46l.48-.25.24-.13.06,0,.05,0,.12-.06.94-.54a43.22,43.22,0,0,0,7.18-5.27,33.21,33.21,0,0,0,5.9-7.13,29.68,29.68,0,0,0,3.57-8.83,30.58,30.58,0,0,0,.56-9.75,35.49,35.49,0,0,0-2.41-9.65c-.32-.78-.65-1.55-1-2.3s-.74-1.49-1.16-2.25c-.83-1.49-1.62-3-2.37-4.57-1.5-3.09-2.88-6.21-4.34-9.28-.72-1.53-1.47-3.05-2.26-4.53s-1.61-2.94-2.52-4.33c-.45-.7-.93-1.37-1.42-2s-1-1.29-1.56-1.9a23.11,23.11,0,0,0-1.72-1.71,19,19,0,0,0-1.9-1.48,15.79,15.79,0,0,0-4.27-2,17.09,17.09,0,0,0-4.64-.64,22.32,22.32,0,0,0-4.62.51c-.38.08-.75.16-1.13.26l-.56.14-.55.16-.55.16-.55.18-.54.18-.54.2a31.59,31.59,0,0,0-4.1,1.84,31.22,31.22,0,0,0-3.71,2.37,33.78,33.78,0,0,0-6.08,5.84c-.87,1.06-1.66,2.15-2.4,3.25s-1.39,2.22-2,3.34A60.73,60.73,0,0,0,268.18,309,84.47,84.47,0,0,0,266,319.48c-.42,2.95-.62,5.3-.72,6.89S265.17,328.83,265.17,328.83Z" transform="translate(-196.43 -248.51)"/><polygon class="cls-2" points="97.96 170.24 94.82 165.97 95.87 153.36 101.14 151.62 102.72 158.4 97.96 170.24"/><path class="cls-2" d="M271.06,453s18.46,25.68,53.34,25.19c10.2-1.41,9,8.69,18.08,18.93,6.24,7,4.43,13-1.1,11.85-3.33,4.28-8.86,1.15-8.86,1.15s-3.14,3.9-7-.88-6.09-15.19-6.09-15.19-76.53,40.44-89.34-45.76" transform="translate(-196.43 -248.51)"/><path d="M271.06,453c.79,1,1.64,2,2.5,2.88s1.78,1.82,2.7,2.69,1.87,1.71,2.85,2.53,2,1.6,3,2.37a72.09,72.09,0,0,0,6.29,4.24,69,69,0,0,0,6.7,3.53c1.15.53,2.31,1,3.48,1.48s2.35.92,3.54,1.33,2.4.79,3.61,1.13,2.44.63,3.67.91,2.47.5,3.71.69c.63.1,1.25.18,1.88.26s1.25.15,1.88.21,1.25.12,1.88.16l.94.06.95,0c1.26.06,2.52.07,3.78.06h-.08a13,13,0,0,1,2.93-.08,7.58,7.58,0,0,1,2.88.84,8.39,8.39,0,0,1,2.34,1.87,15.86,15.86,0,0,1,1.68,2.36c1,1.63,1.79,3.3,2.66,4.94s1.75,3.23,2.76,4.76a38.27,38.27,0,0,0,3.31,4.37l.47.53.45.56c.3.37.59.75.86,1.15a16.28,16.28,0,0,1,1.43,2.51,10.28,10.28,0,0,1,.87,2.82,5.86,5.86,0,0,1-.29,3.06,4,4,0,0,1-.92,1.36,3.86,3.86,0,0,1-1.41.85,5.78,5.78,0,0,1-3.08.11l.61-.23a6.16,6.16,0,0,1-4.6,2.48,8.74,8.74,0,0,1-2.61-.25,10.3,10.3,0,0,1-1.23-.38l-.6-.24c-.21-.09-.39-.18-.61-.3l.79-.15c-.12.14-.21.23-.32.34a3.11,3.11,0,0,1-.33.29,6,6,0,0,1-.71.5,4.5,4.5,0,0,1-1.7.57,4,4,0,0,1-1.79-.19,5.35,5.35,0,0,1-1.53-.82,9.39,9.39,0,0,1-1.22-1.13l-.27-.31-.14-.17-.12-.15-.23-.31-.24-.34c-.17-.22-.3-.45-.45-.67s-.28-.45-.41-.68c-.26-.46-.51-.93-.74-1.4s-.46-.95-.67-1.43-.41-1-.6-1.45c-.39-1-.74-2-1.06-2.95s-.62-2-.9-3c-.14-.5-.27-1-.4-1.51s-.25-1-.36-1.53l.89.42c-1.17.6-2.33,1.14-3.51,1.66s-2.38,1-3.57,1.48c-2.4.94-4.84,1.79-7.3,2.55a90.36,90.36,0,0,1-15.1,3.3,65.08,65.08,0,0,1-15.47.18,50.63,50.63,0,0,1-7.63-1.47,45.36,45.36,0,0,1-7.3-2.7,42.64,42.64,0,0,1-6.7-4,43.2,43.2,0,0,1-5.87-5.1,49.94,49.94,0,0,1-4.94-6c-.75-1.05-1.45-2.14-2.12-3.25s-1.26-2.26-1.85-3.41a74.09,74.09,0,0,1-3-7.11c-.88-2.42-1.65-4.88-2.32-7.36s-1.24-5-1.72-7.5-.87-5.06-1.19-7.6q.65,3.79,1.51,7.53c.57,2.49,1.22,5,2,7.41s1.6,4.84,2.56,7.2a68.92,68.92,0,0,0,3.25,6.9c.61,1.11,1.24,2.21,1.9,3.29s1.33,2.16,2.06,3.19a48.27,48.27,0,0,0,4.8,5.86,42.84,42.84,0,0,0,5.72,5,40.87,40.87,0,0,0,6.5,3.85,46.13,46.13,0,0,0,14.54,4.06,63.73,63.73,0,0,0,15.18-.18A88.5,88.5,0,0,0,305,499.13q3.65-1.12,7.2-2.52c1.19-.46,2.36-.95,3.53-1.46s2.32-1,3.43-1.62l.72-.37.17.78c.11.49.23,1,.36,1.49s.25,1,.39,1.48c.27,1,.56,2,.88,2.94s.66,1.93,1,2.87c.18.48.38.95.58,1.41s.42.93.64,1.38.46.89.71,1.33l.39.64c.13.21.27.43.41.62l.21.3.23.3.12.15.11.13.23.28a7.94,7.94,0,0,0,1.05,1,3.38,3.38,0,0,0,2.44.77,3.27,3.27,0,0,0,1.22-.41,4.21,4.21,0,0,0,.55-.39l.25-.22.22-.22.33-.4.45.25.5.24c.17.07.35.15.53.21a8.58,8.58,0,0,0,1.09.34,7.38,7.38,0,0,0,2.23.21,4.8,4.8,0,0,0,2.08-.58,5.28,5.28,0,0,0,1.64-1.42l.24-.3.37.08a4.63,4.63,0,0,0,2.43-.07,2.58,2.58,0,0,0,1.59-1.51,4.73,4.73,0,0,0,.21-2.41,9.7,9.7,0,0,0-.77-2.49,15.28,15.28,0,0,0-1.33-2.32c-.25-.37-.52-.73-.8-1.09-.15-.17-.29-.35-.43-.52l-.45-.52a38.35,38.35,0,0,1-3.42-4.5c-1-1.57-2-3.22-2.83-4.87s-1.68-3.32-2.62-4.88a14.7,14.7,0,0,0-1.55-2.17,7.19,7.19,0,0,0-2-1.6,6.6,6.6,0,0,0-2.44-.7,11.08,11.08,0,0,0-2.63.08h-.07c-1.29,0-2.57,0-3.85-.05l-1,0-1-.07c-.64,0-1.28-.1-1.91-.16l-1.92-.21c-.63-.09-1.27-.16-1.91-.27-1.27-.19-2.53-.44-3.78-.7s-2.51-.58-3.74-.93-2.47-.73-3.68-1.14c-.61-.2-1.22-.42-1.82-.64s-1.2-.45-1.79-.71c-1.19-.49-2.35-1-3.5-1.61a69.67,69.67,0,0,1-6.68-3.8A71.39,71.39,0,0,1,276,458.82c-.89-.91-1.75-1.85-2.59-2.81S271.8,454.05,271.06,453Z" transform="translate(-196.43 -248.51)"/><path d="M335.89,503.6s.11.18.33.49a3,3,0,0,0,.18.25c.06.1.13.19.21.3l.25.32c.09.11.18.23.29.35s.43.48.67.73.52.49.81.73l.45.34.49.31c.16.1.34.19.5.28l.54.24.55.19.07,0h0l.16,0,.31.07a5,5,0,0,0,.55.1,2.3,2.3,0,0,0,.26,0h.27a4,4,0,0,0,1-.11c.16,0,.3-.1.45-.15a3,3,0,0,0,.41-.19,3.13,3.13,0,0,0,.36-.22l.16-.12.15-.12c.19-.16.35-.32.48-.45a4.38,4.38,0,0,0,.28-.34l.09-.12,0,.15a2.66,2.66,0,0,1-.13.43,3.27,3.27,0,0,1-.33.64l-.12.18-.14.18a4,4,0,0,1-.35.37,5.38,5.38,0,0,1-.43.34,4.49,4.49,0,0,1-.53.29,4.25,4.25,0,0,1-1.26.33l-.34,0c-.12,0-.24,0-.36,0l-.36,0-.33-.05-.31-.06-.15,0h-.12l-.08,0c-.22-.07-.45-.13-.67-.21l-.64-.3c-.2-.11-.39-.24-.59-.36s-.36-.27-.54-.41-.33-.29-.48-.44a6.74,6.74,0,0,1-.79-.95,7.91,7.91,0,0,1-.56-.93,7.06,7.06,0,0,1-.36-.84c-.09-.25-.15-.48-.2-.67s-.07-.34-.09-.44S335.89,503.6,335.89,503.6Z" transform="translate(-196.43 -248.51)"/><path d="M339.67,510.28a2.92,2.92,0,0,1-.5.39,4.85,4.85,0,0,1-.63.36,5.2,5.2,0,0,1-.88.35,6.61,6.61,0,0,1-3.76,0,5.3,5.3,0,0,1-.67-.23l-.17-.07-.08,0-.09,0-.3-.15-.34-.19-.3-.2-.29-.21-.28-.24a6.49,6.49,0,0,1-.94-1,7.13,7.13,0,0,1-1-2.17,6.76,6.76,0,0,1-.26-1.65,4.53,4.53,0,0,1,0-.63s.08.22.24.58c.07.17.17.39.29.63s.25.5.41.78a9.39,9.39,0,0,0,1.23,1.76,7.19,7.19,0,0,0,.84.81l.23.18.25.18.25.16.24.14.29.15,0,0h0l.07,0,.14.06c.19.09.37.16.56.23a8.57,8.57,0,0,0,1.14.33,8.37,8.37,0,0,0,2.13.14c.32,0,.61-.07.87-.11a6.48,6.48,0,0,0,.68-.15A4.56,4.56,0,0,0,339.67,510.28Z" transform="translate(-196.43 -248.51)"/><path class="cls-2" d="M280.3,290.74s-1.36-7.24-11.45-7.32-14.19,7.76-8.05,14.7,11.67-4.67,16.63-3.61" transform="translate(-196.43 -248.51)"/><path d="M280.3,290.74s-.06-.22-.21-.6a8.93,8.93,0,0,0-.82-1.56,9.79,9.79,0,0,0-1.8-2,9.35,9.35,0,0,0-1.36-.95,9.69,9.69,0,0,0-1.65-.79c-.3-.12-.61-.21-.93-.31s-.64-.18-1-.24a15.91,15.91,0,0,0-2.12-.3c-.37,0-.74,0-1.12,0h-.56l-.59,0a16.81,16.81,0,0,0-2.32.26,11.32,11.32,0,0,0-4.43,1.82,7.41,7.41,0,0,0-1.7,1.7,6.65,6.65,0,0,0-1,2.16,7.4,7.4,0,0,0,.5,4.74,11.34,11.34,0,0,0,1.2,2.12q.36.5.75,1l.4.44a6.51,6.51,0,0,0,2.29,1.54,4.12,4.12,0,0,0,2.06.11,7.3,7.3,0,0,0,1.95-.69,16.07,16.07,0,0,0,1.73-1c1.09-.73,2.06-1.45,3-2a12.45,12.45,0,0,1,2.47-1.33,4.44,4.44,0,0,1,1.78-.3l.28,0,.19,0,.16,0-.16,0h-.47a4.25,4.25,0,0,0-1.69.45,12.41,12.41,0,0,0-2.29,1.48c-.85.64-1.76,1.43-2.83,2.23a20.43,20.43,0,0,1-1.75,1.16,7.94,7.94,0,0,1-2.15.87,5.06,5.06,0,0,1-2.53-.05,6.17,6.17,0,0,1-2.29-1.28q-.24-.21-.48-.45c-.17-.17-.29-.29-.45-.47a11.89,11.89,0,0,1-.83-1,11.58,11.58,0,0,1-1.38-2.31,9.54,9.54,0,0,1-.76-2.67,7.73,7.73,0,0,1,.15-2.83,7.43,7.43,0,0,1,1.2-2.58,8.6,8.6,0,0,1,2-2,11.78,11.78,0,0,1,4.93-1.93,16.54,16.54,0,0,1,2.5-.21c.21,0,.41,0,.6,0s.4,0,.6,0c.4,0,.79.05,1.18.09a14.07,14.07,0,0,1,4.22,1.11,10,10,0,0,1,4.06,3.21,10,10,0,0,1,.68,1.1,8.69,8.69,0,0,1,.68,1.67A5.34,5.34,0,0,1,280.3,290.74Z" transform="translate(-196.43 -248.51)"/><path class="cls-3" d="M279.7,291.51s-11.33-8.36-15.72-.36c-2.34,4.28,2.17,8.75,5.93,5.52,4.13-3.56,7.51-2.17,7.51-2.17Z" transform="translate(-196.43 -248.51)"/><path d="M279.7,291.51c-.67-.43-1.36-.82-2.05-1.19s-1.41-.7-2.13-1a20,20,0,0,0-2.21-.78,13.87,13.87,0,0,0-2.27-.47,8.69,8.69,0,0,0-2.28,0,5.52,5.52,0,0,0-3.74,2.2c-.11.15-.23.29-.33.45l-.29.48-.07.11-.06.13-.13.26a4.73,4.73,0,0,0-.31,2.64,3.86,3.86,0,0,0,.95,1.89,3.35,3.35,0,0,0,1.8,1.05,3.27,3.27,0,0,0,2.08-.26,4.45,4.45,0,0,0,.92-.58c.32-.25.63-.49.95-.72a11.56,11.56,0,0,1,2.15-1.18,8.4,8.4,0,0,1,2.38-.54c.2,0,.4,0,.61,0s.41,0,.61.05a4.65,4.65,0,0,1,1.2.28l-.19,0,1.2-1.45C278.89,292.46,279.3,292,279.7,291.51Zm0,0-1.07,1.54-1.09,1.54-.06.09-.12,0a4.61,4.61,0,0,0-1.12-.19h-.57c-.19,0-.38,0-.57.05a7.68,7.68,0,0,0-2.2.62,10.16,10.16,0,0,0-2,1.17c-.31.23-.61.5-.91.74a5.41,5.41,0,0,1-1.06.7,4,4,0,0,1-4.78-.9,4.75,4.75,0,0,1-1.17-2.28,5,5,0,0,1-.08-1.28,5.3,5.3,0,0,1,.24-1.26c.06-.2.16-.41.24-.61l.13-.27.07-.13v-.05l0,0,0-.07.33-.52c.11-.18.25-.34.37-.51a6.24,6.24,0,0,1,4.27-2.39,9.56,9.56,0,0,1,2.45.05,12.53,12.53,0,0,1,2.34.59,18.69,18.69,0,0,1,2.21.92c.71.36,1.41.74,2.08,1.16A19,19,0,0,1,279.7,291.51Z" transform="translate(-196.43 -248.51)"/><path class="cls-3" d="M314.76,291s10.24-.7,8.28,6.88-5.37,8.58-14.16,5.27" transform="translate(-196.43 -248.51)"/><path d="M314.76,291l.35,0c.23,0,.57-.06,1-.07a12.27,12.27,0,0,1,1.57,0,11.3,11.3,0,0,1,2,.34,6.73,6.73,0,0,1,2.27,1.06,5.14,5.14,0,0,1,1,1,4.35,4.35,0,0,1,.66,1.37,5,5,0,0,1,.2,1.54c0,.13,0,.26,0,.39l0,.38a6.88,6.88,0,0,1-.13.77l0,.18v.1l0,.09-.09.35c-.06.24-.13.48-.2.72-.15.49-.31,1-.5,1.44a9.92,9.92,0,0,1-1.54,2.69,5.61,5.61,0,0,1-2.55,1.76,6.94,6.94,0,0,1-1.44.29,9,9,0,0,1-1.38,0,13.51,13.51,0,0,1-2.4-.44,19.83,19.83,0,0,1-1.93-.64c-.28-.1-.54-.2-.78-.31l-.66-.28c-.4-.17-.7-.32-.91-.42l-.32-.15,1.31.34.69.17c.25.06.52.14.81.2.58.14,1.23.27,1.94.39a15.07,15.07,0,0,0,2.29.22,8.33,8.33,0,0,0,1.22-.08,6.91,6.91,0,0,0,1.19-.3,4.77,4.77,0,0,0,1.08-.61,4.84,4.84,0,0,0,.91-.9,9.15,9.15,0,0,0,1.33-2.38c.17-.43.33-.88.48-1.33.06-.23.14-.44.2-.68l.1-.35,0-.09v0h0v-.05l0-.16a5.75,5.75,0,0,0,.1-2.53,4.32,4.32,0,0,0-.45-1.08,4.52,4.52,0,0,0-.76-.87,5.3,5.3,0,0,0-.93-.64,6.85,6.85,0,0,0-1-.47,14.1,14.1,0,0,0-1.87-.55c-.58-.12-1.09-.2-1.51-.25C315.25,291,314.76,291,314.76,291Z" transform="translate(-196.43 -248.51)"/><g class="cls-4"><path class="cls-1" d="M279.13,289.35c-.07.25-2.49-2.64-6.75-3.72s-8.78,0-8.71-.21,3.93-2.14,9.09-.83C277,285.68,279.19,289.11,279.13,289.35Z" transform="translate(-196.43 -248.51)"/></g><path class="cls-5" d="M310.56,292.8c2.23-1.95,5.54-1.86,7-1.75,1.18.1,3.72.24,5,2.29a3.77,3.77,0,0,1-3,5.72C315.63,299.44,306.88,296,310.56,292.8Z" transform="translate(-196.43 -248.51)"/><path d="M318.84,299.5c-3.07,0-8.51-1.86-9.44-4.33a2.3,2.3,0,0,1,.88-2.68,9,9,0,0,1,6-1.9c.42,0,.83,0,1.28.05h.1c1.26.1,3.87.3,5.2,2.48a4.29,4.29,0,0,1,.16,4.06,4.2,4.2,0,0,1-3.52,2.28C319.31,299.49,319.08,299.5,318.84,299.5Zm-2.55-8.09a8.38,8.38,0,0,0-5.46,1.7,1.54,1.54,0,0,0-.66,1.77c.72,1.92,5.57,3.8,8.67,3.8a5.41,5.41,0,0,0,.59,0,3.39,3.39,0,0,0,2.86-1.83,3.45,3.45,0,0,0-.12-3.26c-1.11-1.82-3.36-2-4.56-2.09h-.11C317.08,291.43,316.69,291.41,316.29,291.41Z" transform="translate(-196.43 -248.51)"/><path d="M320,298.42a5.14,5.14,0,0,1-3.2-1.35c-1.87-2.05-3.45.46.35.87,2.6,1.16,3,1.12,4.9,0,.29-.23.23-.35.23-.35s.82-.82.71-1.44S322.12,298,320,298.42Z" transform="translate(-196.43 -248.51)"/><path d="M319.86,299.2h0a7.17,7.17,0,0,1-2.81-.86c-2-.23-2.66-1-2.63-1.66a.92.92,0,0,1,1-.82,2.43,2.43,0,0,1,1.71.93A4.71,4.71,0,0,0,320,298a4.14,4.14,0,0,0,2.28-1.82c.26-.36.4-.56.68-.56a.48.48,0,0,1,.47.45,2.32,2.32,0,0,1-.72,1.69,1,1,0,0,1-.38.5l0,0A4.74,4.74,0,0,1,319.86,299.2Zm-4.46-2.51a.25.25,0,0,0-.16,0,.3.3,0,0,0,.07.12,2.17,2.17,0,0,0,1.29.59l-.08-.08C316,296.73,315.52,296.69,315.4,296.69Z" transform="translate(-196.43 -248.51)"/><g class="cls-4"><path class="cls-1" d="M322.35,295c-.2.39-.25-.9-2.45-2.05-2.38-1.24-4.51-.48-4.3-1s3-.6,4.78.26S322.55,294.59,322.35,295Z" transform="translate(-196.43 -248.51)"/></g><path class="cls-6" d="M295.69,322.26s9.4-11,21-12.48S322.78,315,322.9,320C319.29,315.75,303,318.06,295.69,322.26Z" transform="translate(-196.43 -248.51)"/><path d="M292.91,324.56l2.31-2.7c.39-.46,9.69-11.2,21.39-12.69a24,24,0,0,1,2.95-.22c2.23,0,3.7.49,4.48,1.49,1.13,1.44.63,3.51.09,5.71a15.51,15.51,0,0,0-.62,3.79l.05,1.73-1.13-1.32c-1.11-1.29-3.85-2-7.69-2-6.26,0-14.31,1.91-18.74,4.44Zm26.65-14.37a23.24,23.24,0,0,0-2.79.2c-7.85,1-14.75,6.55-18.23,9.83a47.3,47.3,0,0,1,16.2-3.11c2.49,0,5.63.3,7.61,1.57a25.83,25.83,0,0,1,.58-2.83c.46-1.89.9-3.68.14-4.64C322.54,310.53,321.36,310.19,319.56,310.19Z" transform="translate(-196.43 -248.51)"/><path class="cls-3" d="M305.61,287.84c1-1.31.23-4.88-2.84-5.83s-7.59,1.6-9.64,6.5.62,3.33,3.49,1.88C302.42,287.39,304.64,289.13,305.61,287.84Z" transform="translate(-196.43 -248.51)"/><path d="M293.09,292.45h0a1.22,1.22,0,0,1-1.07-.52c-.43-.64-.26-1.73.54-3.66,1.74-4.16,5.38-7.07,8.86-7.07a5.1,5.1,0,0,1,1.53.22,5.2,5.2,0,0,1,3.44,3.43,3.8,3.8,0,0,1-.28,3.37c-.57.75-1.38.78-2.41.83a14.68,14.68,0,0,0-6.8,1.88l-.45.23A9.24,9.24,0,0,1,293.09,292.45Zm0-1.24h0a9.88,9.88,0,0,0,2.8-1.15l.45-.23a16,16,0,0,1,7.31-2c1-.05,1.27-.08,1.47-.35a2.7,2.7,0,0,0,.09-2.24,3.93,3.93,0,0,0-3.79-2.8c-2.52,0-6,2.17-7.72,6.32C293,290.52,293,291.08,293,291.21Z" transform="translate(-196.43 -248.51)"/><path class="cls-3" d="M309.24,287.85c-1.18-2.2-.06-4.47,1.7-4.52,1.55,0,3.57,2,4.8,5s-.36,2.09-1.7,1.06C311.57,287.57,310,289.35,309.24,287.85Z" transform="translate(-196.43 -248.51)"/><path d="M315.83,290.94a4.15,4.15,0,0,1-2.11-1.1,3.87,3.87,0,0,0-2.83-.82h-.4a1.72,1.72,0,0,1-1.71-.94,4,4,0,0,1-.07-3.89,2.62,2.62,0,0,1,2.22-1.38H311c1.84,0,3.94,2.15,5.23,5.36.51,1.28.6,2,.3,2.4A.8.8,0,0,1,315.83,290.94Zm0-1v0Zm-4.5-1.93a4.71,4.71,0,0,1,3,1,6.32,6.32,0,0,0,1.3.84,5.08,5.08,0,0,0-.39-1.3c-1.23-3.06-3.11-4.71-4.27-4.71h0a1.6,1.6,0,0,0-1.36.87,3,3,0,0,0,.09,2.89c.17.32.33.39.8.39h.36Z" transform="translate(-196.43 -248.51)"/><path d="M305.32,285c0,1.24-.64,2.24-1.43,2.24s-1.43-1-1.43-2.24.64-2.23,1.43-2.23S305.32,283.78,305.32,285Z" transform="translate(-196.43 -248.51)"/><path d="M312.62,285.05c.32.9.2,1.77-.28,1.94s-1.11-.42-1.44-1.33-.19-1.76.28-1.93S312.3,284.15,312.62,285.05Z" transform="translate(-196.43 -248.51)"/><path class="cls-3" d="M289.83,286.94s11.58.4,15.07-6.69" transform="translate(-196.43 -248.51)"/><path d="M289.83,286.94l.74-.12.85-.15,1.08-.2,1.27-.26c.45-.1.92-.2,1.4-.32l.73-.19.74-.21.75-.24.37-.12.37-.14c.49-.17,1-.37,1.44-.58l.69-.32.65-.35c.42-.24.82-.49,1.19-.75.18-.13.36-.25.52-.39a6.08,6.08,0,0,0,.47-.39c.15-.13.29-.25.42-.38l.36-.36c.12-.11.21-.23.31-.34l.25-.29.47-.59-.06.19c0,.12-.11.3-.19.53s-.22.49-.4.78l-.28.47c-.11.16-.23.31-.36.49a9.29,9.29,0,0,1-.92,1,12,12,0,0,1-1.2,1,13.59,13.59,0,0,1-1.4.83,16.21,16.21,0,0,1-1.54.66,15.25,15.25,0,0,1-1.59.48c-.53.13-1.06.24-1.57.32s-1,.13-1.49.17-.92.05-1.33.05a16.1,16.1,0,0,1-2-.12L290,287Z" transform="translate(-196.43 -248.51)"/><path class="cls-3" d="M310,282s4.26.88,6.39,6.24C314.3,286.11,310,282,310,282Z" transform="translate(-196.43 -248.51)"/><path class="cls-3" d="M309.45,280.9s3.71,5.87,7,7.31" transform="translate(-196.43 -248.51)"/><path d="M309.45,280.9s.12.11.31.32l.35.37.43.49c.33.36.69.78,1.08,1.23l.61.69.62.7c.2.24.42.47.63.7s.42.45.62.67.4.4.59.6a3.5,3.5,0,0,0,.28.27l.27.26.25.22.23.2.21.18.19.14.35.27-.43-.13-.23-.07-.25-.12a4.31,4.31,0,0,1-.6-.31,7.47,7.47,0,0,1-.67-.43c-.22-.18-.47-.35-.7-.55s-.47-.41-.69-.64-.45-.47-.67-.71l-.32-.37-.3-.37c-.2-.25-.38-.51-.56-.75-.35-.5-.65-1-.89-1.4a11.49,11.49,0,0,1-.53-1.05C309.51,281.05,309.45,280.9,309.45,280.9Z" transform="translate(-196.43 -248.51)"/><path class="cls-3" d="M291.62,284.82l3.15.49,8.55-4-.79-.69S296,281,291.62,284.82Z" transform="translate(-196.43 -248.51)"/><path d="M341.87,267a2.63,2.63,0,0,1-.24-.26,2.83,2.83,0,0,1-.23-.34,2.09,2.09,0,0,1-.21-.52,1.09,1.09,0,0,1,.07-.7,1.24,1.24,0,0,1,.56-.55,2.53,2.53,0,0,1,.76-.26,2.22,2.22,0,0,1,.85,0,1.4,1.4,0,0,1,.75.47,1.5,1.5,0,0,1,.31.79,1.85,1.85,0,0,1-.09.75,1.9,1.9,0,0,1-.32.58,2.08,2.08,0,0,1-.4.39,2.93,2.93,0,0,1-.35.21,1.11,1.11,0,0,1-.25.09l-.09,0,.08-.05.09-.06.12-.09c.09-.07.18-.16.29-.26a2.58,2.58,0,0,0,.29-.4,2.25,2.25,0,0,0,.21-.53,1.79,1.79,0,0,0,0-.61,1.1,1.1,0,0,0-.25-.56,1,1,0,0,0-.53-.31,1.46,1.46,0,0,0-.66,0,2.22,2.22,0,0,0-.65.17,1,1,0,0,0-.44.36.88.88,0,0,0-.11.5,1.69,1.69,0,0,0,.11.48,2.81,2.81,0,0,0,.15.37A2.69,2.69,0,0,0,341.87,267Z" transform="translate(-196.43 -248.51)"/><path d="M342.8,267.09a3.28,3.28,0,0,1,0-.44c0-.14,0-.31,0-.51a3.57,3.57,0,0,1,.12-.66,2.08,2.08,0,0,1,.34-.75,1.46,1.46,0,0,1,.77-.57,1.86,1.86,0,0,1,1,0l.12,0,.13,0a2,2,0,0,1,.26.11,1.53,1.53,0,0,1,.42.38,1.7,1.7,0,0,1,.26,1.06,2.49,2.49,0,0,1-.27.95,3.1,3.1,0,0,1-.49.76,3.33,3.33,0,0,1-.59.55,2.4,2.4,0,0,1-.6.33,1.85,1.85,0,0,1-.49.14l-.33,0h-.12l.12,0,.3-.09a2.63,2.63,0,0,0,.45-.22,3,3,0,0,0,.5-.37,3.39,3.39,0,0,0,.49-.56,3.74,3.74,0,0,0,.4-.71,2.58,2.58,0,0,0,.19-.82,1.14,1.14,0,0,0-.19-.76.87.87,0,0,0-.28-.26l-.18-.09-.09,0-.11,0a2.9,2.9,0,0,0-.41-.06,1.23,1.23,0,0,0-.39,0,1.09,1.09,0,0,0-.35.15,1.27,1.27,0,0,0-.27.25,2.48,2.48,0,0,0-.37.62,4.78,4.78,0,0,0-.28,1.1C342.81,266.93,342.8,267.09,342.8,267.09Z" transform="translate(-196.43 -248.51)"/><path d="M344.83,267a3.09,3.09,0,0,1,.18-.4,4.81,4.81,0,0,1,.27-.44,3.68,3.68,0,0,1,.43-.52,2.28,2.28,0,0,1,.67-.47,1.48,1.48,0,0,1,1-.11,1.91,1.91,0,0,1,.89.49l.09.08.09.11a1.19,1.19,0,0,1,.16.23,1.38,1.38,0,0,1,.18.54,1.68,1.68,0,0,1-.3,1,2.58,2.58,0,0,1-.71.69,3,3,0,0,1-.81.41,3,3,0,0,1-.79.18,2.48,2.48,0,0,1-.67,0,2.75,2.75,0,0,1-.51-.12,1.5,1.5,0,0,1-.29-.15l-.1,0,.11,0a1.91,1.91,0,0,0,.31.08,3.23,3.23,0,0,0,.49,0,2.85,2.85,0,0,0,.62-.08,3.37,3.37,0,0,0,.7-.23,3.61,3.61,0,0,0,.7-.42,2.58,2.58,0,0,0,.58-.61,1.21,1.21,0,0,0,.21-.76.76.76,0,0,0-.11-.36.62.62,0,0,0-.11-.17l-.06-.07-.08-.08a2,2,0,0,0-.33-.26,1.17,1.17,0,0,0-.36-.16.94.94,0,0,0-.37,0,1.1,1.1,0,0,0-.36.07,2.3,2.3,0,0,0-.63.36,4.49,4.49,0,0,0-.79.81C344.92,266.84,344.83,267,344.83,267Z" transform="translate(-196.43 -248.51)"/><path class="cls-7" d="M325.27,274.07a.12.12,0,0,1-.08,0,.12.12,0,0,1,0-.15l11.06-8.75.07,0a.11.11,0,0,1,.07,0l.78.68a.09.09,0,0,1,0,.08.08.08,0,0,1-.05.08l-11.85,8.07Z" transform="translate(-196.43 -248.51)"/><path class="cls-8" d="M336.34,265.21l.79.69L325.27,274l11.07-8.75m0-.2a.2.2,0,0,0-.13,0l-11.06,8.75a.21.21,0,0,0,.12.37.19.19,0,0,0,.12,0l11.85-8.06a.22.22,0,0,0,.09-.16.23.23,0,0,0-.07-.17l-.79-.68a.17.17,0,0,0-.13-.05Z" transform="translate(-196.43 -248.51)"/><polygon class="cls-9" points="128.84 25.47 139.8 17.17 139.71 16.86 128.84 25.47"/><polygon class="cls-10" points="128.84 25.47 139.99 17.56 140.37 17.61 128.84 25.47"/><path class="cls-11" d="M339.72,263.86s9.69-4.37,13,.7-3.61,4.35-4.58,2.35-3-3.32-8.15-1.75-.36-1.1-.36-1.1" transform="translate(-196.43 -248.51)"/><path d="M351.55,268.73h-.15c-1.32,0-3-.64-3.51-1.69-.72-1.48-2.31-3.27-7.78-1.58-2.15.66-2.59.61-2.74.24-.1-.21-.25-.57,2.14-1.91l.3.54a16.59,16.59,0,0,0-1.53,1c.31-.06.82-.18,1.65-.43,4.45-1.37,7.24-.75,8.52,1.9a3.69,3.69,0,0,0,3,1.34,1.91,1.91,0,0,0,1.79-.67c.32-.57.07-1.51-.72-2.71-3.16-4.8-12.55-.63-12.64-.59l-.26-.56c.41-.18,10-4.42,13.42.81.93,1.43,1.18,2.55.74,3.35A2.36,2.36,0,0,1,351.55,268.73Z" transform="translate(-196.43 -248.51)"/><path class="cls-11" d="M340.6,264.28c.22.72-.7,1.64-2,2.05s-2.62.15-2.84-.57.69-1.65,2-2.06S340.38,263.55,340.6,264.28Z" transform="translate(-196.43 -248.51)"/><path d="M337.31,266.83c-1,0-1.7-.36-1.89-1-.27-.9.72-2,2.25-2.44a4.56,4.56,0,0,1,1.34-.21c1,0,1.69.37,1.88,1a1.47,1.47,0,0,1-.51,1.45,4.28,4.28,0,0,1-1.73,1A4.89,4.89,0,0,1,337.31,266.83Zm1.7-3a4,4,0,0,0-1.16.18c-1.26.38-2,1.19-1.83,1.67.1.33.6.55,1.29.55a4,4,0,0,0,1.16-.19,3.48,3.48,0,0,0,1.48-.83.92.92,0,0,0,.35-.83C340.2,264,339.69,263.82,339,263.82Z" transform="translate(-196.43 -248.51)"/><path d="M353.06,265l-.31-.45c0,2.31-2.83,2.76-3.91,2.85-.27-.33-.55-.66-.8-1l-.06-.1c.7-.36,2.61-1.56,2-3.79-.2-.06-.41-.12-.61-.16a2.89,2.89,0,0,1-1.63,3.31l-.22.1a2.4,2.4,0,0,0-.66-.47,4.15,4.15,0,0,1,1.35,1.65,2.46,2.46,0,0,0,1.11,1c3.31,0,3.93-1.81,4-2.31A4.23,4.23,0,0,0,353.06,265Z" transform="translate(-196.43 -248.51)"/><path d="M341.58,263.2a1.81,1.81,0,0,1,.32,1.51l.57-.1a2,2,0,0,0-.39-1.57Z" transform="translate(-196.43 -248.51)"/><path d="M343,262.78a2,2,0,0,1,.38,1.73c.22,0,.43,0,.63,0a2.28,2.28,0,0,0-.44-1.86Z" transform="translate(-196.43 -248.51)"/><path d="M347.37,262.13h-.51a2.23,2.23,0,0,1-.78,2.71,4,4,0,0,1,.62.31l.11,0S348.28,263.67,347.37,262.13Z" transform="translate(-196.43 -248.51)"/><path d="M344.59,262.41a2.18,2.18,0,0,1,.2,2.12,6,6,0,0,1,.66.12,2.43,2.43,0,0,0-.28-2.34Z" transform="translate(-196.43 -248.51)"/><path class="cls-12" d="M354.11,259.48c.73,2.32-2.3,3.65-6.52,4.21s-6.45.57-6.68-.15,1.81-2,5.43-4C350.22,257.42,353.34,257.06,354.11,259.48Z" transform="translate(-196.43 -248.51)"/><path d="M343,264.29c-1.41,0-2.1-.21-2.26-.69-.25-.79,1.05-1.78,5.54-4.24a12,12,0,0,1,5.33-1.76,2.59,2.59,0,0,1,2.73,1.82,2.13,2.13,0,0,1-.22,1.86c-1,1.59-4.08,2.3-6.48,2.61A37.52,37.52,0,0,1,343,264.29Zm8.61-6.28a11.67,11.67,0,0,0-5.14,1.71c-1.8,1-5.56,3-5.33,3.75,0,.13.29.41,1.86.41a38.65,38.65,0,0,0,4.59-.39c3.27-.44,5.46-1.3,6.18-2.43a1.72,1.72,0,0,0,.17-1.52A2.17,2.17,0,0,0,351.58,258Z" transform="translate(-196.43 -248.51)"/><path d="M336.39,265.7a3.36,3.36,0,0,1,0-.42,4.7,4.7,0,0,1,.52-1.69,2.28,2.28,0,0,1,.23-.35,2.36,2.36,0,0,1,0,.42,4.09,4.09,0,0,1-.18.87,4,4,0,0,1-.34.82A1.91,1.91,0,0,1,336.39,265.7Z" transform="translate(-196.43 -248.51)"/><path class="cls-13" d="M341.58,263l.48-.37c.31-.23.75-.56,1.31-.92s1.2-.78,1.93-1.19l1.13-.6,1.19-.56c.41-.17.83-.33,1.24-.47a10.06,10.06,0,0,1,1.24-.35,5.75,5.75,0,0,1,1.21-.16,3.49,3.49,0,0,1,1.09.1,2,2,0,0,1,.84.42,1.79,1.79,0,0,1,.45.55,1.63,1.63,0,0,1,.16.42l0,.15-.06-.14a2.64,2.64,0,0,0-.21-.39,1.9,1.9,0,0,0-.47-.47,2.31,2.31,0,0,0-.8-.31,5.33,5.33,0,0,0-2.16.18c-.4.1-.79.23-1.2.37l-1.2.48c-.4.17-.8.35-1.19.54s-.77.37-1.13.56c-.73.38-1.4.75-2,1.07s-1.06.58-1.39.78Z" transform="translate(-196.43 -248.51)"/><path class="cls-12" d="M354.81,263.44c.07,2.43-3.22,2.87-7.43,2.24s-6.35-1.25-6.37-2,2.29-1.43,6.33-2.33C351.64,260.38,354.75,260.9,354.81,263.44Z" transform="translate(-196.43 -248.51)"/><path d="M350.49,266.14a20.59,20.59,0,0,1-3.14-.26c-5.73-.86-6.53-1.56-6.55-2.19,0-.83,1.5-1.42,6.49-2.54a16.58,16.58,0,0,1,3.63-.46c2.6,0,4.05,1,4.1,2.74a2.09,2.09,0,0,1-.6,1.61C353.71,265.77,352.39,266.14,350.49,266.14Zm.43-5a16.38,16.38,0,0,0-3.54.45c-2,.45-6.19,1.39-6.17,2.12,0,.4,1.1,1,6.2,1.8a19.86,19.86,0,0,0,3.08.26c1.76,0,3-.34,3.64-1a1.78,1.78,0,0,0,.48-1.32C354.56,261.51,352.57,261.1,350.92,261.1Z" transform="translate(-196.43 -248.51)"/><path class="cls-13" d="M341.46,263.48s.2-.09.57-.22.88-.34,1.52-.54,1.39-.42,2.2-.62c.41-.09.83-.19,1.26-.27s.88-.16,1.32-.22.89-.1,1.33-.12a11.45,11.45,0,0,1,1.31,0,6.66,6.66,0,0,1,1.21.17,3.88,3.88,0,0,1,1,.4,2.08,2.08,0,0,1,.7.64,1.74,1.74,0,0,1,.28.66,2.24,2.24,0,0,1,.05.45V264l0-.16c0-.1-.05-.25-.1-.43a1.87,1.87,0,0,0-1-1.11,5.4,5.4,0,0,0-2.16-.42c-.41,0-.83,0-1.26,0s-.87.07-1.31.13-.87.12-1.3.2-.84.15-1.25.24c-.81.16-1.57.34-2.22.49l-1.56.38Z" transform="translate(-196.43 -248.51)"/><g class="cls-4"><path d="M341.12,263.08s8.33-5.42,12.85-2.43a1.06,1.06,0,0,1-.45.88S352.3,259.23,341.12,263.08Z" transform="translate(-196.43 -248.51)"/></g><path d="M227.13,432.75s0,.25.07.7.14,1.13.25,2,.26,1.88.43,3.06.39,2.5.64,3.95c.13.72.26,1.47.41,2.25s.29,1.58.46,2.4.35,1.66.53,2.53.38,1.74.59,2.62.42,1.8.67,2.71c.11.46.23.91.35,1.37s.25.92.38,1.39c.24.93.52,1.85.79,2.78s.58,1.86.87,2.79.61,1.85.94,2.76c.16.46.32.91.49,1.37l.24.68.27.67c.35.89.68,1.78,1.05,2.64l.54,1.29c.18.43.38.85.57,1.26s.37.83.56,1.24.39.8.58,1.19l.57,1.18.59,1.12.58,1.09c.19.36.41.7.6,1.05.39.68.75,1.35,1.15,2l1.12,1.77c.38.55.74,1.07,1.07,1.57s.68.92,1,1.34.6.79.85,1.14l1.71,2.08-.5-.5c-.32-.33-.8-.8-1.4-1.42l-.93-1.07c-.34-.4-.72-.81-1.08-1.29l-1.18-1.51c-.41-.53-.8-1.12-1.23-1.72s-.84-1.26-1.27-1.93c-.22-.33-.44-.67-.65-1s-.41-.72-.63-1.08l-.64-1.12-.62-1.16c-.21-.4-.42-.79-.63-1.2s-.39-.82-.59-1.24-.41-.83-.6-1.26l-.58-1.3c-.19-.43-.39-.87-.57-1.31s-.35-.9-.53-1.35l-.28-.68c-.08-.22-.16-.45-.25-.68l-.51-1.38c-.33-.92-.64-1.86-1-2.79s-.59-1.88-.86-2.82S231,459,230.76,458l-.37-1.4-.33-1.4c-.22-.92-.41-1.84-.61-2.74s-.36-1.79-.53-2.66-.31-1.73-.43-2.57c-.28-1.66-.49-3.25-.67-4.71q-.13-1.1-.24-2.1c-.06-.67-.12-1.3-.17-1.9-.1-1.19-.16-2.23-.2-3.09s-.06-1.53-.07-2Z" transform="translate(-196.43 -248.51)"/><g class="cls-14"><path d="M332.28,338.8s1.93,26.86-22.42,32.91-38.35-27.12-38.35-27.12S296.9,367.05,313.14,357s18.13-20.55,18.13-20.55Z" transform="translate(-196.43 -248.51)"/></g><g class="cls-4"><path d="M298,320.34s18.47-13,24.55-1.46C316.5,315.55,298,320.34,298,320.34Z" transform="translate(-196.43 -248.51)"/></g><path d="M305.21,323s.25-.12.69-.29a17,17,0,0,1,1.86-.63q.58-.18,1.26-.33c.46-.11.94-.22,1.44-.3s1-.16,1.56-.22,1.07-.09,1.62-.11,1.09,0,1.63,0,1.07.09,1.58.16c.25,0,.5.08.74.14l.71.17.66.2.6.22.54.24.47.24c.15.08.28.16.4.24l.33.22c.2.13.34.26.44.33l.15.13-.67-.32-.36-.15-.2-.08-.22-.08c-.3-.11-.65-.21-1-.32l-.6-.14-.65-.13-.68-.1-.72-.09L316,322c-.26,0-.51,0-.77,0-.52,0-1.05,0-1.57,0s-1.06,0-1.58.08-1,.08-1.53.14-1,.11-1.42.18l-1.28.19-1.08.17-.84.15Z" transform="translate(-196.43 -248.51)"/><g class="cls-4"><path d="M348.52,341.83s-11.25-4.8-10.29,8.1-2.93,44.27,33.49,29.44c-26.5,12.54-33.86,6.82-38.62,5,4.44-7.35,5.81-17.51,4.44-30.69s-6.27-17.16-6.27-17.16l1.74-5.77S344.54,339.5,348.52,341.83Z" transform="translate(-196.43 -248.51)"/></g><g class="cls-4"><path d="M373.65,363.66s2.74,14.83-15.38,21.28c15.93-6,17.71-9.2,19.08-12.35C373.79,371.49,373.79,367,373.65,363.66Z" transform="translate(-196.43 -248.51)"/></g><g class="cls-4"><path d="M343.17,400.46s-5.35-9.2-14.28-6.73S310.08,398,310.08,398s15.79-4.11,22.79-12.63C337.68,390.3,343.17,400.46,343.17,400.46Z" transform="translate(-196.43 -248.51)"/></g><g class="cls-14"><path d="M322.85,300.3s0,5.89-3.43,7.71-9.91-4.74-9.91-4.74,7.5,4.59,10.82-.1S322.85,300.3,322.85,300.3Z" transform="translate(-196.43 -248.51)"/></g><g class="cls-14"><path d="M277.42,294.5s-3.91,2.18-8.69,12.3c1.56-8.21,4.33-10.67,4.33-10.67S275.18,294.08,277.42,294.5Z" transform="translate(-196.43 -248.51)"/></g><path d="M274.48,383.47l-.43-.23-1.22-.6c-.52-.26-1.17-.56-1.91-.9s-1.58-.71-2.5-1.1-1.93-.79-3-1.21c-.53-.2-1.08-.41-1.65-.61s-1.14-.42-1.73-.62-1.2-.4-1.81-.6l-.93-.28-.93-.29c-.63-.18-1.26-.37-1.9-.53l-1-.26-1-.23c-1.29-.33-2.59-.6-3.87-.84l-1.92-.34-1.88-.27-1.82-.21-1.75-.16c-1.14-.07-2.22-.13-3.22-.14l-.74,0h-2c-.81,0-1.53.06-2.11.1l-1.36.1-.48,0,.48-.09,1.34-.25c.58-.1,1.29-.19,2.1-.29l1.3-.11.71-.06.74,0,.77,0h2.5l1.78.08,1.86.16,1.91.22c.65.1,1.3.19,2,.31,1.31.23,2.64.5,3.95.82l1,.24,1,.27c.65.17,1.29.37,1.93.56s1.25.41,1.87.61,1.22.43,1.81.66c1.19.44,2.31.91,3.37,1.37.53.23,1,.47,1.54.7l1.41.69c.91.44,1.72.89,2.44,1.28s1.33.76,1.83,1.07.89.56,1.15.74Z" transform="translate(-196.43 -248.51)"/><path d="M241.73,355.73s2.47,14.26,9.31,19c.83.26,1.14-.05,1.14-.05S246.46,371,241.73,355.73Z" transform="translate(-196.43 -248.51)"/><g class="cls-4"><path d="M398.39,362a8.49,8.49,0,0,0-3.62-7.62c-4.2-2.89-6.16-3.18-8.21-2.25,2.93-2.83,6.11-3.47,8.55-1.37s4.6,4.69,4.4,5.57S398.39,362,398.39,362Z" transform="translate(-196.43 -248.51)"/></g><g class="cls-4"><path d="M385,354.93s4.84.92,5.86,3.76,3.13,5.08,2.64,7.28a5.66,5.66,0,0,0,1.52-3.13s-.88-1.76-2.35-4.4S389.05,354.53,385,354.93Z" transform="translate(-196.43 -248.51)"/></g><g class="cls-4"><path d="M382.16,361.57s-1.76-6.25,4.69-2.69C384.07,358.2,383,359.32,382.16,361.57Z" transform="translate(-196.43 -248.51)"/></g><g class="cls-4"><path d="M300.51,405.68s5-5.47,9.71-1.39,3.22,5.95,6.06,5.42c-1.77.53-4-1.34-5.63-3.17s-3.65-2.73-5.85-2A32.67,32.67,0,0,1,300.51,405.68Z" transform="translate(-196.43 -248.51)"/></g><g class="cls-4"><path d="M298.63,414.75s-.38-2.47,2.57-2.57a9,9,0,0,1,6.92,2.62s3.92,4.08,5.21,4.35c-2.52-.22-4.35-2-5.53-3.11s-3.38-3.17-6-2.74S298.63,414.75,298.63,414.75Z" transform="translate(-196.43 -248.51)"/></g><g class="cls-4"><path d="M276.47,459.05s42.65,33.82,74.42,8.51A76.31,76.31,0,0,1,335.17,486c-1.36-5-4.21-7.94-15.49-7.9C308.25,478.14,290.34,471.79,276.47,459.05Z" transform="translate(-196.43 -248.51)"/></g><path d="M309.5,498.81s10.36-4.54,14.93-8.19" transform="translate(-196.43 -248.51)"/><path d="M309.5,498.81l.64-.38.73-.41,1-.53c.35-.2.72-.41,1.13-.62l1.27-.68,2.76-1.46,2.75-1.46,1.26-.68,1.13-.63.49-.28.45-.26.4-.22.33-.2c.39-.25.63-.38.63-.38s-.19.19-.54.51l-.28.26c-.11.1-.23.19-.36.29s-.54.45-.86.68-.68.5-1.07.75-.78.53-1.22.79-.87.54-1.33.79l-1.4.77-1.42.72c-.47.24-.95.45-1.4.66s-.9.4-1.32.58-.83.35-1.2.49c-.75.3-1.38.52-1.83.67Z" transform="translate(-196.43 -248.51)"/><g class="cls-4"><path d="M323.28,491.46s-2.51,12.76,4.92,19.56c-7.43-2.51-9-17.47-9-17.47Z" transform="translate(-196.43 -248.51)"/></g><g class="cls-4"><path d="M336.25,504.64s0,4.91,2.93,6c1.25.52,2.2-1.61,2.2-1.61S337.4,506.78,336.25,504.64Z" transform="translate(-196.43 -248.51)"/></g><g class="cls-4"><path d="M329.24,505.15s-1,3.46.8,5.91a4.94,4.94,0,0,0,2-.81A13,13,0,0,1,329.24,505.15Z" transform="translate(-196.43 -248.51)"/></g><g class="cls-4"><path d="M317.27,514a4.81,4.81,0,0,1,5.3,1.42c1.42,1.71.65,3.17,7.37,2.81-4.64-.46-4.77-1.05-5.41-3.32s-.87-2.26-.87-2.26Z" transform="translate(-196.43 -248.51)"/></g><g class="cls-4"><path d="M335.21,484.62a8.4,8.4,0,0,0,.43,1.45c3.12-3.21,5.77-6,7.43-7.77A62.65,62.65,0,0,1,335.21,484.62Z" transform="translate(-196.43 -248.51)"/></g><g class="cls-4"><path d="M319.41,494.07s-2.87,1.46-8,3.63c-1.27,3.73-6,11.54-7.79,14.43s-.48,10.09,4.7,17c0,0-7.63-14.71,1.91-20.16,2.68-1.53,6.61-4.79,10.86-8.69q-1-3.12-1.65-6.24Z" transform="translate(-196.43 -248.51)"/></g><g class="cls-4"><path d="M345,476.27s-.7.76-1.9,2C343.77,477.62,344.4,476.94,345,476.27Z" transform="translate(-196.43 -248.51)"/></g><g class="cls-14"><path d="M306.24,322.86s10.06,3.56,14.94.2C318.84,320.73,308.68,321.34,306.24,322.86Z" transform="translate(-196.43 -248.51)"/></g><g class="cls-14"><path d="M290.16,286.93s2.63.11,1.7,3.63L293.6,287Z" transform="translate(-196.43 -248.51)"/></g><g class="cls-14"><path d="M309.68,281.44s.81.89-.58,2.2A11.92,11.92,0,0,1,311,283Z" transform="translate(-196.43 -248.51)"/></g><g class="cls-14"><path d="M292.87,290.87a6.63,6.63,0,0,1,4.6-4.75C294.68,286.31,293,287,292.87,290.87Z" transform="translate(-196.43 -248.51)"/></g><g class="cls-14"><path d="M309.49,284.84s-.46,2.71,1.89,3.21c-1.47.66-1.89.7-2.24,0S308.6,285.58,309.49,284.84Z" transform="translate(-196.43 -248.51)"/></g><g class="cls-4"><path d="M265,289.63s6.1-4.26,12.47,4.87l2.24-2.93S270.85,284.7,265,289.63Z" transform="translate(-196.43 -248.51)"/></g><g class="cls-4"><path class="cls-15" d="M291.84,399.51c-.19.34-7.23-7.69-19.59-14.4s-25.36-9.56-25.17-9.9,14.45,2.1,26.81,8.81S292,399.16,291.84,399.51Z" transform="translate(-196.43 -248.51)"/></g><g class="cls-4"><path class="cls-15" d="M316.07,407.48a21,21,0,0,0-5.61-6.05,18.75,18.75,0,0,0-7.64-2.64,12.46,12.46,0,0,1,8.44,1.83A11.49,11.49,0,0,1,316.07,407.48Z" transform="translate(-196.43 -248.51)"/></g><g class="cls-4"><path class="cls-15" d="M314.37,415.37a33.55,33.55,0,0,0-6.22-5.83,18.65,18.65,0,0,0-7.81-2.6,13.4,13.4,0,0,1,8.34,2.13A16.15,16.15,0,0,1,314.37,415.37Z" transform="translate(-196.43 -248.51)"/></g><g class="cls-4"><path d="M239.35,373.91s7.19-3,4.09-12.76c5.57,9.41,7.43,8.54,7.43,8.54l1,5.05A31.34,31.34,0,0,0,239.35,373.91Z" transform="translate(-196.43 -248.51)"/></g><g class="cls-4"><path d="M291.62,415.77s-33.16,20.11-74.76-9.14c28.4,29.15,59.81,21.51,74.86,9.95" transform="translate(-196.43 -248.51)"/></g><g class="cls-4"><path class="cls-15" d="M402.47,351.15a14.39,14.39,0,0,0-8.23-6.6c-5-1.53-10.05,1.11-9.95.8s5.61-3.06,10.7-1.67C402.46,345.71,402.57,350.85,402.47,351.15Z" transform="translate(-196.43 -248.51)"/></g><g class="cls-4"><path class="cls-15" d="M374.64,351.35c-.06.17-7.06-.16-14.19-2.49s-11.67-5.75-11.61-5.92a94.88,94.88,0,0,0,12,5.14C368,350.4,374.69,351.17,374.64,351.35Z" transform="translate(-196.43 -248.51)"/></g><path class="cls-2" d="M326.19,518.5c8.41-.47,11.68,1,11.87,6.6.24,7.25-2.21,7.44-11,7.7" transform="translate(-196.43 -248.51)"/><path d="M326.19,518.5l.35,0,1-.13c.43,0,1-.1,1.58-.13a19.91,19.91,0,0,1,2.07,0,13.32,13.32,0,0,1,2.47.29,7.1,7.1,0,0,1,2.64,1.15,5.41,5.41,0,0,1,1.11,1.13,6.07,6.07,0,0,1,.74,1.43,10.53,10.53,0,0,1,.5,3.11c0,.51,0,1,0,1.54a11.61,11.61,0,0,1-.15,1.55,7.14,7.14,0,0,1-.43,1.53,4.36,4.36,0,0,1-.88,1.36,4.2,4.2,0,0,1-1.27.91,6.9,6.9,0,0,1-1.35.45,13.48,13.48,0,0,1-2.47.3L331,533h-1l-1.58-.05c-.87,0-1.37-.09-1.37-.09l1.36-.17,1.57-.18,1-.11,1.06-.15c.36-.05.74-.12,1.13-.2a10.27,10.27,0,0,0,1.16-.28,5.53,5.53,0,0,0,1.12-.47,3.21,3.21,0,0,0,.94-.73,4.44,4.44,0,0,0,.92-2.33,17.93,17.93,0,0,0,.13-2.86,9.16,9.16,0,0,0-.4-2.76,4.4,4.4,0,0,0-1.39-2.11,6,6,0,0,0-1.05-.67,7.5,7.5,0,0,0-1.16-.45,16,16,0,0,0-2.3-.48c-.73-.1-1.41-.16-2-.21s-1.13-.07-1.57-.08Z" transform="translate(-196.43 -248.51)"/><g class="cls-14"><path d="M309.42,293.51s-2.91,5.23,8.36,7.71c3.85.88,4.87-1.93,4.87-1.93v-1.76s-1.08,2.29-5.62,1.6S309.38,296,309.42,293.51Z" transform="translate(-196.43 -248.51)"/></g><path class="cls-2" d="M325.31,518.44s10.06.37,10.31,7.31-2.12,7.12-10.56,7.37" transform="translate(-196.43 -248.51)"/><path d="M325.31,518.44l.34,0c.21,0,.53,0,.94,0a13.09,13.09,0,0,1,1.46.14,14.23,14.23,0,0,1,1.88.38,12,12,0,0,1,2.16.8,8.54,8.54,0,0,1,2.16,1.49,6.5,6.5,0,0,1,1.59,2.42,6.61,6.61,0,0,1,.35,1.46c0,.24,0,.5.05.73s0,.48,0,.71a12.19,12.19,0,0,1-.27,2.87,5.71,5.71,0,0,1-.54,1.4,3.91,3.91,0,0,1-1,1.16,4.63,4.63,0,0,1-1.24.69A7.09,7.09,0,0,1,332,533a16.3,16.3,0,0,1-2.28.23c-.7,0-1.34,0-1.9,0s-1.05,0-1.46-.06l-.93-.06-.34,0,.33,0,.93-.12c.8-.1,1.95-.21,3.31-.41a18.06,18.06,0,0,0,2.13-.41,5,5,0,0,0,2-1,3,3,0,0,0,.67-.87,4.92,4.92,0,0,0,.38-1.12,12.14,12.14,0,0,0,.21-2.59c0-.23,0-.44,0-.68s0-.42,0-.63a5.81,5.81,0,0,0-.26-1.2,5.64,5.64,0,0,0-1.24-2.05,8,8,0,0,0-1.82-1.44,12.72,12.72,0,0,0-1.94-.94,21.44,21.44,0,0,0-3.15-1C325.77,518.51,325.31,518.44,325.31,518.44Z" transform="translate(-196.43 -248.51)"/><g class="cls-4"><path d="M330.69,519.37s7.74,2.07,6.87,8c-.75,5.75-3.56,4.87-3.56,4.87S339.49,525.81,330.69,519.37Z" transform="translate(-196.43 -248.51)"/></g><g class="cls-4"><path d="M338.12,522.37s2.43,3.19.75,6.56c-1.69,3-1.38,2.13-1.38,2.13A13.05,13.05,0,0,0,338.12,522.37Z" transform="translate(-196.43 -248.51)"/></g><g class="cls-14"><path class="cls-15" d="M350.46,432.51c1.91,14.14.13,25.33.66,25.26s3.11-11.4,1.2-25.54-7.59-25.72-8.12-25.65S348.55,418.38,350.46,432.51Z" transform="translate(-196.43 -248.51)"/></g></svg>