<svg id="Layer_1" data-name="Layer 1" xmlns="http://www.w3.org/2000/svg" viewBox="0 0 176.57 294.99"><defs><style>.cls-1,.cls-8{fill:#fff;}.cls-2{fill:#2b2e31;}.cls-3{fill:#d9dad9;}.cls-4{opacity:0.3;}.cls-5{fill:#040810;}.cls-6{fill:#5d0a0b;}.cls-7{fill:#ca5a52;}.cls-8{stroke:#000;stroke-miterlimit:10;stroke-width:5px;}.cls-9{fill:#f0f4f7;}</style></defs><title>panda3</title><path class="cls-2" d="M359.42,381.77c-5.42-20.17-15.56-36.62-19.2-47.7-.22-.66-5.72,1.6-5.89.93-5.55-3.32.17-10.19-4.3-15.14a44.46,44.46,0,0,0-6.12-5.21,84.58,84.58,0,0,0-9.54,42.15c1.06,31.24,5,56.46,21.49,75.79s29.08,13.7,24,22.71c-2.66,3.15-6.92,2.15-6.92-2.8s-4.07-3.35-3.88-.75-2.65,8.12,5.86,11.47,11.36,2.43,15.43-7.2C381.27,430.16,373.32,410.27,359.42,381.77Z" transform="translate(-217.72 -248.51)"/><path d="M361.81,465.54h0c-1.77,0-3.89-.54-7.1-1.8-7.26-2.86-6.71-7.31-6.34-10.26a9.24,9.24,0,0,0,.13-1.69,3,3,0,0,1,.77-2.21,2.54,2.54,0,0,1,1.81-.84c1.16,0,2.4,1,2.4,3.76a4.78,4.78,0,0,0,.92,3.09,2.53,2.53,0,0,0,2,1,4.09,4.09,0,0,0,3-1.57c.9-1.61,1.2-2.73,1-3.51-.37-1.16-2-1.94-4.57-3.12A54.74,54.74,0,0,1,335.44,433c-16.45-19.33-20.54-44.41-21.62-76.13a85.19,85.19,0,0,1,9.6-42.42l.3-.57.52.38a46.16,46.16,0,0,1,6.19,5.27c2.3,2.55,2.1,5.56,1.92,8.22-.19,2.83-.35,5.26,2.26,6.82l.08.05a16.65,16.65,0,0,0,2.41-.56,13.5,13.5,0,0,1,2.79-.62.79.79,0,0,1,.85.5,146.78,146.78,0,0,0,6.38,14.92c4.21,9,9.46,20.29,12.82,32.77,6.39,13.1,12.32,25.87,14.79,38.2,2.53,12.62,1.3,24.2-3.88,36.46C368.36,462.13,366.08,465.54,361.81,465.54Zm-10.73-15.7a1.47,1.47,0,0,0-1,.49,1.85,1.85,0,0,0-.48,1.38,10.31,10.31,0,0,1-.13,1.91c-.35,2.76-.82,6.55,5.65,9.09a19.11,19.11,0,0,0,6.69,1.72c3.27,0,5.3-2.17,8-8.62,10.86-25.7,3.13-45-10.9-73.79l0,0v-.05c-3.34-12.42-8.57-23.63-12.77-32.64a153.29,153.29,0,0,1-6.34-14.78,17,17,0,0,0-2.38.57,13.47,13.47,0,0,1-2.75.6.9.9,0,0,1-.72-.27c-3.07-1.91-2.87-4.89-2.68-7.77.17-2.56.35-5.21-1.63-7.4a42.92,42.92,0,0,0-5.51-4.75,83.91,83.91,0,0,0-9.19,41.3c1.07,31.49,5.12,56.37,21.36,75.45a52.91,52.91,0,0,0,20,15.12c2.79,1.31,4.63,2.17,5.15,3.78.36,1.12,0,2.49-1.07,4.44l0,0,0,0a5.18,5.18,0,0,1-3.85,2,3.67,3.67,0,0,1-2.87-1.35,5.83,5.83,0,0,1-1.17-3.8C352.38,450.86,351.88,449.84,351.08,449.84Z" transform="translate(-217.72 -248.51)"/><path class="cls-2" d="M274.91,417.47s-36.86,46.84,30.46,79.85c-.77,10-4.61,17.41,20.21,21.25s21-11.52,3.59-16.13c12.54-10.75,21.75-19.19,9.47-42.74" transform="translate(-217.72 -248.51)"/><path d="M274.91,417.47a45.34,45.34,0,0,0-3.24,5.33,61.55,61.55,0,0,0-2.6,5.66c-.37,1-.73,1.93-1.06,2.92-.17.49-.31,1-.47,1.47s-.29,1-.42,1.5a48.22,48.22,0,0,0-1.24,6.06c-.08.51-.12,1-.18,1.53s-.09,1-.14,1.54l-.1,1.54-.06,1.54a40.56,40.56,0,0,0,3.83,17.93l.33.7c.11.23.22.46.34.69l.72,1.36.78,1.34.19.33.21.33.41.65.41.65.44.64c.3.42.58.85.89,1.26l.93,1.24.24.3.24.3.49.6c.64.81,1.35,1.57,2,2.34.35.38.71.75,1.06,1.12l.54.56.55.55,1.11,1.08c.37.35.76.69,1.14,1,.76.71,1.56,1.37,2.35,2,.39.34.79.66,1.2,1l1.22,1,2.49,1.85,1.28.88c.43.29.85.6,1.29.87l1.3.85c.43.28.86.57,1.31.83l1.33.81c.44.27.88.54,1.33.8l1.35.77c.45.25.9.52,1.36.76.91.49,1.82,1,2.74,1.46l2.78,1.41.33.17,0,.37c-.12,1.56-.32,3.11-.47,4.64-.08.76-.14,1.53-.18,2.28a16.82,16.82,0,0,0,.06,2.25,10.27,10.27,0,0,0,.45,2.15,8.73,8.73,0,0,0,1,1.92,10.87,10.87,0,0,0,3.31,2.89,23.71,23.71,0,0,0,4.13,1.87,44.52,44.52,0,0,0,4.41,1.28c1.5.37,3,.67,4.53,1s3,.52,4.56.7a44.05,44.05,0,0,0,4.58.32,25.42,25.42,0,0,0,4.54-.31,10.24,10.24,0,0,0,4.1-1.52,4.64,4.64,0,0,0,.78-.68,3.6,3.6,0,0,0,.59-.83,3.46,3.46,0,0,0,.31-.94,3.79,3.79,0,0,0,0-1,5,5,0,0,0-.21-1,7.17,7.17,0,0,0-.42-1,9.91,9.91,0,0,0-1.25-1.81,16.19,16.19,0,0,0-3.4-2.92c-.63-.42-1.28-.8-1.95-1.16s-1.36-.68-2.06-1A31.4,31.4,0,0,0,329,503l-1-.27.79-.69,2.33-2,1.15-1,1.14-1c.75-.69,1.49-1.39,2.21-2.12.36-.36.72-.71,1.06-1.09l.52-.55.51-.57c.67-.76,1.3-1.55,1.9-2.36.16-.2.29-.41.44-.62s.29-.41.42-.62l.39-.65.2-.32.18-.33.36-.66c.12-.22.22-.45.33-.67s.22-.45.32-.68l.29-.69.14-.35.13-.35.25-.71c.08-.24.13-.48.2-.72s.15-.48.2-.73a19.93,19.93,0,0,0,.46-3l.06-.76c0-.25,0-.5,0-.75v-.76c0-.25,0-.51,0-.76l0-.76-.08-.75-.09-.76c0-.25-.08-.5-.12-.75l-.12-.76c0-.25-.1-.5-.15-.75l-.17-.74-.08-.38-.1-.37c-.13-.49-.26-1-.4-1.48l-.46-1.46c-.07-.25-.16-.49-.24-.73l-.27-.72-.25-.72-.29-.72c-.19-.47-.37-.95-.57-1.43l-.62-1.41c-.1-.23-.2-.47-.31-.7l-.33-.7-.66-1.39.72,1.36.36.68.35.69.68,1.39c.22.47.42.94.64,1.41l.31.7.29.72.29.72a7.69,7.69,0,0,1,.28.72l.52,1.46c.16.49.31,1,.46,1.48l.11.37.1.37.19.76c.06.25.14.5.19.75l.15.76c.05.26.11.51.16.77l.11.77.11.77.07.78c0,.26,0,.52.07.78l0,.78c0,.26,0,.53,0,.79l0,.78a22.06,22.06,0,0,1-.36,3.13c-.05.26-.12.51-.18.77s-.11.52-.19.77l-.24.75-.11.38-.14.37-.29.74c-.1.24-.21.48-.32.72s-.22.48-.35.71l-.38.69-.2.35-.21.33-.41.67-.45.65c-.15.21-.29.43-.45.64-.62.84-1.27,1.66-2,2.44L338,495l-.54.57c-.35.38-.72.75-1.08,1.11-.74.74-1.49,1.45-2.25,2.15l-1.15,1-1.16,1-2.33,2-.22-.95a33.66,33.66,0,0,1,4.47,1.53c.73.31,1.44.65,2.15,1s1.38.77,2,1.21a17.43,17.43,0,0,1,3.63,3.13,10.42,10.42,0,0,1,1.39,2,7.86,7.86,0,0,1,.48,1.16,5.8,5.8,0,0,1,.27,1.25,5.25,5.25,0,0,1-.05,1.31,4.29,4.29,0,0,1-.42,1.25,4.78,4.78,0,0,1-.75,1.07,5.41,5.41,0,0,1-1,.84,9,9,0,0,1-2.22,1.11,14.58,14.58,0,0,1-2.34.59,26,26,0,0,1-4.73.33,43.31,43.31,0,0,1-4.7-.33c-1.56-.18-3.09-.44-4.63-.71s-3.07-.58-4.59-1-3-.8-4.51-1.31a24.48,24.48,0,0,1-4.34-2,12.07,12.07,0,0,1-3.64-3.2,9.54,9.54,0,0,1-1.13-2.2,11.81,11.81,0,0,1-.51-2.4,19.28,19.28,0,0,1-.06-2.4c0-.79.1-1.58.18-2.35.16-1.56.36-3.09.48-4.62l.3.54-2.8-1.42c-.92-.48-1.84-1-2.76-1.48-.47-.24-.92-.5-1.37-.76l-1.36-.78c-.46-.26-.91-.53-1.35-.8l-1.34-.82c-.45-.27-.89-.56-1.33-.84l-1.31-.86c-.45-.28-.87-.59-1.3-.88l-1.29-.9c-.85-.61-1.69-1.23-2.53-1.86l-1.24-1c-.41-.32-.82-.64-1.22-1-.8-.68-1.61-1.34-2.38-2.06-.38-.35-.78-.7-1.16-1.06l-1.13-1.1c-.18-.18-.38-.36-.56-.55l-.54-.57L277.06,478c-.69-.79-1.41-1.56-2.06-2.39l-.5-.61-.25-.3-.24-.32-.95-1.26c-.31-.42-.6-.86-.91-1.29-.15-.21-.3-.43-.44-.65l-.43-.66-.42-.67-.21-.33-.2-.35-.79-1.36-.74-1.4c-.12-.23-.24-.47-.35-.71l-.34-.72a42.18,42.18,0,0,1-3.56-12.09,43.16,43.16,0,0,1-.38-6.32l0-1.58c0-.53.07-1,.12-1.58s.11-1,.19-1.57.15-1,.25-1.56a51,51,0,0,1,1.47-6.12,55.57,55.57,0,0,1,2.21-5.89,58.57,58.57,0,0,1,2.85-5.58A46.6,46.6,0,0,1,274.91,417.47Z" transform="translate(-217.72 -248.51)"/><path class="cls-2" d="M343.56,312.34s-6.58,16.16,4.79,37.4S352.54,380,352.54,380s31.12,47.87,2.1,96.64-108.31,24.83-117-24.53,36.71-102.62,41.49-135.83C307.27,301,336.38,285.41,343.56,312.34Z" transform="translate(-217.72 -248.51)"/><path d="M305.94,503.85a74.23,74.23,0,0,1-23.05-3.75A77,77,0,0,1,262,489.55c-13.49-9.66-22.31-22.94-24.85-37.39-2.45-13.93-.84-29.38,4.92-47.23,5-15.58,12.3-30.47,19.34-44.88,7.95-16.27,15.46-31.65,17.23-43.89l0-.27.24-.14c16.87-9.15,34.32-18.62,47.28-18.62a17.46,17.46,0,0,1,11.09,3.45c3.15,2.49,5.45,6.4,6.85,11.62l0,.18-.07.17a33.59,33.59,0,0,0-1.84,10.6,52.33,52.33,0,0,0,6.6,26.33c5.93,11.09,6.77,18.84,6.42,23.38A15.47,15.47,0,0,1,353.2,380,105.15,105.15,0,0,1,365,409.87,95.32,95.32,0,0,1,367.1,441a87.23,87.23,0,0,1-12,35.9,53.42,53.42,0,0,1-21.58,20.56A59.49,59.49,0,0,1,305.94,503.85ZM279.65,316.59c-1.86,12.37-9.36,27.71-17.29,44-13.87,28.39-29.59,60.57-24.17,91.43,5.59,31.78,38.84,50.78,67.75,50.78,21,0,38.08-9.39,48.22-26.43,14.89-25,13.54-49.79,9.78-66.17a102.41,102.41,0,0,0-11.86-29.89l-.22-.33.25-.31s1.72-2.24,2.06-7c.31-4.38-.53-11.87-6.3-22.66a53.43,53.43,0,0,1-6.73-26.94A35.32,35.32,0,0,1,343,312.31c-2.58-9.47-8.09-14.07-16.83-14.07C313.54,298.24,295.56,308,279.65,316.59Z" transform="translate(-217.72 -248.51)"/><path class="cls-2" d="M255.8,428.7s-36.86,46.84,30.45,79.85c-.76,10-4.6,17.41,20.22,21.25s21-11.52,3.59-16.13c12.54-10.75,21.75-19.19,9.46-42.74" transform="translate(-217.72 -248.51)"/><path d="M255.8,428.7a44.54,44.54,0,0,0-3.24,5.33,57.55,57.55,0,0,0-2.6,5.65c-.38,1-.74,1.94-1.06,2.92-.17.49-.31,1-.47,1.48s-.29,1-.42,1.49a48.74,48.74,0,0,0-1.24,6.07c-.08.51-.12,1-.18,1.53s-.09,1-.14,1.54l-.1,1.54-.06,1.54a40.56,40.56,0,0,0,3.83,17.93l.33.7c.11.23.22.46.34.69l.72,1.36.77,1.34.2.33.2.33.42.65.41.65c.14.22.29.43.44.64.3.42.58.85.89,1.26l.93,1.24.23.3.25.3.49.6c.64.81,1.34,1.56,2,2.34.35.38.72.75,1.07,1.12l.54.56c.17.19.36.36.55.55l1.11,1.08c.37.35.76.69,1.14,1,.76.71,1.56,1.36,2.34,2,.39.34.8.66,1.21,1l1.22,1c.82.62,1.66,1.24,2.49,1.84l1.28.89c.43.29.85.6,1.28.87l1.31.85c.43.28.86.57,1.31.83l1.33.81c.44.27.88.54,1.33.79l1.35.78c.45.25.9.52,1.36.76.91.48,1.82,1,2.74,1.46l2.78,1.41.33.17,0,.36c-.12,1.57-.32,3.12-.48,4.65-.07.76-.14,1.52-.17,2.28a18.69,18.69,0,0,0,.05,2.25,11,11,0,0,0,.46,2.14,8.58,8.58,0,0,0,1,1.93,11,11,0,0,0,3.3,2.89,23.37,23.37,0,0,0,4.14,1.86,42,42,0,0,0,4.41,1.29c1.49.37,3,.67,4.52,1s3.05.52,4.57.7a43.86,43.86,0,0,0,4.58.32,24.36,24.36,0,0,0,4.53-.32,10.07,10.07,0,0,0,4.11-1.51,5.14,5.14,0,0,0,.78-.68,3.55,3.55,0,0,0,.58-.83,3.23,3.23,0,0,0,.32-1,3.75,3.75,0,0,0,0-1,4.45,4.45,0,0,0-.22-1,7.12,7.12,0,0,0-.41-1,9.91,9.91,0,0,0-1.25-1.81,16.45,16.45,0,0,0-3.4-2.92c-.63-.42-1.28-.8-1.95-1.16s-1.36-.68-2.06-1a32.49,32.49,0,0,0-4.33-1.48l-1-.27.79-.68,2.33-2,1.15-1,1.13-1c.75-.7,1.5-1.4,2.22-2.12.35-.36.72-.72,1.06-1.09l.52-.56.51-.56c.67-.76,1.3-1.55,1.9-2.36.16-.2.29-.41.44-.62l.42-.62.39-.65.2-.32.18-.33.36-.66c.12-.22.21-.45.32-.68s.23-.44.33-.67l.28-.7.15-.34.12-.35.25-.71c.09-.24.14-.48.21-.72s.14-.48.2-.73a21.32,21.32,0,0,0,.46-3l.06-.76c0-.25,0-.5,0-.75v-.76l0-.76,0-.76-.08-.76-.09-.75c0-.26-.08-.51-.12-.76l-.12-.75c0-.25-.1-.5-.16-.75l-.16-.75-.08-.37-.1-.37c-.13-.49-.26-1-.4-1.48l-.46-1.46c-.07-.25-.16-.49-.25-.73l-.26-.72-.26-.72-.28-.72-.57-1.43-.62-1.41c-.1-.23-.2-.47-.31-.7l-.33-.7-.67-1.39.73,1.36.36.68c.12.23.23.46.34.69l.69,1.39.63,1.4.32.71.29.72.29.71c.1.24.19.48.28.73l.52,1.45c.16.5.3,1,.46,1.49l.11.37.1.37.19.75c.06.26.14.5.19.76l.15.76c.05.26.11.51.15.77l.12.77.11.77.07.78c0,.26.05.52.07.78l0,.78c0,.26,0,.52,0,.79l0,.78a20.72,20.72,0,0,1-.37,3.13c0,.26-.11.51-.17.77s-.12.51-.19.77l-.24.75-.12.38-.14.37-.28.74c-.1.24-.22.48-.33.72s-.21.48-.34.71l-.39.69c-.06.11-.12.23-.19.34l-.21.34-.41.67-.45.65c-.15.21-.29.43-.45.64a30.73,30.73,0,0,1-2,2.43l-.52.59-.53.57c-.35.38-.72.74-1.08,1.11-.74.74-1.49,1.45-2.25,2.15l-1.15,1-1.16,1-2.34,2-.21-1a33.66,33.66,0,0,1,4.47,1.53c.73.31,1.44.65,2.14,1s1.39.78,2.05,1.22a18,18,0,0,1,3.63,3.12,11,11,0,0,1,1.39,2,7.86,7.86,0,0,1,.48,1.16,6.46,6.46,0,0,1,.27,1.25,5.77,5.77,0,0,1-.05,1.31,5,5,0,0,1-.42,1.25,4.78,4.78,0,0,1-.75,1.07,6.42,6.42,0,0,1-1,.84,9.16,9.16,0,0,1-2.21,1.11,14.58,14.58,0,0,1-2.34.59,26,26,0,0,1-4.73.33,43.13,43.13,0,0,1-4.7-.33c-1.57-.18-3.09-.44-4.63-.71s-3.07-.58-4.59-1a45.65,45.65,0,0,1-4.52-1.32,24,24,0,0,1-4.33-2,12.08,12.08,0,0,1-3.64-3.2,10,10,0,0,1-1.13-2.2,11.81,11.81,0,0,1-.51-2.4,17.57,17.57,0,0,1-.06-2.4c0-.79.1-1.58.18-2.36.16-1.55.35-3.08.47-4.61l.31.54-2.8-1.42c-.93-.48-1.84-1-2.76-1.48-.47-.24-.92-.51-1.37-.76l-1.36-.78q-.69-.39-1.35-.81L275,503c-.45-.27-.89-.56-1.33-.84l-1.32-.86c-.44-.28-.86-.59-1.3-.88l-1.29-.9c-.84-.61-1.69-1.24-2.52-1.87l-1.24-1c-.41-.32-.82-.65-1.22-1-.8-.68-1.61-1.35-2.38-2.06-.38-.36-.78-.7-1.16-1.06l-1.13-1.1c-.18-.19-.38-.36-.56-.55l-.54-.57c-.36-.38-.73-.76-1.09-1.15-.69-.79-1.41-1.55-2.06-2.38l-.5-.61-.25-.3-.24-.32-1-1.26c-.31-.42-.61-.86-.91-1.29l-.45-.65-.42-.67-.42-.66-.22-.34-.19-.34-.8-1.36-.73-1.4c-.13-.24-.24-.47-.35-.71l-.34-.72a41.84,41.84,0,0,1-3.56-12.1,42.94,42.94,0,0,1-.38-6.31l0-1.58c0-.53.07-1.05.12-1.58s.11-1.05.19-1.57.14-1,.24-1.56a51.75,51.75,0,0,1,3.69-12,57.4,57.4,0,0,1,2.85-5.58A46.6,46.6,0,0,1,255.8,428.7Z" transform="translate(-217.72 -248.51)"/><path class="cls-2" d="M310.57,472.75a7.78,7.78,0,0,1-7.28-5c-2.16-5.23-.94-8.55,1.73-7.15s1,8.42,9.58,7.91" transform="translate(-217.72 -248.51)"/><path d="M310.57,472.75a2.24,2.24,0,0,1-.37,0,6.32,6.32,0,0,1-1.06,0c-.22,0-.48-.06-.75-.11a7.08,7.08,0,0,1-.87-.23,6.16,6.16,0,0,1-1-.38,5.81,5.81,0,0,1-1-.59,7.33,7.33,0,0,1-1.85-1.84,9.27,9.27,0,0,1-.73-1.23c-.1-.22-.2-.45-.29-.67s-.18-.45-.26-.69a13.4,13.4,0,0,1-.74-3,8,8,0,0,1,0-1.63,4,4,0,0,1,.53-1.69,2,2,0,0,1,.73-.7,1.81,1.81,0,0,1,1-.24,2.48,2.48,0,0,1,.92.2l.39.18,0,0h0l0,0,.09.05.2.15a3.8,3.8,0,0,1,1,1.37c.22.48.38.95.54,1.4a13.2,13.2,0,0,0,1.06,2.46,5.27,5.27,0,0,0,1.57,1.7,5.89,5.89,0,0,0,1.84.81,10.35,10.35,0,0,0,1.56.29c.45,0,.8.06,1,.06h.36l-.36,0c-.24,0-.59.05-1,.06a9.22,9.22,0,0,1-1.64-.12,6.35,6.35,0,0,1-2-.7,5.58,5.58,0,0,1-1.9-1.77,13.39,13.39,0,0,1-1.27-2.54c-.18-.44-.36-.88-.57-1.29a2.88,2.88,0,0,0-.77-1l-.1-.07-.14-.08-.3-.13a1.69,1.69,0,0,0-.57-.11.92.92,0,0,0-.81.48,2.9,2.9,0,0,0-.34,1.22,6.67,6.67,0,0,0,0,1.41,12.6,12.6,0,0,0,.66,2.74c.07.22.16.44.24.65s.17.42.26.62a9.11,9.11,0,0,0,.59,1.12,7.07,7.07,0,0,0,.72,1,6,6,0,0,0,.8.8,7.73,7.73,0,0,0,1.67,1.08,9.47,9.47,0,0,0,1.47.57,9.17,9.17,0,0,0,1,.22Z" transform="translate(-217.72 -248.51)"/><path class="cls-3" d="M348.39,349.39C335.87,328.8,343.6,312,343.6,312c-7.18-26.92-36.3-11.36-64.42,3.9-2,14-11.31,31.67-20.7,51.07,12.93,15.2,44.44,43.45,93.77,13.4C353.55,378.12,360.18,368.8,348.39,349.39Z" transform="translate(-217.72 -248.51)"/><path d="M310.32,394.19h0a61,61,0,0,1-32.55-9.55,85.14,85.14,0,0,1-19.71-17.32l-.23-.27.16-.33c1.14-2.36,2.3-4.73,3.41-7,8-16.27,15.47-31.64,17.23-43.89l0-.27.24-.14c16.88-9.15,34.32-18.62,47.28-18.62a17.46,17.46,0,0,1,11.09,3.46c3.15,2.48,5.46,6.39,6.85,11.61l.05.19-.08.18a32.82,32.82,0,0,0-2.25,10.84c-.33,6.09.63,15.55,7,26.05,4.86,8,7.2,15.26,7,21.58a19.07,19.07,0,0,1-2.91,9.63l-.18.31-.07.13-.12.07C338,389.69,323.78,394.19,310.32,394.19Zm-51.19-27.31c14.69,17.14,32.38,26.2,51.19,26.2h0c13.22,0,27.19-4.41,41.53-13.12a1.51,1.51,0,0,1,.12-.2c4.7-7.81,3.33-17.93-4.06-30.08-6.53-10.76-7.5-20.48-7.16-26.74A33.78,33.78,0,0,1,343,312c-2.58-9.46-8.09-14.06-16.83-14.06-12.61,0-30.6,9.72-46.51,18.35-1.86,12.37-9.35,27.71-17.29,43.95Z" transform="translate(-217.72 -248.51)"/><path class="cls-2" d="M302.62,290.21s-40.32,26.65-38.64,76c1.06,31.24,5,56.46,21.49,75.79s29.07,13.71,24,22.71c-2.67,3.15-6.93,2.15-6.93-2.79s-4.06-3.35-3.88-.76-2.64,8.13,5.87,11.48,11.36,2.43,15.43-7.21,15-31.28-6-74.19c-5.42-20.17-14.93-36.65-18.57-47.74-3.92-11.93.86-26.13.86-26.13" transform="translate(-217.72 -248.51)"/><path d="M302.62,290.21a63.82,63.82,0,0,0-5,4c-1.62,1.39-3.18,2.85-4.69,4.34a101,101,0,0,0-8.51,9.52,97.86,97.86,0,0,0-7.24,10.5c-1.08,1.82-2.11,3.68-3.07,5.57s-1.88,3.81-2.72,5.75a82.51,82.51,0,0,0-4.16,12c-.28,1-.51,2.06-.75,3.09l-.33,1.55c-.11.52-.2,1.05-.3,1.57-.37,2.08-.69,4.18-.9,6.29s-.37,4.23-.42,6.35l0,.8c0,.26,0,.53,0,.79v1.59c0,1.06,0,2.12.08,3.19.16,4.26.37,8.52.68,12.77s.72,8.49,1.28,12.71,1.27,8.41,2.19,12.56a108.33,108.33,0,0,0,3.47,12.26A83.08,83.08,0,0,0,277.3,429a72.41,72.41,0,0,0,7,10.61,63.89,63.89,0,0,0,8.77,9.16,49.49,49.49,0,0,0,10.6,6.88c.95.47,1.92.92,2.89,1.37.48.23,1,.46,1.45.71a14.28,14.28,0,0,1,1.45.84,4.61,4.61,0,0,1,1.29,1.28,2.94,2.94,0,0,1,.36.92,3.07,3.07,0,0,1,.05.95,5.81,5.81,0,0,1-.45,1.71,14.75,14.75,0,0,1-.74,1.49l0,.05,0,0a6.54,6.54,0,0,1-1.71,1.42,4.56,4.56,0,0,1-2.22.58,3.7,3.7,0,0,1-2.21-.79,4.3,4.3,0,0,1-1.34-1.88,6.77,6.77,0,0,1-.41-2.16,2.44,2.44,0,0,0,0-.27v-.25a3.71,3.71,0,0,0,0-.47,4,4,0,0,0-.16-.88,2.11,2.11,0,0,0-.36-.72.94.94,0,0,0-.53-.37,1.32,1.32,0,0,0-1.25.52,1.76,1.76,0,0,0-.38.68,2.32,2.32,0,0,0-.07.38v.45a7.54,7.54,0,0,1-.06,1.09l-.12,1a14.41,14.41,0,0,0-.13,2,6.68,6.68,0,0,0,.28,1.85,5.66,5.66,0,0,0,.82,1.65,7,7,0,0,0,1.3,1.36,13.09,13.09,0,0,0,3.4,1.88,35.85,35.85,0,0,0,3.78,1.29,9.81,9.81,0,0,0,3.81.39,5.07,5.07,0,0,0,1.74-.56,6.32,6.32,0,0,0,1.47-1.14,14.43,14.43,0,0,0,2.22-3.21c.63-1.17,1.18-2.39,1.71-3.63s1.07-2.49,1.58-3.74a68.57,68.57,0,0,0,2.66-7.61A58.93,58.93,0,0,0,325.3,446a63.65,63.65,0,0,0,.57-8,72.38,72.38,0,0,0-.39-8.06q-.42-4-1.23-8c-.53-2.64-1.18-5.26-1.92-7.86s-1.59-5.15-2.5-7.69-1.86-5.07-2.9-7.57-2.14-5-3.3-7.41v-.07c-.42-1.56-.85-3.12-1.32-4.67s-1-3.08-1.47-4.62-1.05-3.06-1.61-4.58-1.13-3-1.73-4.54c-1.18-3-2.44-6-3.72-9s-2.6-5.94-3.9-8.91-2.58-6-3.7-9a41.17,41.17,0,0,1-1.47-4.65,33.91,33.91,0,0,1-.76-4.81,47.15,47.15,0,0,1,.27-9.72c.21-1.61.49-3.21.83-4.79a47.06,47.06,0,0,1,1.24-4.7,47.07,47.07,0,0,0-1.2,4.71c-.33,1.58-.59,3.18-.78,4.79a46.18,46.18,0,0,0-.18,9.69,32.22,32.22,0,0,0,.8,4.78,38.19,38.19,0,0,0,1.51,4.61c.57,1.51,1.19,3,1.83,4.49s1.3,3,2,4.45c1.33,3,2.67,5.91,4,8.87s2.6,5.95,3.82,9q.92,2.25,1.78,4.53t1.66,4.58q.8,2.31,1.52,4.63c.49,1.55.94,3.11,1.38,4.68l0-.07q1.83,3.65,3.48,7.38c1.09,2.49,2.14,5,3.07,7.56s1.76,5.15,2.51,7.77,1.41,5.27,1.94,7.94,1,5.37,1.24,8.09A72,72,0,0,1,327,438a64,64,0,0,1-.58,8.18,61.18,61.18,0,0,1-1.66,8,70,70,0,0,1-2.7,7.73c-.52,1.26-1.06,2.51-1.59,3.75s-1.1,2.51-1.75,3.73a15.72,15.72,0,0,1-2.4,3.45,7.41,7.41,0,0,1-1.74,1.34,6.29,6.29,0,0,1-2.11.68,8.75,8.75,0,0,1-2.17,0,15.79,15.79,0,0,1-2.07-.41,37.47,37.47,0,0,1-3.91-1.33,14.08,14.08,0,0,1-3.68-2.06,8.27,8.27,0,0,1-1.51-1.56,6.91,6.91,0,0,1-1-2,7.88,7.88,0,0,1-.32-2.15,14.44,14.44,0,0,1,.13-2.1l.13-1a7.65,7.65,0,0,0,.05-.93v-.57a3.14,3.14,0,0,1,.12-.61,2.87,2.87,0,0,1,1.61-1.84,2.18,2.18,0,0,1,1.34-.12,2.12,2.12,0,0,1,1.13.75,3.13,3.13,0,0,1,.54,1.08,6.35,6.35,0,0,1,.24,1.66v.5a5.7,5.7,0,0,0,.34,1.81,3.25,3.25,0,0,0,1,1.4,2.55,2.55,0,0,0,1.55.55,3.34,3.34,0,0,0,1.67-.44,5.17,5.17,0,0,0,1.4-1.17l-.06.09a13.41,13.41,0,0,0,.68-1.37,5,5,0,0,0,.38-1.38,1.88,1.88,0,0,0-.26-1.2,3.56,3.56,0,0,0-1-1,20.33,20.33,0,0,0-2.74-1.46c-1-.45-1.94-.9-2.91-1.38a52,52,0,0,1-5.63-3.17,52.87,52.87,0,0,1-5.19-3.86,64.88,64.88,0,0,1-8.92-9.31,72.57,72.57,0,0,1-7.08-10.78,84.2,84.2,0,0,1-5.19-11.79,108.36,108.36,0,0,1-3.5-12.38c-.93-4.18-1.65-8.41-2.21-12.66s-1-8.51-1.29-12.77-.53-8.54-.68-12.81c0-1.07,0-2.15-.08-3.22v-2.42l0-.8c.05-2.15.21-4.29.42-6.43s.54-4.27.92-6.38c.1-.53.19-1.06.3-1.58l.33-1.58c.25-1.05.48-2.1.77-3.13a85.89,85.89,0,0,1,4.2-12.18c.84-2,1.75-3.92,2.76-5.82s2.09-3.75,3.23-5.57a98.83,98.83,0,0,1,7.53-10.42,102.22,102.22,0,0,1,8.79-9.35q2.34-2.19,4.82-4.22C299.15,292.7,300.84,291.39,302.62,290.21Z" transform="translate(-217.72 -248.51)"/><path class="cls-3" d="M303.81,339.45s-25.87-4.47-26.28-28.38,22.41-51.18,36.87-49.39,15.28,16.76,17.11,19,12.22-2,16.7,12.73S339.05,345.48,303.81,339.45Z" transform="translate(-217.72 -248.51)"/><path d="M311.25,340.65a44.88,44.88,0,0,1-7.54-.66,39.9,39.9,0,0,1-13.18-5.3,29.68,29.68,0,0,1-9.18-8.8A27.27,27.27,0,0,1,277,311.08,50.46,50.46,0,0,1,282,289.37a66.42,66.42,0,0,1,12.51-18.23c6.4-6.51,12.95-10.09,18.47-10.09a13.79,13.79,0,0,1,1.45.08c11.61,1.44,14.69,11.11,16.34,16.3a11.93,11.93,0,0,0,1.13,2.9c.36.44,1.47.56,2.77.7,4,.44,10.67,1.17,14,12.22,2.23,7.35.14,21.18-8.13,32.34C335.51,332.46,326.28,340.65,311.25,340.65Zm1.77-78.5c-5.14,0-11.59,3.56-17.69,9.76-10.7,10.89-17.47,26.25-17.25,39.15.17,9.72,4.55,17.36,13,22.7a39.78,39.78,0,0,0,12.78,5.15,44.63,44.63,0,0,0,7.35.64c14.57,0,23.53-7.95,28.47-14.62,8.06-10.87,10.12-24.27,8-31.36-3.15-10.35-9.14-11-13.1-11.44-1.6-.18-2.86-.32-3.51-1.1a11.43,11.43,0,0,1-1.32-3.26c-1.58-5-4.52-14.19-15.43-15.54A11.24,11.24,0,0,0,313,262.15Z" transform="translate(-217.72 -248.51)"/><path class="cls-2" d="M327.35,277.39s-.91-5.15-5-5.84-8.08,2.21-9.68,6.57,2.86,9.1,7.65,5.49C324,280.85,327.87,281.11,327.35,277.39Z" transform="translate(-217.72 -248.51)"/><path d="M316.88,285.35h0a4.86,4.86,0,0,1-4-2.14,5.7,5.7,0,0,1-.65-5.24c1.53-4.18,5.1-7,8.9-7a8,8,0,0,1,1.29.11c4.38.74,5.35,6,5.39,6.21.39,2.8-1.48,3.66-3.64,4.66a18.51,18.51,0,0,0-3.58,2A6.15,6.15,0,0,1,316.88,285.35Zm4.24-13.44c-3.41,0-6.64,2.56-8,6.37a4.83,4.83,0,0,0,.54,4.4,4,4,0,0,0,3.26,1.75,5.31,5.31,0,0,0,3.15-1.18,19,19,0,0,1,3.74-2.11c2.31-1.07,3.41-1.67,3.12-3.69,0,0-.9-4.82-4.63-5.45A7.3,7.3,0,0,0,321.12,271.91Z" transform="translate(-217.72 -248.51)"/><path class="cls-2" d="M310.86,473.84s-13.26-2.3-15.43-7.53-.93-8.55,1.73-7.14,1,8.42,9.59,7.91" transform="translate(-217.72 -248.51)"/><path d="M310.86,473.84l-.46-.06c-.3,0-.74-.09-1.29-.19s-1.23-.21-2-.38-1.63-.38-2.56-.64-1.93-.59-3-1A20.48,20.48,0,0,1,298.4,470a14.29,14.29,0,0,1-1.56-1.1,8,8,0,0,1-1.37-1.46l-.28-.45-.23-.47,0,0v0h0l0-.05-.05-.11-.09-.23c-.06-.14-.12-.31-.17-.46a15,15,0,0,1-.57-1.91,11,11,0,0,1-.25-2,5,5,0,0,1,.37-2.09,2.29,2.29,0,0,1,.74-.95,2,2,0,0,1,1.2-.35,2.87,2.87,0,0,1,1.08.29l.11.05.06,0,0,0h0s0,0,0,0l.19.12.11.08.12.1.11.1.09.1a3.12,3.12,0,0,1,.33.41,4.64,4.64,0,0,1,.25.42,7,7,0,0,1,.38.85c.22.55.39,1.09.58,1.6A7.86,7.86,0,0,0,301,465.1a4.51,4.51,0,0,0,1,.84l.13.09.14.08.26.14.53.24A8.94,8.94,0,0,0,305,467c.27,0,.52.05.74.07l.55,0,.46,0-.46,0a4.18,4.18,0,0,1-.56,0,6,6,0,0,1-.75,0,7.44,7.44,0,0,1-2-.28c-.19-.05-.39-.13-.59-.2l-.3-.14-.16-.07-.15-.08a5.17,5.17,0,0,1-1.17-.86,6.35,6.35,0,0,1-1-1.23,10.26,10.26,0,0,1-.75-1.48c-.22-.51-.43-1-.66-1.55a7.26,7.26,0,0,0-.36-.74l-.21-.34a3.33,3.33,0,0,0-.25-.28l-.06-.06-.06-.05-.06-.05-.07-.05-.19-.12h0l0,0-.09,0a1.88,1.88,0,0,0-.7-.17.87.87,0,0,0-.55.18,1.23,1.23,0,0,0-.39.53,4.23,4.23,0,0,0-.25,1.63,9.26,9.26,0,0,0,.24,1.8,15.5,15.5,0,0,0,.5,1.77c.06.15.1.29.16.44l.09.22,0,.11,0,0v0h0l0,0,.18.38.22.36a8.25,8.25,0,0,0,1.16,1.29,13.1,13.1,0,0,0,1.4,1.05,23.48,23.48,0,0,0,3,1.6c1,.44,2,.82,2.85,1.15,1.79.64,3.33,1.1,4.41,1.41l1.25.34Z" transform="translate(-217.72 -248.51)"/><path class="cls-2" d="M298.31,275.78s-1.4-7.5-11.88-7.59-14.7,8.05-8.34,15.24,12.1-4.84,17.25-3.73" transform="translate(-217.72 -248.51)"/><path d="M298.31,275.78a4.66,4.66,0,0,0-.21-.62,9.82,9.82,0,0,0-.84-1.63,10.18,10.18,0,0,0-1.86-2.12,10.36,10.36,0,0,0-1.41-1,7.9,7.9,0,0,0-.82-.44c-.29-.13-.58-.27-.89-.39s-.64-.22-1-.32-.67-.19-1-.26a16.81,16.81,0,0,0-2.21-.31c-.38,0-.77-.05-1.16-.05h-.59l-.6,0a16.88,16.88,0,0,0-2.43.27,11.61,11.61,0,0,0-4.62,1.89,7.56,7.56,0,0,0-1.79,1.78,6.79,6.79,0,0,0-1.2,4.79,9.09,9.09,0,0,0,.67,2.45,12.45,12.45,0,0,0,1.26,2.22c.25.34.51.67.79,1a6,6,0,0,0,.42.46l.21.22.22.2a5.4,5.4,0,0,0,2,1.19,4.25,4.25,0,0,0,2.18.12,8.1,8.1,0,0,0,2-.74,15.82,15.82,0,0,0,1.8-1.07c1.12-.75,2.13-1.5,3.06-2.12a12.4,12.4,0,0,1,2.55-1.39,4.44,4.44,0,0,1,1.84-.32,1.2,1.2,0,0,1,.28,0l.2,0,.17,0-.17,0-.2,0a1.4,1.4,0,0,0-.29,0,4.35,4.35,0,0,0-1.75.45,13.87,13.87,0,0,0-2.4,1.52c-.88.67-1.83,1.48-2.94,2.3a19.59,19.59,0,0,1-1.81,1.2,8.38,8.38,0,0,1-2.21.89A5.07,5.07,0,0,1,281,286a6.21,6.21,0,0,1-2.35-1.31l-.25-.23-.25-.24c-.17-.17-.29-.3-.46-.49s-.58-.68-.86-1a12.55,12.55,0,0,1-1.41-2.38,10,10,0,0,1-.78-2.75,7.94,7.94,0,0,1,.16-2.91A7.51,7.51,0,0,1,276,272a8.88,8.88,0,0,1,2-2,10.83,10.83,0,0,1,2.47-1.3,14.59,14.59,0,0,1,2.61-.69,17.51,17.51,0,0,1,2.58-.22h.62c.21,0,.41,0,.62,0,.41,0,.81.05,1.21.09a14.61,14.61,0,0,1,4.36,1.13,10.44,10.44,0,0,1,3.17,2.11,9.32,9.32,0,0,1,1,1.19,8.77,8.77,0,0,1,.72,1.13,8.37,8.37,0,0,1,.71,1.72A4.73,4.73,0,0,1,298.31,275.78Z" transform="translate(-217.72 -248.51)"/><path class="cls-3" d="M297.69,276.58s-11.75-8.67-16.3-.37c-2.43,4.44,2.25,9.07,6.15,5.72,4.28-3.68,7.78-2.25,7.78-2.25Z" transform="translate(-217.72 -248.51)"/><path d="M297.69,276.58c-.69-.45-1.4-.85-2.12-1.24s-1.46-.74-2.21-1a20.81,20.81,0,0,0-2.29-.82,13.55,13.55,0,0,0-2.36-.49,8.55,8.55,0,0,0-2.37,0,6.06,6.06,0,0,0-2.19.75,6.35,6.35,0,0,0-1.73,1.54c-.11.16-.24.3-.34.47l-.31.5,0,.07v0h0l-.06.14-.14.27c-.06.18-.14.34-.19.53a4.56,4.56,0,0,0-.14,2.24,4.14,4.14,0,0,0,1,2,3.53,3.53,0,0,0,1.91,1.1,3.44,3.44,0,0,0,2.18-.27,5,5,0,0,0,1-.62l1-.75a11.4,11.4,0,0,1,2.22-1.21,8.25,8.25,0,0,1,2.45-.57c.21,0,.42,0,.63,0s.42,0,.63,0a5,5,0,0,1,1.24.29l-.17.05,1.24-1.52Zm0,0c-.37.53-.74,1.07-1.12,1.6l-1.14,1.58-.05.08-.11,0a4.48,4.48,0,0,0-1.16-.2h-.3c-.1,0-.2,0-.3,0a5.65,5.65,0,0,0-.59,0,8,8,0,0,0-2.3.64,10.83,10.83,0,0,0-2.05,1.21c-.31.24-.63.52-.94.77a5.67,5.67,0,0,1-1.09.71,4.16,4.16,0,0,1-2.6.38,4.23,4.23,0,0,1-2.29-1.3,4.94,4.94,0,0,1-1.28-3.65,5.08,5.08,0,0,1,.25-1.29c.06-.21.16-.42.24-.63l.13-.27.07-.14,0,0v0l0,0,0-.07.34-.54a5,5,0,0,1,.38-.52,6.65,6.65,0,0,1,1.94-1.68,6.91,6.91,0,0,1,2.45-.79,9.66,9.66,0,0,1,2.52.05,13.48,13.48,0,0,1,2.43.6,19,19,0,0,1,2.29.95c.74.36,1.46.76,2.16,1.19A21.53,21.53,0,0,1,297.69,276.58Z" transform="translate(-217.72 -248.51)"/><g class="cls-4"><path class="cls-1" d="M297.1,274.35c-.07.26-2.58-2.74-7-3.87s-9.1,0-9-.22,4.08-2.21,9.43-.85C294.92,270.54,297.16,274.09,297.1,274.35Z" transform="translate(-217.72 -248.51)"/></g><path class="cls-3" d="M305.35,268.07s17.37-9.19,20.46.88" transform="translate(-217.72 -248.51)"/><path d="M305.35,268.07l.22-.15c.14-.09.35-.23.63-.39.54-.33,1.34-.78,2.33-1.26a31.9,31.9,0,0,1,3.49-1.41c.65-.22,1.34-.42,2.05-.6a21.34,21.34,0,0,1,2.17-.41,15.19,15.19,0,0,1,2.23-.15,10.47,10.47,0,0,1,2.18.22,7.68,7.68,0,0,1,2,.67,6,6,0,0,1,1.51,1.08,5.66,5.66,0,0,1,.95,1.23,5.58,5.58,0,0,1,.48,1.07,4.59,4.59,0,0,1,.2.72l.06.26-.12-.24c-.06-.15-.19-.37-.34-.65a7.26,7.26,0,0,0-.63-.92,5.67,5.67,0,0,0-1-1,6.34,6.34,0,0,0-1.43-.81,8.85,8.85,0,0,0-1.79-.46,13.12,13.12,0,0,0-2-.11,16.5,16.5,0,0,0-2.09.17c-.7.09-1.4.22-2.09.37s-1.35.31-2,.48c-1.3.35-2.5.73-3.53,1.07s-1.88.65-2.48.86Z" transform="translate(-217.72 -248.51)"/><path d="M326.31,270.52s-.23-.16-.65-.4a7.93,7.93,0,0,0-.77-.38,10.71,10.71,0,0,0-1-.39,10,10,0,0,0-1.25-.29,8,8,0,0,0-1.41-.12c-.25,0-.5,0-.75,0l-.38,0-.38,0-.38.06-.39.08c-.25.05-.51.12-.76.19s-.5.16-.76.24-.49.18-.73.28l-.72.31c-.23.1-.46.23-.69.34s-.44.24-.65.35l-.32.17-.3.18-.59.35-.54.35c-.35.21-.65.43-.93.62l-.72.5-.47.32-.17.11.13-.16c.08-.1.2-.25.36-.43l.26-.31c.1-.12.22-.23.33-.35s.51-.53.82-.81l.5-.44.55-.43.29-.23.32-.22c.21-.14.42-.29.65-.43s.47-.28.71-.4.49-.26.75-.38.52-.23.79-.32l.41-.14a3.38,3.38,0,0,1,.42-.13c.28-.07.56-.15.85-.2l.42-.08.43,0c.29,0,.58,0,.86-.05s.56,0,.83,0a7.88,7.88,0,0,1,2.85.8,6.94,6.94,0,0,1,1,.61,5.63,5.63,0,0,1,.69.58,4.77,4.77,0,0,1,.4.41Z" transform="translate(-217.72 -248.51)"/><path class="cls-1" d="M320.51,276.53c.77-2.5,2.45-4.92,5-2s1.55,5.69-.63,6.25S319,281.14,320.51,276.53Z" transform="translate(-217.72 -248.51)"/><path d="M323.14,281.34a3.33,3.33,0,0,1-2.87-1.18c-.62-.86-.66-2.12-.11-3.75.41-1.34,1.37-3.59,3.15-3.59a3.48,3.48,0,0,1,2.48,1.44,5,5,0,0,1,1.45,4.7,3.14,3.14,0,0,1-2.27,2.15A8,8,0,0,1,323.14,281.34Zm.17-7.79c-.94,0-1.86,1.16-2.45,3.09-.47,1.4-.47,2.44,0,3.1a2.77,2.77,0,0,0,2.28.87,6.72,6.72,0,0,0,1.65-.22,2.43,2.43,0,0,0,1.75-1.65,4.36,4.36,0,0,0-1.3-4A2.89,2.89,0,0,0,323.31,273.55Z" transform="translate(-217.72 -248.51)"/><path d="M343.41,284.76s-.27-.15-.77-.38a19.71,19.71,0,0,0-2.08-.86c-.43-.16-.91-.31-1.42-.47s-1.05-.29-1.61-.41c-.28-.07-.57-.12-.86-.18s-.58-.11-.88-.15l-.9-.12-.46-.05-.46,0c-.61-.05-1.22-.07-1.83-.08-.3,0-.6,0-.89,0s-.59,0-.88,0c-.57,0-1.13.07-1.66.14l-.39.05-.37.05-.72.11-.66.12-.59.11c-.37.09-.7.14-1,.21-.53.13-.84.19-.84.19s.28-.14.79-.36c.25-.12.56-.24.92-.38s.78-.26,1.23-.4l.72-.2.38-.1.39-.08c.54-.11,1.11-.2,1.7-.28s1.21-.11,1.84-.12,1.27,0,1.9.05l.48.05.48.06c.31,0,.63.09.94.14a16.69,16.69,0,0,1,1.79.42c.58.16,1.12.36,1.63.55s1,.42,1.41.63.81.43,1.14.64.6.39.83.55.39.3.5.39Z" transform="translate(-217.72 -248.51)"/><path d="M326.69,277.78c0,1.09-.55,2-1.23,2s-1.22-.89-1.22-2,.55-2,1.22-2S326.69,276.68,326.69,277.78Z" transform="translate(-217.72 -248.51)"/><path class="cls-5" d="M333.12,286c2-2.77,9.55-3.21,11.69-.49,3,3.85,2.06,6.16-.8,7.41S330.19,290.14,333.12,286Z" transform="translate(-217.72 -248.51)"/><path d="M342.59,293.53c-3,0-8.56-2-10-4.77a2.7,2.7,0,0,1,.22-3c1.3-1.83,4.42-2.47,6.69-2.47,2.53,0,4.62.73,5.59,2,1.58,2,2.19,3.75,1.83,5.18a4.36,4.36,0,0,1-2.77,2.8A4.08,4.08,0,0,1,342.59,293.53Zm-3.08-9.47c-2.72,0-5.17.87-6.09,2.16a2,2,0,0,0-.17,2.2c1.25,2.41,6.54,4.37,9.34,4.37a3.34,3.34,0,0,0,1.27-.2,3.68,3.68,0,0,0,2.36-2.3c.3-1.2-.27-2.73-1.7-4.54C343.69,284.69,341.82,284.06,339.51,284.06Z" transform="translate(-217.72 -248.51)"/><path d="M345.77,291.79s-2.16,1.76-5.06-.29-2.81-1.56-2.77-.71,1.61,1.16,2.41.93a4.34,4.34,0,0,0,3.48.91A5.91,5.91,0,0,0,345.77,291.79Z" transform="translate(-217.72 -248.51)"/><path d="M343.07,293.07h0a5,5,0,0,1-2.79-.95,2.78,2.78,0,0,1-.51,0c-1.06,0-2.15-.46-2.2-1.35v-.06a1.15,1.15,0,0,1,.17-.89.6.6,0,0,1,.44-.17c.37,0,1,.25,2.74,1.51a4.58,4.58,0,0,0,2.62.93,3.67,3.67,0,0,0,1.52-.34,4.25,4.25,0,0,0,.5-.31l.45.59a3.5,3.5,0,0,1-.62.37,5.16,5.16,0,0,1-1.49.55A4,4,0,0,1,343.07,293.07Zm-4.78-2.63c0,.08,0,.19,0,.27v.06c0,.39.78.66,1.46.66H340A8.56,8.56,0,0,0,338.29,290.44Z" transform="translate(-217.72 -248.51)"/><path class="cls-6" d="M334.22,297.74c-2.16,1.68-3.33,10.19,2.21,21.51,3.62,7.48,10.29-10.19,10.29-18.49-.14-3.55-2.13-2.35-5.39-2.72C337.3,297.57,336.35,296.07,334.22,297.74Z" transform="translate(-217.72 -248.51)"/><path d="M338.46,321.61c-1,0-1.85-.71-2.53-2.12-5.42-11.08-4.65-20.16-2.05-22.19a3.57,3.57,0,0,1,2.27-.88,7.52,7.52,0,0,1,2,.39,19.19,19.19,0,0,0,3.21.68,15.3,15.3,0,0,0,1.7.08h.85c1.82,0,3.22.23,3.33,3.16v0a40.56,40.56,0,0,1-2.8,12.93C343.34,316.65,341.06,321.61,338.46,321.61Zm-2.31-24.09a2.53,2.53,0,0,0-1.59.65c-1.67,1.3-3.36,9.15,2.36,20.84.33.68.87,1.5,1.54,1.5,2.88,0,7.71-12.36,7.71-19.74-.09-2.1-.76-2.1-2.23-2.1h-.85a15.79,15.79,0,0,1-1.83-.1,18.37,18.37,0,0,1-3.38-.71A7.23,7.23,0,0,0,336.15,297.52Z" transform="translate(-217.72 -248.51)"/><g class="cls-4"><path d="M253.93,431.52s-10.88,8-16.28,20.55A57.08,57.08,0,0,0,250,477.67C249.76,476.28,238.24,457.86,253.93,431.52Z" transform="translate(-217.72 -248.51)"/></g><path class="cls-7" d="M333.44,310.79s2.83-1,4.05,1.2c1.88-.89,3.59,1.27,4.29,4.05a21,21,0,0,1-6.5,0A32.61,32.61,0,0,1,333.44,310.79Z" transform="translate(-217.72 -248.51)"/><path d="M338.41,316.64a16.18,16.18,0,0,1-3.2-.26l-.18,0-.07-.16a32.94,32.94,0,0,1-1.88-5.29l-.09-.33.32-.11a5.07,5.07,0,0,1,1.61-.27,3.14,3.14,0,0,1,2.73,1.35,2.38,2.38,0,0,1,.7-.11c1.61,0,3.1,1.78,3.79,4.53l.1.4-.41.06A26.79,26.79,0,0,1,338.41,316.64Zm-2.87-.95a16.94,16.94,0,0,0,2.87.21,26.51,26.51,0,0,0,2.91-.17c-.63-2.12-1.82-3.58-3-3.58a1.64,1.64,0,0,0-.7.17l-.31.15-.17-.31a2.38,2.38,0,0,0-2.25-1.24,4.55,4.55,0,0,0-1,.12A33.5,33.5,0,0,0,335.54,315.69Z" transform="translate(-217.72 -248.51)"/><g class="cls-4"><path d="M321,473.91s6.45,6.86,9.2,14.82,9.47,3.84,9.47,3.84A36.68,36.68,0,0,1,322.23,501C328.58,494.14,324,477.75,321,473.91Z" transform="translate(-217.72 -248.51)"/></g><path d="M272.62,500.41l.25.16.7.45c.6.39,1.46.93,2.5,1.56l1.7,1c.61.34,1.25.7,1.92,1.05s1.37.72,2.08,1.08l1.08.52,1.1.5c.74.33,1.48.65,2.22.94l.56.22.55.2c.36.14.73.26,1.08.38s.72.24,1.06.35l1,.3.49.14.48.12c.32.09.63.17.92.23.6.13,1.14.23,1.63.32s.92.14,1.27.2l1.11.14-1.12,0c-.36,0-.8,0-1.3,0l-.8,0c-.28,0-.57-.07-.88-.11s-.62-.08-.95-.14-.67-.11-1-.19l-1.06-.24-1.1-.3c-.37-.1-.75-.22-1.13-.35l-.57-.19-.56-.21c-.77-.27-1.53-.6-2.28-.93-.38-.16-.75-.35-1.12-.52l-1.09-.55-1.06-.57c-.35-.19-.69-.39-1-.59-.66-.39-1.29-.79-1.88-1.18s-1.13-.77-1.63-1.14-.94-.71-1.33-1-.72-.6-1-.83C272.91,500.7,272.62,500.41,272.62,500.41Z" transform="translate(-217.72 -248.51)"/><g class="cls-4"><path d="M294.39,510.12s-13.43,8.8-2,16.38c-7.89-4.85-7.67-9.33-6.15-18.28" transform="translate(-217.72 -248.51)"/></g><g class="cls-4"><path d="M335.83,495.8a38.72,38.72,0,0,1-13.6,5.15c-3.18,6.47-11,11.54-12.17,12.72,5.67.48,17.21-14.55,28.31-6.42-2.63-2.89-9.2-4.81-9.2-4.81A85.9,85.9,0,0,0,335.83,495.8Z" transform="translate(-217.72 -248.51)"/></g><path class="cls-1" d="M324.4,267.3a13.47,13.47,0,0,0-6.18-1.42c-4.31,0-9.41,1.63-9.41,1.42s5.48-2.21,9.78-2.21S324.4,267.09,324.4,267.3Z" transform="translate(-217.72 -248.51)"/><g class="cls-4"><path d="M310.93,273.07s7.95-4.7,15.08-2.8C323,267.05,316.51,268,310.93,273.07Z" transform="translate(-217.72 -248.51)"/></g><g class="cls-4"><path d="M332.55,287.19s-1.61,2.55,4.79,6.72c5.45,3.55,9.57,1.76,9.47-3.58-.9,3.48-7.09,3.23-10.41,1.43A7.35,7.35,0,0,1,332.55,287.19Z" transform="translate(-217.72 -248.51)"/></g><path class="cls-1" d="M335,315.61l7.56.65s-2,4.77-4.29,4.57C336.42,320.66,335,315.61,335,315.61Z" transform="translate(-217.72 -248.51)"/><path d="M338.45,321.2h-.18c-2.08-.18-3.45-4.94-3.6-5.48l-.14-.51,8.59.74-.2.46C342.72,316.89,340.83,321.2,338.45,321.2ZM335.53,316c.58,1.85,1.72,4.34,2.81,4.44,1.47.13,3-2.44,3.7-3.88Z" transform="translate(-217.72 -248.51)"/><g class="cls-4"><path d="M342.08,316.75s-3.3,5.24-6.3,0C337,320.15,338,321.14,339,321S342.08,316.75,342.08,316.75Z" transform="translate(-217.72 -248.51)"/></g><path class="cls-1" d="M335.53,300.15l10,.89s.57-2.62-.55-2.83c-2.11-.4-3,.15-7-1.08C335.05,296.24,334.86,299.84,335.53,300.15Z" transform="translate(-217.72 -248.51)"/><path d="M345.82,301.44l-10.39-.93-.06,0c-.52-.25-.62-1.2-.45-2a2.2,2.2,0,0,1,2.19-1.9,3.51,3.51,0,0,1,1,.16,16.82,16.82,0,0,0,4.95.87,12.87,12.87,0,0,1,2,.2,1,1,0,0,1,.68.46c.57.85.2,2.61.16,2.81Zm-10.14-1.64,9.55.85a3.45,3.45,0,0,0-.11-1.93.3.3,0,0,0-.21-.15,11.14,11.14,0,0,0-1.91-.18,17.81,17.81,0,0,1-5.14-.91,2.65,2.65,0,0,0-.75-.12,1.41,1.41,0,0,0-1.36.95A2.08,2.08,0,0,0,335.68,299.8Z" transform="translate(-217.72 -248.51)"/><path class="cls-8" d="M343.94,298.36" transform="translate(-217.72 -248.51)"/><g class="cls-4"><path class="cls-1" d="M345.91,288.93c-.14.22-1.24-1.81-3.24-3.1s-4.14-1.33-4-1.56,3.91-.28,5.53,1.46C345.3,286.9,346.06,288.7,345.91,288.93Z" transform="translate(-217.72 -248.51)"/></g><path d="M334.11,310.61l.08-.05.21-.1a2.22,2.22,0,0,1,.36-.11,2.34,2.34,0,0,1,.49-.06,2.54,2.54,0,0,1,.6.06,2.39,2.39,0,0,1,.64.24,2.44,2.44,0,0,1,.59.42,2.29,2.29,0,0,1,.27.27l.22.29a3.3,3.3,0,0,1,.36.63,4,4,0,0,1,.25.65,5.06,5.06,0,0,1,.15.62c0,.19.06.38.08.56a3.94,3.94,0,0,1,0,.47,2.16,2.16,0,0,1,0,.37c0,.2,0,.32,0,.32s0-.11-.12-.3l-.13-.34-.16-.43c-.06-.16-.12-.33-.19-.5s-.15-.36-.23-.55-.17-.37-.27-.55A5.84,5.84,0,0,0,337,312a2.15,2.15,0,0,0-.18-.24c-.07-.08-.13-.16-.2-.23a3.86,3.86,0,0,0-.44-.38,2.93,2.93,0,0,0-.94-.43,3.79,3.79,0,0,0-.78-.11Z" transform="translate(-217.72 -248.51)"/><g class="cls-4"><path d="M339.65,312.73s-.9-.64-1,.25a6.06,6.06,0,0,1-.33,2.11,6.13,6.13,0,0,0-.71-3A1.46,1.46,0,0,1,339.65,312.73Z" transform="translate(-217.72 -248.51)"/></g><g class="cls-4"><path d="M335,310.9s-1.24.55.36,4.44c-1.91-4.56-1.8-4.57-1.8-4.57S334.48,310.3,335,310.9Z" transform="translate(-217.72 -248.51)"/></g><g class="cls-4"><path d="M346.59,301.23s-10.83.09-12.48,9.38l-.89.14s-2-6.32-.25-10.56c4.74.25,13.88,1.08,13.88,1.08" transform="translate(-217.72 -248.51)"/></g><g class="cls-4"><path d="M295.32,279.68a42.24,42.24,0,0,0-16,19.09c3.32-9.58,5.76-13.66,5.76-13.66a32.53,32.53,0,0,0,5-3.51C291.9,279.91,294.17,279,295.32,279.68Z" transform="translate(-217.72 -248.51)"/></g><g class="cls-4"><path d="M341.09,326.35s-1,20.79-30.07,21.65c-5.79.17-11.47-2.73-15.51-4.55-.18-.08,1.47,4.37,1.35,4.23-21.55-23.81-29.7-7.95-29.7-7.95l10.7-23.27s2.34,18.76,25.95,23c26.23,4.7,37.25-15.27,37.25-15.27Z" transform="translate(-217.72 -248.51)"/></g><path class="cls-2" d="M270.2,405.35s1.93,5.24,9.51.69-8.27-5.09-7.3-3.17a3.91,3.91,0,0,0,5.37,1.38" transform="translate(-217.72 -248.51)"/><path d="M270.2,405.35a2.33,2.33,0,0,0,.17.31,4.91,4.91,0,0,0,.61.74,3.88,3.88,0,0,0,.52.44,4.87,4.87,0,0,0,.68.4,4.69,4.69,0,0,0,1.83.39,7,7,0,0,0,2.19-.37,13.19,13.19,0,0,0,2.31-1,12.09,12.09,0,0,0,2.22-1.48,2.8,2.8,0,0,0,.4-.46,1,1,0,0,0,.19-.44.59.59,0,0,0-.13-.35,1.7,1.7,0,0,0-.43-.34,5.16,5.16,0,0,0-1.23-.48,10.08,10.08,0,0,0-1.35-.27,17.78,17.78,0,0,0-2.7-.19q-.66,0-1.29.06a5.08,5.08,0,0,0-1.16.22,1.13,1.13,0,0,0-.34.19h0s0,0,0,0h0l0,.07.07.13.07.13.07.09a1.49,1.49,0,0,0,.15.2,2.39,2.39,0,0,0,.35.36,3.82,3.82,0,0,0,1.65.84,4.21,4.21,0,0,0,1.46.1,3.67,3.67,0,0,0,.54-.11c.15,0,.28-.1.39-.14l.3-.16-.28.21c-.1.05-.22.13-.37.2l-.25.09a2.13,2.13,0,0,1-.3.09,4.13,4.13,0,0,1-1.56.06,4.51,4.51,0,0,1-.95-.23,4.81,4.81,0,0,1-1-.53,4.16,4.16,0,0,1-.45-.4c-.07-.07-.14-.16-.21-.24l-.1-.13-.08-.12-.08-.13,0-.06h0l0,0,0-.06a.52.52,0,0,1-.05-.28.77.77,0,0,1,0-.15l.06-.14a1,1,0,0,1,.32-.32,1.73,1.73,0,0,1,.33-.17,5.57,5.57,0,0,1,1.32-.34,12.06,12.06,0,0,1,1.36-.12,16.2,16.2,0,0,1,2.85.12,10.59,10.59,0,0,1,1.45.28,5.7,5.7,0,0,1,1.46.56,2.36,2.36,0,0,1,.68.56,1.47,1.47,0,0,1,.32,1,1.94,1.94,0,0,1-.35.88,3.49,3.49,0,0,1-.54.6l-.3.25a2.32,2.32,0,0,1-.3.22l-.3.21-.31.19-.15.09,0,0,0,0-.08,0-.31.17-.3.17-.32.15a11.93,11.93,0,0,1-2.49,1,7,7,0,0,1-2.41.23,4.51,4.51,0,0,1-1.07-.2,5.2,5.2,0,0,1-.89-.4,4.08,4.08,0,0,1-.69-.5,5.76,5.76,0,0,1-.49-.52,4.35,4.35,0,0,1-.51-.85C270.24,405.47,270.2,405.35,270.2,405.35Z" transform="translate(-217.72 -248.51)"/><g class="cls-4"><path d="M359.61,381s-2.78,3.09,2.79,19.51c5.89,19.52,6.51,35.63,4.65,46.78s2.79,9.29,2.79,9.29-1.86,8.37-9.3,7.75c10.54-19.83,8.58-60.45-8.1-84.75,2.53-3.23,2.84-10.36,2.84-10.36L359.61,381" transform="translate(-217.72 -248.51)"/></g><g class="cls-4"><path class="cls-9" d="M324,425.11c2.32,15.64-.8,27.61-1.41,27.7s1-12.25-1.34-27.89-7.7-28.64-7.09-28.73S321.71,409.48,324,425.11Z" transform="translate(-217.72 -248.51)"/></g><g class="cls-4"><path class="cls-9" d="M365.74,431.18c0,19.73-6.9,34-7.71,34s4.41-16.1,4.41-35.83-5.22-35.65-4.41-35.65S365.74,411.44,365.74,431.18Z" transform="translate(-217.72 -248.51)"/></g><g class="cls-4"><path class="cls-9" d="M322.94,494.59c-2.59,9-11.07,15.29-11.43,15.19s7.49-7.08,10.08-16.09-1.06-16.64-.71-16.54S325.53,485.58,322.94,494.59Z" transform="translate(-217.72 -248.51)"/></g><g class="cls-4"><path d="M318.63,468.75s-1.95,11-6.91,12.27-10-3-13.57-6.13-9.78-14.35-3.52-14.22c-.52,2.61.13,6.39,4.83,9.39s11.61,6.52,14.74,4.3A13.62,13.62,0,0,0,318.63,468.75Z" transform="translate(-217.72 -248.51)"/></g><g class="cls-4"><path d="M249.26,388.4a45.72,45.72,0,0,0-2.6,5.77Z" transform="translate(-217.72 -248.51)"/></g><g class="cls-4"><path d="M309.89,459.29c-3.13-1.66-6.25-2.76-9.37-4.78-1.11-.74-2.57-.92-3.68-1.84-3.67-2.57-6.24-5.69-9.37-8.63-4.41-3.86-7-8.64-10.47-13.6-1.75-2.44-2.17-5.22-3-8.17l-1.44-1.38c-.12-.3-.23-.61-.34-.92h0c-5.84-16-8.53-37.06-8.53-63.56l-14.44,32c2.38-4.32,5.85-8,7.93,1.43a124.8,124.8,0,0,0,9.17,27.95c2.72,6.74,9.09,20.05,20.18,30.49A95,95,0,0,0,300,459a2.47,2.47,0,0,0-1,.73c0,.21-.05.4-.07.6A8.6,8.6,0,0,0,297.1,459c-.56-.14-1.87.6-1.87.6s2-.28,2.52,2.8,1.19,6.83,13.65,5.79c1.09-.14,2.09-1,1.66-4.1,0-.11.07-.23.1-.34A6.72,6.72,0,0,0,309.89,459.29ZM304,467h0l.06,0Z" transform="translate(-217.72 -248.51)"/></g><g class="cls-4"><path d="M335.66,297.89a4,4,0,0,1,3.24.17c1.87.85,5.87.05,6.49,1.38.09-1.06-.17-1.38-2.13-1.38a13.65,13.65,0,0,1-5-.88C337.57,296.78,335.66,297.09,335.66,297.89Z" transform="translate(-217.72 -248.51)"/></g></svg>