<svg id="Layer_1" data-name="Layer 1" xmlns="http://www.w3.org/2000/svg" viewBox="0 0 240.54 294.99"><defs><style>.cls-1{fill:#fff;}.cls-2{fill:#2b2e31;}.cls-3{fill:#d9dad9;}.cls-4{fill:#000002;}.cls-5{fill:#282c2e;}.cls-6{opacity:0.3;}.cls-7{opacity:0.2;}</style></defs><title>panda5</title><path class="cls-2" d="M233,380.46s-12.22,65.32,46,89.25,105.16-8.47,112.83-40.63-17.05-80-17.05-80" transform="translate(-185.73 -248.51)"/><path d="M319,478.68a106.1,106.1,0,0,1-40.24-8.33c-13.41-5.51-24.19-13.67-32.06-24.27a77.21,77.21,0,0,1-13.22-29.82,100.59,100.59,0,0,1-1.17-35.92l1.35.25A99.44,99.44,0,0,0,234.81,416c3.83,17.45,14.65,40.83,44.45,53.07,27.36,11.24,55.06,10.95,78-.81,17.48-8.95,30.15-23.66,33.9-39.35,3.92-16.46-.9-37.2-5.64-51.7a209.72,209.72,0,0,0-11.36-27.85l1.22-.63a212,212,0,0,1,11.45,28.05,151.94,151.94,0,0,1,6.25,26.12c1.38,10,1.18,18.91-.59,26.33a55.05,55.05,0,0,1-11.79,22.39,74.83,74.83,0,0,1-22.81,17.86A84.82,84.82,0,0,1,319,478.68Z" transform="translate(-185.73 -248.51)"/><path class="cls-2" d="M232.67,407.91s8.54,72.18,45.22,104.49c-3.83.41-6,.61-14.22,1.5-8.63,1-9.23,9.33-5.45,14.07,4.26,5.34,50.34,5.81,50.91-.17s-6.29-26.27-2-38.39c3.89-11,19.9-13.76,25-.05s1.18,36.68,6.24,37.94c30.36,7.48,45.48,3.94,50.17.39,1.86-1.4,5.91-5.53,1.7-10.5-4.88-5.76-11.11-4.65-23.82-6.39,2.84-29.42,26.25-46.11,26.82-92.73" transform="translate(-185.73 -248.51)"/><path d="M285.64,532.82c-2.14,0-4.34,0-6.55-.13-4.37-.18-18.8-1-21.41-4.29A10.36,10.36,0,0,1,256,518.32c1.2-2.88,3.91-4.69,7.63-5.1,5.29-.58,8.14-.87,10.44-1.11l2.24-.23c-8-7.32-15.21-17.11-21.54-29.12a197.92,197.92,0,0,1-13.87-34.52A260.75,260.75,0,0,1,232,408l-.08-.68,1.36-.16.08.68a259.08,259.08,0,0,0,8.84,40c6.1,20.06,17.33,47.45,36.15,64l1.17,1-1.55.16-3.78.4c-2.29.23-5.14.52-10.43,1.1-4.1.45-5.8,2.57-6.51,4.26a8.94,8.94,0,0,0,1.52,8.7c3.16,4,35.4,5.37,46.61,2,2.77-.82,3.05-1.61,3.08-1.83.18-1.91-.47-5.56-1.22-9.79-1.55-8.66-3.66-20.53-.74-28.77A14.54,14.54,0,0,1,320,479.42h.11c5.71,0,10.46,3.62,12.73,9.7,2.54,6.81,2.89,16,3.17,23.36.26,7,.51,13.64,2.6,14.16,13.46,3.31,25.07,4.76,34.51,4.3,9.69-.46,13.77-2.81,15.08-3.8.69-.52,2.95-2.42,3.24-5a5.94,5.94,0,0,0-1.65-4.52c-3.52-4.16-7.67-4.55-15.21-5.26-2.39-.22-5.1-.48-8.19-.9l-.65-.09.06-.66c1.2-12.41,6.08-22.68,11.24-33.56,7.15-15.06,15.26-32.12,15.59-59.11v-.68H394v.69c-.33,27.28-8.51,44.49-15.72,59.68-5,10.57-9.76,20.56-11,32.45,2.79.36,5.26.6,7.47.8,7.64.72,12.25,1.16,16.12,5.74a7.25,7.25,0,0,1,2,5.56c-.33,3-2.75,5.15-3.77,5.93-3,2.25-8.75,3.73-15.84,4.08-9.58.46-21.32-1-34.91-4.35-3.09-.77-3.32-6.92-3.64-15.44-.29-7.65-.62-16.32-3.08-22.93-2.11-5.64-6.31-8.86-11.55-8.81a13.15,13.15,0,0,0-12.18,8.85c-2.8,7.89-.73,19.56.79,28.07.8,4.5,1.43,8.06,1.23,10.16-.12,1.25-1.44,2.24-4,3C301.61,532.12,294.1,532.82,285.64,532.82Z" transform="translate(-185.73 -248.51)"/><path class="cls-2" d="M266.68,469s53.87,34.94,102.68-7.07" transform="translate(-185.73 -248.51)"/><path d="M266.68,469l1.07.61c.71.39,1.76.94,3.11,1.61s3,1.43,4.93,2.26,4.12,1.7,6.55,2.56,5.09,1.7,7.93,2.47,5.88,1.45,9,2a94.94,94.94,0,0,0,9.81,1.2,84.4,84.4,0,0,0,10.19.11,80.28,80.28,0,0,0,19.73-3.4,79.83,79.83,0,0,0,8.67-3.2c.68-.28,1.34-.59,2-.89l1-.45.94-.47.92-.46c.31-.15.61-.3.9-.46l1.74-.93c.56-.31,1.1-.64,1.63-.94l.79-.46.76-.47,1.46-.9c.47-.29.92-.6,1.36-.88l1.26-.84,1.16-.81,1.07-.75,1-.71,1.61-1.21,1.16-.91,1-.77-.93.82-1.11,1c-.44.39-1,.81-1.55,1.29l-.92.76-1,.81-1.13.86c-.39.3-.81.59-1.23.9-1.7,1.25-3.69,2.55-5.91,3.9a79.55,79.55,0,0,1-7.42,3.92,74.86,74.86,0,0,1-8.73,3.42,74,74,0,0,1-9.73,2.43,79.61,79.61,0,0,1-10.29,1.19A87.16,87.16,0,0,1,309,483c-1.7-.13-3.39-.3-5-.54-.83-.1-1.65-.24-2.46-.36s-1.63-.28-2.42-.44l-1.19-.23-1.18-.25c-.78-.16-1.55-.35-2.31-.53-1.52-.39-3-.78-4.42-1.21-2.86-.83-5.51-1.77-7.93-2.71a93.36,93.36,0,0,1-11.33-5.32c-1.32-.73-2.33-1.35-3-1.78S266.68,469,266.68,469Z" transform="translate(-185.73 -248.51)"/><path class="cls-3" d="M236.24,390.73s18.78,42.9,88.41,34.43c48.75-5.93,60-48.36,55.4-66.61s-26.92-45.33-26.92-45.33-45-31.36-64.27-26.48-51.92,28.79-47.81,53S221.08,374.53,236.24,390.73Z" transform="translate(-185.73 -248.51)"/><path d="M307.09,427h0a102.15,102.15,0,0,1-34.62-5.6,73.72,73.72,0,0,1-22-12.33c-10.29-8.46-14.33-16.82-14.84-17.92-8.52-9.16-4.9-16.7-.72-25.42,3.4-7.1,7.26-15.15,5.43-25.88-4.2-24.67,28.9-48.81,48.32-53.73a19.21,19.21,0,0,1,4.73-.54c8.82,0,21.62,4.57,38.05,13.58,12.2,6.69,21.95,13.47,22,13.54l.08,0,.06.07c.91,1.11,22.44,27.41,27,45.6,1.33,5.24,1.3,11.93-.07,18.84a60.62,60.62,0,0,1-9.36,22.2c-7.08,10.33-20.9,23.3-46.55,26.42A146.49,146.49,0,0,1,307.09,427Zm-13.67-140a18,18,0,0,0-4.39.5c-10.25,2.59-23,10.08-32.37,19.08-11.41,10.89-16.71,22.65-14.93,33.09,1.9,11.16-2.06,19.42-5.56,26.7-4.13,8.64-7.4,15.46.58,24l.08.08,0,.11c0,.09,4,8.89,14.56,17.57,9.76,8,27.34,17.56,55.65,17.56h0a145.66,145.66,0,0,0,17.47-1.1c25.14-3.06,38.66-15.74,45.58-25.84,9.71-14.17,11.6-30.63,9.24-39.92-4.42-17.44-25.44-43.42-26.72-45C350.7,312.38,313.51,286.91,293.42,286.91Z" transform="translate(-185.73 -248.51)"/><path class="cls-2" d="M380.52,513.9s9.62,1.57,9.75,8.24-8.12,7.79-18.52,8" transform="translate(-185.73 -248.51)"/><path d="M380.52,513.9l.41,0c.26,0,.65.08,1.14.19a16.55,16.55,0,0,1,1.75.44,14.68,14.68,0,0,1,2.2.87A10.91,10.91,0,0,1,388.4,517a7.38,7.38,0,0,1,2,2.62,6.93,6.93,0,0,1,.49,1.7,8.85,8.85,0,0,1,.08.9v.44l0,.46a6.39,6.39,0,0,1-.44,1.81,6,6,0,0,1-1,1.63,8.11,8.11,0,0,1-3,2.11,15.51,15.51,0,0,1-3.24,1,25.29,25.29,0,0,1-3.07.45l-1.43.12-1.33,0c-.86,0-1.64,0-2.33,0s-1.3,0-1.79-.06c-1,0-1.56-.1-1.56-.1l1.55-.18,1.77-.19,2.29-.28,1.31-.18,1.38-.21c.95-.17,1.94-.37,2.94-.62a16.75,16.75,0,0,0,3-1,7.34,7.34,0,0,0,2.47-1.79,4.77,4.77,0,0,0,1.15-2.69c0-.12,0-.25,0-.37l0-.18v-.21a6.19,6.19,0,0,0,0-.74,5.59,5.59,0,0,0-.34-1.41,6.91,6.91,0,0,0-1.54-2.34,11.71,11.71,0,0,0-2.06-1.62,19,19,0,0,0-2-1.06c-.62-.28-1.17-.5-1.64-.67s-.83-.29-1.09-.36Z" transform="translate(-185.73 -248.51)"/><path class="cls-2" d="M338.73,272.35s-37.53-11.83-69.92,12.59-51.92,19.54-69.92,69.15c-4.11,10.8,50.39,67.1,93.06,21.85,4.62-3.34,9.25-4.11,8.22,1.54s4.89.78,5.4-2.31-1.8-7.45-1.8-7.45,6.17-5.4,0-8.23c2.32-6.17-3.85-9.77-12.08-1.29-7.71-12.08-19.28-23.9-40.1-24.16,25.45-6.94,18.51-60.41,62-31.87,33,21.65,48.33,19.53,48.33,19.53s-18.51,2.83-23.14,15.17,13.63,33.93,47.3,31.87,27.25-31.1,26-37-4.89-21.6-32.14-29.31S356.21,279.29,338.73,272.35Z" transform="translate(-185.73 -248.51)"/><path d="M255,394c-13.28,0-24.83-5.49-32.19-10.1-8.38-5.25-16.19-12.44-20.88-19.24-3.22-4.68-4.52-8.51-3.65-10.79,6-16.42,12.48-28,20.54-36.36,7.41-7.71,15.48-12.22,24.82-17.45a202.53,202.53,0,0,0,24.79-15.65,76.06,76.06,0,0,1,25.2-12.49,84.45,84.45,0,0,1,23-3.1,82.69,82.69,0,0,1,22.38,2.89l.05,0c7.67,3.05,11.35,7.67,15.25,12.56,5.15,6.47,10.47,13.15,25.81,17.49,11.81,3.34,20.61,8.58,26.15,15.56a33.12,33.12,0,0,1,6.47,14.26v.06A51.34,51.34,0,0,1,414,343.21c-.08,6.46-1.73,11.87-4.9,16.06-4.61,6.09-12.36,9.51-23,10.16-1.5.09-3,.14-4.47.14h0a58.29,58.29,0,0,1-25.23-5.33A38.19,38.19,0,0,1,341.24,352c-3.67-5.29-4.82-10.89-3.15-15.34,2-5.23,6.69-9.58,13.67-12.6a46,46,0,0,1,5.16-1.86c-6.92-.92-21.35-4.71-43.76-19.43-8.4-5.52-15.25-8.21-20.92-8.21-10.39,0-15.35,9.21-20.6,19-4.33,8-8.8,16.33-16.62,20A43.59,43.59,0,0,1,277,341.13c5.45,3.79,10.32,9,14.86,16,3.05-3,6.12-4.6,8.69-4.6a4.25,4.25,0,0,1,3.66,1.76,5.6,5.6,0,0,1,.45,4.86,4.4,4.4,0,0,1,2.55,3.2c.34,2.34-1.67,4.65-2.55,5.52.6,1.26,2.09,4.73,1.64,7.42-.39,2.36-3.39,5.49-5.25,5.49a1.46,1.46,0,0,1-1.17-.53,3.52,3.52,0,0,1-.33-2.88,3.66,3.66,0,0,0-.28-2.87A1.52,1.52,0,0,0,298,374c-1.38,0-3.41.89-5.57,2.44C281.42,388.09,268.83,394,255,394Zm61.59-123.81c-12.32,0-30.54,2.66-47.33,15.32a205.25,205.25,0,0,1-24.94,15.75c-18.57,10.38-32,17.88-44.75,53.09-.69,1.8.62,5.36,3.49,9.53,7.66,11.11,28.54,28.75,51.94,28.75,13.48,0,25.75-5.77,36.48-17.14l0-.05.06,0c2.44-1.77,4.72-2.74,6.42-2.74a2.86,2.86,0,0,1,2.3,1c.71.85.91,2.2.58,4-.25,1.36,0,1.71,0,1.75s0,0,.12,0c1,0,3.58-2.48,3.89-4.34.47-2.82-1.7-7-1.72-7l-.26-.48.41-.36c.78-.69,2.75-2.86,2.48-4.67-.14-1-.92-1.78-2.31-2.42l-.59-.26.23-.6a4.58,4.58,0,0,0-.1-4.19,2.92,2.92,0,0,0-2.53-1.17c-2.33,0-5.36,1.75-8.32,4.79l-.6.63-.47-.74c-6.45-10.1-17.57-23.57-39.53-23.84l-4.9-.06,4.73-1.29c9.33-2.55,14.26-11.69,19-20.54,2.72-5,5.29-9.82,8.64-13.48,3.81-4.17,8.11-6.2,13.17-6.2,5.95,0,13,2.76,21.68,8.43,27.52,18.08,42.71,19.48,46.71,19.48a10.34,10.34,0,0,0,1.15-.05l.19,1.36c-.18,0-18.16,2.92-22.59,14.73-1.51,4-.43,9.16,3,14.08,5.7,8.22,19,17,39.23,17h0c1.44,0,2.92,0,4.39-.13,10.26-.63,17.67-3.86,22-9.62,4.69-6.19,5.81-15.11,3.33-26.51l0-.06c-1.25-5.78-4.59-21.13-31.64-28.79-15.76-4.46-21.48-11.63-26.51-18-3.78-4.74-7.35-9.21-14.67-12.13A81.83,81.83,0,0,0,316.56,270.17Z" transform="translate(-185.73 -248.51)"/><path class="cls-2" d="M336.69,273.2s1.62-7.8,12-7.89,14.61,8,8.29,15.16-12-4.82-17.14-3.72" transform="translate(-185.73 -248.51)"/><path d="M336.69,273.2a5.92,5.92,0,0,1,.11-.65,9.13,9.13,0,0,1,.62-1.79,10,10,0,0,1,1.63-2.51,10.51,10.51,0,0,1,1.35-1.3,5.69,5.69,0,0,1,.86-.54c.31-.17.63-.32.95-.48a16,16,0,0,1,2.12-.75,17.3,17.3,0,0,1,2.34-.43c.2,0,.41,0,.61-.06s.41,0,.62,0l.63,0h.63a16.72,16.72,0,0,1,2.61.22,12.7,12.7,0,0,1,5.17,1.95,9.17,9.17,0,0,1,2.13,2,7.8,7.8,0,0,1,1.32,2.66,8,8,0,0,1,.24,3,9.54,9.54,0,0,1-.73,2.81,13,13,0,0,1-1.38,2.45c-.27.37-.56.73-.85,1.07l-.11.13-.07.07-.05.06-.22.24c-.17.17-.34.34-.51.49a6.58,6.58,0,0,1-2.38,1.44,5.32,5.32,0,0,1-2.73.16,8.64,8.64,0,0,1-2.32-.86,18.39,18.39,0,0,1-1.88-1.17c-.28-.21-.57-.39-.84-.59a9,9,0,0,1-.74-.62c-.46-.41-.9-.81-1.32-1.16a13.71,13.71,0,0,0-2.28-1.64,4.5,4.5,0,0,0-1.7-.55,2.69,2.69,0,0,0-.48,0h-.17l.16-.05a4.06,4.06,0,0,1,.49-.09,4.69,4.69,0,0,1,1.89.23,13.36,13.36,0,0,1,2.67,1.29l1.52.94c.26.17.54.33.8.52a9.54,9.54,0,0,0,.79.59,15.84,15.84,0,0,0,1.73,1.09,7.21,7.21,0,0,0,1.94.72,4,4,0,0,0,2-.11,5.32,5.32,0,0,0,1.89-1.16c.15-.13.28-.26.42-.4l.22-.24.05-.06,0,0,.11-.12c.27-.32.53-.64.77-1a10.7,10.7,0,0,0,1.23-2.19,8.09,8.09,0,0,0,.63-2.41,6.79,6.79,0,0,0-.19-2.46,7.1,7.1,0,0,0-2.9-3.89,11.5,11.5,0,0,0-4.62-1.73,16.42,16.42,0,0,0-2.4-.2,19.57,19.57,0,0,0-2.33.11,15.89,15.89,0,0,0-2.14.4,13.29,13.29,0,0,0-1.9.68,7.36,7.36,0,0,0-.84.43c-.26.15-.5.33-.76.47a11.24,11.24,0,0,0-1.39.94,10.75,10.75,0,0,0-1.09,1,9.33,9.33,0,0,0-.81,1,9.79,9.79,0,0,0-.94,1.57A4.69,4.69,0,0,0,336.69,273.2Z" transform="translate(-185.73 -248.51)"/><path class="cls-3" d="M337.46,273.07s12.64-9.33,17.54-.4c2.62,4.78-2.42,9.76-6.61,6.16-4.61-4-8.38-2.43-8.38-2.43Z" transform="translate(-185.73 -248.51)"/><path d="M351.43,280.4a5,5,0,0,1-3.27-1.31,9.56,9.56,0,0,0-6.23-2.64,5.45,5.45,0,0,0-1.8.27l-.24.1-.16-.21L337,273l.28-.21c.24-.18,5.93-4.33,11.24-4.33a7.29,7.29,0,0,1,6.8,4.05,5.58,5.58,0,0,1,0,5.56A4.54,4.54,0,0,1,351.43,280.4Zm-9.5-4.64a10.22,10.22,0,0,1,6.68,2.81,4.37,4.37,0,0,0,2.82,1.15,3.88,3.88,0,0,0,3.31-2,4.89,4.89,0,0,0,0-4.88,6.66,6.66,0,0,0-6.2-3.7c-4.43,0-9.33,3.17-10.55,4l2.18,2.86A6.69,6.69,0,0,1,341.93,275.76Z" transform="translate(-185.73 -248.51)"/><path class="cls-3" d="M281.32,299.94s10.33-41.66,37.9-40.35c21.88,1,21.57,9.16,27.48,22.52s23.39,19.8,14.14,40.88-61.59,38.65-80.1-8.91" transform="translate(-185.73 -248.51)"/><path d="M281.32,299.94s.22-.94.74-2.67,1.33-4.25,2.57-7.38a82,82,0,0,1,5.3-10.95,60.27,60.27,0,0,1,4.16-6.23,43.28,43.28,0,0,1,5.64-6.12,31.2,31.2,0,0,1,7.54-5,25.43,25.43,0,0,1,9.42-2.35c.84,0,1.69,0,2.54,0s1.68.08,2.54.14c1.7.12,3.42.31,5.15.6a30.85,30.85,0,0,1,5.18,1.28,18.92,18.92,0,0,1,4.89,2.52,16.39,16.39,0,0,1,3.85,4.07,31.59,31.59,0,0,1,2.63,5c.75,1.71,1.43,3.46,2.14,5.19.35.87.71,1.74,1.08,2.6s.74,1.74,1.16,2.54a49.85,49.85,0,0,0,6.6,9.14,59.33,59.33,0,0,1,7,9.33,22.13,22.13,0,0,1,2.18,5.52,20,20,0,0,1,.53,5.91,25.56,25.56,0,0,1-1,5.79c-.27.94-.59,1.85-.94,2.76l-.26.67-.28.67-.14.33-.15.34c-.1.21-.22.44-.32.66a26.16,26.16,0,0,1-3.21,4.83,35.88,35.88,0,0,1-4,4.07,46.47,46.47,0,0,1-9.26,6.16,52.32,52.32,0,0,1-20.18,5.54,42.91,42.91,0,0,1-18.5-2.81,39.13,39.13,0,0,1-7.39-3.91c-1.1-.75-2.14-1.53-3.11-2.33s-1.86-1.63-2.7-2.46a47,47,0,0,1-7.41-9.66,56.52,56.52,0,0,1-3.48-7c-.35-.84-.6-1.48-.77-1.92l-.25-.66.27.66c.18.43.45,1.06.83,1.88s.85,1.83,1.45,3,1.33,2.47,2.22,3.9a46.93,46.93,0,0,0,7.56,9.39,40.51,40.51,0,0,0,5.81,4.58,38,38,0,0,0,7.29,3.7,40.24,40.24,0,0,0,8.61,2.21,45.28,45.28,0,0,0,9.5.31,51.23,51.23,0,0,0,19.65-5.57,44.58,44.58,0,0,0,9-6,33.78,33.78,0,0,0,3.84-3.91,24.73,24.73,0,0,0,3-4.58c.1-.21.2-.4.3-.62l.14-.32.14-.32.27-.64.26-.66c.33-.87.64-1.75.9-2.64a24.44,24.44,0,0,0,1-5.49,18.66,18.66,0,0,0-.48-5.52,20.79,20.79,0,0,0-2.05-5.19c-3.66-6.6-9.93-11.6-13.48-18.56-.45-.89-.81-1.75-1.18-2.62s-.72-1.76-1.07-2.63c-.7-1.75-1.37-3.49-2.09-5.19a30.41,30.41,0,0,0-2.48-4.82,15.13,15.13,0,0,0-3.57-3.86,17.45,17.45,0,0,0-4.6-2.42,30.31,30.31,0,0,0-5-1.32c-1.69-.31-3.39-.51-5.07-.66-.84-.07-1.67-.13-2.51-.17a22.44,22.44,0,0,0-2.46,0,24.89,24.89,0,0,0-9.19,2.19,30.51,30.51,0,0,0-7.46,4.84,43.7,43.7,0,0,0-5.64,6,59.78,59.78,0,0,0-4.22,6.14A83.08,83.08,0,0,0,284.8,290c-1.29,3.11-2.15,5.62-2.7,7.34S281.32,299.94,281.32,299.94Z" transform="translate(-185.73 -248.51)"/><path class="cls-2" d="M298,273.53s-1.62-8.69-13.75-8.79-17,9.32-9.67,17.66,14-5.61,20-4.33" transform="translate(-185.73 -248.51)"/><path d="M298,273.53a5.43,5.43,0,0,0-.24-.71,11.18,11.18,0,0,0-1-1.89,11.64,11.64,0,0,0-2.16-2.44,11.24,11.24,0,0,0-1.63-1.15c-.3-.19-.62-.35-.95-.52s-.67-.31-1-.44-.73-.25-1.11-.38-.78-.21-1.19-.29a18.65,18.65,0,0,0-2.55-.35c-.44,0-.89-.06-1.34-.06h-.68l-.7,0a19.51,19.51,0,0,0-2.81.32,13.3,13.3,0,0,0-5.33,2.18,8.91,8.91,0,0,0-2.06,2.05,8,8,0,0,0-1.21,2.63,7.79,7.79,0,0,0-.17,2.89,10.08,10.08,0,0,0,.77,2.83,13.69,13.69,0,0,0,1.46,2.55,14.38,14.38,0,0,0,.9,1.16c.14.16.33.38.48.53s.33.33.5.49a6.45,6.45,0,0,0,2.27,1.37,4.93,4.93,0,0,0,2.5.13,8.79,8.79,0,0,0,2.35-.84,20,20,0,0,0,2.08-1.23c1.3-.88,2.47-1.75,3.55-2.46a15.17,15.17,0,0,1,3-1.6,5.34,5.34,0,0,1,2.13-.37l.33,0,.24,0,.19,0-.2,0h-.56a5.37,5.37,0,0,0-2,.54,15.84,15.84,0,0,0-2.77,1.77c-1,.77-2.11,1.72-3.4,2.67a23.17,23.17,0,0,1-2.1,1.39,9.82,9.82,0,0,1-2.57,1,6.19,6.19,0,0,1-3-.06,7.34,7.34,0,0,1-2.73-1.54c-.2-.17-.39-.35-.58-.54s-.34-.35-.54-.56c-.34-.39-.68-.8-1-1.22a13.63,13.63,0,0,1-1.65-2.76,11.64,11.64,0,0,1-.91-3.2,9.4,9.4,0,0,1,.18-3.38,8.93,8.93,0,0,1,1.44-3.09,10.36,10.36,0,0,1,2.38-2.34,12.33,12.33,0,0,1,2.87-1.51,16.74,16.74,0,0,1,3-.8,20.47,20.47,0,0,1,3-.26h.72c.25,0,.48,0,.72,0,.48,0,.95.07,1.41.11a16.79,16.79,0,0,1,5.06,1.32,12.19,12.19,0,0,1,3.67,2.45,11.55,11.55,0,0,1,1.21,1.39,13.87,13.87,0,0,1,.83,1.31,10.37,10.37,0,0,1,.81,2A5,5,0,0,1,298,273.53Z" transform="translate(-185.73 -248.51)"/><path class="cls-2" d="M376.29,515.22s10.69,1.18,10.82,7.86-8.12,7.79-18.52,8" transform="translate(-185.73 -248.51)"/><path d="M376.29,515.22l.41,0c.27,0,.67,0,1.18.12s1.11.17,1.81.33a17,17,0,0,1,2.3.69,12.49,12.49,0,0,1,2.57,1.31,7.77,7.77,0,0,1,2.32,2.38,6.39,6.39,0,0,1,.69,1.68,5.69,5.69,0,0,1,.15.92,3.59,3.59,0,0,1,0,.47c0,.14,0,.28,0,.45a6.73,6.73,0,0,1-.32,1.87,6,6,0,0,1-.89,1.72,6.64,6.64,0,0,1-1.35,1.35,8.83,8.83,0,0,1-1.58,1,14.93,14.93,0,0,1-3.29,1.09c-.54.12-1.07.22-1.6.3l-1.54.18-1.45.12-1.36.06-1.25,0H372c-.7,0-1.32,0-1.82-.06-1-.05-1.59-.1-1.59-.1l1.58-.18,1.81-.2,1.11-.14,1.22-.15,1.33-.18,1.41-.22c.48-.09,1-.18,1.48-.29s1-.22,1.51-.36a15.33,15.33,0,0,0,3-1.1,8.43,8.43,0,0,0,1.35-.83,5.26,5.26,0,0,0,1.08-1.08,5,5,0,0,0,1-2.82,2.49,2.49,0,0,0,0-.4c0-.11,0-.25,0-.37a6,6,0,0,0-.09-.74,5.06,5.06,0,0,0-.5-1.38,7,7,0,0,0-1.89-2.16,12.83,12.83,0,0,0-2.29-1.42,20.65,20.65,0,0,0-2.13-.9c-.66-.23-1.24-.42-1.73-.56C376.86,515.34,376.29,515.22,376.29,515.22Z" transform="translate(-185.73 -248.51)"/><path class="cls-2" d="M265.73,516.74s-8.07.24-8.2,6.92,8.44,7.52,18.84,7.74" transform="translate(-185.73 -248.51)"/><path d="M265.73,516.74a11.53,11.53,0,0,0-1.44.32,13.54,13.54,0,0,0-1.58.54,10.48,10.48,0,0,0-1.88,1,6.54,6.54,0,0,0-1.7,1.7,5.61,5.61,0,0,0-.9,2.45,7.35,7.35,0,0,0,0,1.41,5.35,5.35,0,0,0,.26,1.37,4.82,4.82,0,0,0,1.64,2.24,9.32,9.32,0,0,0,2.63,1.39,21.63,21.63,0,0,0,2.9.82c1,.19,1.91.37,2.82.5s1.77.24,2.57.33l2.19.24,1.69.18,1.09.13.38,0-.38,0-1.1.07c-.47,0-1.05,0-1.7.06s-1.41,0-2.22,0-1.69,0-2.63-.11-1.92-.15-2.93-.32a20.4,20.4,0,0,1-3.12-.74,10.24,10.24,0,0,1-3-1.57,6,6,0,0,1-2.06-2.9,6.41,6.41,0,0,1-.3-1.72,8.33,8.33,0,0,1,.11-1.66,7.3,7.3,0,0,1,.46-1.55,6.53,6.53,0,0,1,2.94-3.11,9.3,9.3,0,0,1,2.13-.83,11.25,11.25,0,0,1,1.71-.3,9.89,9.89,0,0,1,1.1,0A2.87,2.87,0,0,1,265.73,516.74Z" transform="translate(-185.73 -248.51)"/><path class="cls-2" d="M271.51,516.74s-10.69,1.18-10.82,7.86,8.45,6.52,18.86,6.74" transform="translate(-185.73 -248.51)"/><path d="M271.51,516.74s-.56.11-1.53.39c-.48.13-1.06.32-1.71.55a20.65,20.65,0,0,0-2.13.9,12.62,12.62,0,0,0-2.28,1.4,7,7,0,0,0-1.89,2.14,5.14,5.14,0,0,0-.51,1.37,5.84,5.84,0,0,0-.11.73c0,.13,0,.25,0,.38s0,.29,0,.39a4.28,4.28,0,0,0,1,2.72,6.28,6.28,0,0,0,2.58,1.62,12.88,12.88,0,0,0,1.53.46c.51.14,1,.24,1.55.33s1,.17,1.54.23,1,.14,1.49.19l1.42.14,1.33.12,1.23.1,1.11.1,1.81.17,1.58.17-1.58.11c-.51,0-1.12.07-1.82.09l-1.12.05-1.24,0h-1.35l-1.44,0-1.54-.08c-.52,0-1.06-.1-1.6-.17a16.79,16.79,0,0,1-3.36-.74,9.3,9.3,0,0,1-1.67-.77,5.74,5.74,0,0,1-1.48-1.23,5.07,5.07,0,0,1-1-1.7,6.08,6.08,0,0,1-.32-1.88,6.64,6.64,0,0,1,.2-1.82,6.34,6.34,0,0,1,.7-1.67,7.91,7.91,0,0,1,2.33-2.35,10,10,0,0,1,1.3-.74,11.22,11.22,0,0,1,1.26-.55,16.46,16.46,0,0,1,2.29-.69c.69-.16,1.3-.25,1.8-.32s.9-.1,1.17-.12Z" transform="translate(-185.73 -248.51)"/><path class="cls-3" d="M350.65,292.81s-8.75.55-11.41,11.63c9.41,7.19,5,18.82-3.1,23.69" transform="translate(-185.73 -248.51)"/><path d="M350.65,292.81a10.53,10.53,0,0,0-2.08.59c-.33.13-.66.27-1,.43a12.77,12.77,0,0,0-1.84,1.08l-.43.31-.41.33-.4.35-.39.36-.37.38-.35.39c-.12.13-.23.27-.34.41s-.22.27-.32.41-.41.57-.61.87c-.1.14-.18.3-.27.45s-.18.3-.26.45c-.17.32-.33.62-.47.95a4.16,4.16,0,0,0-.22.48l-.21.48c-.14.33-.24.67-.36,1s-.21.68-.31,1l-.26,1-.2-.55.72.57c.24.19.46.41.69.62s.44.43.65.65l.32.34.29.36a6.8,6.8,0,0,1,.57.73c.17.26.36.5.51.78a8,8,0,0,1,.46.81c.13.28.28.55.39.85s.23.57.32.87.19.6.25.9l.11.46c0,.15,0,.3.08.46l.07.46c0,.15,0,.31,0,.46l0,.47v.46c0,.16,0,.31,0,.47l0,.46c0,.31-.05.61-.09.92s-.11.61-.16.91a13.26,13.26,0,0,1-.5,1.77c-.09.29-.22.57-.33.86s-.25.56-.38.83-.28.54-.42.81-.31.53-.46.79l-.51.75-.55.73-.58.69c-.2.23-.41.45-.61.67l-.65.63-.68.59-.7.56-.74.52-.76.48-.78.43.72-.52.7-.56.67-.58.63-.61.61-.64.58-.66.55-.69.52-.7.47-.73.44-.76c.14-.26.28-.51.41-.77l.37-.78c.1-.27.22-.54.32-.81s.19-.54.27-.82a14,14,0,0,0,.4-1.67,7.91,7.91,0,0,0,.13-.85,8.09,8.09,0,0,0,.06-.85l0-.43c0-.14,0-.28,0-.42v-.43l0-.42c0-.14,0-.28-.05-.42l-.07-.42c0-.14,0-.28-.07-.42l-.1-.41a7.53,7.53,0,0,0-.24-.81,6,6,0,0,0-.3-.8c-.1-.26-.24-.51-.36-.76s-.28-.49-.41-.74-.31-.48-.47-.71a6.7,6.7,0,0,0-.51-.68l-.27-.34-.29-.31a6.9,6.9,0,0,0-.6-.61c-.21-.19-.41-.4-.63-.58l-.67-.55-.28-.24.09-.32.3-1.07c.12-.35.22-.71.35-1.05s.26-.7.42-1,.3-.68.47-1,.36-.65.55-1c.09-.16.2-.32.3-.47s.2-.32.31-.47c.22-.3.44-.6.68-.88s.49-.56.75-.83l.4-.39c.13-.13.27-.25.41-.37s.29-.24.43-.35l.44-.34c.3-.22.61-.42.93-.61s.64-.36,1-.52.66-.31,1-.44.69-.24,1-.34A9.93,9.93,0,0,1,350.65,292.81Z" transform="translate(-185.73 -248.51)"/><path class="cls-3" d="M335.15,284.84s.55,3.43,6.2,6.31,9.19,8.53,3.54,13-7.31,8.42-16.05,2.22" transform="translate(-185.73 -248.51)"/><path d="M335.15,284.84a2.87,2.87,0,0,0,.17.46,7,7,0,0,0,.7,1.2,10,10,0,0,0,1.44,1.59,16.14,16.14,0,0,0,2.23,1.65c.88.53,1.86.95,3,1.55a14.51,14.51,0,0,1,3.12,2.32,11,11,0,0,1,1.34,1.6,7.43,7.43,0,0,1,1,2,6,6,0,0,1,.31,2.27,6.06,6.06,0,0,1-.6,2.25,7.45,7.45,0,0,1-1.31,1.85,12.45,12.45,0,0,1-1.63,1.42l-1.55,1.27c-.51.42-1,.85-1.53,1.27a12.06,12.06,0,0,1-3.31,2.06,6,6,0,0,1-1.84.38,6.36,6.36,0,0,1-1.72-.17,10.63,10.63,0,0,1-2.71-1.09,17.93,17.93,0,0,1-1.86-1.2c-.5-.35-.87-.65-1.13-.86l-.38-.31.43.25c.28.17.7.4,1.22.69s1.19.63,1.95.95a11.9,11.9,0,0,0,1.24.46l.67.19a5.72,5.72,0,0,0,.72.14,5.36,5.36,0,0,0,3-.38,12.6,12.6,0,0,0,2.92-2c1-.84,1.94-1.77,3-2.65a13.53,13.53,0,0,0,1.47-1.31,6.34,6.34,0,0,0,1.07-1.52,4.63,4.63,0,0,0,.26-3.52,8.37,8.37,0,0,0-1.94-3.13,14.41,14.41,0,0,0-2.77-2.28l-.74-.45-.37-.21-.37-.22c-.5-.28-.95-.6-1.39-.9a14.52,14.52,0,0,1-2.17-1.93,9.76,9.76,0,0,1-1.3-1.81,6.78,6.78,0,0,1-.54-1.32A2.6,2.6,0,0,1,335.15,284.84Z" transform="translate(-185.73 -248.51)"/><path class="cls-4" d="M330.44,295.58c2.24-2.58,6.52-3.31,8.38-3.31,1.62,0,5.54.06,8,3.24,3.24,4.23-.79,9.63-6.18,9.87S326.82,299.76,330.44,295.58Z" transform="translate(-185.73 -248.51)"/><path d="M340.28,305.85c-4.06,0-9.29-3-10.75-6.24a3.81,3.81,0,0,1,.56-4.33c2.21-2.54,6.44-3.47,8.73-3.47,1.42,0,5.72,0,8.34,3.42a5.72,5.72,0,0,1,.68,6,8.45,8.45,0,0,1-7.21,4.56Zm-1.46-13.12c-1.47,0-5.79.56-8,3.15a2.91,2.91,0,0,0-.43,3.35c1.35,3,6.51,5.86,10.23,5.7a7.52,7.52,0,0,0,6.42-4,4.77,4.77,0,0,0-.58-5.1C344.08,292.73,340.26,292.73,338.82,292.73Z" transform="translate(-185.73 -248.51)"/><path d="M314.89,291.92a19.38,19.38,0,0,1,2.1,1c.65.34,1.43.78,2.3,1.35a25.34,25.34,0,0,1,2.78,2.08q.74.62,1.47,1.35c.48.49,1,1,1.43,1.59a21.83,21.83,0,0,1,1.35,1.84,17.7,17.7,0,0,1,1.14,2.11,16.16,16.16,0,0,1,.86,2.33,14.09,14.09,0,0,1,.48,2.51,16.19,16.19,0,0,1-.31,5.19l-.08.32,0,.17,0,.15c-.05.2-.1.4-.16.61-.12.42-.25.84-.39,1.24a20.79,20.79,0,0,1-3.69,6.56,21,21,0,0,1-3.35,3.21,22.48,22.48,0,0,1-3.49,2.22,24.08,24.08,0,0,1-3.19,1.37,23.75,23.75,0,0,1-2.57.75c-.71.17-1.29.26-1.68.32l-.6.07.59-.15c.38-.1.93-.26,1.62-.5s1.52-.55,2.45-1a31.49,31.49,0,0,0,3-1.57,24.9,24.9,0,0,0,3.24-2.33,21.49,21.49,0,0,0,3.05-3.18,19.89,19.89,0,0,0,2.44-4,22,22,0,0,0,.9-2.25c.12-.38.25-.77.35-1.15.06-.19.11-.41.16-.61l0-.15,0-.06v-.08l.07-.29a15.63,15.63,0,0,0,.32-4.76,15.27,15.27,0,0,0-1.13-4.49,16.13,16.13,0,0,0-1-2,17.6,17.6,0,0,0-1.18-1.81c-.42-.56-.85-1.09-1.3-1.59s-.88-1-1.32-1.4-.89-.83-1.32-1.2-.84-.72-1.24-1c-.8-.63-1.52-1.14-2.13-1.55C315.63,292.32,314.89,291.92,314.89,291.92Z" transform="translate(-185.73 -248.51)"/><path d="M340.92,305a5,5,0,0,1-4.09-2.66c-1.34-2.59-4.42.28.55,1.1,1.5,2,3.36,2.59,6,.86a3.26,3.26,0,0,0,.64-1.07s2.29-1.1,1.86-2.17S344.12,304.41,340.92,305Z" transform="translate(-185.73 -248.51)"/><path d="M340.53,305.74h0a4.26,4.26,0,0,1-3.4-1.92c-2.83-.51-3-1.68-2.93-2a1.16,1.16,0,0,1,1.22-1,2.07,2.07,0,0,1,1.82,1.31,4.53,4.53,0,0,0,3.65,2.41c1.73-.32,2.87-1.94,3.62-3,.49-.7.76-1.09,1.18-1.09a.63.63,0,0,1,.59.45c.51,1.27-1.31,2.35-1.92,2.67a3.19,3.19,0,0,1-.69,1.07l-.06.05A5.59,5.59,0,0,1,340.53,305.74Zm-5.11-4c-.18,0-.3.08-.31.16s.24.56,1.45.9c-.05-.08-.09-.16-.13-.24C336.16,302,335.79,301.7,335.42,301.7Z" transform="translate(-185.73 -248.51)"/><path d="M304,367.21a8.75,8.75,0,0,0,.62-.69,10.39,10.39,0,0,0,.63-.83,6.77,6.77,0,0,0,.62-1.14,3.46,3.46,0,0,0,.3-1.38,2.46,2.46,0,0,0-.47-1.37,4.69,4.69,0,0,0-1.24-1.13l-.39-.24-.41-.23-.18-.1-.23-.11-.23-.1-.22-.1-.41-.17-.44-.14a8.67,8.67,0,0,0-.88-.21,6.38,6.38,0,0,0-1.74-.07,6.89,6.89,0,0,0-3,1.07,10.48,10.48,0,0,0-1.83,1.5c-.41.41-.63.68-.63.68l.09-.23c.07-.14.17-.36.32-.62a7.36,7.36,0,0,1,.6-.9,7.66,7.66,0,0,1,1-1.06,7,7,0,0,1,1.41-1,6.23,6.23,0,0,1,1.85-.65,6.54,6.54,0,0,1,2.12-.05,9,9,0,0,1,1.06.22l.52.17.52.2.24.11.23.11.22.11,0,0h0l0,0,.06,0,.12.07a8.51,8.51,0,0,1,.9.57l.43.33.4.37.36.41a4.63,4.63,0,0,1,.31.46,3.29,3.29,0,0,1,.48,2.07,3.73,3.73,0,0,1-.23.93,5.06,5.06,0,0,1-.4.77,5.62,5.62,0,0,1-.93,1.11,5.71,5.71,0,0,1-.84.69,5.44,5.44,0,0,1-.58.38Z" transform="translate(-185.73 -248.51)"/><path d="M304.84,377l.11-.21a4.59,4.59,0,0,0,.24-.6,7.12,7.12,0,0,0,.22-1,5.55,5.55,0,0,0,0-1.24c0-.12,0-.23,0-.35l-.05-.35c0-.24-.1-.49-.15-.74s-.16-.5-.24-.76-.19-.51-.31-.77-.24-.51-.38-.78l-.43-.82c-.29-.55-.59-1.1-.92-1.6a6.27,6.27,0,0,0-1.08-1.33,3.14,3.14,0,0,0-1.32-.75,4.51,4.51,0,0,0-1.51-.1,9.1,9.1,0,0,0-1.45.27c-.46.11-.87.24-1.24.36l-1,.33-.62.22-.22.07.18-.14c.12-.09.29-.24.53-.4l.39-.27.47-.29.55-.32.64-.32a9,9,0,0,1,1.55-.53,5.18,5.18,0,0,1,1.94-.07,4,4,0,0,1,1.93.93,6.89,6.89,0,0,1,1.37,1.6,17.48,17.48,0,0,1,.95,1.74c.14.29.27.58.39.86s.25.6.36.89.18.61.27.9.12.6.16.89l0,.44c0,.07,0,.14,0,.21v.62c0,.13,0,.26,0,.39a5.4,5.4,0,0,1-.13.72c-.07.22-.13.43-.2.63a5.41,5.41,0,0,1-.49.94,3.41,3.41,0,0,1-.42.52Z" transform="translate(-185.73 -248.51)"/><path class="cls-2" d="M343.83,353.16s-17.78-27.36,33-35.1" transform="translate(-185.73 -248.51)"/><path d="M343.83,353.16s-.14-.18-.37-.54a17.28,17.28,0,0,1-.91-1.63,22.33,22.33,0,0,1-1.13-2.69,20.12,20.12,0,0,1-.88-3.7,17.44,17.44,0,0,1-.07-4.53,18.57,18.57,0,0,1,.48-2.45,16.8,16.8,0,0,1,.89-2.45,18.61,18.61,0,0,1,3-4.57,26,26,0,0,1,4.16-3.74,37.58,37.58,0,0,1,4.78-2.84c.81-.41,1.64-.78,2.47-1.13l1.23-.5,1.23-.46c1.63-.59,3.22-1.09,4.75-1.49.77-.22,1.52-.39,2.24-.57s1.43-.31,2.1-.46l1.94-.38,1.76-.29c1.1-.19,2.07-.29,2.86-.41s1.43-.15,1.85-.2l.66-.07-2.46.54-1.29.3-.73.17-.79.19c-1.08.25-2.3.57-3.62.92s-2.74.77-4.22,1.24l-1.13.37-1.15.4c-.39.13-.77.28-1.16.42s-.79.29-1.18.45a51.32,51.32,0,0,0-4.76,2.15,34,34,0,0,0-4.58,2.77,24.21,24.21,0,0,0-4,3.5c-.15.16-.29.33-.43.5l-.21.24-.2.26-.4.51-.37.52a17.55,17.55,0,0,0-1.27,2.17,18,18,0,0,0-.9,2.26,15.88,15.88,0,0,0-.54,2.27,17.37,17.37,0,0,0-.22,2.22,18,18,0,0,0,.05,2.09,22.28,22.28,0,0,0,.61,3.63,22.82,22.82,0,0,0,.87,2.73c.29.74.54,1.32.73,1.7A5.58,5.58,0,0,0,343.83,353.16Z" transform="translate(-185.73 -248.51)"/><path class="cls-2" d="M343.51,333.65s-3.67,6.18-6,9.62-5.79,5.17-.08,6.89,12.91,7,15.41-5.56S349,327,343.51,333.65Z" transform="translate(-185.73 -248.51)"/><path d="M346.25,353.44h0A18.62,18.62,0,0,1,340,351.8c-1-.37-1.87-.72-2.75-1-2.18-.66-3.24-1.36-3.53-2.34-.35-1.19.6-2.32,1.7-3.63a23.93,23.93,0,0,0,1.54-2c2.31-3.39,6-9.52,6-9.59l.06-.08c1.72-2.09,3.61-3.2,5.45-3.2a4.53,4.53,0,0,1,3.56,1.8c2.08,2.53,2.63,7.24,1.5,12.92C352.31,350.67,350,353.44,346.25,353.44Zm-2.18-19.39c-.34.58-3.79,6.35-6,9.61a24,24,0,0,1-1.63,2.08c-.81,1-1.57,1.87-1.43,2.35.08.26.52.78,2.61,1.41.93.28,1.9.66,2.84,1a17.53,17.53,0,0,0,5.8,1.54h0c1.88,0,4.54-.79,5.9-7.59,1-5.19.57-9.6-1.22-11.78a3.22,3.22,0,0,0-2.5-1.3C347,331.39,345.5,332.34,344.07,334.05Z" transform="translate(-185.73 -248.51)"/><path class="cls-2" d="M345.15,341.55s-6.57-2.58-1-9.77,14.62-7.43,10.48,1.17S345.15,341.55,345.15,341.55Z" transform="translate(-185.73 -248.51)"/><path d="M345.15,342.24H345l-.12-.05a6.17,6.17,0,0,1-3.49-3.78c-.57-2.06.16-4.43,2.18-7.05,2.59-3.36,6.29-5.61,9.2-5.61a3.42,3.42,0,0,1,3,1.47c.59.94,1,2.76-.6,6C351,342.14,345.39,342.24,345.15,342.24Zm7.64-15.12c-2,0-5.42,1.59-8.11,5.08-1.74,2.25-2.4,4.21-1.95,5.84a4.8,4.8,0,0,0,2.55,2.82c.8-.09,5.19-.89,8.72-8.21,1-2.11,1.26-3.78.68-4.7A2.14,2.14,0,0,0,352.79,327.12Z" transform="translate(-185.73 -248.51)"/><path class="cls-2" d="M346.78,346.34s-6.27-2.46-1-9.33,14-7.09,10,1.12S346.78,346.34,346.78,346.34Z" transform="translate(-185.73 -248.51)"/><path d="M346.78,347h-.13l-.12,0a6,6,0,0,1-3.36-3.63c-.54-2,.16-4.25,2.1-6.76,2.48-3.21,6-5.37,8.8-5.37a3.32,3.32,0,0,1,2.94,1.42c.57.91.93,2.65-.58,5.79C352.34,346.93,347,347,346.78,347Zm7.29-14.43c-1.92,0-5.15,1.51-7.72,4.83-1.65,2.14-2.27,4-1.85,5.54a4.48,4.48,0,0,0,2.41,2.67c.78-.08,4.94-.86,8.29-7.81,1-2,1.19-3.59.64-4.46A2,2,0,0,0,354.07,332.6Z" transform="translate(-185.73 -248.51)"/><path class="cls-2" d="M347.87,352.63s-5.37-2.11-.83-8,11.95-6.07,8.56,1S347.87,352.63,347.87,352.63Z" transform="translate(-185.73 -248.51)"/><path d="M347.87,353.31h-.13l-.12,0a5.23,5.23,0,0,1-2.93-3.18c-.48-1.72.13-3.7,1.81-5.87,2.13-2.77,5.19-4.63,7.61-4.63a2.92,2.92,0,0,1,2.6,1.25c.5.81.82,2.33-.49,5.06C352.69,353.23,348.07,353.31,347.87,353.31ZM354.11,341c-1.62,0-4.35,1.28-6.53,4.1-1.39,1.81-1.92,3.37-1.57,4.66a3.75,3.75,0,0,0,2,2.21c.72-.07,4.14-.73,7-6.63.8-1.66,1-3,.56-3.72A1.62,1.62,0,0,0,354.11,341Z" transform="translate(-185.73 -248.51)"/><path class="cls-2" d="M335.38,348.28c-3.52-1.17-4.3-4.14.15-8.84s7.12-.62,3.52,6.18" transform="translate(-185.73 -248.51)"/><path d="M335.38,348.28l-.28-.06a4.8,4.8,0,0,1-.76-.23,4.18,4.18,0,0,1-1.12-.63,3.12,3.12,0,0,1-1-1.4,3.74,3.74,0,0,1-.1-2.08,7.16,7.16,0,0,1,.82-2.09,12.92,12.92,0,0,1,1.33-1.92c.25-.3.51-.6.78-.88l.42-.43.46-.43a8,8,0,0,1,1-.74,4.28,4.28,0,0,1,1.23-.53,2.59,2.59,0,0,1,1.48,0,2.12,2.12,0,0,1,1.15,1,3.28,3.28,0,0,1,.41,1.21,6.23,6.23,0,0,1,0,1.13,8.22,8.22,0,0,1-.4,1.93,12.43,12.43,0,0,1-.61,1.51c-.21.43-.42.79-.59,1.09s-.33.51-.44.66l-.16.23.09-.26c.07-.18.15-.43.26-.75.05-.16.11-.33.16-.53s.13-.4.19-.63l.09-.34c0-.12.05-.25.08-.37s.11-.52.16-.8a9.11,9.11,0,0,0,.13-1.76,3.19,3.19,0,0,0-.44-1.67.92.92,0,0,0-.52-.39,1.39,1.39,0,0,0-.75,0,3.48,3.48,0,0,0-.86.4,7.9,7.9,0,0,0-.83.63l-.4.35-.39.39-.39.41-.37.41a15.17,15.17,0,0,0-1.3,1.68,7.47,7.47,0,0,0-.87,1.71,3.23,3.23,0,0,0-.13,1.61,2.65,2.65,0,0,0,.62,1.24,4.57,4.57,0,0,0,.88.77c.28.18.51.32.67.4Z" transform="translate(-185.73 -248.51)"/><path class="cls-5" d="M322.12,280.9c0,5.18-6.14,1.83-11.22,7.67-3.92,4.52-11.4,1.24-11-7,.26-5.18,5.38-10.1,11.36-10.1S322.12,275.71,322.12,280.9Z" transform="translate(-185.73 -248.51)"/><path d="M306.61,291a6.46,6.46,0,0,1-4.68-2.11,9.72,9.72,0,0,1-2.36-7.26c.28-5.55,5.76-10.42,11.71-10.42,6.17,0,11.18,4.36,11.18,9.73,0,2.94-1.93,3.42-4.17,4a12.32,12.32,0,0,0-7.13,3.93A6,6,0,0,1,306.61,291Zm4.67-19.11c-5.61,0-10.76,4.57-11,9.77a9,9,0,0,0,2.17,6.76,5.77,5.77,0,0,0,4.18,1.89,5.32,5.32,0,0,0,4-1.92,12.91,12.91,0,0,1,7.49-4.15c2.27-.56,3.64-.9,3.64-3.3C321.77,275.91,317.07,271.85,311.28,271.85Z" transform="translate(-185.73 -248.51)"/><path class="cls-5" d="M325.72,281.41c1,3.87,4.95.12,9.93,3.45,3.85,2.57,8.76-1.39,6.78-7.44-1.25-3.81-6.07-6.44-10.54-5.22S324.66,277.54,325.72,281.41Z" transform="translate(-185.73 -248.51)"/><path d="M338.17,286a4.91,4.91,0,0,1-2.71-.86,9.52,9.52,0,0,0-6.08-1.46h-.73c-1.35,0-2.71-.17-3.26-2.19-1.11-4,1.77-8.36,6.41-9.63a8.94,8.94,0,0,1,2.36-.31c3.89,0,7.51,2.42,8.6,5.76a7.28,7.28,0,0,1-.69,6.6A4.83,4.83,0,0,1,338.17,286Zm-7.94-3a9.48,9.48,0,0,1,5.61,1.59,4.17,4.17,0,0,0,2.33.74,4.12,4.12,0,0,0,3.34-1.79,6.62,6.62,0,0,0,.6-6c-1-3-4.41-5.29-7.95-5.29a8.42,8.42,0,0,0-2.18.29c-4.27,1.17-6.93,5.11-5.93,8.79.39,1.43,1.15,1.68,2.6,1.68h1.58Z" transform="translate(-185.73 -248.51)"/><path class="cls-1" d="M317.55,278.15c.12,2.91-2.16,4-4.89,4.08s-4.87-.76-5-3.66a5,5,0,1,1,9.88-.42Z" transform="translate(-185.73 -248.51)"/><path d="M312.2,282.58c-3.08,0-4.77-1.38-4.88-4a5.74,5.74,0,0,1,1.38-4,5.11,5.11,0,0,1,3.67-1.8,5.44,5.44,0,0,1,5.52,5.37,3.72,3.72,0,0,1-1.52,3.38,6.77,6.77,0,0,1-3.7,1.05Zm.39-9.13h-.19a4.46,4.46,0,0,0-3.18,1.57,5,5,0,0,0-1.21,3.54c.09,2.24,1.47,3.34,4.19,3.34h.45A6.15,6.15,0,0,0,316,281a3.05,3.05,0,0,0,1.24-2.79A4.78,4.78,0,0,0,312.59,273.45Z" transform="translate(-185.73 -248.51)"/><path d="M317.26,278.47c.06,1.3-.67,2.39-1.62,2.43s-1.77-1-1.82-2.28.67-2.39,1.62-2.43S317.21,277.17,317.26,278.47Z" transform="translate(-185.73 -248.51)"/><path class="cls-3" d="M297.32,274.46s-13.61-10-18.88-.43c-2.81,5.15,2.61,10.51,7.12,6.63,5-4.27,9-2.61,9-2.61Z" transform="translate(-185.73 -248.51)"/><path d="M297.32,274.46c-.79-.52-1.62-1-2.45-1.43s-1.69-.85-2.56-1.21a25.53,25.53,0,0,0-2.66-.95,15.94,15.94,0,0,0-2.73-.56,10.46,10.46,0,0,0-2.74,0,7.24,7.24,0,0,0-2.53.87,7.32,7.32,0,0,0-2,1.78,5.12,5.12,0,0,0-.4.55l-.36.58-.08.13-.08.16-.15.32a6.13,6.13,0,0,0-.22.6,5.15,5.15,0,0,0-.24,1.29,4.83,4.83,0,0,0,1.23,3.59,4.18,4.18,0,0,0,2.19,1.27,4,4,0,0,0,2.51-.32,5.29,5.29,0,0,0,1.12-.71l1.14-.87a14.28,14.28,0,0,1,2.57-1.41,9.93,9.93,0,0,1,2.85-.65c.24,0,.49,0,.73,0a5.84,5.84,0,0,1,.73.05,5.69,5.69,0,0,1,1.44.34l-.2.05,1.43-1.74C296.35,275.61,296.84,275,297.32,274.46Zm0,0c-.43.61-.85,1.24-1.29,1.85l-1.31,1.84-.07.1-.13,0a5,5,0,0,0-1.35-.23c-.23,0-.46,0-.69,0s-.46,0-.68,0a9.67,9.67,0,0,0-2.65.74,13.31,13.31,0,0,0-2.37,1.4c-.37.29-.73.61-1.1.9a6,6,0,0,1-1.26.83,4.74,4.74,0,0,1-5.7-1.07,5.58,5.58,0,0,1-1.39-2.72,5.33,5.33,0,0,1-.1-1.54,6.32,6.32,0,0,1,.29-1.5,7.28,7.28,0,0,1,.28-.73L278,274l.08-.16v0l0,0,0,0,.05-.08.39-.63c.13-.21.3-.4.44-.6a7.49,7.49,0,0,1,5.11-2.87,11,11,0,0,1,2.93.06,15,15,0,0,1,2.81.7,22.89,22.89,0,0,1,2.66,1.1,26.51,26.51,0,0,1,2.5,1.39A23.83,23.83,0,0,1,297.32,274.46Z" transform="translate(-185.73 -248.51)"/><path class="cls-2" d="M304.49,284.11s8.62-8.71,16.1-1.89" transform="translate(-185.73 -248.51)"/><path d="M304.49,284.11s.18-.23.51-.6a14.31,14.31,0,0,1,1.52-1.39c.34-.27.71-.55,1.12-.82a13.14,13.14,0,0,1,1.34-.79,14.17,14.17,0,0,1,1.53-.68,11.93,11.93,0,0,1,1.68-.47c.29,0,.58-.11.87-.13l.43,0h.44a8.67,8.67,0,0,1,1.7.14c.27.05.53.11.79.18l.73.25.67.29c.21.11.4.23.59.34a5.19,5.19,0,0,1,.52.34c.16.12.32.21.45.33s.5.42.67.6l.54.57s-.25-.15-.65-.42c-.2-.15-.47-.28-.76-.46a5.16,5.16,0,0,0-.47-.24c-.18-.08-.34-.19-.54-.26l-.59-.23-.65-.21-.69-.17-.74-.12a9.84,9.84,0,0,0-1.54,0l-.4,0-.4,0c-.26,0-.53.09-.79.13a13.92,13.92,0,0,0-1.57.41c-.5.17-1,.36-1.47.56s-.92.43-1.34.65l-1.17.66c-.35.22-.68.42-1,.61l-.74.5C304.72,283.93,304.49,284.11,304.49,284.11Z" transform="translate(-185.73 -248.51)"/><path class="cls-1" d="M328.77,278.51c-.09,2.24,1.49,3.05,3.38,3.12s3.37-.61,3.46-2.84-1.37-4.12-3.26-4.19S328.86,276.28,328.77,278.51Z" transform="translate(-185.73 -248.51)"/><path d="M332.42,282h-.29c-2.47-.1-3.79-1.34-3.71-3.48.1-2.43,1.85-4.33,3.94-4.25s3.69,2.13,3.59,4.55C335.87,280.88,334.65,282,332.42,282Zm-.19-7c-1.67,0-3,1.57-3.12,3.59-.07,1.75,1,2.68,3.05,2.76h.26c1.85,0,2.78-.83,2.85-2.53.08-2-1.24-3.76-2.93-3.83Z" transform="translate(-185.73 -248.51)"/><path d="M332.65,279.21c0,1,.51,1.91,1.23,1.94s1.35-.8,1.39-1.84-.51-1.91-1.24-1.94S332.69,278.16,332.65,279.21Z" transform="translate(-185.73 -248.51)"/><path class="cls-2" d="M338.25,283.06s-6.26-6.69-11.69-1.4" transform="translate(-185.73 -248.51)"/><path d="M338.25,283.06l-.47-.33-.54-.36-.71-.45c-.26-.16-.55-.32-.85-.48s-.64-.33-1-.49-.7-.3-1.07-.42a8.86,8.86,0,0,0-1.12-.31,5.4,5.4,0,0,0-.58-.09l-.28,0h-.29a5.23,5.23,0,0,0-.56,0c-.19,0-.37,0-.55,0l-.53.09-.5.12-.47.16-.43.17a3.36,3.36,0,0,0-.38.19,2.28,2.28,0,0,0-.35.18c-.21.13-.41.23-.56.33l-.48.31.36-.45c.12-.14.28-.29.47-.47a2.17,2.17,0,0,1,.32-.27,2.75,2.75,0,0,1,.37-.28l.43-.27.48-.24c.18-.08.36-.14.55-.21l.58-.16a6.7,6.7,0,0,1,1.28-.12,6.39,6.39,0,0,1,1.3.14,7.5,7.5,0,0,1,1.25.37,8.9,8.9,0,0,1,1.12.53,9,9,0,0,1,1,.63,8,8,0,0,1,.8.64,9.5,9.5,0,0,1,1.07,1.1A4.57,4.57,0,0,1,338.25,283.06Z" transform="translate(-185.73 -248.51)"/><g class="cls-6"><path d="M272.9,472.24c-2-.72,32,17.83,33.63,38.42-3.43-20.58,2.8-24.94,5.92-27.75C290.31,483.22,272.9,472.24,272.9,472.24Z" transform="translate(-185.73 -248.51)"/></g><g class="cls-6"><path d="M366.93,464.05s-33.71,21.43-31.93,40.4c.27-18-9.28-22.52-9.28-22.52S346.46,479.75,366.93,464.05Z" transform="translate(-185.73 -248.51)"/></g><g class="cls-6"><path d="M267.75,517.28s-11.65,1-9.15,9.9a39,39,0,0,0,4,2.07S256.1,522,267.75,517.28Z" transform="translate(-185.73 -248.51)"/></g><g class="cls-6"><path d="M264.24,517s-7.29-.74-8,6.23c.59,2.28,1.12,1.7,1.12,1.7S256.69,518.08,264.24,517Z" transform="translate(-185.73 -248.51)"/></g><g class="cls-6"><path d="M378.78,515.63s12.39.75,10.53,9.58c-3.08,3.78-4.2,2.76-4.2,2.76S393.46,521.43,378.78,515.63Z" transform="translate(-185.73 -248.51)"/></g><g class="cls-6"><path d="M383.2,514.52s10.1,1.22,8.4,8.93c-1.81,2.45-1.54,1.33-1.54,1.33S392.77,517.76,383.2,514.52Z" transform="translate(-185.73 -248.51)"/></g><g class="cls-6"><path d="M233.23,412.14s-.84-16.52,24.88-14.43,33.24-15,37.42-11.49.62,9.19,4.81,5.85a4.74,4.74,0,0,0,.83-7.11,5.89,5.89,0,0,0,1.88-5.85c-1.67,1.25-3.34.42-2.92-3.14s-5.7-3.61-8.18,0-13.61,15.72-32,17-28-4.39-28-4.39S231.14,394.58,233.23,412.14Z" transform="translate(-185.73 -248.51)"/></g><path d="M269.61,337.51s-.15-.08-.44-.2-.71-.28-1.25-.48-1.21-.4-2-.62-1.65-.43-2.61-.64-2-.37-3.12-.54c-.56-.07-1.13-.15-1.72-.2l-.89-.09-.91-.06c-.61-.06-1.23-.07-1.86-.1l-1,0c-.32,0-.64,0-1,0-.64,0-1.29,0-1.94,0l-1,0c-.33,0-.65,0-1,.06l-1,.06-1,.08c-.33,0-.65.05-1,.09l-1,.11c-.64.07-1.27.16-1.9.25l-.93.13-.92.15c-1.21.19-2.37.43-3.48.64l-1.61.35c-.52.1-1,.23-1.5.35l-1.38.33-1.23.32-1.09.28-.93.26-1.29.36-.46.12.44-.18,1.24-.52.89-.35,1.07-.39,1.21-.43,1.36-.44c.94-.31,2-.59,3.08-.89s2.28-.58,3.5-.8l.93-.19.94-.16,1-.16,1-.13,1-.12,1-.1,1-.1,1-.06,1,0,1,0c.66,0,1.32,0,2,0s1.31.05,1.95.08,1.28.08,1.9.15c1.25.11,2.44.32,3.57.52s2.18.47,3.14.74a28.06,28.06,0,0,1,4.51,1.69c.53.25.92.48,1.19.64A4.73,4.73,0,0,1,269.61,337.51Z" transform="translate(-185.73 -248.51)"/><g class="cls-6"><path d="M317.73,327.4s10.42-3.26,14.41-16.73c0,0,6,4.84,10.73-1.89-.63-1.48-1.36-1.69-1.36-1.69s-6.1,6.53-13.89-2.1C330.36,313.09,325.73,321.09,317.73,327.4Z" transform="translate(-185.73 -248.51)"/></g><g class="cls-6"><path d="M347.82,296.79s3.26,3.47-2.53,11c2,4.84.11,12.1-3.78,15.57,5.15-7.68,2.73-14.73.1-16.73C345,304.36,349.29,303.31,347.82,296.79Z" transform="translate(-185.73 -248.51)"/></g><g class="cls-6"><path d="M354.88,338.86s-8.21.19-10.3,5.69c.63.63,1.39,1.26,1.39,1.26s3.1-6.19,8.47-5.56A1.7,1.7,0,0,0,354.88,338.86Z" transform="translate(-185.73 -248.51)"/></g><g class="cls-6"><path d="M355,330.71s-8.09-2-12.58,7.9c.38,1.83,1.52,1.77,1.52,1.77s2.59-8.91,10.68-8.22C355.26,331.72,355,330.71,355,330.71Z" transform="translate(-185.73 -248.51)"/></g><g class="cls-6"><path d="M339.47,344.86s1.83-1.14,2.14,1.27-.19,5,2.47,5.93c2.84.45,3.09.13,3.09.13s-3.72-2.34-.94-6.51c-3.8-.75-2.66-4.36-2.59-4.55s-2.28-1.95-2.15-3.47L340.35,339S341.74,340.38,339.47,344.86Z" transform="translate(-185.73 -248.51)"/></g><g class="cls-6"><path d="M295.49,366.34s3.28-4.29,6.76-2.84,2.4,3.29,1.33,4.61C304.65,365.08,299.47,363.25,295.49,366.34Z" transform="translate(-185.73 -248.51)"/></g><g class="cls-6"><path d="M294.92,361.16s2-7.39,8.85-4.23l.31,2S298.21,355.67,294.92,361.16Z" transform="translate(-185.73 -248.51)"/></g><g class="cls-6"><path d="M291.07,376.2s2.9-4.36,7.7-4.67,1.9,6.38,1.9,6.38.32-5.75-3.35-4.68A22.49,22.49,0,0,0,291.07,376.2Z" transform="translate(-185.73 -248.51)"/></g><g class="cls-6"><path d="M363.4,307.37s-.88,10.68,10.68,11.23a89,89,0,0,0-12.77,3.08S364.06,314,363.4,307.37Z" transform="translate(-185.73 -248.51)"/></g><g class="cls-6"><path d="M383.54,368.86s-27.6,1.47-40.35-16.09c-4.39-1.47-5.78-2.61-5.78-2.61l-.37.32c-1.53-.52-3.46-1.44-2.48-2.5-4.07-1-1.54-5.28-1.54-5.28s-33.68,11.67-51.29-26c0,0,6.81,41.29,52.23,38.17-.41,1.88.78,3.66,6.51,3.94a36.52,36.52,0,0,0,21.33,20.91c16.3,5.85,24.67-1.26,28.85,12.12C389.81,382.87,383.54,368.86,383.54,368.86Z" transform="translate(-185.73 -248.51)"/></g><g class="cls-6"><path d="M356.3,343s.74,29.37,34.95,24.91c-25.47,2.79-39.6-4.46-49.08-15.8C350,354,354.44,349.51,356.3,343Z" transform="translate(-185.73 -248.51)"/></g><g class="cls-6"><path d="M231.55,337.24s16.36-13.2,42.21,2.42C258.32,331.85,244.38,334.08,231.55,337.24Z" transform="translate(-185.73 -248.51)"/></g><g class="cls-6"><path d="M305.69,283a8.2,8.2,0,0,0,1.7-4.95c.36,2.89,1.06,3.06,1.06,3.06Z" transform="translate(-185.73 -248.51)"/></g><g class="cls-6"><path d="M317.05,275.61a6.33,6.33,0,0,1,1.17,3.18c.24,2.06,1.36,2.47,1.36,2.47l-2.36-1.06A5.62,5.62,0,0,0,317.05,275.61Z" transform="translate(-185.73 -248.51)"/></g><g class="cls-6"><path d="M329.47,276a4.82,4.82,0,0,0-1.42,2.71,5.34,5.34,0,0,1-.76,2.47l1.53-1.23S328.47,277.26,329.47,276Z" transform="translate(-185.73 -248.51)"/></g><g class="cls-6"><path d="M335.53,276.61a6.6,6.6,0,0,1,.88,2.83,4.81,4.81,0,0,0,1,2.65l-2.18-1.3a6.14,6.14,0,0,0,.24-4.35" transform="translate(-185.73 -248.51)"/></g><g class="cls-7"><path d="M310.45,273.79s-4.29,3.35-.82,6.65c-1.24.88-1.18.7-1.18.7A5.35,5.35,0,0,1,310.45,273.79Z" transform="translate(-185.73 -248.51)"/></g><g class="cls-7"><path d="M331.64,274.85a3.87,3.87,0,0,0-1.59,4.65l-.94.47S327.76,276.91,331.64,274.85Z" transform="translate(-185.73 -248.51)"/></g><g class="cls-6"><path class="cls-1" d="M346.88,298.89c-.35.57-1.73-2-4.23-3.56s-5.16-1.4-4.81-2,3.9-.56,6.4,1S347.22,298.32,346.88,298.89Z" transform="translate(-185.73 -248.51)"/></g><g class="cls-6"><path class="cls-1" d="M358.32,276c-.22.38-.49-4.91-4.67-7.34s-10.44-.71-10.22-1.08,6.37-2.68,11.79.54C359.38,270.59,358.54,275.63,358.32,276Z" transform="translate(-185.73 -248.51)"/></g><g class="cls-6"><path class="cls-1" d="M296.64,271.87c-.08.3-3-3.17-8.11-4.48s-10.54.05-10.46-.25,4.72-2.57,10.92-1C294.12,267.46,296.71,271.57,296.64,271.87Z" transform="translate(-185.73 -248.51)"/></g><path class="cls-1" d="M338.57,268.25c-.15.47-3.82-3.2-10.14-5.22s-12.91-1.63-12.76-2.1,8.14-.56,14.47,1.46S338.71,267.78,338.57,268.25Z" transform="translate(-185.73 -248.51)"/><g class="cls-6"><path class="cls-1" d="M404,318.32c8.83,11.31,7.55,26.34,6.68,27s-.91-15.24-9.75-26.55-23.11-13.72-22.24-14.4S395.14,307,404,318.32Z" transform="translate(-185.73 -248.51)"/></g><g class="cls-6"><path class="cls-1" d="M289.35,357.93c-.38.68-7.48-8.92-18.52-15s-21.83-6.28-21.46-7,11.84-1.09,22.88,5S289.72,357.24,289.35,357.93Z" transform="translate(-185.73 -248.51)"/></g><path d="M376.42,511.87H374.7c-.35,0-.75,0-1.18,0l-1.4-.05-1.56-.07-.82-.05-.84-.05-1.71-.12c-.57-.05-1.15-.07-1.71-.12l-1.66-.14-1.55-.11-1.39-.13-1.17-.08-.91-.07-.8-.09s.28-.06.79-.14l.91-.14c.35,0,.75-.1,1.18-.13.87-.06,1.89-.1,3-.12l1.68,0c.57,0,1.15,0,1.73.09l1.72.15c.57.06,1.13.12,1.67.2s1.06.15,1.55.23,1,.17,1.38.25c.86.16,1.56.33,2.06.45Z" transform="translate(-185.73 -248.51)"/><path d="M286.9,513l-.8.06-.92,0-1.18.05-1.4,0-1.56,0h-1.66l-1.72,0h-1.72l-1.66,0c-.53,0-1,0-1.55,0l-1.39,0h-1.18l-.92,0-.8,0s.28-.08.78-.19l.9-.18c.35-.07.74-.15,1.18-.21.86-.11,1.88-.21,3-.29l1.68,0c.57,0,1.15,0,1.73,0l1.73,0c.57,0,1.13.05,1.68.1l1.56.14c.49,0,1,.11,1.39.17.87.11,1.58.24,2.08.33Z" transform="translate(-185.73 -248.51)"/><g class="cls-6"><path d="M261.82,493.08s12.07,16.51,23.62,19.94c-6.35-.64-7.55-.62-7.55-.62S266.27,500.32,261.82,493.08Z" transform="translate(-185.73 -248.51)"/></g><g class="cls-6"><path d="M371.14,491.31s-4.69,15.36-11.68,19.42a20.18,20.18,0,0,1,7,.07S366.83,505.91,371.14,491.31Z" transform="translate(-185.73 -248.51)"/></g></svg>