<svg id="Layer_1" data-name="Layer 1" xmlns="http://www.w3.org/2000/svg" viewBox="0 0 240.54 294.99"><defs><style>.cls-1{fill:#fff;}.cls-2{fill:#2b2e31;}.cls-3{fill:#d9dad9;}.cls-4{opacity:0.3;}.cls-5{fill:#02060d;}.cls-6{opacity:0.4;}.cls-7{opacity:0.2;}</style></defs><title>panda1</title><path class="cls-2" d="M253.24,276.18s-1.29-6.93-11-7-13.6,7.44-7.71,14.1,11.18-4.48,15.94-3.46" transform="translate(-185.73 -248.51)"/><path d="M253.24,276.18a4.83,4.83,0,0,0-.2-.57,8.91,8.91,0,0,0-2.53-3.41,8.51,8.51,0,0,0-1.3-.9,9.21,9.21,0,0,0-1.58-.75c-.28-.11-.59-.19-.89-.29s-.62-.17-.94-.22a14.26,14.26,0,0,0-2-.27c-.35,0-.71,0-1.07,0h-.54l-.55,0a15.43,15.43,0,0,0-2.22.26,10.62,10.62,0,0,0-4.2,1.73,7.19,7.19,0,0,0-1.61,1.6,6.26,6.26,0,0,0-.94,2.05,7.09,7.09,0,0,0,.47,4.48,10.9,10.9,0,0,0,1.14,2c.22.31.46.62.71.91.1.12.26.3.38.42a4.68,4.68,0,0,0,.39.38,5,5,0,0,0,1.76,1.08,3.88,3.88,0,0,0,1.94.12,10.35,10.35,0,0,0,3.51-1.62c1-.69,2-1.38,2.85-1.94a11.35,11.35,0,0,1,2.38-1.26,4.23,4.23,0,0,1,1.72-.28,1.93,1.93,0,0,1,.45.07l.15,0h-.16a2,2,0,0,0-.45,0,4.2,4.2,0,0,0-1.61.44,13.18,13.18,0,0,0-2.19,1.43c-.8.62-1.67,1.38-2.7,2.15a17.52,17.52,0,0,1-1.68,1.13,7.25,7.25,0,0,1-2.07.84,4.89,4.89,0,0,1-2.46,0A6,6,0,0,1,235,284.5l-.47-.44c-.17-.16-.27-.28-.43-.46s-.55-.63-.81-1a12.1,12.1,0,0,1-1.34-2.23,9.41,9.41,0,0,1-.74-2.59,7.72,7.72,0,0,1,.15-2.75,7.21,7.21,0,0,1,1.17-2.51,8.32,8.32,0,0,1,1.94-1.9,11.22,11.22,0,0,1,4.76-1.85,16.7,16.7,0,0,1,2.41-.21h.58c.2,0,.39,0,.58,0,.38,0,.76.06,1.13.09a13.11,13.11,0,0,1,4.06,1.09,9.67,9.67,0,0,1,2.93,2,8.69,8.69,0,0,1,1,1.12,8,8,0,0,1,.65,1.06,8.2,8.2,0,0,1,.64,1.61A4.14,4.14,0,0,1,253.24,276.18Z" transform="translate(-185.73 -248.51)"/><path class="cls-3" d="M252.67,276.92s-10.86-8-15.06-.34c-2.25,4.11,2.07,8.39,5.68,5.29,4-3.41,7.2-2.08,7.2-2.08Z" transform="translate(-185.73 -248.51)"/><path d="M252.67,276.92c-.64-.41-1.3-.77-2-1.12s-1.35-.66-2-.95a20.48,20.48,0,0,0-2.12-.74,13.44,13.44,0,0,0-2.17-.43,6.75,6.75,0,0,0-4.15.72,5.67,5.67,0,0,0-1.56,1.41,4.73,4.73,0,0,0-.31.43l-.28.46-.06.1-.06.12-.13.26c-.05.15-.12.3-.17.47a4,4,0,0,0-.12,2,3.75,3.75,0,0,0,.89,1.79,3.23,3.23,0,0,0,1.7,1,3.08,3.08,0,0,0,1.95-.24,4,4,0,0,0,.88-.55l.91-.69a10.44,10.44,0,0,1,2.08-1.12,7.78,7.78,0,0,1,2.29-.52,5.76,5.76,0,0,1,.59,0c.19,0,.39,0,.59,0a4.41,4.41,0,0,1,1.15.29l-.2.05,1.15-1.38C251.89,277.83,252.28,277.38,252.67,276.92Zm0,0c-.34.5-.67,1-1,1.49s-.68,1-1,1.48l-.07.1-.13,0a4.12,4.12,0,0,0-1.06-.17,5,5,0,0,0-.55,0c-.18,0-.36,0-.54.05a7.32,7.32,0,0,0-2.1.6,10.51,10.51,0,0,0-1.86,1.11l-.87.72a5.11,5.11,0,0,1-1,.68,3.87,3.87,0,0,1-4.65-.87,4.59,4.59,0,0,1-1.14-2.22,4.76,4.76,0,0,1-.08-1.25,5.07,5.07,0,0,1,.24-1.22,5.5,5.5,0,0,1,.23-.59l.12-.26.07-.12v0l0,0,0-.07.32-.51a5.46,5.46,0,0,1,.36-.48,6.32,6.32,0,0,1,1.83-1.58,6.58,6.58,0,0,1,2.3-.73,8.87,8.87,0,0,1,2.36.06,11.42,11.42,0,0,1,2.25.57,17.24,17.24,0,0,1,2.12.89A21.66,21.66,0,0,1,252.67,276.92Z" transform="translate(-185.73 -248.51)"/><g class="cls-4"><path class="cls-1" d="M252.12,274.86c-.06.24-2.38-2.53-6.47-3.58s-8.41,0-8.35-.2,3.78-2.05,8.72-.79C250.12,271.34,252.18,274.62,252.12,274.86Z" transform="translate(-185.73 -248.51)"/></g><path class="cls-2" d="M269,432s-44.58-16.66-63.2,19.84,26,49.24,26,49.24-19.59-4.41-21.06,8.81,50,15,54.87,3.92c14.2,2.94,61.48-36.74,30.86-105.32" transform="translate(-185.73 -248.51)"/><path d="M269,432a65,65,0,0,0-8.35-2.1,76.39,76.39,0,0,0-8.52-1.12,66.1,66.1,0,0,0-8.56-.07c-1.43.08-2.85.22-4.26.4s-2.81.45-4.2.75-2.76.68-4.11,1.11-2.67.93-4,1.49-2.57,1.18-3.8,1.86c-.63.32-1.23.7-1.84,1.05s-1.19.75-1.76,1.17a39.19,39.19,0,0,0-6.35,5.58,45.46,45.46,0,0,0-5.06,6.8,50.38,50.38,0,0,0-3.78,7.61,36.2,36.2,0,0,0-2.2,8.14,27,27,0,0,0,.07,8.37,25.37,25.37,0,0,0,2.78,7.88,31.18,31.18,0,0,0,5.06,6.72,44,44,0,0,0,6.53,5.4,57.27,57.27,0,0,0,7.38,4.23c1.28.62,2.58,1.19,3.9,1.72s2.67,1,4,1.42l-.34,1.34c-.84-.18-1.74-.32-2.62-.42s-1.78-.19-2.67-.23a27.68,27.68,0,0,0-5.31.22,15.26,15.26,0,0,0-5,1.54,9.69,9.69,0,0,0-2.05,1.47,8.2,8.2,0,0,0-1.52,2,8.88,8.88,0,0,0-.88,2.37c0,.2-.08.42-.12.63s-.06.42-.09.64l0,.14c0,.06,0,.12,0,.17v.27a3.68,3.68,0,0,0,.06.58,4.7,4.7,0,0,0,1,2.13,9,9,0,0,0,1.87,1.7,20.27,20.27,0,0,0,4.71,2.33,41.1,41.1,0,0,0,5.16,1.46,71.13,71.13,0,0,0,10.7,1.45,84.77,84.77,0,0,0,10.81,0c1.8-.12,3.6-.29,5.38-.55a47.2,47.2,0,0,0,5.27-1,24.76,24.76,0,0,0,5-1.81,11.36,11.36,0,0,0,2.15-1.4,5.33,5.33,0,0,0,1.49-1.88l.23-.5.55.11a9.62,9.62,0,0,0,3.62-.09,19.69,19.69,0,0,0,3.62-1.13,34.77,34.77,0,0,0,6.69-3.77,51.17,51.17,0,0,0,5.93-5,59.15,59.15,0,0,0,5.2-5.76,66.85,66.85,0,0,0,8.15-13.2,72.4,72.4,0,0,0,5-14.69,73.59,73.59,0,0,0,1.32-7.67c.16-1.28.29-2.58.38-3.87s.14-2.59.17-3.89c0-2.59,0-5.19-.09-7.79s-.38-5.19-.73-7.77-.8-5.15-1.36-7.7-1.19-5.08-1.92-7.59a132.39,132.39,0,0,0-5.29-14.76q1.67,3.56,3.12,7.21c1,2.43,1.87,4.9,2.68,7.39s1.53,5,2.16,7.58,1.17,5.12,1.61,7.72.76,5.21,1,7.84a71.83,71.83,0,0,1,.26,7.9c-.08,2.64-.27,5.28-.58,7.9s-.77,5.23-1.35,7.81a73.54,73.54,0,0,1-5.13,15,68.61,68.61,0,0,1-8.31,13.47,61.88,61.88,0,0,1-5.32,5.89,52.16,52.16,0,0,1-6.1,5.1,35.81,35.81,0,0,1-7,3.93,20.76,20.76,0,0,1-3.88,1.2,10.81,10.81,0,0,1-4.17.09l.77-.4a7,7,0,0,1-1.86,2.38A13,13,0,0,1,262,518,26.7,26.7,0,0,1,256.7,520a48.24,48.24,0,0,1-5.43,1.07c-1.82.26-3.65.44-5.48.56a85.75,85.75,0,0,1-11,0,71.88,71.88,0,0,1-10.91-1.48,43.59,43.59,0,0,1-5.33-1.51,21.92,21.92,0,0,1-5-2.5,10.26,10.26,0,0,1-2.15-2,6,6,0,0,1-1.28-2.75,5.16,5.16,0,0,1-.08-.78c0-.13,0-.27,0-.41s0-.12,0-.18v-.19c0-.23.06-.47.1-.71s.08-.47.14-.71a10.61,10.61,0,0,1,1-2.72,9.67,9.67,0,0,1,1.78-2.33,10.55,10.55,0,0,1,2.36-1.7,16.69,16.69,0,0,1,5.41-1.69,29,29,0,0,1,5.58-.23c.92,0,1.85.12,2.77.23s1.82.25,2.76.45l-.35,1.34c-1.42-.43-2.77-.93-4.12-1.47s-2.68-1.12-4-1.75a58.43,58.43,0,0,1-7.56-4.34,43.84,43.84,0,0,1-6.73-5.58,32.36,32.36,0,0,1-5.29-7,26.66,26.66,0,0,1-2.93-8.31,28.23,28.23,0,0,1-.08-8.8,37.42,37.42,0,0,1,2.29-8.46,51.73,51.73,0,0,1,3.88-7.82,46.91,46.91,0,0,1,5.22-7,40.61,40.61,0,0,1,6.57-5.78c.59-.43,1.21-.82,1.82-1.22s1.25-.77,1.9-1.11,1.29-.68,1.94-1,1.33-.61,2-.88c1.36-.54,2.74-1,4.14-1.42s2.81-.75,4.24-1,2.87-.48,4.31-.64,2.89-.24,4.34-.28a64.2,64.2,0,0,1,8.66.35,71.73,71.73,0,0,1,8.52,1.41A66.08,66.08,0,0,1,269,432Z" transform="translate(-185.73 -248.51)"/><path class="cls-2" d="M244.26,310.49S176.41,341.85,203.93,411c8.32,19.84,69.77-24.32,69.77-24.32Z" transform="translate(-185.73 -248.51)"/><path d="M213.17,416.8h0c-5,0-8.33-1.87-9.87-5.55-6.34-15.91-8.14-31.13-5.36-45.27a71.45,71.45,0,0,1,15.3-31.61A98.52,98.52,0,0,1,244,309.86l.67-.31,29.9,77.36-.44.31c-.1.07-10.41,7.46-23,14.76C234.17,411.81,221.4,416.8,213.17,416.8Zm30.71-105.36a97.87,97.87,0,0,0-29.6,23.85c-12.2,14.89-23.79,40.06-9.7,75.43,1.32,3.15,4.13,4.69,8.59,4.69,18,0,55.24-25.86,59.69-29Z" transform="translate(-185.73 -248.51)"/><path d="M282.09,505.87s-.09.12-.27.33-.45.52-.8.89-.79.83-1.32,1.32-1.12,1-1.8,1.62-1.44,1.17-2.29,1.75a20.66,20.66,0,0,1-2.78,1.67,13.51,13.51,0,0,1-3.34,1.21,8.88,8.88,0,0,1-1.88.18,6.22,6.22,0,0,1-1.94-.36,5.59,5.59,0,0,1-1.71-1,6.51,6.51,0,0,1-1.25-1.48,4.1,4.1,0,0,1-.23-.4l-.22-.38-.4-.76-.39-.74-.41-.71-.4-.7-.41-.67-.4-.67-.42-.63-.4-.62c-.14-.2-.28-.39-.41-.59-.26-.39-.53-.75-.8-1.1-.52-.69-1-1.3-1.49-1.84s-.9-1-1.28-1.32a9.76,9.76,0,0,0-.9-.77l-.34-.25a3.06,3.06,0,0,1,.38.18,8.46,8.46,0,0,1,1,.63,17,17,0,0,1,1.48,1.15c.26.25.56.51.85.79s.59.59.88.92.62.68.92,1.05l.47.57.46.6.46.62.46.65c.16.22.31.45.46.67l.45.71.45.72.43.73c.14.24.28.49.43.73l.21.37c.07.11.13.23.21.34a4.87,4.87,0,0,0,2.31,1.93,5,5,0,0,0,1.5.29,7.12,7.12,0,0,0,1.59-.13,14.12,14.12,0,0,0,3.07-1,28.43,28.43,0,0,0,2.75-1.44c.85-.51,1.64-1,2.36-1.52,1.44-1,2.6-1.88,3.41-2.51l.94-.75Z" transform="translate(-185.73 -248.51)"/><path d="M202.65,476.82l.21.52c.15.34.39.82.7,1.43s.75,1.32,1.25,2.13,1.12,1.68,1.82,2.61c.18.23.37.46.55.7l.29.36.3.35.62.73.66.73c.91,1,1.9,2,3,2.92.53.49,1.1,1,1.68,1.43.28.25.58.47.88.7l.91.69c1.23.88,2.5,1.76,3.84,2.55l1,.6,1,.56,1,.55,1,.52,1,.51,1,.47,1,.46,1,.42c1.33.58,2.66,1.06,3.92,1.53s2.46.85,3.59,1.17l1.62.49,1.46.4,1.3.36,1.1.27,1.55.39.55.15-.56-.06c-.37,0-.91-.08-1.6-.16l-1.13-.14-1.34-.21-1.51-.24-1.67-.35c-1.17-.23-2.41-.57-3.73-.92s-2.69-.81-4.08-1.35l-1.06-.39-1-.44-1.07-.45-1.06-.51-1.07-.51-1-.56-1.05-.57-1-.61a47,47,0,0,1-3.94-2.68,40,40,0,0,1-3.5-3c-.55-.52-1-1.06-1.55-1.58-.25-.26-.47-.54-.7-.81s-.47-.52-.68-.8a33.41,33.41,0,0,1-2.27-3.12,30.94,30.94,0,0,1-1.6-2.84c-.43-.87-.75-1.65-1-2.3s-.39-1.17-.49-1.53A5.54,5.54,0,0,1,202.65,476.82Z" transform="translate(-185.73 -248.51)"/><path class="cls-2" d="M231,384.43s-20.28,21.66-9.68,67.28,41.94,60.83,87.56,60.83,107.38-45.62,92.63-112.9S334.71,349,334.71,349Z" transform="translate(-185.73 -248.51)"/><path d="M308.9,513.23c-24.43,0-43.17-4.39-57.28-13.41-15.66-10-25.78-25.7-31-47.95a109.8,109.8,0,0,1-3-29.95,78.62,78.62,0,0,1,3.86-21.18c3.75-11.13,8.75-16.56,9-16.78l.11-.13,103.85-35.54a50.15,50.15,0,0,1,14-1.85,48.62,48.62,0,0,1,29.4,9.5c11.7,8.81,19.87,23.46,24.27,43.55a87.09,87.09,0,0,1-17.57,75.22,106.77,106.77,0,0,1-35.58,28.37C335.66,509.72,321.78,513.23,308.9,513.23ZM231.42,385c-.76.87-5.24,6.27-8.59,16.25s-6.24,26.92-.81,50.28c9.68,41.7,36.48,60.3,86.88,60.3,26.37,0,56.37-15.27,74.66-38,12-15,24.78-39.92,17.29-74.06-9.91-45.21-37-52-52.32-52a50.31,50.31,0,0,0-13.61,1.77Z" transform="translate(-185.73 -248.51)"/><path class="cls-3" d="M350.33,364.3S292.44,424,241.25,393.25s-1.53-96.9,43.27-99.64S393,334.75,350.33,364.3Z" transform="translate(-185.73 -248.51)"/><path d="M273,402.75a61.53,61.53,0,0,1-32.11-8.91c-9.45-5.68-16-12.83-19.35-21.24-3.07-7.61-3.51-16-1.32-25,6.72-27.47,36.75-53,64.25-54.73,1.35-.08,2.73-.12,4.12-.12,14.87,0,31.86,4.66,46.62,12.79,15,8.27,25.51,19,28.77,29.45,2.42,7.73,2.09,19.17-13.2,29.79a157.38,157.38,0,0,1-23.46,18.93,130.29,130.29,0,0,1-24.81,13.05A82.27,82.27,0,0,1,273,402.75Zm15.59-108.57c-1.36,0-2.72,0-4,.12-27,1.65-56.4,26.74-63,53.68-4.49,18.34,2.63,34.21,20,44.68a60.14,60.14,0,0,0,31.4,8.71c20.87,0,40.64-10.2,53.56-18.76a156.78,156.78,0,0,0,23.28-18.79l0-.05.06,0c11.59-8,16-17.81,12.72-28.28-3.16-10.1-13.41-20.55-28.12-28.65S303.23,294.18,288.59,294.18Z" transform="translate(-185.73 -248.51)"/><path class="cls-2" d="M370,433.72s-48.37-18.07-68.56,21.53,28.17,53.42,28.17,53.42-21.26-4.78-22.86,9.57,54.22,16.21,59.53,4.25c15.42,3.19,66.71-39.87,33.49-114.28" transform="translate(-185.73 -248.51)"/><path d="M370,433.72c-1.47-.5-3-.91-4.49-1.29s-3-.71-4.56-1a82.3,82.3,0,0,0-9.24-1.23,70.42,70.42,0,0,0-9.3-.09,58.9,58.9,0,0,0-9.18,1.24,47.29,47.29,0,0,0-8.78,2.82,45.63,45.63,0,0,0-8,4.42,42.38,42.38,0,0,0-6.89,6.08,47.34,47.34,0,0,0-5.5,7.38c-.8,1.31-1.54,2.67-2.22,4.05s-1.32,2.78-1.88,4.21a39.73,39.73,0,0,0-2.4,8.85,29.23,29.23,0,0,0,.09,9.1,27.3,27.3,0,0,0,3,8.57,33.63,33.63,0,0,0,5.5,7.3,46.56,46.56,0,0,0,7.09,5.87,62.15,62.15,0,0,0,8,4.59c1.39.67,2.81,1.3,4.24,1.87s2.89,1.11,4.34,1.54l-.34,1.34c-.92-.19-1.9-.34-2.86-.46s-1.93-.2-2.89-.24a30.11,30.11,0,0,0-5.78.24,16.52,16.52,0,0,0-5.39,1.67,11.82,11.82,0,0,0-1.19.73,12.68,12.68,0,0,0-1.06.88,9.05,9.05,0,0,0-1.66,2.18,10.06,10.06,0,0,0-1,2.59c-.06.22-.09.45-.13.68s-.07.47-.1.7v.16a1.24,1.24,0,0,0,0,.18c0,.1,0,.19,0,.3a4.48,4.48,0,0,0,.07.64,5.15,5.15,0,0,0,1.1,2.34,9.73,9.73,0,0,0,2,1.85,21.5,21.5,0,0,0,5.13,2.53,46.55,46.55,0,0,0,5.6,1.6A78,78,0,0,0,333,529.48a92,92,0,0,0,11.74,0c2-.13,3.9-.32,5.84-.6a52.11,52.11,0,0,0,5.72-1.13,26.85,26.85,0,0,0,5.41-2,13,13,0,0,0,2.35-1.52,6,6,0,0,0,1.63-2.06l.23-.51.54.11a10.19,10.19,0,0,0,4-.1,20.53,20.53,0,0,0,3.93-1.22,37.48,37.48,0,0,0,7.27-4.1A53.64,53.64,0,0,0,388,511a64.38,64.38,0,0,0,5.65-6.25,73.84,73.84,0,0,0,8.85-14.33,78.21,78.21,0,0,0,5.45-16,81,81,0,0,0,1.44-8.33c.17-1.4.31-2.8.41-4.2s.15-2.82.19-4.23c.05-2.81.05-5.64-.1-8.45s-.43-5.64-.81-8.44-.88-5.59-1.48-8.35-1.31-5.52-2.1-8.24a143.45,143.45,0,0,0-5.76-16q1.8,3.87,3.38,7.83c.53,1.32,1,2.65,1.51,4s.94,2.68,1.38,4c.87,2.71,1.66,5.45,2.34,8.21s1.25,5.57,1.73,8.38.82,5.65,1.05,8.5a81.8,81.8,0,0,1,.27,8.58c-.09,2.86-.29,5.72-.63,8.56a83.57,83.57,0,0,1-1.47,8.46A80,80,0,0,1,403.79,491a75,75,0,0,1-9,14.61A67.09,67.09,0,0,1,389,512a56.45,56.45,0,0,1-6.61,5.53,38.77,38.77,0,0,1-7.54,4.25,23.13,23.13,0,0,1-4.19,1.3,11.77,11.77,0,0,1-4.51.1l.77-.4a7.22,7.22,0,0,1-2,2.55,14.07,14.07,0,0,1-2.61,1.7,28.16,28.16,0,0,1-5.69,2.08,51.34,51.34,0,0,1-5.88,1.16c-2,.29-3.95.48-5.94.61a94.82,94.82,0,0,1-11.92,0,79.94,79.94,0,0,1-11.82-1.6,46.93,46.93,0,0,1-5.78-1.65,23.26,23.26,0,0,1-5.45-2.7,10.82,10.82,0,0,1-2.32-2.12,6.63,6.63,0,0,1-1.39-3A5.69,5.69,0,0,1,306,519c0-.14,0-.29,0-.44s0-.13,0-.19l0-.21c0-.25.06-.51.1-.77s.09-.51.15-.76a11.24,11.24,0,0,1,1.1-2.94,10.41,10.41,0,0,1,1.91-2.52,11.57,11.57,0,0,1,1.22-1,14.06,14.06,0,0,1,1.33-.83,18.09,18.09,0,0,1,5.85-1.82,31.34,31.34,0,0,1,6-.26c1,.05,2,.14,3,.26s2,.27,3,.48l-.34,1.34c-1.54-.46-3-1-4.48-1.59s-2.9-1.22-4.32-1.9a65.2,65.2,0,0,1-8.19-4.7,48,48,0,0,1-7.3-6.05,34.91,34.91,0,0,1-5.72-7.6,29,29,0,0,1-3.18-9,30.77,30.77,0,0,1-.09-9.53,41.23,41.23,0,0,1,2.48-9.16c.58-1.48,1.23-2.92,1.93-4.33s1.46-2.8,2.28-4.15a48.7,48.7,0,0,1,5.66-7.6,43.82,43.82,0,0,1,7.12-6.27,41.24,41.24,0,0,1,8.31-4.57,49.92,49.92,0,0,1,9.08-2.65,64.19,64.19,0,0,1,18.76-.64,80.14,80.14,0,0,1,9.26,1.52c1.52.34,3,.73,4.53,1.15S368.55,433.17,370,433.72Z" transform="translate(-185.73 -248.51)"/><path class="cls-2" d="M283,284.5s68.13-10.2,124.74,49c11.85,12.18,10.2,59.57-18.1,103.68,4.6,12.17,2.3,20.73-4.28,26.32s-10.52-.09-4.93-7.34-.86-17.72-.86-17.72-11.52-1.55-17.89,11.87c-7,14.69-12.19,4.53-7.91-5.67a21.68,21.68,0,0,1,14.14-12.4s-13.49-3.29-21.72-3c3.29-4.61,10.84-8.56,20.14-6-15.14-26.66-13.84-53-13.84-53s1-15.66,1.2-15.66c.69,1.1-26.59-46.49-45.68-49.78S283,284.5,283,284.5Z" transform="translate(-185.73 -248.51)"/><path d="M380.53,466.49a3.27,3.27,0,0,1-3.06-1.84c-1.07-2.18-.16-5.58,2.38-8.87,4.73-6.13.22-14.93-.74-16.64l-.68,0c-3.22,0-11.23,1.12-16.17,11.53-2.4,5.07-4.86,7.75-7.11,7.75h0a2.93,2.93,0,0,1-2.48-1.47c-1.72-2.58-1.54-7.84.42-12.52a22.18,22.18,0,0,1,12.21-12c-4-.85-12-2.42-17.94-2.42-.41,0-.81,0-1.18,0l-1.41.05.82-1.15a18.26,18.26,0,0,1,14.86-7.08,22,22,0,0,1,4.46.47A110.6,110.6,0,0,1,353,387a90.93,90.93,0,0,1-1.25-16.64c0-.05.26-4,.53-7.85.16-2.28.3-4.09.41-5.39.06-.78.12-1.38.16-1.79,0-.18,0-.34.06-.49a252.84,252.84,0,0,0-15.83-23.72c-11.64-15.39-21.75-24.2-29.23-25.49a33,33,0,0,1-20.08-11.68,32.54,32.54,0,0,1-5.47-9.18l-.27-.79.82-.12a89.29,89.29,0,0,1,12.18-.68,152.4,152.4,0,0,1,49,8.37c24.11,8.28,45.68,22.26,64.12,41.55,6.24,6.42,8.61,21.91,6.19,40.44-2.78,21.24-11.31,43.89-24,63.8,2.17,5.85,2.83,11.12,2,15.68a18.89,18.89,0,0,1-6.56,11.09A8.58,8.58,0,0,1,380.53,466.49Zm-2.1-28.75a10.7,10.7,0,0,1,1.2.06l.32,0,.17.28c.28.45,6.64,11,.82,18.51-2.65,3.43-2.86,6.13-2.23,7.41a1.88,1.88,0,0,0,1.82,1.07,7.41,7.41,0,0,0,4.34-2.09c6.9-5.87,8.28-14.47,4.08-25.56l-.12-.33.18-.29c28.25-44,29.66-91,18.19-102.82C366.05,291,319.26,284.53,295,284.53a100.32,100.32,0,0,0-11.11.55,34,34,0,0,0,4.95,8,31.58,31.58,0,0,0,19.21,11.16c8,1.38,18.22,10.25,30.36,26.35,4.71,6.26,8.75,12.37,11.31,16.4,1.48,2.33,2.62,4.19,3.31,5.34,1.32,2.2,1.32,2.2,1.28,2.47l-.08.66h0c-.23,2.19-.77,10-1.09,14.95a89.78,89.78,0,0,0,1.24,16.38A108.79,108.79,0,0,0,366.89,423l.82,1.46L366.1,424a20.93,20.93,0,0,0-5.65-.79,17.23,17.23,0,0,0-12.84,5.38c8.25.06,19.93,2.89,20.43,3l2.88.7L368,433a21.22,21.22,0,0,0-13.66,12c-2,4.8-1.78,9.37-.54,11.23a1.61,1.61,0,0,0,1.33.85c.6,0,2.8-.5,5.86-7C366.29,438.94,375,437.74,378.43,437.74Z" transform="translate(-185.73 -248.51)"/><path class="cls-3" d="M320,313.49s1.37-37.71-34.38-46.76c-34.13-8.64-36.53,3.95-42.78,13.17S212.53,303.59,219.44,323,267.62,372.28,316,320" transform="translate(-185.73 -248.51)"/><path d="M320,313.49s0-1.1-.15-3.15a57.33,57.33,0,0,0-1.44-8.77,55.56,55.56,0,0,0-1.82-6.05,50.68,50.68,0,0,0-3.06-6.76,43.1,43.1,0,0,0-4.71-7,44,44,0,0,0-6.67-6.44,40.81,40.81,0,0,0-8.64-5.18,51.8,51.8,0,0,0-5-1.9c-1.72-.55-3.5-1-5.33-1.43a94.74,94.74,0,0,0-11.34-2,52.55,52.55,0,0,0-5.91-.31,32.32,32.32,0,0,0-5.95.57,19.45,19.45,0,0,0-5.64,2,17,17,0,0,0-4.69,3.81A36.6,36.6,0,0,0,246,276c-.55.9-1.1,1.83-1.68,2.75a28,28,0,0,1-1.87,2.72,60.56,60.56,0,0,1-4.47,4.84l-4.66,4.58a80.55,80.55,0,0,0-8.64,9.75,37.47,37.47,0,0,0-3.36,5.5,24.84,24.84,0,0,0-2.08,6,19.85,19.85,0,0,0-.23,6.29,21.62,21.62,0,0,0,.65,3.08c.07.25.15.5.23.75l.13.38,0,.09,0,.08.07.19c.1.25.19.51.29.75l.31.71a28.5,28.5,0,0,0,1.45,2.8c.55.9,1.11,1.79,1.73,2.64a40.46,40.46,0,0,0,4.06,4.79,46.88,46.88,0,0,0,26.38,13.33c.47.06.94.14,1.41.19l1.41.14,1.41.1c.46,0,.93,0,1.39.05a50.1,50.1,0,0,0,10.78-.9l.64-.12.64-.14,1.27-.29,1.24-.32c.42-.11.83-.21,1.23-.34l1.21-.36c.4-.12.79-.27,1.19-.39s.79-.26,1.17-.41l1.15-.43c1.52-.57,3-1.21,4.4-1.86.71-.33,1.39-.69,2.07-1,.35-.16.68-.35,1-.52l1-.52a84.34,84.34,0,0,0,7.28-4.3l1.63-1.09,1.55-1.1.75-.54.73-.55,1.4-1.06c.9-.72,1.78-1.4,2.59-2.07l1.19-1c.39-.32.76-.64,1.12-1,.72-.64,1.4-1.23,2-1.8l1.77-1.63c1.08-1,2-1.91,2.73-2.62L316,320l-2.12,2.34c-1.41,1.49-3.46,3.72-6.27,6.34-.35.34-.72.67-1.09,1l-1.16,1.05c-.79.71-1.64,1.42-2.52,2.19L301.47,334l-.7.58-.74.57-1.52,1.17-1.6,1.17c-2.2,1.56-4.59,3.14-7.22,4.64-.66.36-1.33.74-2,1.08s-1.4.69-2.12,1c-1.45.66-2.94,1.32-4.5,1.9l-1.17.44c-.4.15-.8.28-1.2.42s-.8.28-1.22.4l-1.23.37c-.42.13-.84.24-1.26.35l-1.28.33-1.29.29-.66.14-.66.13a50.84,50.84,0,0,1-11.07.92c-.48,0-1,0-1.44-.05l-1.45-.1-1.45-.15c-.48-.05-1-.13-1.45-.19a48.47,48.47,0,0,1-5.83-1.24,47.47,47.47,0,0,1-11.3-4.75,48.28,48.28,0,0,1-10-7.74,43.31,43.31,0,0,1-4.19-4.95c-.64-.88-1.23-1.81-1.8-2.75a32.41,32.41,0,0,1-1.52-2.93l-.34-.78c-.1-.26-.19-.51-.29-.76l-.07-.19,0-.11,0-.1-.13-.39c-.09-.27-.17-.53-.25-.8a21.86,21.86,0,0,1-.69-3.29,21.11,21.11,0,0,1,.24-6.73,26.16,26.16,0,0,1,2.19-6.36,38.67,38.67,0,0,1,3.49-5.72,83.91,83.91,0,0,1,8.78-9.91l4.67-4.58a58,58,0,0,0,4.35-4.71,25.41,25.41,0,0,0,1.79-2.6c.57-.9,1.11-1.83,1.67-2.74A38.06,38.06,0,0,1,248.6,270a18.51,18.51,0,0,1,5.06-4.1,21,21,0,0,1,6-2.14,32.8,32.8,0,0,1,6.21-.59,52.94,52.94,0,0,1,6.07.32,94.55,94.55,0,0,1,11.51,2c1.83.43,3.66.89,5.43,1.45a52.31,52.31,0,0,1,5.13,2,44.14,44.14,0,0,1,8.94,5.33,38,38,0,0,1,6.75,6.78,45.49,45.49,0,0,1,4.6,7.28,52.59,52.59,0,0,1,4.51,13.16,57.56,57.56,0,0,1,1.1,8.86C320,312.39,320,313.49,320,313.49Z" transform="translate(-185.73 -248.51)"/><path d="M298,482.36s.08.2.24.57.41.89.75,1.55.79,1.44,1.33,2.32,1.22,1.83,2,2.84l.6.76.31.39.33.39.67.79.71.8a44.51,44.51,0,0,0,3.24,3.18c.3.26.59.53.9.79l.92.77c.31.26.64.5,1,.75l1,.75c1.35,1,2.73,1.92,4.18,2.78l1.08.65c.36.21.73.4,1.1.61l1.1.6,1.12.56,1.1.55,1.12.51,1.1.5,1.11.46c1.46.62,2.9,1.14,4.26,1.64s2.68.92,3.91,1.26l1.75.53,1.6.43c.5.13,1,.25,1.4.38l1.2.29,1.68.41.6.16-.61-.06-1.73-.19-1.23-.15-1.44-.24-1.65-.27-1.8-.39c-1.27-.25-2.62-.62-4-1s-2.92-.87-4.42-1.46l-1.15-.43-1.14-.48-1.16-.49-1.15-.55-1.16-.55-1.13-.61-1.14-.62-1.12-.66a48.6,48.6,0,0,1-4.27-2.91,42,42,0,0,1-3.8-3.27c-.59-.55-1.14-1.13-1.67-1.71-.27-.28-.52-.58-.77-.86s-.5-.57-.73-.87a35.08,35.08,0,0,1-2.47-3.38,31,31,0,0,1-1.75-3.07,26.91,26.91,0,0,1-1.09-2.49c-.27-.7-.44-1.27-.55-1.65S298,482.36,298,482.36Z" transform="translate(-185.73 -248.51)"/><path d="M390.76,509.45l-.45.5c-.3.32-.74.8-1.33,1.38s-1.29,1.29-2.14,2.06S385,515,383.9,515.91s-2.32,1.83-3.68,2.74a37.74,37.74,0,0,1-4.45,2.6c-.8.39-1.64.76-2.52,1.09a18.66,18.66,0,0,1-2.73.78,12.94,12.94,0,0,1-2.93.27,9.8,9.8,0,0,1-3-.55,8.27,8.27,0,0,1-2.61-1.57,10.07,10.07,0,0,1-1.93-2.26c-.14-.21-.25-.42-.38-.63l-.17-.31-.16-.3c-.22-.4-.44-.8-.65-1.2s-.44-.79-.65-1.19l-.66-1.13c-.23-.38-.44-.75-.66-1.12s-.45-.73-.68-1.08l-.65-1.06c-.23-.35-.46-.68-.68-1s-.45-.66-.66-1l-.68-.93c-.22-.3-.43-.61-.65-.9l-.66-.85c-.86-1.1-1.7-2.07-2.47-2.91s-1.48-1.53-2.1-2.06-1.12-.94-1.48-1.2-.56-.37-.56-.37a5.52,5.52,0,0,1,.6.31,14.77,14.77,0,0,1,1.61,1.05A25.26,25.26,0,0,1,350,503c.41.4.87.81,1.32,1.28s.92.95,1.38,1.49l.72.82c.24.28.47.58.72.88l.73.91.71,1,.73,1,.72,1c.24.36.49.71.72,1.08l.7,1.13c.24.37.47.76.71,1.14l.68,1.17.68,1.19.17.3.17.29c.11.19.22.38.34.56a7.91,7.91,0,0,0,3.9,3.26,8.29,8.29,0,0,0,2.53.49,12.24,12.24,0,0,0,2.63-.22,22.16,22.16,0,0,0,5-1.66,40.76,40.76,0,0,0,4.41-2.37c1.36-.84,2.62-1.69,3.77-2.5s2.17-1.59,3.07-2.29,1.67-1.34,2.3-1.86l1.46-1.24Z" transform="translate(-185.73 -248.51)"/><path class="cls-2" d="M211.16,382.19S220.6,329,262.92,320.9c27.28-2.8,28-.7,28,10.14s-5,6.77-5,6.77-.35,8.62-5.11,4.76c-.35,3.5-6,7.35-6,7.35s1.13,56.7-59.37,65.44" transform="translate(-185.73 -248.51)"/><path d="M211.16,382.19c.29-1.75.67-3.48,1.08-5.21s.88-3.44,1.39-5.14a105.15,105.15,0,0,1,3.53-10.06,100.11,100.11,0,0,1,4.57-9.66c.86-1.57,1.8-3.09,2.78-4.58s2-3,3.08-4.39,2.21-2.81,3.38-4.16c.59-.68,1.2-1.33,1.8-2s1.25-1.29,1.89-1.91c1.29-1.24,2.62-2.44,4-3.57s2.82-2.21,4.32-3.2a51.21,51.21,0,0,1,4.62-2.76l.59-.32.6-.3,1.21-.59c.82-.37,1.63-.75,2.47-1.08s1.67-.65,2.51-1c.42-.15.85-.28,1.28-.42l.64-.21.64-.19,1.3-.37,1.3-.32.66-.17.66-.13,1.31-.28h.06c3.9-.39,7.81-.77,11.74-1,2-.11,3.94-.17,5.92-.13,1,0,2,.08,3,.19a16.78,16.78,0,0,1,3,.6,7.21,7.21,0,0,1,2.82,1.55,5.41,5.41,0,0,1,1,1.3,7.28,7.28,0,0,1,.64,1.5,14.16,14.16,0,0,1,.49,3c.07,1,.08,2,.09,3s0,2-.08,3a14.13,14.13,0,0,1-.52,3,6.29,6.29,0,0,1-.67,1.51,3.22,3.22,0,0,1-1.38,1.24,2.72,2.72,0,0,1-1,.21,3.12,3.12,0,0,1-.93-.12,3.85,3.85,0,0,1-.82-.31l-.37-.22a1.94,1.94,0,0,1-.37-.26l1.13-.5c0,.22,0,.42-.05.62s0,.41-.07.62c-.06.4-.13.81-.22,1.21a8.23,8.23,0,0,1-.88,2.42,3.41,3.41,0,0,1-1,1.09,2.49,2.49,0,0,1-.73.36,2.22,2.22,0,0,1-.81.09,3.52,3.52,0,0,1-1.41-.41,5.36,5.36,0,0,1-.57-.34l-.52-.39,1.12-.47-.05.36c0,.11,0,.23-.08.34a4.64,4.64,0,0,1-.22.66c-.08.21-.18.42-.27.61l-.33.58a13.21,13.21,0,0,1-1.57,2,22.72,22.72,0,0,1-1.81,1.73c-.32.27-.64.54-1,.79l-.49.38-.52.38.3-.59c0,1.06,0,2.06-.1,3.08s-.16,2-.28,3.05q-.35,3-.93,6T272.78,368q-.82,2.94-1.88,5.81a68.41,68.41,0,0,1-5.24,11c-1,1.75-2.16,3.46-3.36,5.11a60.61,60.61,0,0,1-3.86,4.75,57.07,57.07,0,0,1-4.32,4.34c-.37.35-.76.68-1.15,1s-.76.67-1.17,1l-1.19,1-1.22.92c-.41.31-.83.6-1.25.89s-.83.6-1.26.87l-1.28.84c-.43.27-.87.53-1.31.79s-.89.5-1.34.74l-1.35.71c-.92.44-1.83.9-2.76,1.31-1.85.85-3.76,1.57-5.67,2.26l-1.44.48-.72.24-.73.22-1.46.43c-.48.14-1,.26-1.47.39s-1,.27-1.47.38l-1.48.34c-1,.25-2,.41-3,.61-.49.1-1,.18-1.49.26l-1.5.24c-1,.15-2,.27-3,.41l3-.56,1.48-.32c.49-.11,1-.21,1.48-.34l1.46-.36.73-.18.73-.2,1.46-.41c.48-.13,1-.29,1.44-.44l1.44-.45,1.42-.5.71-.24.71-.27,1.4-.54c1.86-.76,3.7-1.56,5.48-2.47.9-.44,1.77-.93,2.65-1.41.44-.24.87-.5,1.3-.75l.64-.38.64-.4c1.71-1,3.38-2.12,5-3.3l1.19-.9,1.17-.94c.39-.31.76-.64,1.14-1s.76-.65,1.12-1a54.46,54.46,0,0,0,4.22-4.24,58,58,0,0,0,3.77-4.65q1.76-2.42,3.29-5a66.84,66.84,0,0,0,5.13-10.81c.69-1.87,1.31-3.78,1.85-5.7s1-3.87,1.38-5.84.69-3.94.92-5.92c.11-1,.2-2,.27-3s.11-2,.1-3v-.38l.3-.21c.15-.1.32-.22.47-.34l.47-.35c.31-.25.62-.5.92-.76a20.06,20.06,0,0,0,1.7-1.62,12.53,12.53,0,0,0,1.4-1.81,4.67,4.67,0,0,0,.27-.49,4.29,4.29,0,0,0,.39-1l.06-.25,0-.25.18-1.21.95.74c.14.12.28.22.42.32a3.37,3.37,0,0,0,.44.26,1.94,1.94,0,0,0,.84.26,1,1,0,0,0,.67-.2,2.15,2.15,0,0,0,.58-.67,6.88,6.88,0,0,0,.72-2c.08-.37.15-.74.2-1.11l.06-.56a5.28,5.28,0,0,0,0-.55l.07-1.35,1.06.84.23.16a1.82,1.82,0,0,0,.27.15,2.53,2.53,0,0,0,.55.22,1.48,1.48,0,0,0,1,0,1.73,1.73,0,0,0,.76-.72,4.47,4.47,0,0,0,.52-1.17,12.65,12.65,0,0,0,.46-2.74c.08-.94.08-1.89.07-2.87s0-1.94-.08-2.89a12.84,12.84,0,0,0-.44-2.75,6.07,6.07,0,0,0-.5-1.2,4.41,4.41,0,0,0-.79-1,5.77,5.77,0,0,0-2.29-1.24,15.56,15.56,0,0,0-2.75-.54c-1-.11-1.91-.16-2.87-.19-1.93,0-3.87,0-5.82.13-3.89.21-7.78.58-11.67,1h.06l-1.28.27-.64.13-.64.16-1.27.31-1.26.37-.63.18-.63.2c-.41.14-.83.27-1.24.42-.82.3-1.65.59-2.45.93s-1.61.69-2.4,1.05l-1.18.58-.59.29-.57.31a50.92,50.92,0,0,0-4.5,2.69c-1.46,1-2.86,2-4.22,3.12s-2.67,2.27-3.92,3.5c-.64.6-1.24,1.23-1.85,1.86s-1.2,1.28-1.77,1.95c-1.15,1.32-2.26,2.68-3.31,4.08s-2.07,2.85-3,4.32-1.85,3-2.75,4.5a95.47,95.47,0,0,0-4.88,9.36q-2.19,4.81-3.94,9.84-.86,2.5-1.61,5.05C212,378.75,211.54,380.46,211.16,382.19Z" transform="translate(-185.73 -248.51)"/><path d="M275.27,349.38l.28-.22a8.18,8.18,0,0,0,.72-.65,9.84,9.84,0,0,0,1-1.13c.28-.5.75-.89,1.11-1.46a9.47,9.47,0,0,0,1-1.93,10.92,10.92,0,0,0,.61-2.38,14.61,14.61,0,0,0,.14-2.67c0-.23,0-.46,0-.69s0-.46-.05-.69l-.09-.7c0-.22-.07-.47-.1-.71-.14-.94-.3-1.89-.49-2.8a21.77,21.77,0,0,0-.68-2.62,6.79,6.79,0,0,0-1.07-2.1,3.14,3.14,0,0,0-1.58-1.07,2.15,2.15,0,0,1-.45-.14l-.45-.16c-.29-.09-.59-.16-.87-.23-.57-.12-1.08-.23-1.5-.3l-1.32-.26s.48-.09,1.33-.21c.43-.05.95-.13,1.56-.17.3,0,.63,0,1,0l.55,0a1.68,1.68,0,0,1,.58.13,5.38,5.38,0,0,1,1.19.57,4.34,4.34,0,0,1,1.05,1,8.27,8.27,0,0,1,1.3,2.52,25.36,25.36,0,0,1,.73,2.79c.19.95.35,1.91.5,2.88,0,.25.07.47.1.72l.09.75c0,.24,0,.49.06.74a6.12,6.12,0,0,1,0,.74,16.45,16.45,0,0,1-.15,2.91,12.44,12.44,0,0,1-.69,2.67,10.77,10.77,0,0,1-1.15,2.22,5,5,0,0,1-1.44,1.55,8.21,8.21,0,0,1-1.45.76,6.82,6.82,0,0,1-1,.31A3,3,0,0,1,275.27,349.38Z" transform="translate(-185.73 -248.51)"/><path d="M276.51,323.86a2.35,2.35,0,0,1,.31-.08,5.48,5.48,0,0,1,.91-.15,7.46,7.46,0,0,1,1.44,0,7.33,7.33,0,0,1,1.86.4,6.89,6.89,0,0,1,2,1.1,7.6,7.6,0,0,1,1.72,1.92,10.15,10.15,0,0,1,1.13,2.48,15.74,15.74,0,0,1,.57,2.71c0,.46.09.92.1,1.37,0,.23,0,.46,0,.69V335a24.87,24.87,0,0,1-.18,2.63c-.1.83-.23,1.65-.39,2.41a10.6,10.6,0,0,1-.67,2.15,3.42,3.42,0,0,1-.59.9,1.76,1.76,0,0,1-.87.52,1.88,1.88,0,0,1-.85,0,3.13,3.13,0,0,1-.65-.2,6,6,0,0,1-.83-.4l-.27-.17.3.09a8.24,8.24,0,0,0,.87.22,2.4,2.4,0,0,0,1.27-.05,1.82,1.82,0,0,0,.88-1.21,12.24,12.24,0,0,0,.38-2c.09-.74.15-1.53.2-2.36,0-.39,0-.82.05-1.24,0-.21,0-.42,0-.63v-1l0-.32,0-.65c0-.43-.07-.85-.1-1.28l-.09-.63a5.89,5.89,0,0,0-.11-.63l-.12-.62c0-.21-.11-.41-.16-.61a11.06,11.06,0,0,0-.9-2.23,7.08,7.08,0,0,0-1.35-1.76,6.56,6.56,0,0,0-1.64-1.16,8.6,8.6,0,0,0-3-.84,8.7,8.7,0,0,0-.9,0Z" transform="translate(-185.73 -248.51)"/><path d="M269.48,375.46l.14-.45c.09-.29.21-.72.37-1.27l.55-2c.21-.77.43-1.64.67-2.58s.47-2,.71-3.06.46-2.24.7-3.43.42-2.43.6-3.68c0-.32.09-.63.14-.95s.07-.64.11-1c.09-.63.14-1.28.2-1.92s.1-1.28.15-1.92.07-1.28.09-1.91c0-1.27.06-2.51,0-3.72,0-.6-.05-1.19-.1-1.77s-.07-1.15-.15-1.69-.12-1.09-.21-1.6l-.12-.76-.06-.37c0-.12,0-.24-.07-.36-.1-.47-.19-.93-.28-1.36s-.22-.83-.31-1.21-.21-.74-.31-1.06-.19-.63-.28-.9l-.61-1.69.23.41c.14.27.37.66.64,1.17l.39.87a9.11,9.11,0,0,1,.44,1l.45,1.2c.14.43.27.88.41,1.36a27.19,27.19,0,0,1,.71,3.12c.11.56.18,1.13.26,1.73s.13,1.19.19,1.81c.09,1.24.14,2.52.12,3.82,0,.65,0,1.3-.06,2s-.08,1.31-.15,2-.13,1.31-.22,2c0,.33-.09.65-.13,1l-.15,1c-.19,1.28-.47,2.52-.73,3.73s-.57,2.35-.89,3.43-.64,2.1-.95,3-.63,1.77-.93,2.51-.56,1.39-.79,1.91C269.79,374.88,269.48,375.46,269.48,375.46Z" transform="translate(-185.73 -248.51)"/><path class="cls-2" d="M257.82,279.35c1.59-2,9.73-5.14,17.53-3.16s5.87,14.52-2.85,11C264.6,283.93,253.87,284.38,257.82,279.35Z" transform="translate(-185.73 -248.51)"/><path d="M275.4,288.47a8.46,8.46,0,0,1-3.16-.68,53,53,0,0,0-8-2.28c-4-.91-7.19-1.63-7.86-3.53-.32-.9,0-1.9.86-3.06,1.34-1.7,6.54-4.06,12.83-4.06a21.73,21.73,0,0,1,5.41.66,7,7,0,0,1,5.37,7.83A5.5,5.5,0,0,1,275.4,288.47Zm-5.3-12.22c-6,0-10.75,2.26-11.74,3.52-.58.74-.8,1.33-.65,1.75.42,1.18,3.69,1.92,6.86,2.65a52.94,52.94,0,0,1,8.19,2.34,6.94,6.94,0,0,0,2.64.58,4.14,4.14,0,0,0,4.11-3.91,5.67,5.67,0,0,0-4.33-6.32A20.55,20.55,0,0,0,270.1,276.25Z" transform="translate(-185.73 -248.51)"/><path class="cls-2" d="M253.83,280.83c-1.58-1.48-3.45-3.06-8.1-1.88s-5.63,8.2-.44,6.08C250,283.11,255.58,282.46,253.83,280.83Z" transform="translate(-185.73 -248.51)"/><path d="M243.58,286.12h0a2.32,2.32,0,0,1-2.45-2.12c-.26-2.11,1.5-5,4.43-5.72a12.8,12.8,0,0,1,3.13-.43,7.52,7.52,0,0,1,5.62,2.47,1.38,1.38,0,0,1,.51,1.36c-.26,1.11-1.95,1.62-4.76,2.47-1.41.43-3,.91-4.51,1.52A5.23,5.23,0,0,1,243.58,286.12Zm5.11-6.89a11.51,11.51,0,0,0-2.79.39,4.44,4.44,0,0,0-3.39,4.2.93.93,0,0,0,1.07.92h0a4,4,0,0,0,1.45-.35c1.56-.63,3.19-1.12,4.63-1.56a15,15,0,0,0,3.77-1.43l-.07-.07A6.22,6.22,0,0,0,248.69,279.23Z" transform="translate(-185.73 -248.51)"/><path class="cls-5" d="M260.45,289.82c0,4-7.67,8.2-13.73,8.2s-8.4-3.83-8.4-7.81,5.21-6.12,11.27-6.12S260.45,285.84,260.45,289.82Z" transform="translate(-185.73 -248.51)"/><path d="M246.72,298.59c-6.61,0-9-4.33-9-8.38,0-4.63,5.94-6.7,11.84-6.7,7.16,0,11.44,2.36,11.44,6.31,0,2.07-1.78,4.29-4.88,6.09A19.79,19.79,0,0,1,246.72,298.59Zm2.87-13.93c-5.15,0-10.69,1.74-10.69,5.55,0,1.7.56,7.23,7.82,7.23,6,0,13.15-4.13,13.15-7.62C259.87,286.59,256,284.66,249.59,284.66Z" transform="translate(-185.73 -248.51)"/><path d="M224.1,311.15s.15-.14.46-.39.74-.63,1.33-1.07,1.32-1,2.18-1.53c.43-.28.9-.57,1.39-.87s1-.61,1.58-.91c1.11-.62,2.34-1.22,3.67-1.82l1-.43.52-.22.54-.2,1.09-.42,1.12-.37.57-.19.58-.17,1.18-.33c.4-.11.8-.2,1.21-.3s.81-.19,1.22-.26l1.24-.24c.42-.08.84-.12,1.26-.18s.85-.12,1.27-.16l1.28-.1.64-.05.64,0,1.28,0c.43,0,.85,0,1.28,0s.84,0,1.26.06a36.19,36.19,0,0,1,4.89.72L260,302l.57.15.55.17,1.09.34.54.17.51.2,1,.39.5.2.24.09.23.11,1.8.86c.29.13.55.3.82.44l.77.45c.5.29,1,.55,1.41.85s.83.55,1.19.81l.53.36.46.36,1.34,1.06.46.39-.52-.31c-.34-.2-.84-.49-1.46-.88l-.49-.29-.57-.3-1.25-.66a14.18,14.18,0,0,0-1.46-.7l-.79-.37c-.27-.12-.54-.26-.83-.37l-1.81-.7c-.62-.23-1.29-.42-2-.65l-.51-.16-.52-.14-1.07-.27c-.72-.2-1.47-.31-2.22-.47L258,303l-.58-.08-1.17-.16c-.19,0-.39-.06-.59-.07l-.6,0-1.2-.1c-.4,0-.81,0-1.21,0l-1.23,0-1.22,0-.62,0-.61,0-1.23.1c-.41,0-.81.1-1.22.14l-.61.08q-.3,0-.6.09l-1.21.2c-.4.06-.79.15-1.18.24l-1.18.25-1.14.29-.57.14-.56.16-1.11.32-1.08.35-.53.17-.51.19-1,.36c-1.33.52-2.59,1-3.72,1.54s-2.16,1-3.07,1.48-1.68.9-2.31,1.27-1.13.66-1.46.87Z" transform="translate(-185.73 -248.51)"/><path class="cls-1" d="M251.25,280.08a2.77,2.77,0,1,1-5.54,0c0-1.6,1.33-2,2.86-2S251.25,278.48,251.25,280.08Z" transform="translate(-185.73 -248.51)"/><path d="M248.48,283.33a3.19,3.19,0,0,1-3.12-3.25c0-1.08.56-2.38,3.21-2.38.75,0,3,0,3,2.38A3.19,3.19,0,0,1,248.48,283.33Zm.09-4.94c-2.26,0-2.52,1-2.52,1.69a2.43,2.43,0,1,0,4.86,0C250.91,278.9,250.21,278.39,248.57,278.39Z" transform="translate(-185.73 -248.51)"/><path class="cls-3" d="M256.26,274.92s-.24,6.87-4.25,5.64-5-2.72-7.61-2" transform="translate(-185.73 -248.51)"/><path d="M256.26,274.92s0,.26.06.71a10.71,10.71,0,0,1-.12,1.88,7.77,7.77,0,0,1-.32,1.26,4.89,4.89,0,0,1-.7,1.33,2.91,2.91,0,0,1-1.41,1,2.67,2.67,0,0,1-.92.14,4.24,4.24,0,0,1-.89-.13c-.52-.16-1-.33-1.49-.52s-.93-.4-1.36-.61c-.87-.43-1.63-.87-2.3-1.14a4.23,4.23,0,0,0-.94-.27,4.57,4.57,0,0,0-.77-.07l-.52,0-.18,0,.17-.08a3.11,3.11,0,0,1,.49-.18,3.43,3.43,0,0,1,.83-.15,3.92,3.92,0,0,1,1.11.07,9.23,9.23,0,0,1,1.23.35l1.29.49,1.35.51c.46.15.94.32,1.39.45a2.17,2.17,0,0,0,1.18,0,1.7,1.7,0,0,0,.51-.24,2.74,2.74,0,0,0,.45-.39,5.08,5.08,0,0,0,.69-1c.18-.37.34-.74.47-1.08.25-.7.42-1.31.53-1.75Z" transform="translate(-185.73 -248.51)"/><ellipse class="cls-1" cx="79.18" cy="30.98" rx="4.47" ry="4.68"/><path d="M264.91,284.52a5,5,0,1,1,4.81-5A4.93,4.93,0,0,1,264.91,284.52Zm0-9.37a4.35,4.35,0,1,0,4.12,4.34A4.24,4.24,0,0,0,264.91,275.15Z" transform="translate(-185.73 -248.51)"/><path class="cls-3" d="M255.53,272.47s-2.29,8.67,1.88,7.69S270.77,272,279.79,276" transform="translate(-185.73 -248.51)"/><path d="M255.53,272.47s-.09.51-.18,1.4c0,.45-.1,1-.13,1.61a14.67,14.67,0,0,0,.06,2.06,5.16,5.16,0,0,0,.23,1.09,1.82,1.82,0,0,0,.54.86,1.09,1.09,0,0,0,.9.2,3.11,3.11,0,0,0,.59-.14l.63-.24c.86-.34,1.74-.79,2.65-1.23s1.84-.9,2.79-1.32,1.92-.82,2.9-1.16a24.74,24.74,0,0,1,2.93-.83,19.26,19.26,0,0,1,2.83-.4,15.32,15.32,0,0,1,2.56.06,12.72,12.72,0,0,1,2.12.4,12.26,12.26,0,0,1,1.57.54c.42.18.73.35,1,.46l.32.18-.35-.1c-.23-.07-.58-.16-1-.26s-1-.2-1.58-.28a16.22,16.22,0,0,0-2.06-.12,20.29,20.29,0,0,0-5.06.74c-.91.24-1.83.55-2.76.89s-1.87.74-2.8,1.14l-2.79,1.25c-.93.41-1.86.82-2.81,1.14-.24.08-.48.14-.74.21a5.51,5.51,0,0,1-.78.13,2.37,2.37,0,0,1-.87-.09,2,2,0,0,1-.77-.45,2.74,2.74,0,0,1-.71-1.35,5.86,5.86,0,0,1-.15-1.28,13.46,13.46,0,0,1,.2-2.15c.11-.63.24-1.16.35-1.6C255.34,273,255.53,272.47,255.53,272.47Z" transform="translate(-185.73 -248.51)"/><path d="M346.5,428.68a3.2,3.2,0,0,1,.2-.28,7.62,7.62,0,0,1,.61-.74,14.88,14.88,0,0,1,1.06-1.08,19.1,19.1,0,0,1,1.49-1.26,16.91,16.91,0,0,1,1.95-1.29,17.1,17.1,0,0,1,2.35-1.14l.64-.25c.22-.08.45-.14.67-.21.45-.16.91-.25,1.38-.37a17.31,17.31,0,0,1,2.89-.37l.73,0,.74,0h.36l.36,0,.72.08c.48.06.94.16,1.41.25s.9.23,1.34.34l1.27.44c.4.15.79.33,1.17.49s.73.36,1.08.54.68.35,1,.55l.87.55c.27.17.52.37.75.54l.65.48c.21.15.37.31.54.44l.72.63.25.23-.3-.16-.83-.47c-.35-.22-.8-.44-1.31-.7-.25-.13-.51-.29-.8-.41l-.91-.42c-.31-.15-.65-.28-1-.42s-.7-.3-1.08-.41-.75-.27-1.15-.38l-1.22-.33-1.27-.27-.66-.09c-.22,0-.43-.08-.66-.09l-.67,0-.33,0h-1c-.22,0-.45,0-.67,0a18.32,18.32,0,0,0-2.68.3,21.94,21.94,0,0,0-2.54.66,23,23,0,0,0-2.3.92,21.24,21.24,0,0,0-2,1c-.61.34-1.14.69-1.61,1s-.88.61-1.2.87-.58.45-.74.59Z" transform="translate(-185.73 -248.51)"/><ellipse cx="76.79" cy="31.19" rx="1.31" ry="1.9"/><path d="M248.34,279.9c0,.75-.41,1.36-.93,1.36s-.93-.61-.93-1.36.42-1.35.93-1.35S248.34,279.15,248.34,279.9Z" transform="translate(-185.73 -248.51)"/><path class="cls-2" d="M285.08,271.3s1.82-9.67,15.45-9.78,19.13,10.37,10.85,19.64-15.74-6.23-22.43-4.81" transform="translate(-185.73 -248.51)"/><path d="M285.08,271.3a6.33,6.33,0,0,1,.2-.83,10.46,10.46,0,0,1,.93-2.23,13.06,13.06,0,0,1,.94-1.46,13.24,13.24,0,0,1,1.36-1.53,13.89,13.89,0,0,1,4.12-2.7,19,19,0,0,1,5.66-1.44c.51-.05,1-.11,1.57-.12l.8,0h.81a22.48,22.48,0,0,1,3.33.29,18.1,18.1,0,0,1,3.38.88,14,14,0,0,1,3.21,1.66,11.42,11.42,0,0,1,2.66,2.58,9.8,9.8,0,0,1,1.62,3.42,10.37,10.37,0,0,1,.21,3.76,12.61,12.61,0,0,1-1,3.55,15.87,15.87,0,0,1-1.86,3.08,16.46,16.46,0,0,1-2.37,2.57,8,8,0,0,1-3.05,1.68,6.64,6.64,0,0,1-3.34.05,10.57,10.57,0,0,1-2.86-1.15,23.41,23.41,0,0,1-2.36-1.53c-1.44-1.06-2.68-2.11-3.83-3a17.27,17.27,0,0,0-3.12-2,6,6,0,0,0-2.28-.58h-.36l-.27,0-.21,0,.21-.05.26,0,.37,0a5.78,5.78,0,0,1,2.38.41,16.39,16.39,0,0,1,3.31,1.79c1.21.8,2.52,1.76,4,2.74a22,22,0,0,0,2.33,1.38,11,11,0,0,0,2.65,1,5.67,5.67,0,0,0,2.83-.14,7,7,0,0,0,2.58-1.52c.2-.18.39-.35.57-.54s.39-.41.55-.59q.54-.63,1-1.29a15.67,15.67,0,0,0,1.66-2.86,11.16,11.16,0,0,0,.88-3.18,8.77,8.77,0,0,0-.2-3.27,8.53,8.53,0,0,0-1.38-2.94,10,10,0,0,0-2.34-2.3,15.23,15.23,0,0,0-6-2.42,22.79,22.79,0,0,0-3.15-.34c-.25,0-.52,0-.78,0h-.77c-.51,0-1,0-1.51.06a21.41,21.41,0,0,0-2.86.4c-.46.09-.89.22-1.33.32s-.85.26-1.25.43-.79.32-1.17.49-.73.37-1.07.57a13.5,13.5,0,0,0-1.83,1.29,14.16,14.16,0,0,0-1.4,1.39,13.31,13.31,0,0,0-1,1.35,11.43,11.43,0,0,0-1.1,2.11A6.88,6.88,0,0,0,285.08,271.3Z" transform="translate(-185.73 -248.51)"/><path class="cls-3" d="M285.89,272.33s15.28-11.17,21.2-.47c3.17,5.72-2.92,11.69-8,7.36-5.58-4.74-10.14-2.9-10.14-2.9Z" transform="translate(-185.73 -248.51)"/><path d="M285.89,272.33a27.76,27.76,0,0,1,2.63-1.8,32,32,0,0,1,2.82-1.54,27.61,27.61,0,0,1,3-1.22,17.65,17.65,0,0,1,3.15-.76,12.34,12.34,0,0,1,3.27-.07,8.9,8.9,0,0,1,3.17,1,8.64,8.64,0,0,1,2.54,2.16c.16.22.35.43.5.66l.44.71.05.08,0,.05v0h0s0,0,0,0l.09.18.18.35a6.72,6.72,0,0,1,.31.81,6.34,6.34,0,0,1,.33,1.67,5.78,5.78,0,0,1-.11,1.71,6.19,6.19,0,0,1-1.56,3,5.5,5.5,0,0,1-3,1.65,5.29,5.29,0,0,1-1.73,0,5.75,5.75,0,0,1-1.63-.52,7.13,7.13,0,0,1-1.41-.92c-.41-.32-.82-.68-1.24-1a14.8,14.8,0,0,0-2.67-1.56,10.62,10.62,0,0,0-3-.81c-.26,0-.52,0-.77-.06h-.78a6.28,6.28,0,0,0-1.51.26l-.13,0-.07-.1-1.48-2.05Zm0,0,1.61,1.94,1.6,2-.2-.06a6.51,6.51,0,0,1,1.6-.37c.27,0,.54,0,.82-.06s.54,0,.81,0a11.29,11.29,0,0,1,3.19.73,15.36,15.36,0,0,1,2.87,1.56c.44.32.85.64,1.28,1a6.7,6.7,0,0,0,1.26.8,4.51,4.51,0,0,0,5.34-1.05,5.23,5.23,0,0,0,1.32-2.58,5.5,5.5,0,0,0,.1-1.46,5.56,5.56,0,0,0-.28-1.45,6,6,0,0,0-.25-.68l-.18-.36-.09-.18-.09-.15-.4-.65c-.14-.21-.3-.4-.45-.61a8.21,8.21,0,0,0-2.26-2,7.93,7.93,0,0,0-2.86-1,11.76,11.76,0,0,0-3.08,0,19.23,19.23,0,0,0-3.07.63,28.34,28.34,0,0,0-3,1.06c-1,.41-1.93.87-2.87,1.36S286.78,271.75,285.89,272.33Z" transform="translate(-185.73 -248.51)"/><g class="cls-4"><path class="cls-1" d="M286.66,269.45c.08.34,3.35-3.53,9.11-5s11.83,0,11.74-.28-5.3-2.86-12.27-1.1C289.48,264.54,286.57,269.12,286.66,269.45Z" transform="translate(-185.73 -248.51)"/></g><path d="M353.25,384.37s0-.18-.08-.53-.13-.84-.21-1.48-.17-1.41-.25-2.3-.17-1.91-.24-3-.14-2.29-.18-3.56-.07-2.6-.06-4c0-.69,0-1.39,0-2.11l0-1.07c0-.36,0-.72,0-1.08.06-1.45.16-2.92.27-4.39.07-.74.15-1.47.22-2.2s.16-1.46.26-2.18c.19-1.44.43-2.86.68-4.22s.54-2.67.85-3.9.64-2.38,1-3.44c.18-.53.34-1,.5-1.51l.51-1.34c.15-.42.31-.81.47-1.17s.3-.68.42-1c.27-.58.51-1,.66-1.34l.23-.48s-.24.7-.67,1.91l-.33,1-.18.57c-.07.2-.12.41-.19.62-.12.43-.25.89-.39,1.37s-.25,1-.39,1.52c-.26,1.07-.52,2.22-.77,3.45-.13.61-.24,1.25-.36,1.9s-.22,1.31-.33,2c-.22,1.35-.39,2.75-.58,4.18-.08.71-.15,1.43-.24,2.15s-.13,1.46-.19,2.18c-.13,1.46-.24,2.92-.31,4.35s-.15,2.86-.19,4.23-.08,2.69-.09,4c0,.63,0,1.24,0,1.84V377c0,1.1,0,2.11,0,3s0,1.68,0,2.32,0,1.14,0,1.49S353.25,384.37,353.25,384.37Z" transform="translate(-185.73 -248.51)"/><g class="cls-4"><path d="M300.62,456.15s-13.46,19.44-6,38.51-37.2,8.22-37.2,8.22,23.93,11,52.34,9.72c.93-3.93,12.33-5.61,17.75-4.11C313.33,503.63,284.73,485.5,300.62,456.15Z" transform="translate(-185.73 -248.51)"/></g><g class="cls-4"><path d="M357.05,340.9s-1.26,7.33-7.76,5.87l2.31,4.82s-14.25,39.82-.21,73.57c3.77-4.4,14.9-1.82,14.9-1.82S343,390.36,357.05,340.9Z" transform="translate(-185.73 -248.51)"/></g><g class="cls-4"><path d="M408.61,436.27s-11.53-7.13-17,5c-.84-2.52-1.88-4.82-1.88-4.82s10.27-16.56,12.57-22.43A88.8,88.8,0,0,1,408.61,436.27Z" transform="translate(-185.73 -248.51)"/></g><g class="cls-4"><path d="M392.05,444.44s2.94,16.14-6.5,22.64-11.1-1.68-8-6.08c0,4.19,1.47,6.29,5.45,4.4S393.31,457.65,392.05,444.44Z" transform="translate(-185.73 -248.51)"/></g><g class="cls-4"><path d="M352.23,452a10,10,0,0,0,3.56,9.43c4.82,4.19,6.29-2.52,9.64-10.06s14.67-11.53,14.67-11.53,1.47-2.31-4.19-1.26S362.5,446.33,361,451.78,352.23,462.89,352.23,452Z" transform="translate(-185.73 -248.51)"/></g><g class="cls-4"><path d="M369.2,432.07a214.25,214.25,0,0,0-21.58-2.93C357.89,427.25,365.22,426.41,369.2,432.07Z" transform="translate(-185.73 -248.51)"/></g><g class="cls-4"><path d="M347.83,501.45s9.43,10.69,8.59,18.66-7.13,10.06-19.49,10.27c19.7.21,27.5-3.41,29.36-7.89-5.26.34-7.57-5.53-9-8.67A33.76,33.76,0,0,0,347.83,501.45Z" transform="translate(-185.73 -248.51)"/></g><g class="cls-4"><path d="M316.39,509.42s9.43,5.45,22.42,1.88c-7.85-2.1-11.28-2.81-11.28-2.81S318.9,507.32,316.39,509.42Z" transform="translate(-185.73 -248.51)"/></g><g class="cls-4"><path d="M215.57,502.29s14.46,4.4,24.1,1l-9.85-2.52S220.81,499.15,215.57,502.29Z" transform="translate(-185.73 -248.51)"/></g><g class="cls-4"><path d="M205.83,451.83s8.27-12.84,16.44,5.4,9.44,34.37,34.38,47.58c5.24,4.82,7.12,13.2-2.94,14.67,8.81-.84,11.89-5.68,11.89-5.68s-1.41-.82-3.5-4.8-7.55-8.18-7.55-8.18-29.76-14.46-36.05-63.72C218.5,437.1,209.72,442.66,205.83,451.83Z" transform="translate(-185.73 -248.51)"/></g><g class="cls-4"><path d="M353.25,384.37s6.31,28.63,18.05,41.21c-3.14-1.68-5.66-2.73-5.66-2.73A135.43,135.43,0,0,1,353.25,384.37Z" transform="translate(-185.73 -248.51)"/></g><path d="M238.61,288.54A3.5,3.5,0,0,0,242,292.7c4.09.52,8.5-4.42,10-2.53s-1.37,4.8-5.65,2.46c-3.25,1.5-6.56,1.37-7.47-.91S238.61,288.54,238.61,288.54Z" transform="translate(-185.73 -248.51)"/><g class="cls-4"><path d="M261,290s-1,9-15.26,10.07c-9.42.84-8.64-9-7.6-11.17.13,5.91,2,8.5,5.78,9S256.14,298.35,261,290Z" transform="translate(-185.73 -248.51)"/></g><g class="cls-4"><path d="M267.38,283.54a5.35,5.35,0,0,0,3-4c.26-2.8.65-4.16,3.38-4.61a20.15,20.15,0,0,0-5.84,1.23S271.47,279.65,267.38,283.54Z" transform="translate(-185.73 -248.51)"/></g><g class="cls-4"><path d="M258.22,280s1.24-.58,2.73,2.34a31.7,31.7,0,0,0-.72-3.12Z" transform="translate(-185.73 -248.51)"/></g><g class="cls-4"><path d="M244.2,280s.26-.59,1.42,1.36a5.37,5.37,0,0,1,.39-2.86S244.46,279.32,244.2,280Z" transform="translate(-185.73 -248.51)"/></g><g class="cls-4"><path d="M250.3,280.17a2.4,2.4,0,0,1-2.08,2.72c2-.32,2.86-1.49,3-2.4C251.21,280.1,250.3,280.17,250.3,280.17Z" transform="translate(-185.73 -248.51)"/></g><g class="cls-4"><path d="M266.79,276.66s3.9,3.44.52,6.36c3.12-2.79,2.08-5.19.59-6.88C266.92,275.43,266.79,276.66,266.79,276.66Z" transform="translate(-185.73 -248.51)"/></g><g class="cls-4"><path d="M298.87,281.66s17.53,10.26,20.33,23.9c-2.54-16.43-9.42-23.12-9.42-23.12S308.42,287.31,298.87,281.66Z" transform="translate(-185.73 -248.51)"/></g><g class="cls-4"><path d="M250.35,282.69s1.64-1.95,3.47-1.13,3-.7,5.49-1.33c-3.34.57-4.1-.82-4.1-.82s-.88,1.64-1.89,1.52a17.19,17.19,0,0,1-2.11-.44Z" transform="translate(-185.73 -248.51)"/></g><g class="cls-6"><path d="M238.75,291s.63,3,5.61,1.7,5.87-4,10.54-2.71,5.55-.7,5.55-.7-.19,5.81-8.84,7.89S238.43,296.44,238.75,291Z" transform="translate(-185.73 -248.51)"/></g><g class="cls-4"><path class="cls-1" d="M257.9,287c0,.34-4.2-1.25-9.5-.93-5.81.34-8.41,2.57-8.43,2.23s2-2.86,8.36-3.24S257.87,286.68,257.9,287Z" transform="translate(-185.73 -248.51)"/></g><g class="cls-4"><path class="cls-1" d="M254.45,326.26c1.08.79-11.61,6.11-23.11,21.38-12.47,16.57-17.65,31.29-17.49,29.6.12-1.34,4.31-16.43,15.63-31.83S253.38,325.47,254.45,326.26Z" transform="translate(-185.73 -248.51)"/></g><g class="cls-4"><path class="cls-1" d="M206.78,353.23c-5.18,12.43-6.3,24.56-6.78,24.36s-.08-12.49,5.1-24.92,13.19-20.29,13.66-20.09S212,340.8,206.78,353.23Z" transform="translate(-185.73 -248.51)"/></g><g class="cls-4"><path class="cls-1" d="M308.4,452.24c-8.72,12.84-8.2,28.76-9,28.24s-2.51-16.19,6.54-28.8c10.42-14.51,25.48-18.76,26.24-18.24S318.26,437.72,308.4,452.24Z" transform="translate(-185.73 -248.51)"/></g><g class="cls-4"><path class="cls-1" d="M358.65,378.54c2.37,20.63,10,37.28,9.41,37.35s-10-14.49-12.39-35.12,3.25-39.52,3.81-39.58S356.28,357.91,358.65,378.54Z" transform="translate(-185.73 -248.51)"/></g><g class="cls-7"><path d="M225.67,310s29.48-9.62,47.82-1.11C259.71,299,241.37,298.55,225.67,310Z" transform="translate(-185.73 -248.51)"/></g><path class="cls-1" d="M284.44,268.9c0-.49-10-3.07-19.05-3.07s-13.68,4-13.68,4.48,7.67-2.56,16.75-2.56S284.44,269.39,284.44,268.9Z" transform="translate(-185.73 -248.51)"/><g class="cls-4"><path class="cls-1" d="M205.42,473c1.79,8.89,7.74,14.81,7.33,14.89s-7.33-5.87-9.12-14.77,2.23-17.36,2.64-17.45S203.63,464.08,205.42,473Z" transform="translate(-185.73 -248.51)"/></g><g class="cls-4"><path d="M272,335.89a8.15,8.15,0,0,1,3.53,5c.91,3.76-.14,7.18,2.23,6-.78,1.4-3.3,2.41-3.3,2.41S274.29,341.19,272,335.89Z" transform="translate(-185.73 -248.51)"/></g><g class="cls-4"><path d="M277.42,326.9s5.63,1,5.1,10c-.21,3.55-1.12,6.06,1.6,6.06-1.12,1.17-3.3-.41-3.3-.41A23.16,23.16,0,0,0,277.42,326.9Z" transform="translate(-185.73 -248.51)"/></g><g class="cls-4"><path d="M279.77,323.82s6.05.3,7.42,5.3c1.52,5.58-.91,8.08,1.6,8.85-1,.94-3-.61-3-.61S287.92,327.06,279.77,323.82Z" transform="translate(-185.73 -248.51)"/></g><g class="cls-4"><path d="M222,453.34a26,26,0,0,0,.68,2.84S222.39,455.14,222,453.34Z" transform="translate(-185.73 -248.51)"/></g><g class="cls-4"><path d="M280.28,345.54a62.21,62.21,0,0,0-5.46,5.5c-2.69,38.19-28.32,59.67-55.66,64-2.35,12.84,1.25,31.3,2.82,38.3-1.06-5.76-1.83-18.64,11.16-23,29.85-11,43-41.95,46-67.23,3.76-1.34,3.49-6.72,3.49-6.72s3.5,1.61,4.84-4.57c11.56-5.65,26.08-29.31,26.08-29.31C306.16,330.63,289.22,343.14,280.28,345.54Z" transform="translate(-185.73 -248.51)"/></g><g class="cls-4"><path d="M231.76,339c-4.92-3.67-11.11-11.8-11.11-11.8l-.68,1s3.43,9.28,0,18.21-6.07,24.73-6.07,24.73C217,359.5,226.61,343.13,231.76,339Z" transform="translate(-185.73 -248.51)"/></g><path d="M258.56,478.15s-.19.07-.52.22a10.82,10.82,0,0,0-1.4.73,7.44,7.44,0,0,0-1.84,1.52,3.75,3.75,0,0,0-.7,1.2,3.1,3.1,0,0,0-.16,1.46,6.19,6.19,0,0,0,1.61,3.05,19.71,19.71,0,0,0,3,2.73c.57.44,1.17.85,1.78,1.27l.47.31.1.07.13.07.24.15.45.25a5.08,5.08,0,0,0,.47.23,3.7,3.7,0,0,0,1.85.4,1.48,1.48,0,0,0,.72-.25,1.73,1.73,0,0,0,.53-.6,4.14,4.14,0,0,0,.47-1.87,7.73,7.73,0,0,0-.21-2.09,6.71,6.71,0,0,0-1.95-3.48,3.55,3.55,0,0,0-1.61-.8,3.24,3.24,0,0,0-.88-.06,3.44,3.44,0,0,0-.45,0l-.22.05-.1,0-.13,0a5.81,5.81,0,0,0-1.64.67,1.65,1.65,0,0,0-.49.5.94.94,0,0,0-.1.6,2.86,2.86,0,0,0,.68,1.28,9.32,9.32,0,0,0,1,1.05,21.48,21.48,0,0,0,1.94,1.48c.56.39,1,.68,1.33.87l.48.29-.52-.22c-.34-.15-.83-.37-1.44-.69a18.61,18.61,0,0,1-2.14-1.3,9.61,9.61,0,0,1-1.2-1,4.27,4.27,0,0,1-.57-.68,2.47,2.47,0,0,1-.42-.91,1.74,1.74,0,0,1,.11-1.16,2.44,2.44,0,0,1,.72-.89,5.14,5.14,0,0,1,.92-.56c.16-.08.32-.14.49-.21l.5-.18a5.13,5.13,0,0,1,2.3-.27,4.73,4.73,0,0,1,2.28,1,6.64,6.64,0,0,1,1.63,1.88,9.49,9.49,0,0,1,1,2.3,8.79,8.79,0,0,1,.3,2.52,5.8,5.8,0,0,1-.67,2.63,3.43,3.43,0,0,1-1,1.12,3.09,3.09,0,0,1-1.47.51,4.41,4.41,0,0,1-1.42-.12,6.64,6.64,0,0,1-1.23-.45l-.56-.29-.54-.33-.23-.16-.12-.07-.13-.1-.47-.33c-.63-.45-1.23-.91-1.81-1.39a19.55,19.55,0,0,1-3.08-3.09,9,9,0,0,1-1.08-1.77,5.26,5.26,0,0,1-.5-1.94,3.68,3.68,0,0,1,.35-1.83,4.45,4.45,0,0,1,1-1.32,7.46,7.46,0,0,1,2.13-1.39,10,10,0,0,1,1.52-.54A4.86,4.86,0,0,1,258.56,478.15Z" transform="translate(-185.73 -248.51)"/><g class="cls-4"><path d="M257.44,502.88s3.29,4.39,5.52,8.2,8.57,3.55,15.72-1.09A185.26,185.26,0,0,1,257.44,502.88Z" transform="translate(-185.73 -248.51)"/></g></svg>