<svg id="Layer_1" data-name="Layer 1" xmlns="http://www.w3.org/2000/svg" viewBox="0 0 313.51 294.99"><defs><style>.cls-1{fill:#fff;}.cls-2{fill:#2b2e31;}.cls-3{fill:#d9dad9;}.cls-4{opacity:0.3;}.cls-5{fill:#660a0c;}.cls-6{fill:#02060d;}.cls-7{opacity:0.5;}.cls-8{opacity:0.4;}.cls-9{fill:#cf6058;}.cls-10{opacity:0.2;}</style></defs><title>panda4</title><path class="cls-2" d="M256.25,276.54s1.14-6,9.64-6.1,11.94,6.47,6.78,12.26-9.83-3.89-14-3" transform="translate(-149.24 -248.51)"/><path d="M256.25,276.54a2.92,2.92,0,0,1,.1-.52,6.49,6.49,0,0,1,.56-1.41,7.54,7.54,0,0,1,.57-.93,7.37,7.37,0,0,1,.84-1,8.66,8.66,0,0,1,2.58-1.75,11.93,11.93,0,0,1,3.57-.95c.33,0,.66-.08,1-.09l.51,0h.51a14,14,0,0,1,2.12.17,10.09,10.09,0,0,1,4.21,1.6,7.6,7.6,0,0,1,1.73,1.67,6.48,6.48,0,0,1,1,2.22,6.7,6.7,0,0,1,.14,2.44,8.31,8.31,0,0,1-.67,2.29,10.45,10.45,0,0,1-1.19,2,10.71,10.71,0,0,1-1.53,1.63,5.22,5.22,0,0,1-2,1.08,4.47,4.47,0,0,1-2.18,0,6.41,6.41,0,0,1-1.83-.76,13.94,13.94,0,0,1-1.47-1c-.9-.67-1.66-1.34-2.37-1.88a11.17,11.17,0,0,0-1.91-1.25,3.93,3.93,0,0,0-1.4-.4,2.21,2.21,0,0,0-.39,0h-.14l.13,0a2.29,2.29,0,0,1,.4-.06,3.53,3.53,0,0,1,1.5.23,9.35,9.35,0,0,1,2.1,1.08c.77.49,1.6,1.08,2.51,1.67a9,9,0,0,0,3.07,1.39,3.5,3.5,0,0,0,1.67-.09,4.47,4.47,0,0,0,1.53-.93c.11-.1.23-.21.33-.32l.34-.37c.21-.25.42-.52.62-.79a9.16,9.16,0,0,0,1-1.75,6,6,0,0,0,.41-3.85,5.45,5.45,0,0,0-.82-1.76,5.88,5.88,0,0,0-1.4-1.37,9.42,9.42,0,0,0-3.65-1.5,14.41,14.41,0,0,0-1.94-.22l-.48,0h-.47c-.32,0-.63,0-.93,0a12.27,12.27,0,0,0-1.76.22c-.29.05-.56.13-.83.19s-.53.15-.77.25a8.62,8.62,0,0,0-2.53,1.4,7.89,7.89,0,0,0-1.53,1.66,7.26,7.26,0,0,0-.72,1.3A4.61,4.61,0,0,0,256.25,276.54Z" transform="translate(-149.24 -248.51)"/><path class="cls-3" d="M256.75,277.18s9.54-7,13.24-.29c2,3.57-1.83,7.3-5,4.6-3.47-3-6.32-1.81-6.32-1.81Z" transform="translate(-149.24 -248.51)"/><path d="M256.75,277.18a19.67,19.67,0,0,1,3.37-2.15,17,17,0,0,1,1.86-.79,10.26,10.26,0,0,1,2-.5,7.61,7.61,0,0,1,2.08-.06,5.46,5.46,0,0,1,2,.63,5.59,5.59,0,0,1,1.64,1.38l.32.42.28.45,0,.06,0,0h0l0,0,.05.11.12.22c.07.18.15.36.2.53a4,4,0,0,1,.21,1.09,3.8,3.8,0,0,1-.07,1.11,4,4,0,0,1-1,2,3.5,3.5,0,0,1-4.15.75,4.6,4.6,0,0,1-.9-.61c-.25-.19-.51-.42-.76-.62a8.88,8.88,0,0,0-1.63-1,6.84,6.84,0,0,0-1.83-.52c-.15,0-.31,0-.47-.05s-.32,0-.48,0a3.61,3.61,0,0,0-.93.14l-.13,0-.07-.1-.9-1.29C257.33,278.06,257,277.62,256.75,277.18Zm0,0c.34.4.7.79,1,1.19l1,1.2-.2-.05a3.73,3.73,0,0,1,1-.25,4.57,4.57,0,0,1,.52,0h.52a7,7,0,0,1,2,.44,9.21,9.21,0,0,1,1.83,1l.81.6a4.34,4.34,0,0,0,.76.47,2.73,2.73,0,0,0,1.68.21,2.77,2.77,0,0,0,1.47-.84,3.06,3.06,0,0,0,.77-1.53,3.39,3.39,0,0,0-.1-1.73,3.71,3.71,0,0,0-.15-.4l-.11-.23-.05-.11s0,0,0,0h0v0l0,0,0-.05-.24-.4c-.08-.13-.18-.24-.27-.37a4.71,4.71,0,0,0-3.09-1.8,7,7,0,0,0-1.89,0,11.27,11.27,0,0,0-1.89.37,17.69,17.69,0,0,0-1.86.63c-.61.24-1.21.52-1.8.81S257.31,276.84,256.75,277.18Z" transform="translate(-149.24 -248.51)"/><g class="cls-4"><path class="cls-1" d="M257.23,275.39c0,.21,2.09-2.2,5.69-3.11s7.38,0,7.33-.17-3.31-1.79-7.66-.69A8.3,8.3,0,0,0,257.23,275.39Z" transform="translate(-149.24 -248.51)"/></g><path class="cls-2" d="M313.59,392.05s53.3-50,110.89,22.14c12-5.82,7.4-13.78,20.11-13.44s2.43,28.1-20.43,34.55c-12.39,2.91-11.32.39-17.29-5.43S378.82,432,369,449.23" transform="translate(-149.24 -248.51)"/><path d="M313.59,392.05a58.06,58.06,0,0,1,6.26-5c1.1-.78,2.22-1.51,3.36-2.22s2.3-1.38,3.48-2,2.37-1.26,3.58-1.84,2.44-1.13,3.69-1.64a68.83,68.83,0,0,1,7.63-2.65,53.66,53.66,0,0,1,7.94-1.59,62.71,62.71,0,0,1,24.12,1.42,71.35,71.35,0,0,1,7.71,2.48,73.77,73.77,0,0,1,7.37,3.32l1.79,1c.59.32,1.17.66,1.76,1l.87.5.86.53,1.72,1.06c2.24,1.49,4.47,3,6.59,4.67.53.41,1.07.81,1.59,1.24l1.56,1.28.78.64.76.66,1.51,1.33.38.33.37.34.74.69,1.48,1.37c1,.94,1.92,1.88,2.87,2.83s1.87,1.93,2.79,2.91,1.81,2,2.7,3,1.76,2,2.62,3.05l2.55,3.12-.84-.19a24,24,0,0,0,3.69-2.2,19.41,19.41,0,0,0,3.11-2.9c.93-1.09,1.73-2.29,2.59-3.51a18.31,18.31,0,0,1,1.44-1.8,9.07,9.07,0,0,1,1.83-1.53,9.36,9.36,0,0,1,2.17-1l.57-.16.57-.12.29-.06.28-.05.58-.08,1.14-.1,1.14,0h1.15c.19,0,.36,0,.57,0s.42.05.62.09a6,6,0,0,1,2.3.93,5.35,5.35,0,0,1,1.67,1.87,7.26,7.26,0,0,1,.77,2.3,11,11,0,0,1,.12,2.36,18.39,18.39,0,0,1-.87,4.5,28.41,28.41,0,0,1-1.73,4.19,35.33,35.33,0,0,1-2.3,3.88,37.82,37.82,0,0,1-2.74,3.56,39.63,39.63,0,0,1-14.36,10.61,37,37,0,0,1-4.25,1.51l-.13,0h0l-.07,0h-.07l-.27.07-.54.12-1.09.24c-.73.15-1.46.29-2.2.42a20.22,20.22,0,0,1-4.56.33,7.63,7.63,0,0,1-2.37-.51,7.4,7.4,0,0,1-2-1.3,22.6,22.6,0,0,1-1.62-1.63c-.5-.55-1-1.1-1.48-1.64s-1-1.06-1.51-1.57l-.1-.09,0-.05h0l0,0-.21-.18-.1-.08L406,430l-.19-.13a5.88,5.88,0,0,0-.85-.49,10,10,0,0,0-4-.73,21.15,21.15,0,0,0-4.24.5,36.8,36.8,0,0,0-8.21,2.78,45.71,45.71,0,0,0-7.53,4.45,46.54,46.54,0,0,0-6.58,5.81,41.42,41.42,0,0,0-5.32,7,41.61,41.61,0,0,1,5-7.29,46.13,46.13,0,0,1,6.43-6.14A46.74,46.74,0,0,1,388,431a43.08,43.08,0,0,1,4.1-1.84,27.88,27.88,0,0,1,4.31-1.32,21.39,21.39,0,0,1,4.53-.51,11.26,11.26,0,0,1,4.61.86,7.09,7.09,0,0,1,1.07.6c.16.11.36.27.5.39l.21.19,0,0,.05,0,.05.05.1.1c.54.53,1.05,1.07,1.56,1.62,1,1.08,1.95,2.24,3,3.16a6.06,6.06,0,0,0,1.66,1.06,6.22,6.22,0,0,0,1.95.42,19.08,19.08,0,0,0,4.23-.32c.72-.12,1.43-.26,2.15-.41l1.07-.24.53-.12.27-.06.07,0h0l.13,0a34.91,34.91,0,0,0,4.09-1.46,38.38,38.38,0,0,0,13.86-10.24,36.88,36.88,0,0,0,2.64-3.44,32.65,32.65,0,0,0,2.21-3.73,26,26,0,0,0,1.64-4,17.13,17.13,0,0,0,.81-4.15,7.37,7.37,0,0,0-.72-3.93,3.92,3.92,0,0,0-1.25-1.4,4.78,4.78,0,0,0-1.77-.71l-.47-.07-.54,0h-1.06c-.36,0-.71,0-1.07,0s-.71,0-1.06.09l-.52.07-.26,0-.26.06-.51.11-.49.14a7.89,7.89,0,0,0-1.85.82,10.44,10.44,0,0,0-2.88,3c-.83,1.18-1.67,2.44-2.66,3.6a20.56,20.56,0,0,1-3.34,3.12,25.37,25.37,0,0,1-3.91,2.33l-.48.24-.36-.43-2.52-3.09c-.86-1-1.74-2-2.61-3s-1.78-2-2.67-2.95-1.84-1.92-2.76-2.89l-2.84-2.79-1.46-1.36-.73-.68-.37-.34-.37-.32-1.5-1.31-.75-.66-.77-.63-1.54-1.26c-.52-.43-1.05-.82-1.57-1.23-2.09-1.64-4.29-3.14-6.5-4.6l-1.69-1-.84-.53-.87-.49c-.57-.33-1.14-.67-1.72-1l-1.76-.92a71.18,71.18,0,0,0-7.24-3.26,66.37,66.37,0,0,0-7.55-2.43,62.45,62.45,0,0,0-15.69-1.95,61.47,61.47,0,0,0-7.91.55l-2,.3-1.94.37-1.95.4-1.93.45a72.34,72.34,0,0,0-7.6,2.32,74.94,74.94,0,0,0-7.31,3.16c-1.19.59-2.37,1.21-3.53,1.87s-2.3,1.34-3.42,2A58.49,58.49,0,0,0,313.59,392.05Z" transform="translate(-149.24 -248.51)"/><path class="cls-2" d="M209.27,301.43s-48.71,22.48-47.35,84.13S200.8,483,240.14,506.43s121.74,45.19,153.1-32.95-27.11-93-63.79-101.54-55.82-20.2-55.82-20.2Z" transform="translate(-149.24 -248.51)"/><path d="M314.69,528.84h0a136.71,136.71,0,0,1-41-6.76A163.21,163.21,0,0,1,239.79,507c-23.25-13.83-40.77-29-53.55-46.28a125.69,125.69,0,0,1-17.7-33.36,135.91,135.91,0,0,1-7.31-41.82,98.34,98.34,0,0,1,6.88-39.42,89.4,89.4,0,0,1,16.46-26.24c12-13.27,24.29-19.05,24.41-19.11l.38-.17L274,351.17c.91.54,20.15,11.88,55.59,20.1,12.44,2.88,25.59,6.16,37.55,11.65,14.51,6.65,24.33,15.2,30,26.13,4.05,7.75,5.95,16.8,5.65,26.87-.33,11.11-3.34,23.83-8.95,37.81-7.79,19.41-19.25,33.93-34.07,43.15C347.06,524.81,331.88,528.84,314.69,528.84ZM209.18,302.24a85.48,85.48,0,0,0-23.62,18.64c-10.86,12.06-23.65,33.07-22.95,64.66,1.12,50.45,26.59,89.8,77.88,120.3,8.53,5.07,39.08,21.61,74.19,21.62h0c25.62,0,59.92-9.41,77.91-54.24,10.53-26.24,11.66-47.61,3.36-63.54-12.82-24.58-45.22-32.1-66.67-37.07-36.36-8.43-55.83-20.17-56-20.28l-.06-.05Z" transform="translate(-149.24 -248.51)"/><path class="cls-3" d="M204.88,302.85s-60.17,71.88,46,137.3c43.61-2.83,75.91-33.52,72.28-69.86-18.19-6.07-47.4-18.08-47.4-18.08Z" transform="translate(-149.24 -248.51)"/><path d="M250.74,440.85l-.18-.12c-19.79-12.18-35.17-25.48-45.73-39.52-9-11.92-14.56-24.52-16.66-37.46-2.95-18.18,1.6-33.89,5.94-43.86a79.1,79.1,0,0,1,10.24-17.48l.41-.49,71.38,49.68c1.6.66,29.75,12.19,47.28,18l.42.14.05.45a55.39,55.39,0,0,1-2.53,23,60.17,60.17,0,0,1-11.36,20c-13.55,16-35.07,26-59,27.59ZM205,303.78a80.4,80.4,0,0,0-9.67,16.71c-4.25,9.8-8.72,25.22-5.82,43.06,4.54,27.95,25.26,53.49,61.56,75.89,23.51-1.57,44.59-11.44,57.86-27.1,10.29-12.14,15-26.5,13.61-41.54-18-6.05-46.73-17.84-47-18l-.07,0-.06,0Z" transform="translate(-149.24 -248.51)"/><path class="cls-2" d="M236.6,386.4s-.84-33.59,53.07-40.44c35-4.45,50.51,28.49,50.51,28.49l-22.66-5.57Z" transform="translate(-149.24 -248.51)"/><path d="M235.93,387.25l0-.83c0-.35-.14-8.73,6.44-18.07a46.62,46.62,0,0,1,16-13.79c8.38-4.59,18.9-7.71,31.28-9.29a53.26,53.26,0,0,1,6.49-.42,45.41,45.41,0,0,1,20.05,4.59A51.74,51.74,0,0,1,330,359.51a57.91,57.91,0,0,1,10.76,14.65l.62,1.31-23.91-5.89Zm60.14-41a50.24,50.24,0,0,0-6.31.41c-27.54,3.5-40.34,14.13-46.22,22.43a33.07,33.07,0,0,0-6.22,16.47l80.21-17.37,21.32,5.24a59.88,59.88,0,0,0-9.82-13C322.54,354,311.56,346.23,296.07,346.23Z" transform="translate(-149.24 -248.51)"/><path class="cls-2" d="M189.49,381.45s37.8,18.91,62.77-2.49c13.41-11.49,48.51-19.26,65.28-10.35-6.42,36.74-15.75,69.51-84.54,84.18" transform="translate(-149.24 -248.51)"/><path d="M189.49,381.45a72.06,72.06,0,0,0,7.88,3c2.68.86,5.38,1.61,8.12,2.21a80.42,80.42,0,0,0,8.28,1.41,66.82,66.82,0,0,0,8.36.46c1.39,0,2.78-.08,4.16-.18s2.77-.24,4.15-.43,2.73-.46,4.08-.78,2.69-.7,4-1.14a41.74,41.74,0,0,0,7.54-3.45,41.28,41.28,0,0,0,3.46-2.28c.55-.43,1.11-.83,1.63-1.28l.81-.67.83-.68a45,45,0,0,1,7.26-4.55,73,73,0,0,1,7.82-3.39c2.66-1,5.37-1.83,8.11-2.56s5.51-1.33,8.31-1.81,5.61-.84,8.44-1.05a71.23,71.23,0,0,1,8.52-.15,49.74,49.74,0,0,1,8.49,1,31.75,31.75,0,0,1,8.12,2.84l.44.24-.09.49c-.93,5.33-1.93,10.66-3.2,15.94-.64,2.64-1.34,5.26-2.14,7.86s-1.68,5.17-2.69,7.71-2.13,5-3.38,7.44a74.32,74.32,0,0,1-4.16,7,68.13,68.13,0,0,1-5,6.51,70.22,70.22,0,0,1-5.7,5.87,81.26,81.26,0,0,1-13.11,9.73q-3.51,2.1-7.17,3.91c-1.21.61-2.45,1.18-3.68,1.75l-1.86.84c-.62.27-1.25.53-1.88.78q-3.79,1.49-7.67,2.74c-2.58.83-5.17,1.62-7.79,2.33s-5.23,1.37-7.87,2-5.3,1.13-7.95,1.64c2.63-.64,5.25-1.29,7.85-2s5.2-1.47,7.77-2.29,5.12-1.7,7.65-2.62,5-2,7.48-3l1.85-.79,1.85-.81c1.22-.55,2.44-1.12,3.64-1.73,2.4-1.19,4.76-2.47,7.06-3.85a80.08,80.08,0,0,0,12.9-9.56,70.55,70.55,0,0,0,5.58-5.76,66.66,66.66,0,0,0,4.86-6.38,70.47,70.47,0,0,0,4.09-6.91q1.83-3.57,3.32-7.31c1-2.5,1.86-5,2.65-7.6s1.48-5.17,2.12-7.79c1.26-5.23,2.25-10.53,3.19-15.85l.35.73a30.83,30.83,0,0,0-7.76-2.72,50.8,50.8,0,0,0-8.26-1,70.74,70.74,0,0,0-8.36.16c-2.78.2-5.55.56-8.31,1s-5.48,1.07-8.18,1.78-5.38,1.55-8,2.52a70.49,70.49,0,0,0-7.67,3.33,43.44,43.44,0,0,0-7,4.4c-.26.2-.53.43-.8.66L252,380c-.55.47-1.12.89-1.69,1.33-1.16.84-2.35,1.64-3.58,2.36a42.23,42.23,0,0,1-7.8,3.56c-1.35.46-2.73.86-4.12,1.19s-2.79.59-4.2.81-2.83.36-4.25.45-2.85.08-4.27.06a70.48,70.48,0,0,1-8.48-.75,80.56,80.56,0,0,1-8.31-1.72c-2.73-.72-5.43-1.57-8.08-2.54A74.93,74.93,0,0,1,189.49,381.45Z" transform="translate(-149.24 -248.51)"/><path class="cls-2" d="M304.67,452.44s-10.22-81,92.78-85.69c2.62-14.68-7.6-15.73,1-27s27,16.25,17.83,41.15c-5.51,13.1-7.08,10.48-16.25,12.05s-16.51,26.74-7.34,46.92" transform="translate(-149.24 -248.51)"/><path d="M304.67,452.44a65.19,65.19,0,0,1-.41-8.95c0-1.49.1-3,.21-4.48s.26-3,.46-4.47.42-3,.69-4.45.58-2.94.95-4.4a77.26,77.26,0,0,1,2.63-8.63,62,62,0,0,1,3.76-8.21A70.47,70.47,0,0,1,330.06,388a77.26,77.26,0,0,1,7.29-5.33,81.07,81.07,0,0,1,7.83-4.48l2-1c.68-.32,1.37-.62,2.05-.93l1-.46,1-.43,2.09-.85c2.81-1.06,5.65-2.07,8.53-2.89.73-.21,1.44-.44,2.17-.63l2.18-.57,1.08-.28,1.1-.25,2.2-.5.54-.13.56-.11,1.1-.22,2.21-.43,4.43-.74c1.49-.2,3-.42,4.46-.61s3-.34,4.47-.48,3-.26,4.48-.37l4.48-.26-.64.57a26.66,26.66,0,0,0,.43-4.79,21.07,21.07,0,0,0-.59-4.74c-.37-1.56-.93-3.07-1.47-4.65a20.78,20.78,0,0,1-.68-2.47,10.47,10.47,0,0,1-.18-2.63,10.77,10.77,0,0,1,.55-2.59l.22-.61.26-.59.14-.3.15-.29.3-.57.65-1.09c.24-.35.47-.71.72-1.05l.37-.51.19-.25.09-.13,0,0,0,0,0-.06c.14-.16.25-.31.41-.48s.31-.34.48-.5a6.85,6.85,0,0,1,2.32-1.45,5.86,5.86,0,0,1,2.75-.28,8,8,0,0,1,2.57.81,12.31,12.31,0,0,1,2.19,1.43,20.76,20.76,0,0,1,3.48,3.72,31.19,31.19,0,0,1,2.64,4.3,39.28,39.28,0,0,1,2,4.62,42.57,42.57,0,0,1,1.42,4.8,45,45,0,0,1,1.21,9.94,42.87,42.87,0,0,1-1.05,10,40.85,40.85,0,0,1-1.41,4.82l-.06.14v0s0,.07,0,.07l0,.07-.12.29-.24.56c-.16.38-.33.76-.5,1.14-.34.76-.69,1.52-1.06,2.27a22.83,22.83,0,0,1-2.68,4.33,8.56,8.56,0,0,1-2,1.78,8.19,8.19,0,0,1-2.5,1,20.53,20.53,0,0,1-2.52.39c-.82.09-1.64.17-2.45.27s-1.61.2-2.41.33l-.15,0h-.13l-.3.06-.13,0-.12,0a1,1,0,0,0-.25.08,5.72,5.72,0,0,0-1,.46,11.25,11.25,0,0,0-3.34,3.19,23,23,0,0,0-2.33,4.17,41.22,41.22,0,0,0-2.88,9.27,52.06,52.06,0,0,0-.89,9.74,50.86,50.86,0,0,0,1,9.76,45.93,45.93,0,0,0,2.87,9.42,46.53,46.53,0,0,1-3.27-9.33,51.63,51.63,0,0,1-1.31-9.84,52.55,52.55,0,0,1,.56-9.94,46.39,46.39,0,0,1,1-4.9,33.76,33.76,0,0,1,1.64-4.75,23.52,23.52,0,0,1,2.51-4.41,12.54,12.54,0,0,1,3.77-3.58,6.83,6.83,0,0,1,1.23-.56,5.82,5.82,0,0,1,.68-.2l.3-.07h.18l.15,0c.83-.14,1.66-.25,2.48-.34l2.46-.27a21.57,21.57,0,0,0,2.36-.36,6.63,6.63,0,0,0,2.08-.81,7,7,0,0,0,1.67-1.5,20.76,20.76,0,0,0,2.5-4.06c.36-.72.71-1.46,1-2.21.16-.37.33-.74.49-1.12l.25-.57.12-.28,0-.07s0,0,0,0v0l.05-.14a39.51,39.51,0,0,0,1.37-4.66,43,43,0,0,0-.16-19.28,42.19,42.19,0,0,0-1.38-4.66,38.08,38.08,0,0,0-1.93-4.45,29.76,29.76,0,0,0-2.52-4.11,19.08,19.08,0,0,0-3.24-3.47,8.33,8.33,0,0,0-4.06-1.94,4.6,4.6,0,0,0-2.12.21,5.31,5.31,0,0,0-1.83,1.16c-.14.12-.25.26-.38.38s-.26.31-.39.47l-.05.06h0l0,0-.09.12-.18.24-.36.49c-.24.33-.45.66-.68,1s-.41.68-.61,1l-.27.52-.14.26-.12.27-.24.54-.2.54a8.7,8.7,0,0,0-.47,2.23,11.51,11.51,0,0,0,.79,4.57c.52,1.54,1.11,3.12,1.5,4.77a22.6,22.6,0,0,1,.63,5.05,27.39,27.39,0,0,1-.46,5l-.09.53-.55,0-4.46.26-4.44.36c-1.48.14-3,.32-4.43.48s-2.95.4-4.42.6l-4.4.73-2.18.44-1.09.21-.55.11-.54.12-2.17.5-1.09.25-1.07.28-2.16.56c-.72.19-1.42.41-2.14.62-2.85.81-5.64,1.81-8.42,2.85l-2.06.84-1,.42-1,.46c-.67.31-1.35.6-2,.92l-2,1a81.35,81.35,0,0,0-7.7,4.4,76.67,76.67,0,0,0-7.15,5.24A70.12,70.12,0,0,0,318.87,402a68.49,68.49,0,0,0-4.69,7.52c-.36.64-.68,1.31-1,2s-.63,1.33-1,2l-.91,2-.86,2.05a77,77,0,0,0-2.87,8.4c-.41,1.43-.75,2.87-1.08,4.32s-.61,2.9-.85,4.37-.45,2.94-.62,4.42-.29,3-.38,4.45A64.91,64.91,0,0,0,304.67,452.44Z" transform="translate(-149.24 -248.51)"/><path class="cls-3" d="M222.23,345.16c7.28,7.8,36.69,31.48,64.53.78s3.38-32.27-12-56.73S257.1,264,243.31,265.27s-28.89,13.79-28.89,13.79-18.73,16.66-7,47.62" transform="translate(-149.24 -248.51)"/><path d="M222.23,345.16l.55.54c.36.36.91.88,1.65,1.53a59.79,59.79,0,0,0,6.78,5.16c.77.5,1.59,1,2.46,1.52s1.8,1,2.78,1.52a49.81,49.81,0,0,0,6.54,2.81,41.14,41.14,0,0,0,7.81,1.88c1.4.19,2.84.33,4.32.4a33.06,33.06,0,0,0,4.54-.13,34.52,34.52,0,0,0,9.34-2.31,40,40,0,0,0,9-5.08,51.63,51.63,0,0,0,4.19-3.44c1.34-1.24,2.66-2.56,3.93-3.95s2.52-2.83,3.74-4.32,2.4-3,3.52-4.62a41.81,41.81,0,0,0,3-5,22.31,22.31,0,0,0,2-5.5,13.26,13.26,0,0,0,0-5.78A16.12,16.12,0,0,0,296,315a40.28,40.28,0,0,0-3.87-4.74c-1.41-1.52-2.89-3-4.37-4.48a122.5,122.5,0,0,1-8.59-9.31q-2-2.46-3.81-5.11c-1.19-1.77-2.26-3.56-3.4-5.32s-2.26-3.52-3.41-5.25-2.32-3.44-3.54-5.09a57.73,57.73,0,0,0-3.86-4.74,19.38,19.38,0,0,0-4.54-3.74,13,13,0,0,0-5.49-1.56,38.17,38.17,0,0,0-5.85.14l-1.46.13-.37,0-.16,0-.19,0-.73.09c-.24,0-.47.07-.7.1l-.7.12-1.4.29a39.73,39.73,0,0,0-5.4,1.67,63.7,63.7,0,0,0-9.87,4.85,85.32,85.32,0,0,0-8.64,5.86l-.5.39-.24.19,0,0-.06.05-.1.1c-.29.28-.57.57-.85.87-.55.6-1.07,1.23-1.56,1.86a36.58,36.58,0,0,0-2.65,3.93,37.72,37.72,0,0,0-2,4.07l-.43,1c-.13.34-.26.68-.38,1-.07.17-.13.34-.2.5l-.18.51-.35,1a41.63,41.63,0,0,0-1.76,7.85c-.07.63-.15,1.25-.2,1.86S204,305.44,204,306s0,1.17,0,1.74,0,1.14,0,1.69a51.91,51.91,0,0,0,.56,6,66.53,66.53,0,0,0,1.9,8.31l.94,2.87-1.08-2.83a62.59,62.59,0,0,1-2.27-8.26,54,54,0,0,1-.8-6.08c0-.56-.09-1.13-.09-1.71s0-1.18,0-1.78,0-1.22,0-1.85.09-1.26.13-1.91a43.11,43.11,0,0,1,1.5-8.14,32.66,32.66,0,0,1,1.55-4.22,43.62,43.62,0,0,1,2.13-4.2,37.88,37.88,0,0,1,2.75-4.08c.52-.66,1.06-1.31,1.64-1.95.29-.32.59-.63.91-.94l.12-.12.06-.05.09-.07.25-.21.51-.4a86.62,86.62,0,0,1,8.79-6A65.08,65.08,0,0,1,233.67,267a42.68,42.68,0,0,1,5.59-1.73c.48-.1,1-.21,1.46-.3l.74-.12c.25,0,.5-.09.74-.11l.73-.09.18,0,.2,0,.37,0,1.48-.13a40.73,40.73,0,0,1,6.07-.15,15.24,15.24,0,0,1,3.1.53,13.28,13.28,0,0,1,2.95,1.21,16.92,16.92,0,0,1,2.61,1.82l.59.52.58.54c.39.36.73.75,1.1,1.12a55.62,55.62,0,0,1,4,4.86c1.23,1.68,2.42,3.41,3.58,5.15s2.3,3.5,3.42,5.27,2.23,3.57,3.39,5.29,2.41,3.4,3.73,5a125.25,125.25,0,0,0,8.5,9.21c1.48,1.49,3,3,4.4,4.51a40.51,40.51,0,0,1,4,4.92,17.41,17.41,0,0,1,2.64,5.83,13.83,13.83,0,0,1,.35,3.2,16.63,16.63,0,0,1-.35,3.17,24.28,24.28,0,0,1-2.14,5.84,42.66,42.66,0,0,1-3.13,5.18,90.08,90.08,0,0,1-7.37,9.09c-1.3,1.42-2.64,2.76-4,4a54.37,54.37,0,0,1-4.3,3.53,41.71,41.71,0,0,1-9.31,5.25,35.74,35.74,0,0,1-9.72,2.4,35,35,0,0,1-9.2-.28,42.28,42.28,0,0,1-8-2.24,53,53,0,0,1-11.71-6.41,58.13,58.13,0,0,1-6.58-5.49c-.71-.69-1.23-1.24-1.58-1.61Z" transform="translate(-149.24 -248.51)"/><path class="cls-5" d="M235.88,313.9s35.45,9,54.17-1.06c5.09-.66,3.14,15.37-9,27.32s-24.39,12.21-35.73,0C228.12,321.63,230.81,312.51,235.88,313.9Z" transform="translate(-149.24 -248.51)"/><path d="M262.75,349.79c-6.17,0-12.19-3.11-17.88-9.25-12-13-14.59-21.6-13-25.33a3.19,3.19,0,0,1,3-2,4.16,4.16,0,0,1,1.13.16A139.28,139.28,0,0,0,265.86,317c10.07,0,18.12-1.58,23.92-4.7l.09-.05H290a2.57,2.57,0,0,1,2.79,1.81c1,2.33.45,6.67-1.32,11.33a43.29,43.29,0,0,1-10,15.16C275.19,346.69,268.9,349.79,262.75,349.79Zm-27.84-35.45a2,2,0,0,0-1.94,1.33c-1.42,3.24,1.07,11.5,12.74,24.09,5.47,5.9,11.2,8.89,17,8.89s11.85-3,17.87-8.9c10-9.85,12.55-21.66,11.09-25.24-.46-1.11-1.14-1.11-1.36-1.11h-.13c-6,3.17-14.15,4.78-24.36,4.78a140.12,140.12,0,0,1-30.12-3.72A3.14,3.14,0,0,0,234.91,314.34Z" transform="translate(-149.24 -248.51)"/><path class="cls-3" d="M247.69,287.4s17-3,26.8.4c6.7,2.4,4.6,10.2.5,16.3" transform="translate(-149.24 -248.51)"/><path d="M247.69,287.4l.5-.12c.33-.08.82-.19,1.44-.31s1.37-.28,2.24-.42,1.85-.3,2.93-.43,2.25-.27,3.49-.35,2.56-.18,3.92-.19,2.78,0,4.21.08a40.59,40.59,0,0,1,4.34.49l1.09.22c.36.08.72.15,1.07.25s.72.19,1.06.31l.53.17.13,0,.07,0,.09,0,.24.1a4.49,4.49,0,0,1,.51.23c.18.09.37.17.53.27l.48.31.46.34a6.25,6.25,0,0,1,1.47,1.74,6.39,6.39,0,0,1,.73,2.05,8.72,8.72,0,0,1,.1,2,10.7,10.7,0,0,1-.27,1.85,17.38,17.38,0,0,1-.49,1.67,20.32,20.32,0,0,1-1.22,2.74c-.42.78-.83,1.43-1.18,2s-.65.93-.85,1.2l-.32.41.25-.45c.17-.3.4-.74.68-1.29a25.5,25.5,0,0,0,1.88-4.81,12.92,12.92,0,0,0,.34-1.6,10.79,10.79,0,0,0,.15-1.72,6.47,6.47,0,0,0-.84-3.43,4.89,4.89,0,0,0-1.23-1.34l-.38-.27c-.13-.09-.28-.16-.41-.24a4.11,4.11,0,0,0-.42-.21,2.35,2.35,0,0,0-.22-.1l-.24-.1-.25-.09,0,0h0l-.07,0-.12,0-.49-.16c-.33-.1-.67-.18-1-.27s-.68-.16-1-.24-.69-.13-1-.2a40,40,0,0,0-4.19-.53c-1.4-.1-2.78-.17-4.12-.19s-2.64,0-3.87,0-2.39.07-3.47.12l-2.94.16-2.27.17-1.46.12Z" transform="translate(-149.24 -248.51)"/><path class="cls-6" d="M256.42,291.66c0,4,7.65,8.18,13.69,8.18s8.38-3.81,8.38-7.79-5.2-6.1-11.24-6.1S256.42,287.69,256.42,291.66Z" transform="translate(-149.24 -248.51)"/><path d="M270.11,300.41a19.68,19.68,0,0,1-9.4-2.68c-3.09-1.79-4.87-4-4.87-6.07,0-3.94,4.27-6.29,11.41-6.29,5.88,0,11.81,2.07,11.81,6.68C279.06,296.09,276.71,300.41,270.11,300.41Zm-2.86-13.89c-6.42,0-10.26,1.92-10.26,5.14,0,3.48,7.11,7.6,13.12,7.6,7.24,0,7.8-5.52,7.8-7.21C277.91,288.25,272.39,286.52,267.25,286.52Z" transform="translate(-149.24 -248.51)"/><path d="M278.2,290.39s.71,3.62-3.37,4.14-8.48-4.4-10-2.52,1.36,4.79,5.63,2.46c3.24,1.49,6.54,1.36,7.45-.91S278.2,290.39,278.2,290.39Z" transform="translate(-149.24 -248.51)"/><g class="cls-7"><path d="M278.07,292.8s-.63,3-5.6,1.69-5.86-4-10.51-2.7-5.54-.69-5.54-.69.19,5.79,8.81,7.86S278.38,298.27,278.07,292.8Z" transform="translate(-149.24 -248.51)"/></g><g class="cls-4"><path class="cls-1" d="M259,288.87c0,.35,4.19-1.23,9.48-.92,5.79.34,8.38,2.57,8.41,2.22s-2-2.85-8.35-3.23S259,288.53,259,288.87Z" transform="translate(-149.24 -248.51)"/></g><path class="cls-2" d="M239.39,277.5c.83-6.92,8.1-17.7,12.9,0,.8,4.8-2.4,7.8-4.6,8S238.79,282.5,239.39,277.5Z" transform="translate(-149.24 -248.51)"/><path d="M247.48,286.08c-1.79,0-5-1.44-6.91-3.6a6.34,6.34,0,0,1-1.75-5.05c.5-4.24,3.43-10.15,7.05-10.15,2.81,0,5.16,3.39,7,10.07v0a8.12,8.12,0,0,1-1.44,6.39,5.63,5.63,0,0,1-3.67,2.28Zm-1.61-17.65c-2.67,0-5.42,5-5.91,9.14a5.19,5.19,0,0,0,1.47,4.15c1.92,2.16,5,3.32,6.21,3.21a4.44,4.44,0,0,0,2.86-1.84,7,7,0,0,0,1.23-5.47C250.12,271.7,248,268.43,245.87,268.43Z" transform="translate(-149.24 -248.51)"/><path d="M239.48,278.89l.53-.42c.34-.26.84-.61,1.44-1s1.33-.86,2.11-1.32l1.22-.69c.42-.23.87-.44,1.3-.66l.66-.31.17-.08.08,0,0,0,.05,0h0l.18-.06.29-.05a1.91,1.91,0,0,1,.94.14,2.94,2.94,0,0,1,.72.41,5.52,5.52,0,0,1,1,1,8.88,8.88,0,0,1,.67,1,10.78,10.78,0,0,1,.76,1.61c.15.41.22.64.22.64l-.42-.53c-.26-.33-.63-.8-1.1-1.34-.24-.27-.49-.55-.78-.82a5,5,0,0,0-.92-.75,1.53,1.53,0,0,0-.95-.29h-.06l-.16.06-.28.14-.64.32-1.28.61L244,277c-.82.38-1.59.72-2.27,1s-1.24.49-1.64.63S239.48,278.89,239.48,278.89Z" transform="translate(-149.24 -248.51)"/><path class="cls-2" d="M253.46,278.62c.72-6,7-15.32,11.17,0,.69,4.16-2.08,6.75-4,6.93S252.94,283,253.46,278.62Z" transform="translate(-149.24 -248.51)"/><path d="M260.47,286.13a9.75,9.75,0,0,1-6-3.15,5.62,5.62,0,0,1-1.54-4.43c.45-3.69,3-8.84,6.18-8.84,2.48,0,4.53,3,6.11,8.76v.06a7.14,7.14,0,0,1-1.26,5.59,5,5,0,0,1-3.23,2Zm-1.4-15.27c-2.27,0-4.61,4.28-5,7.83a4.46,4.46,0,0,0,1.26,3.53c1.64,1.85,4.26,2.84,5.3,2.75a3.84,3.84,0,0,0,2.43-1.56,6,6,0,0,0,1.05-4.67C262.2,271.88,260.14,270.86,259.07,270.86Z" transform="translate(-149.24 -248.51)"/><path d="M253.55,279.83s.16-.15.45-.38.71-.54,1.23-.91,1.14-.75,1.82-1.15l1.05-.61,1.12-.57.58-.27.14-.07.07,0h0l.05,0h0l.16-.05.27-.05a1.82,1.82,0,0,1,.85.13,2.75,2.75,0,0,1,.63.37,4.76,4.76,0,0,1,.86.89,7.27,7.27,0,0,1,.57.89,8.29,8.29,0,0,1,.64,1.42c.12.35.17.56.17.56l-.37-.45c-.24-.28-.57-.69-1-1.14a8.85,8.85,0,0,0-.68-.7,4.34,4.34,0,0,0-.79-.64,1.29,1.29,0,0,0-.77-.22h0l-.14.05-.23.12-.55.28c-.38.17-.75.35-1.11.53l-1.09.51c-.72.32-1.39.6-2,.84s-1.08.4-1.43.52Z" transform="translate(-149.24 -248.51)"/><path class="cls-2" d="M229.33,273.26s-1.77-9.42-15-9.53-18.63,10.1-10.57,19.13,15.33-6.07,21.85-4.69" transform="translate(-149.24 -248.51)"/><path d="M229.33,273.26a5.25,5.25,0,0,0-.26-.79,11.42,11.42,0,0,0-1.07-2.05,14.11,14.11,0,0,0-1-1.31,16,16,0,0,0-1.37-1.35,12.3,12.3,0,0,0-1.79-1.25c-.32-.2-.68-.37-1-.56s-.74-.34-1.14-.48-.8-.27-1.22-.41-.85-.23-1.3-.31a20.23,20.23,0,0,0-2.78-.39c-.48,0-1-.06-1.47-.06h-.74c-.26,0-.52,0-.77,0a21.66,21.66,0,0,0-3.06.33,15.09,15.09,0,0,0-5.86,2.36,9.81,9.81,0,0,0-2.27,2.23,8.47,8.47,0,0,0-1.34,2.87,8.64,8.64,0,0,0-.2,3.17,10.88,10.88,0,0,0,.87,3.09,15.32,15.32,0,0,0,1.6,2.78c.32.43.65.85,1,1.25.16.18.36.42.53.58s.36.36.55.53a7.27,7.27,0,0,0,2.51,1.48,5.7,5.7,0,0,0,2.75.13,10.45,10.45,0,0,0,2.58-.93,21.86,21.86,0,0,0,2.27-1.34c1.42-1,2.7-1.89,3.87-2.67a16.85,16.85,0,0,1,3.23-1.74,5.78,5.78,0,0,1,2.32-.39,2,2,0,0,1,.36,0l.25,0,.21.05-.21,0-.26,0h-.35a5.63,5.63,0,0,0-2.22.57,16.84,16.84,0,0,0-3,1.9c-1.12.83-2.32,1.86-3.73,2.88a21.08,21.08,0,0,1-2.29,1.5,10.06,10.06,0,0,1-2.79,1.12,6.56,6.56,0,0,1-3.26,0,7.94,7.94,0,0,1-3-1.63,16.22,16.22,0,0,1-2.32-2.51,15.8,15.8,0,0,1-1.8-3,12,12,0,0,1-1-3.46,9.67,9.67,0,0,1,.2-3.67,9.53,9.53,0,0,1,1.57-3.33,11.29,11.29,0,0,1,2.6-2.52,13.5,13.5,0,0,1,3.13-1.62,17.9,17.9,0,0,1,3.29-.85,22.67,22.67,0,0,1,3.25-.29h.78c.27,0,.53,0,.79,0,.52,0,1,.07,1.53.12a18.42,18.42,0,0,1,5.51,1.41,13.29,13.29,0,0,1,4,2.63,12.79,12.79,0,0,1,1.33,1.5,13.34,13.34,0,0,1,.91,1.42,10.47,10.47,0,0,1,.9,2.17A4.75,4.75,0,0,1,229.33,273.26Z" transform="translate(-149.24 -248.51)"/><path class="cls-3" d="M228.55,274.26s-14.88-10.88-20.65-.46c-3.08,5.57,2.85,11.38,7.79,7.17,5.43-4.62,9.86-2.82,9.86-2.82Z" transform="translate(-149.24 -248.51)"/><path d="M228.55,274.26c-.87-.57-1.77-1.07-2.68-1.56s-1.85-.92-2.8-1.32a30.11,30.11,0,0,0-2.89-1,19.1,19.1,0,0,0-3-.61,11.5,11.5,0,0,0-3,0,7.8,7.8,0,0,0-2.79.93,8.08,8.08,0,0,0-2.19,1.93c-.14.2-.31.39-.44.6l-.39.63-.09.14-.08.18-.18.34a6.61,6.61,0,0,0-.24.67,5.68,5.68,0,0,0-.18,2.83,5.24,5.24,0,0,0,1.28,2.51,4.54,4.54,0,0,0,2.42,1.37,4.44,4.44,0,0,0,2.77-.36,6.33,6.33,0,0,0,1.23-.77c.42-.33.81-.64,1.24-.95a15.26,15.26,0,0,1,2.81-1.52,10.92,10.92,0,0,1,3.1-.71c.26,0,.53,0,.79,0s.53,0,.8.05a6.68,6.68,0,0,1,1.56.37l-.2.05,1.56-1.9Zm0,0-1.42,2-1.44,2-.07.1-.13,0a6,6,0,0,0-1.47-.26c-.25,0-.51,0-.76,0s-.5,0-.75.06a10.4,10.4,0,0,0-2.9.79,14.37,14.37,0,0,0-2.6,1.52c-.4.3-.8.65-1.2,1a6.62,6.62,0,0,1-1.37.9,5.52,5.52,0,0,1-1.6.5,4.74,4.74,0,0,1-1.68,0,5.28,5.28,0,0,1-2.91-1.61,6,6,0,0,1-1.52-2.94,5.47,5.47,0,0,1-.11-1.66,6.37,6.37,0,0,1,.32-1.63,7.54,7.54,0,0,1,.3-.79l.17-.35.09-.17,0,0h0l0,0,0,0,.06-.09.42-.68c.15-.23.33-.43.49-.65A8.7,8.7,0,0,1,211,270a8.86,8.86,0,0,1,3.08-1,12.15,12.15,0,0,1,3.19.07,16.78,16.78,0,0,1,3.07.75,24.36,24.36,0,0,1,2.89,1.19A30.12,30.12,0,0,1,226,272.5,26.52,26.52,0,0,1,228.55,274.26Z" transform="translate(-149.24 -248.51)"/><g class="cls-4"><path class="cls-1" d="M227.8,271.46c-.09.32-3.26-3.44-8.87-4.85s-11.52.05-11.44-.28,5.17-2.78,11.95-1.07C225.05,266.68,227.88,271.13,227.8,271.46Z" transform="translate(-149.24 -248.51)"/></g><g class="cls-4"><path d="M226,349s4.45,10.23,12.23,15.56c-8.9,8.67-10.9,17.12-10.9,17.12s-20,6-34.45,1.11c20,9.34,37.08,6,43.77,3.57,0-14.46,13.36-25.8,13.36-25.8S239.29,359.49,226,349Z" transform="translate(-149.24 -248.51)"/></g><g class="cls-4"><path d="M251.29,379.05s68.25-31.12,60.91,10.67c5.56-14.45,5.34-21.11,5.34-21.11S293.31,355.26,251.29,379.05Z" transform="translate(-149.24 -248.51)"/></g><g class="cls-4"><path d="M390.9,434.62s6.89-19.78,11.11-3.11c.89-13.34-10-29.34-10-29.34S384.89,414.62,390.9,434.62Z" transform="translate(-149.24 -248.51)"/></g><g class="cls-4"><path d="M409.12,397.72s-8.22-2.89-10,6.45,3.33,16.45,9.78,22.9,3.11,9.55,12.45,8.67c-7.78,1.33-9.78-.67-13.12-4.23s-6.44-3.55-6.44-3.55A49.64,49.64,0,0,0,392,402.17c4.44-9.56,7.56-10,12.22-9.56A44.59,44.59,0,0,1,409.12,397.72Z" transform="translate(-149.24 -248.51)"/></g><g class="cls-4"><path d="M180.81,452.2S224.47,511.5,304,517s93.3-54.69,93.3-54.69-15.63,67.56-80.89,66.18S206.55,488.05,180.81,452.2Z" transform="translate(-149.24 -248.51)"/></g><g class="cls-4"><path d="M291.46,346.24s-32.7,20.41-31.87,27.71c-5.83,2.29-7.08,5-11.46,7.7s-11.53,4.75-11.53,4.75a35.59,35.59,0,0,1,14.24-25.58c10.21,1,20-.39,35.92-14.88C289.8,346.24,291.46,346.24,291.46,346.24Z" transform="translate(-149.24 -248.51)"/></g><g class="cls-4"><path d="M253.46,284s-4.71,3.92-8.79,1.17c3.45.71,6.91-.15,8.24-5.65a10.58,10.58,0,0,0,7.15,6.05A7.92,7.92,0,0,1,253.46,284Z" transform="translate(-149.24 -248.51)"/></g><g class="cls-4"><path d="M258.1,271s-2.67,2-3,7.22,5.5,6.91,5.5,6.91-5.42.08-6.76-4.71,4.09-9.74,4.09-9.74" transform="translate(-149.24 -248.51)"/></g><g class="cls-4"><path d="M244.19,268.84s-3.45,4.55-3.45,8.79,6.67,7.86,6.67,7.86-6.67-1.26-7.77-6.36S244.19,268.84,244.19,268.84Z" transform="translate(-149.24 -248.51)"/></g><g class="cls-4"><path d="M214.69,283.63a14.25,14.25,0,0,1-5.25,2c-1.41,2.53-3.59,7.55-5.38,16.5,4.95-15.47,11.78-18.77,11.78-18.77C215.43,283.48,215.05,283.57,214.69,283.63Z" transform="translate(-149.24 -248.51)"/></g><g class="cls-8"><path d="M237.31,330.4s24.76-21,37.28,10.77C272.55,341.61,251.58,352.09,237.31,330.4Z" transform="translate(-149.24 -248.51)"/></g><g class="cls-4"><path d="M206.42,323.89s-14.35-15.09-35.73,18.69C185.86,312.71,204,304.44,204,304.44S203.07,311.41,206.42,323.89Z" transform="translate(-149.24 -248.51)"/></g><g class="cls-4"><path d="M279.3,366.46s25.22-7.52,39.61-.26c8.53,2.17,20.76,7.64,20.76,7.64l-21.91-4.45S314.83,360.09,279.3,366.46Z" transform="translate(-149.24 -248.51)"/></g><path class="cls-9" d="M242.77,337s10.95-7.23,17.57-.1c5.89-1.86,11.37.83,13.54,7.44C264.78,348.69,254.24,351.9,242.77,337Z" transform="translate(-149.24 -248.51)"/><path d="M261,348.55c-6.75,0-12.86-3.66-18.66-11.19l-.38-.49.52-.34c.21-.13,5.12-3.34,10.47-3.34a10.25,10.25,0,0,1,7.59,3.07,12.42,12.42,0,0,1,3.42-.5c4.84,0,8.77,3.14,10.5,8.41l.15.48-.45.22C270.31,346.69,265.77,348.55,261,348.55Zm-17.35-11.38c5.45,6.88,11.13,10.23,17.35,10.23,4.38,0,8.6-1.65,12.2-3.35-1.65-4.55-5-7.14-9.24-7.14a11.25,11.25,0,0,0-3.42.55l-.35.11-.24-.27a9.18,9.18,0,0,0-7-3A20.08,20.08,0,0,0,243.62,337.17Z" transform="translate(-149.24 -248.51)"/><path d="M245.84,335.62a9.26,9.26,0,0,1,.92-.62c.31-.17.68-.38,1.13-.59a12.23,12.23,0,0,1,1.55-.61c.29-.1.61-.18.93-.27a10,10,0,0,1,1-.2,10.18,10.18,0,0,1,2.24-.14l.59,0,.6.09c.2,0,.4.07.6.11a5.87,5.87,0,0,1,.6.16,10.1,10.1,0,0,1,2.31,1,11.46,11.46,0,0,1,1.95,1.57c.14.15.28.3.43.44s.25.32.38.47l.37.47.33.48c.11.17.21.33.32.48s.19.33.28.49c.17.33.36.64.5,1s.28.63.42.93.22.61.33.9a7.23,7.23,0,0,1,.28.82c.08.27.15.52.21.76s.13.45.18.66l.12.57.2,1.09s-.16-.37-.42-1l-.22-.54-.27-.62c-.2-.44-.41-.94-.69-1.47-.13-.26-.26-.54-.41-.82l-.49-.85a9,9,0,0,0-.55-.87c-.1-.15-.19-.3-.29-.44l-.33-.43-.33-.44-.36-.41-.37-.42-.4-.39a11.36,11.36,0,0,0-1.78-1.39l-.49-.28-.24-.13-.26-.12-.51-.22-.53-.19a10.62,10.62,0,0,0-2.13-.44,12,12,0,0,0-2.07,0,14.84,14.84,0,0,0-1.87.25,18.74,18.74,0,0,0-2.75.78c-.32.12-.58.22-.75.3Z" transform="translate(-149.24 -248.51)"/><path class="cls-1" d="M286.6,314.61c-15.54,6-38.94,2-47.48.24a10.32,10.32,0,0,0-.7,6.39c1.06,4.37,32.63,11.11,47.05,1.42C287.4,321.42,287.06,317.32,286.6,314.61Z" transform="translate(-149.24 -248.51)"/><path d="M264.49,328.2h0c-12.36,0-25.8-3.45-26.62-6.82a11,11,0,0,1,.73-6.76l.19-.43.46.1a136.34,136.34,0,0,0,26.59,2.95c8.23,0,15.15-1.07,20.56-3.16l.65-.25.12.69c.55,3.18.76,7.25-1.38,8.62C279.57,327.32,270.77,328.2,264.49,328.2Zm-25-12.69a9.5,9.5,0,0,0-.51,5.59c.22.88,2.83,2.44,8.05,3.8a72.35,72.35,0,0,0,17.46,2.15h0c6.12,0,14.68-.85,20.66-4.87,1.17-.75,1.52-3.2,1-6.78-5.44,2-12.27,3-20.31,3A136.83,136.83,0,0,1,239.48,315.51Z" transform="translate(-149.24 -248.51)"/><path class="cls-1" d="M249.79,344s-1.34-3.41,2.07-2.48,11.68,4.34,21.61.1c2.69-1.44,2.27,2.59,2.27,2.59S264,355.62,249.79,344Z" transform="translate(-149.24 -248.51)"/><path d="M263,349.82c-4.64,0-9.19-1.8-13.52-5.33l-.12-.1-.05-.14a3.32,3.32,0,0,1,0-2.71,1.76,1.76,0,0,1,1.55-.71A4.58,4.58,0,0,1,252,341c.38.1.81.23,1.31.38a33.33,33.33,0,0,0,10.09,1.78,24.93,24.93,0,0,0,9.81-2,2.7,2.7,0,0,1,1.27-.37,1.59,1.59,0,0,1,1.18.51c.83.93.66,2.81.64,3l0,.21-.15.14A20.37,20.37,0,0,1,263,349.82Zm-12.67-6.12c4.08,3.3,8.34,5,12.67,5A19.57,19.57,0,0,0,275.18,344a3.24,3.24,0,0,0-.37-1.92.39.39,0,0,0-.32-.13,1.69,1.69,0,0,0-.75.24l-.05,0a26,26,0,0,1-10.28,2.12A34.45,34.45,0,0,1,253,342.49c-.48-.15-.9-.28-1.27-.37a3.23,3.23,0,0,0-.88-.15c-.45,0-.57.17-.6.22A2.14,2.14,0,0,0,250.28,343.7Z" transform="translate(-149.24 -248.51)"/><g class="cls-4"><path class="cls-1" d="M330.09,363.53c-.2.44-6.76-6.26-16.85-10.82s-19.91-5.26-19.71-5.71,10.62-.45,20.71,4.11S330.29,363.08,330.09,363.53Z" transform="translate(-149.24 -248.51)"/></g><g class="cls-4"><path d="M317.54,368.61s-1.47,17.9-7.09,29.9c-9.64,20.56-16.77,34.42-59.24,50,24.46-4,39.86-12.41,49.69-22.06-1.34,12.83,3.42,21.31,3.42,21.31.32-18.81,4.28-25.84,4.28-25.84a65.36,65.36,0,0,0,1.1-6.54c9.05-14.87,8.9-29.92,10.5-35.21,2.94-9.66,15-6.82,16.33-6.48Z" transform="translate(-149.24 -248.51)"/></g><g class="cls-4"><path d="M336.53,373.68l.12,0Z" transform="translate(-149.24 -248.51)"/></g><g class="cls-10"><path class="cls-1" d="M256.35,378.58c.16,1.19-5.87,13.93-23.75,16.4s-40.86-6.28-41-7.47,21.83,6,39.71,3.55S256.18,377.38,256.35,378.58Z" transform="translate(-149.24 -248.51)"/></g><g class="cls-10"><path class="cls-1" d="M413.71,350.52c5.21,14.71.82,28.76,0,29s3.72-11-2.24-27c-4.29-11.54-10.5-13.49-9.68-13.77S409.59,338.91,413.71,350.52Z" transform="translate(-149.24 -248.51)"/></g><path d="M377.25,369.28l.31-.11.9-.3c.77-.25,1.88-.57,3.23-.9s2.94-.68,4.65-1c.86-.15,1.75-.28,2.66-.39l1.37-.16,1.38-.13c.93-.07,1.86-.13,2.78-.15h1.36c.45,0,.89,0,1.33,0,.87,0,1.72.08,2.52.16s1.55.19,2.24.32l1,.2c.31.07.61.14.88.22s.54.14.77.22l.64.22.27.1.24.1.36.16.31.13-.33-.06c-.21,0-.52-.11-.92-.16l-.66-.1-.78-.09c-.27,0-.57-.06-.88-.08s-.64-.06-1-.07c-.68,0-1.42-.06-2.2-.07s-1.61,0-2.47,0-1.73.06-2.63.11l-2.72.18c-.91.07-1.82.16-2.72.24l-2.63.27-4.68.54-3.32.39Z" transform="translate(-149.24 -248.51)"/><g class="cls-4"><path d="M395.13,345.14a19.12,19.12,0,0,0,5.21,13.45c5.78,6.22,4.48,8.83,4.48,8.83s-5.49-1.05-7.37-.67c.57-7.72-.59-10.91-1.6-14.09A24.41,24.41,0,0,1,395.13,345.14Z" transform="translate(-149.24 -248.51)"/></g><path d="M409.12,397.72s.38.25,1,.72c.31.24.69.53,1.11.87s.9.73,1.4,1.17c1,.87,2.18,1.92,3.37,3.09q.45.44.9.9l.9.94c.61.64,1.2,1.3,1.8,2s1.17,1.35,1.72,2l.81,1c.13.17.26.34.4.5l.37.51.73,1,.34.49.33.49c.42.64.82,1.24,1.17,1.82s.64,1.11.91,1.59.46.91.63,1.26.3.63.39.82l.14.29-.21-.25c-.12-.17-.32-.41-.55-.72s-.51-.69-.85-1.11-.72-.9-1.12-1.42c-.2-.27-.42-.53-.65-.81l-.7-.85c-.12-.15-.23-.3-.36-.45l-.38-.45-.78-.94c-.52-.64-1.1-1.27-1.65-1.94s-1.15-1.32-1.72-2l-1.75-2-1.71-1.9-3-3.36-2.15-2.41-.6-.67Z" transform="translate(-149.24 -248.51)"/><g class="cls-4"><path d="M436.79,403.15s-4.77,5.35-6.65,9.12a30.61,30.61,0,0,1-3.33,5.49l-2.33-3.57s4.65-2.5,6.38-4.67S436.79,403.15,436.79,403.15Z" transform="translate(-149.24 -248.51)"/></g><g class="cls-10"><path class="cls-1" d="M448.12,404.32c0,.39-1.09-.81-4.3-1.1-4.25-.37-7.37,1.49-7.37,1.1s3-2.34,7.62-2.34C447.29,402,448.12,403.92,448.12,404.32Z" transform="translate(-149.24 -248.51)"/></g><g class="cls-10"><path class="cls-1" d="M392,370.26c.38.62-24.85,2.69-46.65,15.92s-31.91,32.61-32.29,32,7.3-21.27,29.1-34.5S391.65,369.63,392,370.26Z" transform="translate(-149.24 -248.51)"/></g><g class="cls-10"><path d="M286.44,318.86s.52-2.23-3.63-.74c-5.16,1.85-15.48,4.09-31,.68-12.93-2.84-12.71-2.83-13,2.74a6.82,6.82,0,0,1,.3-6.69c.24-.27,20.46,4.33,33.52,2.52S287,311.8,286.44,318.86Z" transform="translate(-149.24 -248.51)"/></g><g class="cls-4"><path d="M265.33,337s-2.83.31-1.82,1.82a6.37,6.37,0,0,1,.64,4.66c-.59-3-3.45-6.55-3.45-6.55S263.94,336,265.33,337Z" transform="translate(-149.24 -248.51)"/></g><g class="cls-4"><path d="M248.88,334.73s-4.77,2.18.91,6.53c-.43.54-.3,2.35-.3,2.35s-4.54-3.68-6.41-6.7A16.77,16.77,0,0,1,248.88,334.73Z" transform="translate(-149.24 -248.51)"/></g><g class="cls-4"><path d="M249.91,343.8a25.12,25.12,0,0,0,25.56.12C268.46,349.54,260.55,352.32,249.91,343.8Z" transform="translate(-149.24 -248.51)"/></g><g class="cls-4"><path d="M259,287s-5.26,3.11-4.38,7.59,15.38,13.24,23.36,1.94c-3.8,3.41-8.16,4.14-13,2.57S252.73,292.33,259,287Z" transform="translate(-149.24 -248.51)"/></g></svg>